<?xml version="1.0" encoding="utf-8"?>
<!-- Generator: Adobe Illustrator 27.0.0, SVG Export Plug-In . SVG Version: 6.00 Build 0)  -->
<svg version="1.1" id="Layer_1" xmlns="http://www.w3.org/2000/svg" xmlns:xlink="http://www.w3.org/1999/xlink" x="0px" y="0px"
	 viewBox="0 0 22.9 22.9" style="enable-background:new 0 0 22.9 22.9;" xml:space="preserve">
<style type="text/css">
	.st0{fill-rule:evenodd;clip-rule:evenodd;fill:#7D464B;}
	.st1{fill-rule:evenodd;clip-rule:evenodd;fill:#231F20;}
	.st2{fill-rule:evenodd;clip-rule:evenodd;fill:#F8ABAD;}
	.st3{fill-rule:evenodd;clip-rule:evenodd;fill:#8C1700;}
	.st4{fill-rule:evenodd;clip-rule:evenodd;fill:#F05B72;}
	.st5{fill-rule:evenodd;clip-rule:evenodd;fill:#D1D3D4;}
	.st6{fill-rule:evenodd;clip-rule:evenodd;fill:#939598;}
	.st7{fill-rule:evenodd;clip-rule:evenodd;fill:#A25641;}
	.st8{fill-rule:evenodd;clip-rule:evenodd;fill:#B26B57;}
	.st9{fill-rule:evenodd;clip-rule:evenodd;fill:#FFFFFF;}
	.st10{fill-rule:evenodd;clip-rule:evenodd;fill:#62212A;}
	.st11{fill-rule:evenodd;clip-rule:evenodd;fill:#A58A80;}
	.st12{fill-rule:evenodd;clip-rule:evenodd;fill:#E9D6CF;}
	.st13{fill-rule:evenodd;clip-rule:evenodd;fill:#F37F94;}
	.st14{fill-rule:evenodd;clip-rule:evenodd;fill:#FEC157;}
	.st15{fill-rule:evenodd;clip-rule:evenodd;fill:#7E576A;}
	.st16{fill-rule:evenodd;clip-rule:evenodd;fill:#F05B74;}
	.st17{fill-rule:evenodd;clip-rule:evenodd;fill:#F7ACB7;}
	.st18{fill-rule:evenodd;clip-rule:evenodd;fill:#F48580;}
	.st19{fill-rule:evenodd;clip-rule:evenodd;fill:#58595B;}
	.st20{fill-rule:evenodd;clip-rule:evenodd;fill:#404041;}
	.st21{fill-rule:evenodd;clip-rule:evenodd;fill:#E9D0C7;}
	.st22{fill-rule:evenodd;clip-rule:evenodd;fill:#C3AA90;}
	.st23{fill-rule:evenodd;clip-rule:evenodd;fill:#F4F3D3;}
	.st24{fill-rule:evenodd;clip-rule:evenodd;fill:#E6E7E8;}
	.st25{fill-rule:evenodd;clip-rule:evenodd;fill:#BC8F8E;}
	.st26{fill-rule:evenodd;clip-rule:evenodd;fill:#990000;}
	.st27{fill-rule:evenodd;clip-rule:evenodd;fill:#F1E5DF;}
	.st28{fill-rule:evenodd;clip-rule:evenodd;fill:#F45541;}
	.st29{fill-rule:evenodd;clip-rule:evenodd;fill:#00AEEF;}
	.st30{fill-rule:evenodd;clip-rule:evenodd;fill:#808285;}
</style>
<polygon class="st0" points="0,0 22.9,0 22.9,22.9 0,22.9 0,0 "/>
<path class="st1" d="M6.4,4.4h10.1c1.6,0,2.9,1.3,2.9,2.9l0,0c0,0.9-0.4,1.7-1,2.2v2.9h-0.7V9.9c-0.4,0.2-0.8,0.3-1.2,0.3H6.4
	c-0.4,0-0.8-0.1-1.2-0.2v2.5H4.6V9.5C3.9,9,3.5,8.2,3.5,7.3l0,0C3.5,5.7,4.8,4.4,6.4,4.4L6.4,4.4z"/>
<path class="st2" d="M6.8,21.7c-0.4,0.3-0.8,0.7-1.1,1.1h11.6c-0.4-0.5-0.8-0.9-1.2-1.2v-8H6.8V21.7L6.8,21.7z"/>
<path class="st2" d="M11.4,1.1L11.4,1.1c3.4,0,6.2,2.8,6.2,6.2V12c0,3.4-2.8,6.2-6.2,6.2l0,0c-3.4,0-6.2-2.8-6.2-6.2V7.4
	C5.2,3.9,8,1.1,11.4,1.1L11.4,1.1z"/>
<polygon class="st3" points="6,7.2 11,7.2 11,9.7 6,9.7 6,7.2 "/>
<polygon class="st3" points="11.9,7.2 16.9,7.2 16.9,9.7 11.9,9.7 11.9,7.2 "/>
<path class="st1" d="M14.7,13.1V18c0,1.8-1.4,3.2-3.2,3.2h-0.1c-1.8,0-3.2-1.4-3.2-3.2v-4.9c0.4,1.4,1.7,2.5,3.2,2.5
	C13,15.6,14.3,14.6,14.7,13.1L14.7,13.1z"/>
<path class="st4" d="M8.2,13.1c0.4,1.4,1.7,2.5,3.2,2.5c1.6,0,2.9-1.1,3.3-2.5h-0.8c-0.4,1-1.3,1.7-2.5,1.7c-1.1,0-2.1-0.7-2.4-1.7
	H8.2L8.2,13.1z"/>
<polygon class="st5" points="0,0 22.9,0 22.9,22.9 0,22.9 0,0 "/>
<polygon class="st1" points="13.5,13.6 9.4,13.6 9.4,21.4 13.5,21.4 13.5,13.6 "/>
<path class="st6" d="M20.4,22.9c-2-2.8-5.3-4.6-8.9-4.6l0,0c-3.6,0-6.9,1.8-8.9,4.6H20.4L20.4,22.9z"/>
<path class="st7" d="M11.4,4.5L11.4,4.5c-2.5,0-4.5,2-4.5,4.5v3.6c0,2.5,2,4.5,4.5,4.5l0,0c2.5,0,4.5-2,4.5-4.5V9
	C16,6.5,13.9,4.5,11.4,4.5L11.4,4.5L11.4,4.5z"/>
<path class="st8" d="M11.4,17.2L11.4,17.2V4.5c2.5,0,4.5,2,4.5,4.5v3.6C16,15.1,13.9,17.2,11.4,17.2L11.4,17.2z"/>
<path class="st9" d="M8.9,9.2c0.5,0,0.8,0.4,0.8,0.8s-0.4,0.8-0.8,0.8C8.4,10.9,8,10.5,8,10S8.4,9.2,8.9,9.2L8.9,9.2z"/>
<path class="st9" d="M14,9.2c0.5,0,0.8,0.4,0.8,0.8s-0.4,0.8-0.8,0.8c-0.5,0-0.8-0.4-0.8-0.8S13.5,9.2,14,9.2L14,9.2z"/>
<path class="st10" d="M14.4,16.4v4.2h-6v-4.2c-1.1-0.1-1.9-1-1.9-2.2l0,0c0-1.2,1-2.2,2.2-2.2h5.5c1.2,0,2.2,1,2.2,2.2l0,0
	C16.3,15.4,15.5,16.3,14.4,16.4L14.4,16.4z"/>
<path class="st4" d="M9.4,13.8h4c0.3,0,0.5,0.2,0.5,0.5l0,0c0,0.3-0.2,0.5-0.5,0.5h-4c-0.3,0-0.5-0.2-0.5-0.5l0,0
	C9,14,9.2,13.8,9.4,13.8L9.4,13.8z"/>
<path class="st10" d="M12.9,20.6L12.9,20.6L12.9,20.6l-0.8-0.8l-0.8,0.8l0.8,0.8L12.9,20.6L12.9,20.6z M8.4,20.6l0.8-0.8l0.8,0.8
	l0,0l0.8-0.8l0.8,0.8v0v0l0,0l0,0l-0.8,0.8l-0.8-0.8l0,0l-0.8,0.8L8.4,20.6L8.4,20.6z M12.9,20.6l0.8-0.8l0.8,0.8l-0.8,0.8
	L12.9,20.6L12.9,20.6z"/>
<polygon class="st10" points="9.7,1.5 13.2,1.5 12.7,6.1 10.2,6.1 9.7,1.5 "/>
<polygon class="st11" points="0,0 22.9,0 22.9,22.9 0,22.9 0,0 "/>
<path class="st12" d="M11.4,3.1L11.4,3.1c3.2,0,5.8,2.6,5.8,5.8v4.5c0,0.7-0.6,1.4-1.4,1.4H8c-1.3,0-2.4-1.1-2.4-2.4V8.9
	C5.6,5.7,8.2,3.1,11.4,3.1L11.4,3.1z"/>
<path class="st12" d="M8,9.3h6.9c1.7,0,3,1.4,3,3l0,0c0,1.7-1.4,3-3,3H8c-1.7,0-3-1.4-3-3l0,0C5,10.7,6.3,9.3,8,9.3L8,9.3z"/>
<path class="st12" d="M7.2,10.9h8.4v8.7c0,0.8-0.6,1.4-1.4,1.4H8.6c-0.8,0-1.4-0.6-1.4-1.4V10.9L7.2,10.9z"/>
<path class="st9" d="M8.7,9.8c1.3,0,2.3,1,2.3,2.3c0,1.3-1,2.3-2.3,2.3c-1.3,0-2.3-1-2.3-2.3C6.4,10.8,7.4,9.8,8.7,9.8L8.7,9.8z"/>
<path class="st9" d="M14.2,9.8c1.3,0,2.3,1,2.3,2.3c0,1.3-1,2.3-2.3,2.3c-1.3,0-2.3-1-2.3-2.3C11.9,10.8,13,9.8,14.2,9.8L14.2,9.8z"
	/>
<polygon class="st9" points="8.7,9.8 14.2,9.8 14.2,10.4 8.7,10.4 8.7,9.8 "/>
<path class="st1" d="M9.3,1.3h4.4c2,0,3.6,1.6,3.6,3.6v3.6H5.6V4.9C5.6,2.9,7.2,1.3,9.3,1.3L9.3,1.3z"/>
<path class="st1" d="M3,8h16.9c0.3,0,0.5,0.2,0.5,0.5l0,0c0,0.3-0.2,0.5-0.5,0.5H3C2.7,9,2.5,8.8,2.5,8.5l0,0C2.5,8.2,2.7,8,3,8L3,8
	z"/>
<path class="st1" d="M8.7,10.3c1,0,1.8,0.8,1.8,1.8s-0.8,1.8-1.8,1.8c-1,0-1.8-0.8-1.8-1.8S7.7,10.3,8.7,10.3L8.7,10.3z"/>
<path class="st1" d="M14.2,10.3c1,0,1.8,0.8,1.8,1.8s-0.8,1.8-1.8,1.8c-1,0-1.8-0.8-1.8-1.8S13.2,10.3,14.2,10.3L14.2,10.3z"/>
<path class="st13" d="M8.3,17c0,1.7,1.4,3.2,3.1,3.2c1.7,0,3.2-1.4,3.2-3.1l0-0.4l-0.7,0l0,0.4c0,1.3-1.1,2.4-2.4,2.4
	C10.1,19.5,9,18.4,9,17l0-0.4l-0.7,0L8.3,17L8.3,17z"/>
<polygon class="st14" points="0,0 22.9,0 22.9,22.9 0,22.9 0,0 "/>
<polygon class="st15" points="15,16.5 7.9,16.5 7.9,22.9 15,22.9 15,16.5 "/>
<polygon class="st16" points="11.4,0.6 12.8,6.6 17.1,2.3 15,8 21,6.7 16.1,10.4 21.9,12.6 15.8,13.1 19.4,18 15.4,15.9 15.4,14.7 
	7.3,14.7 7.3,16 3.5,18 7.1,13.1 1,12.6 6.7,10.4 1.9,6.7 7.9,8 5.8,2.3 10.1,6.6 11.4,0.6 "/>
<path class="st17" d="M11.4,6.2L11.4,6.2c2.6,0,4.7,2.1,4.7,4.7v4.3c0,2.6-2.1,4.7-4.7,4.7l0,0c-2.6,0-4.7-2.1-4.7-4.7v-4.3
	C6.8,8.3,8.9,6.2,11.4,6.2L11.4,6.2L11.4,6.2z"/>
<path class="st9" d="M15.7,15.7c-0.3,0.5-0.6,1-1,1.4v-1.4H15.7L15.7,15.7z M14.2,17.5c-0.5,0.3-1,0.6-1.6,0.8v-2.5h1.6V17.5
	L14.2,17.5z M12.2,18.3c-0.3,0-0.5,0.1-0.8,0.1c-0.3,0-0.5,0-0.8-0.1v-2.6h1.6V18.3L12.2,18.3z M10.2,18.2c-0.6-0.2-1.1-0.4-1.6-0.8
	v-1.8h1.6V18.2L10.2,18.2z M8.2,17.1c-0.4-0.4-0.8-0.9-1-1.4h1V17.1L8.2,17.1z"/>
<path class="st18" d="M12.1,11.2l-2,2c-1.1,1.1-2.8,1.1-3.9,0l-2-2l2-2c1.1-1.1,2.8-1.1,3.9,0L12.1,11.2L12.1,11.2z"/>
<path class="st1" d="M10.8,11.2L9.5,9.9c-0.7-0.7-1.9-0.7-2.7,0l-1.3,1.3l1.3,1.3c0.7,0.7,1.9,0.7,2.7,0L10.8,11.2L10.8,11.2z"/>
<path class="st18" d="M10.8,11.2l2-2c1.1-1.1,2.8-1.1,3.9,0l2,2l-2,2c-1.1,1.1-2.8,1.1-3.9,0L10.8,11.2L10.8,11.2z"/>
<path class="st1" d="M17.4,11.2l-1.3-1.3c-0.7-0.7-1.9-0.7-2.7,0l-1.3,1.3l1.3,1.3c0.7,0.7,1.9,0.7,2.7,0L17.4,11.2L17.4,11.2z"/>
<polygon class="st19" points="0,0 22.9,0 22.9,22.9 0,22.9 0,0 "/>
<polygon class="st20" points="22.9,19.6 22.9,22.9 0,22.9 0,19.5 11.4,12.3 22.9,19.6 "/>
<path class="st9" d="M5.5,10.6V6.9c0-3.3,2.7-6,6-6c3.3,0,6,2.7,6,6v3.7H5.5L5.5,10.6z"/>
<path class="st21" d="M16.7,8.5V7c0-2.9-2.4-5.2-5.2-5.2l0,0C8.6,1.7,6.2,4.1,6.2,7v1.6H16.7L16.7,8.5z"/>
<path class="st22" d="M16.5,11.9c0,3.5-1.9,4.7-3.9,7.2c-0.6,0.7-1.6,0.7-2.2,0c-2-2.5-3.9-3.7-3.9-7.2V8.3l4.9,0.5l5.2-0.5V11.9
	L16.5,11.9z"/>
<path class="st23" d="M10.5,12.9c0.2,0,0.4,0.2,0.4,0.4c0,0.2-0.2,0.4-0.4,0.4c-0.2,0-0.4-0.2-0.4-0.4
	C10.1,13.1,10.3,12.9,10.5,12.9L10.5,12.9L10.5,12.9z"/>
<path class="st1" d="M10.5,13.1c0.1,0,0.2,0.1,0.2,0.2c0,0.1-0.1,0.2-0.2,0.2c-0.1,0-0.2-0.1-0.2-0.2C10.3,13.2,10.4,13.1,10.5,13.1
	L10.5,13.1L10.5,13.1z"/>
<polygon class="st23" points="10.8,13.1 12.1,13.1 12.1,13.4 10.8,13.4 10.8,13.1 "/>
<polygon class="st23" points="11.3,8.5 11.6,8.5 11.6,13.3 11.3,13.3 11.3,8.5 "/>
<path class="st9" d="M11.4,13.9L11.4,13.9c1.4,0,2.5,1.1,2.5,2.5c0,0.9,0,1.8,0,2.7c-0.8,1-1.7,1.9-2.5,2.9c-0.8-1-1.7-1.9-2.5-2.9
	l0-2.7C8.9,15,10.1,13.9,11.4,13.9L11.4,13.9L11.4,13.9z"/>
<path class="st2" d="M10,16.4h3c0.2,0,0.3,0.1,0.3,0.3l0,0c0,0.2-0.1,0.3-0.3,0.3h-3c-0.2,0-0.3-0.1-0.3-0.3l0,0
	C9.6,16.6,9.8,16.4,10,16.4L10,16.4L10,16.4z"/>
<path class="st23" d="M12.4,12.9c0.2,0,0.4,0.2,0.4,0.4c0,0.2-0.2,0.4-0.4,0.4c-0.2,0-0.4-0.2-0.4-0.4C12,13.1,12.1,12.9,12.4,12.9
	L12.4,12.9L12.4,12.9z"/>
<path class="st1" d="M12.4,13.1c0.1,0,0.2,0.1,0.2,0.2c0,0.1-0.1,0.2-0.2,0.2c-0.1,0-0.2-0.1-0.2-0.2C12.1,13.2,12.2,13.1,12.4,13.1
	L12.4,13.1L12.4,13.1z"/>
<path class="st9" d="M7.4,8.1h3.3c0.4,0,0.6,0.3,0.6,0.7c0,3.2-2.5,4.1-5.3,4.1c-0.3,0-0.6-0.3-0.6-0.6V10C5.5,8.9,6.3,8.1,7.4,8.1
	L7.4,8.1L7.4,8.1z"/>
<path class="st1" d="M6.2,12.2c2.3,0,4.3-0.7,4.3-3.3H7.4c-0.7,0-1.2,0.5-1.2,1.2V12.2L6.2,12.2z"/>
<path class="st9" d="M15.5,8.1h-3.3c-0.4,0-0.6,0.3-0.6,0.7c0,3.2,2.5,4.1,5.3,4.1c0.3,0,0.6-0.3,0.6-0.6V10
	C17.4,8.9,16.6,8.1,15.5,8.1L15.5,8.1L15.5,8.1z"/>
<path class="st1" d="M12.3,8.8c0,2.6,2.1,3.3,4.3,3.3V10c0-0.7-0.5-1.2-1.2-1.2H12.3L12.3,8.8z"/>
<path class="st24" d="M8.5,9.3L8.5,9.3c0.1,0,0.2,0.1,0.2,0.2V10h0.5c0.1,0,0.2,0.1,0.2,0.2l0,0c0,0.1-0.1,0.2-0.2,0.2H8.7v0.5
	c0,0.1-0.1,0.2-0.2,0.2l0,0c-0.1,0-0.2-0.1-0.2-0.2v-0.5H7.8c-0.1,0-0.2-0.1-0.2-0.2l0,0c0-0.1,0.1-0.2,0.2-0.2h0.5V9.5
	C8.3,9.4,8.3,9.3,8.5,9.3L8.5,9.3z"/>
<path class="st24" d="M14.4,9.3L14.4,9.3c0.1,0,0.2,0.1,0.2,0.2V10h0.5c0.1,0,0.2,0.1,0.2,0.2l0,0c0,0.1-0.1,0.2-0.2,0.2h-0.5v0.5
	c0,0.1-0.1,0.2-0.2,0.2l0,0c-0.1,0-0.2-0.1-0.2-0.2v-0.5h-0.5c-0.1,0-0.2-0.1-0.2-0.2l0,0c0-0.1,0.1-0.2,0.2-0.2h0.5V9.5
	C14.2,9.4,14.3,9.3,14.4,9.3L14.4,9.3z"/>
<polygon class="st12" points="0,0 22.9,0 22.9,22.9 0,22.9 0,0 "/>
<path class="st25" d="M21.1,22.9H1.8c0.4-1.8,1.9-3.1,3.8-3.1h11.7C19.2,19.8,20.7,21.1,21.1,22.9L21.1,22.9z"/>
<path class="st26" d="M9.4,1h4.2c3.5,0,6.3,2.8,6.3,6.3v5c0,3.5-2.8,6.3-6.3,6.3H9.4c-3.5,0-6.3-2.8-6.3-6.3v-5C3,3.9,5.9,1,9.4,1
	L9.4,1z"/>
<polygon class="st26" points="8.5,16.7 14.4,16.7 14.4,21.6 8.5,21.6 8.5,16.7 "/>
<path class="st27" d="M8.8,3.7h5.3c1.2,0,2.2,1,2.2,2.2v8.9c0,1.2-1,2.2-2.2,2.2h-0.2c0,0.8-0.8,1.5-1.6,1.5h-1.8
	c-0.9,0-1.6-0.7-1.6-1.5H8.8c-1.2,0-2.2-1-2.2-2.2V5.9C6.6,4.7,7.6,3.7,8.8,3.7L8.8,3.7z"/>
<path class="st26" d="M13.8,18.5v-3c0-0.8-0.7-1.5-1.5-1.5h-1.6c-0.8,0-1.5,0.7-1.5,1.5v3H8.5v-3c0-1.2,0.9-2.1,2.1-2.1h1.6
	c1.2,0,2.1,0.9,2.1,2.1v3H13.8L13.8,18.5z"/>
<path class="st11" d="M10.5,15.2h1.9c0.2,0,0.4,0.2,0.4,0.4l0,0c0,0.2-0.2,0.4-0.4,0.4h-1.9c-0.2,0-0.4-0.2-0.4-0.4l0,0
	C10.1,15.3,10.3,15.2,10.5,15.2L10.5,15.2z"/>
<path class="st4" d="M12.7,12l3.6-1c1.3-0.3,2.1-1.7,1.7-3l-0.6-2.3l-3.6,1c-0.6,0.2-1.1,0.5-1.4,1h0c-0.2,0.3-0.5,0.5-0.9,0.5
	c-0.4,0-0.7-0.2-0.9-0.5l0,0c-0.3-0.5-0.8-0.8-1.4-1l-3.6-1L4.9,8c-0.3,1.3,0.4,2.6,1.7,3l3.6,1l0.6-2.2c0.1-0.3,0.3-0.5,0.6-0.5
	c0.3,0,0.5,0.2,0.6,0.5L12.7,12L12.7,12z"/>
<path class="st1" d="M6.2,6.6l2.5,0.7c0.9,0.2,1.4,1.2,1.2,2.1L9.5,11L7,10.4c-0.9-0.2-1.4-1.2-1.2-2.1L6.2,6.6L6.2,6.6z"/>
<path class="st1" d="M16.7,6.6l-2.5,0.7c-0.9,0.2-1.4,1.2-1.2,2.1l0.4,1.6l2.5-0.7c0.9-0.2,1.4-1.2,1.2-2.1L16.7,6.6L16.7,6.6z"/>
<polygon class="st26" points="9,17.7 14,17.7 14,19.2 9,19.2 9,17.7 "/>
<path class="st26" d="M13.3,18v-2.4c0-0.7-0.5-1.2-1.2-1.2h-1.3c-0.7,0-1.2,0.5-1.2,1.2V18H9.1v-2.4c0-0.9,0.8-1.7,1.7-1.7h1.3
	c0.9,0,1.7,0.8,1.7,1.7V18H13.3L13.3,18z"/>
<path class="st26" d="M8.9,20.4H14c0.5,0,0.8,0.4,0.8,0.8l0,0c0,0.5-0.4,0.8-0.8,0.8H8.9c-0.5,0-0.8-0.4-0.8-0.8l0,0
	C8.1,20.8,8.4,20.4,8.9,20.4L8.9,20.4z"/>
<polygon class="st28" points="22.9,22.9 22.9,0 0,0 0,22.9 22.9,22.9 "/>
<polygon class="st1" points="15.5,15 7.4,15 7.4,22.9 15.5,22.9 15.5,15 "/>
<path class="st9" d="M11.4,1.3L11.4,1.3c-0.4,0-0.8,0.3-0.8,0.8v3.2C10.7,5.7,11,6,11.4,6l0,0c0.4,0,0.8-0.3,0.8-0.8V2
	C12.2,1.6,11.9,1.3,11.4,1.3L11.4,1.3z"/>
<path class="st9" d="M16.2,2.8L16.2,2.8c-0.3-0.2-0.8-0.2-1.1,0.2l-1.9,2.6c-0.2,0.3-0.2,0.8,0.2,1.1l0,0c0.3,0.2,0.8,0.2,1.1-0.2
	l1.9-2.6C16.6,3.5,16.5,3,16.2,2.8L16.2,2.8z"/>
<path class="st9" d="M19.1,6.8L19.1,6.8c-0.1-0.4-0.6-0.6-1-0.5l-3.1,1c-0.4,0.1-0.6,0.6-0.5,1l0,0c0.1,0.4,0.6,0.6,1,0.5l3.1-1
	C19,7.6,19.2,7.2,19.1,6.8L19.1,6.8z"/>
<path class="st29" d="M16.2,15.8L16.2,15.8c0.3-0.2,0.4-0.7,0.2-1.1l-1.9-2.6c-0.2-0.3-0.7-0.4-1.1-0.2l0,0
	c-0.3,0.2-0.4,0.7-0.2,1.1l1.9,2.6C15.4,16,15.8,16.1,16.2,15.8L16.2,15.8z"/>
<path class="st29" d="M11.4,17.4L11.4,17.4c0.4,0,0.8-0.3,0.8-0.8v-3.2c0-0.4-0.3-0.8-0.8-0.8h0c-0.4,0-0.8,0.3-0.8,0.8v3.2
	C10.7,17,11,17.4,11.4,17.4L11.4,17.4z"/>
<path class="st29" d="M6.7,15.8L6.7,15.8c0.3,0.2,0.8,0.2,1.1-0.2L9.7,13c0.2-0.3,0.2-0.8-0.2-1.1l0,0c-0.3-0.2-0.8-0.2-1.1,0.2
	l-1.9,2.6C6.3,15.1,6.4,15.6,6.7,15.8L6.7,15.8z"/>
<path class="st9" d="M3.8,6.8L3.8,6.8c-0.1,0.4,0.1,0.8,0.5,1l3.1,1c0.4,0.1,0.8-0.1,1-0.5l0,0c0.1-0.4-0.1-0.8-0.5-1l-3.1-1
	C4.4,6.2,3.9,6.4,3.8,6.8L3.8,6.8z"/>
<path class="st9" d="M6.7,2.8L6.7,2.8C6.4,3,6.3,3.5,6.6,3.9l1.9,2.6c0.2,0.3,0.7,0.4,1.1,0.2l0,0c0.3-0.2,0.4-0.7,0.2-1.1L7.8,3
	C7.5,2.6,7.1,2.6,6.7,2.8L6.7,2.8z"/>
<path class="st5" d="M11.4,2.9L11.4,2.9C7.9,2.9,5,5.7,5,9.3v3.7c0,3.5,2.9,6.4,6.4,6.4l0,0c3.5,0,6.4-2.9,6.4-6.4V9.3
	C17.8,5.7,15,2.9,11.4,2.9L11.4,2.9z"/>
<path class="st9" d="M18.2,10.5h-1.3v9.3c0,0.4,0.3,0.6,0.6,0.6l0,0c0.4,0,0.6-0.3,0.6-0.6V10.5L18.2,10.5z"/>
<path class="st9" d="M5.9,10.5H4.6v9.3c0,0.4,0.3,0.6,0.6,0.6l0,0c0.4,0,0.6-0.3,0.6-0.6V10.5L5.9,10.5z"/>
<path class="st30" d="M13.4,15.2H9.5c-0.4,0-0.7,0.3-0.7,0.7l0,0c0,0.4,0.3,0.7,0.7,0.7h3.9c0.4,0,0.7-0.3,0.7-0.7l0,0
	C14.1,15.5,13.8,15.2,13.4,15.2L13.4,15.2z"/>
<path class="st1" d="M16.9,7.6c1,0,1.8,0.8,1.8,1.8v2c0,1-0.8,1.8-1.8,1.8h-3.1c-1,0-1.8-0.8-1.8-1.8V9.6C12,9.3,11.8,9,11.4,9l0,0
	c-0.3,0-0.6,0.3-0.6,0.6v1.8c0,1-0.8,1.8-1.8,1.8H6c-1,0-1.8-0.8-1.8-1.8v-2c0-1,0.8-1.8,1.8-1.8C9.6,7.6,13.3,7.6,16.9,7.6
	L16.9,7.6z"/>
<path class="st2" d="M16.5,9.9h-2.6c-0.2,0-0.4,0.2-0.4,0.4l0,0c0,0.2,0.2,0.4,0.4,0.4h2.6c0.2,0,0.4-0.2,0.4-0.4l0,0
	C17,10.1,16.8,9.9,16.5,9.9L16.5,9.9z"/>
<path class="st2" d="M9,9.9H6.4c-0.2,0-0.4,0.2-0.4,0.4l0,0c0,0.2,0.2,0.4,0.4,0.4H9c0.2,0,0.4-0.2,0.4-0.4l0,0
	C9.4,10.1,9.2,9.9,9,9.9L9,9.9z"/>
</svg>
