<?xml version="1.0" encoding="utf-8"?>
<!-- Generator: Adobe Illustrator 17.1.0, SVG Export Plug-In . SVG Version: 6.00 Build 0)  -->
<!DOCTYPE svg PUBLIC "-//W3C//DTD SVG 1.1//EN" "http://www.w3.org/Graphics/SVG/1.1/DTD/svg11.dtd">
<svg version="1.1" id="Layer_1" xmlns="http://www.w3.org/2000/svg" xmlns:xlink="http://www.w3.org/1999/xlink" x="0px" y="0px"
	 viewBox="0 0 28 28" enable-background="new 0 0 28 28" xml:space="preserve">
<g>
	<defs>
		<rect id="SVGID_1_" width="28" height="28"/>
	</defs>
	<clipPath id="SVGID_2_">
		<use xlink:href="#SVGID_1_"  overflow="visible"/>
	</clipPath>
	<path clip-path="url(#SVGID_2_)" d="M25.983,7.06l2.018-2.017L22.958,0L20.94,2.017l-1.008-1.008
		c-0.511-0.513-1.265-0.769-2.017-0.769s-1.502,0.256-2.018,0.769L0.77,16.137c-1.027,1.025-1.027,3.008,0,4.034l7.059,7.06
		C8.344,27.744,9.096,28,9.846,28c0.752,0,1.506-0.256,2.018-0.769l15.127-15.128c1.027-1.026,1.029-3.008,0-4.034L25.983,7.06z
		 M25.565,10.676L10.438,25.805c-0.088,0.086-0.308,0.179-0.592,0.179c-0.281,0-0.503-0.094-0.589-0.179l-7.061-7.061
		c-0.086-0.085-0.18-0.307-0.18-0.591c0-0.282,0.094-0.503,0.18-0.59L17.325,2.435c0.086-0.086,0.307-0.178,0.59-0.178
		c0.283,0,0.506,0.093,0.592,0.178l1.007,1.009l0.922,0.922l0.504,0.503l2.557,2.557l1.06,1.061l1.01,1.009
		c0.086,0.085,0.178,0.307,0.178,0.589C25.745,10.369,25.653,10.59,25.565,10.676 M4.034,18.154l6.051,6.051l14.119-14.12
		l-6.051-6.05L4.034,18.154z M16.823,15.308l-8.535,0.988l5.113-2.406l-1.299-1.787l4.502-2.042l2.285,2.328l-4.033,0.939
		L16.823,15.308z"/>
</g>
</svg>
