<?xml version="1.0" encoding="utf-8"?>
<!-- Generator: Adobe Illustrator 17.1.0, SVG Export Plug-In . SVG Version: 6.00 Build 0)  -->
<!DOCTYPE svg PUBLIC "-//W3C//DTD SVG 1.1//EN" "http://www.w3.org/Graphics/SVG/1.1/DTD/svg11.dtd">
<svg version="1.1" id="Layer_1" xmlns="http://www.w3.org/2000/svg" xmlns:xlink="http://www.w3.org/1999/xlink" x="0px" y="0px"
	 viewBox="0 0 28 28" enable-background="new 0 0 28 28" xml:space="preserve">
<g>
	<defs>
		<rect id="SVGID_1_" width="28" height="28"/>
	</defs>
	<clipPath id="SVGID_2_">
		<use xlink:href="#SVGID_1_"  overflow="visible"/>
	</clipPath>
	<path clip-path="url(#SVGID_2_)" d="M4.809,20.363L4.102,21.07c-0.782,0.782-0.782,2.048,0,2.829c0.781,0.781,2.048,0.781,2.828,0
		l0.707-0.707c0.781-0.781,0.781-2.047,0-2.829C6.857,19.583,5.59,19.583,4.809,20.363 M5,14c0-1.104-0.895-2-2-2H2
		c-1.104,0-2,0.896-2,2c0,1.105,0.896,2,2,2h1C4.105,16,5,15.105,5,14 M14,5c1.105,0,2-0.895,2-2V2c0-1.105-0.895-2-2-2
		c-1.104,0-2,0.895-2,2v1C12,4.105,12.896,5,14,5 M4.809,7.636c0.781,0.781,2.046,0.781,2.828,0c0.781-0.781,0.781-2.047,0-2.828
		L6.93,4.101c-0.782-0.782-2.047-0.782-2.828,0c-0.782,0.781-0.782,2.047,0,2.828L4.809,7.636z M23.193,7.636L23.9,6.929
		c0.782-0.781,0.782-2.048,0-2.829c-0.781-0.781-2.047-0.781-2.828,0.001l-0.707,0.707c-0.781,0.78-0.781,2.047,0,2.828
		S22.412,8.417,23.193,7.636 M26,12h-1c-1.104,0-2,0.896-2,2c0,1.105,0.896,2,2,2h1c1.105,0,2-0.895,2-2C28,12.896,27.105,12,26,12
		 M23.193,20.364c-0.781-0.781-2.047-0.781-2.828,0s-0.781,2.047,0,2.828l0.707,0.707c0.781,0.782,2.047,0.782,2.828,0
		c0.782-0.781,0.782-2.047,0-2.828L23.193,20.364z M14,23c-1.104,0-2,0.896-2,2v1c0,1.105,0.896,2,2,2c1.105,0,2-0.895,2-2v-1
		C16,23.896,15.105,23,14,23 M14,7c-3.867,0-7,3.135-7,7c0,3.867,3.133,7,7,7c3.865,0,7-3.133,7-7C21,10.135,17.865,7,14,7 M14,18
		c-2.207,0-4-1.795-4-4s1.793-4,4-4c2.205,0,4,1.795,4,4S16.205,18,14,18"/>
</g>
</svg>
