<?xml version="1.0" encoding="utf-8"?>
<!-- Generator: Adobe Illustrator 17.1.0, SVG Export Plug-In . SVG Version: 6.00 Build 0)  -->
<!DOCTYPE svg PUBLIC "-//W3C//DTD SVG 1.1//EN" "http://www.w3.org/Graphics/SVG/1.1/DTD/svg11.dtd">
<svg version="1.1" id="Layer_1" xmlns="http://www.w3.org/2000/svg" xmlns:xlink="http://www.w3.org/1999/xlink" x="0px" y="0px"
	 viewBox="0 0 28 28" enable-background="new 0 0 28 28" xml:space="preserve">
<g>
	<defs>
		<rect id="SVGID_1_" width="28" height="28"/>
	</defs>
	<clipPath id="SVGID_2_">
		<use xlink:href="#SVGID_1_"  overflow="visible"/>
	</clipPath>
	<path clip-path="url(#SVGID_2_)" d="M24,0H4C1.791,0,0,1.791,0,4v24h28V4C28,1.791,26.209,0,24,0 M12.5,2C13.328,2,14,2.672,14,3.5
		S13.328,5,12.5,5S11,4.328,11,3.5S11.672,2,12.5,2 M8.502,2C9.328,2,10,2.674,10,3.501C10,4.33,9.328,5,8.502,5
		C7.674,5,7,4.33,7,3.501C7,2.674,7.674,2,8.502,2 M4.502,2C5.33,2,6,2.674,6,3.501C6,4.33,5.33,5,4.502,5C3.672,5,3,4.33,3,3.501
		C3,2.674,3.672,2,4.502,2 M26,26H2V8h24V26z"/>
</g>
</svg>
