<?xml version="1.0" encoding="utf-8"?>
<!-- Generator: Adobe Illustrator 17.1.0, SVG Export Plug-In . SVG Version: 6.00 Build 0)  -->
<!DOCTYPE svg PUBLIC "-//W3C//DTD SVG 1.1//EN" "http://www.w3.org/Graphics/SVG/1.1/DTD/svg11.dtd">
<svg version="1.1" id="Layer_1" xmlns="http://www.w3.org/2000/svg" xmlns:xlink="http://www.w3.org/1999/xlink" x="0px" y="0px"
	 viewBox="0 0 28 28" enable-background="new 0 0 28 28" xml:space="preserve">
<g>
	<defs>
		<rect id="SVGID_1_" width="28" height="28"/>
	</defs>
	<clipPath id="SVGID_2_">
		<use xlink:href="#SVGID_1_"  overflow="visible"/>
	</clipPath>
	<path clip-path="url(#SVGID_2_)" d="M23,0c-2.762,0-5,2.238-5,5c0,2.05,1.236,3.806,3,4.578V12h-2.422C17.807,10.235,16.051,9,14,9
		c-2.049,0-3.805,1.235-4.578,3H3v6.422C1.236,19.194,0,20.95,0,23c0,2.762,2.238,5,5,5s5-2.238,5-5c0-2.05-1.234-3.806-3-4.578V16
		h2.422c0.773,1.765,2.529,3,4.578,3c2.051,0,3.807-1.235,4.578-3H25V9.578C26.766,8.806,28,7.05,28,5C28,2.238,25.762,0,23,0 M8,23
		c0,1.654-1.346,3-3,3s-3-1.346-3-3s1.346-3,3-3S8,21.346,8,23 M14,17c-1.654,0-3-1.346-3-3s1.346-3,3-3s3,1.346,3,3
		S15.654,17,14,17 M23,8c-1.654,0-3-1.346-3-3c0-1.654,1.346-3,3-3c1.654,0,3,1.346,3,3C26,6.654,24.654,8,23,8"/>
</g>
</svg>
