<?xml version="1.0" encoding="utf-8"?>
<!-- Generator: Adobe Illustrator 17.1.0, SVG Export Plug-In . SVG Version: 6.00 Build 0)  -->
<!DOCTYPE svg PUBLIC "-//W3C//DTD SVG 1.1//EN" "http://www.w3.org/Graphics/SVG/1.1/DTD/svg11.dtd">
<svg version="1.1" id="Layer_1" xmlns="http://www.w3.org/2000/svg" xmlns:xlink="http://www.w3.org/1999/xlink" x="0px" y="0px"
	 viewBox="0 0 28 28" enable-background="new 0 0 28 28" xml:space="preserve">
<path d="M5.239,2h17.522l1.111,5H4.127L5.239,2z M2.008,0L0,9h28l-2.01-9H2.008z"/>
<polygon points="6.075,3 5.413,6 22.587,6 21.925,3 "/>
<g>
	<defs>
		<rect id="SVGID_1_" width="28" height="28"/>
	</defs>
	<clipPath id="SVGID_2_">
		<use xlink:href="#SVGID_1_"  overflow="visible"/>
	</clipPath>
	<path clip-path="url(#SVGID_2_)" d="M0,28h28V10H0V28z M3,26.5c-0.828,0-1.5-0.671-1.5-1.5s0.672-1.5,1.5-1.5s1.5,0.671,1.5,1.5
		S3.828,26.5,3,26.5 M3,14.5c-0.828,0-1.5-0.671-1.5-1.5c0-0.829,0.672-1.5,1.5-1.5s1.5,0.671,1.5,1.5C4.5,13.829,3.828,14.5,3,14.5
		 M14.001,25.392L7,19h5v-5h4v5h5L14.001,25.392z M25,26.5c-0.828,0-1.5-0.671-1.5-1.5s0.672-1.5,1.5-1.5c0.828,0,1.5,0.671,1.5,1.5
		S25.828,26.5,25,26.5 M25,14.5c-0.828,0-1.5-0.671-1.5-1.5c0-0.829,0.672-1.5,1.5-1.5c0.828,0,1.5,0.671,1.5,1.5
		C26.5,13.829,25.828,14.5,25,14.5"/>
</g>
</svg>
