<?xml version="1.0" encoding="utf-8"?>
<!-- Generator: Adobe Illustrator 17.1.0, SVG Export Plug-In . SVG Version: 6.00 Build 0)  -->
<!DOCTYPE svg PUBLIC "-//W3C//DTD SVG 1.1//EN" "http://www.w3.org/Graphics/SVG/1.1/DTD/svg11.dtd">
<svg version="1.1" id="Layer_1" xmlns="http://www.w3.org/2000/svg" xmlns:xlink="http://www.w3.org/1999/xlink" x="0px" y="0px"
	 viewBox="0 0 28 28" enable-background="new 0 0 28 28" xml:space="preserve">
<g>
	<defs>
		<rect id="SVGID_1_" width="28" height="28"/>
	</defs>
	<clipPath id="SVGID_2_">
		<use xlink:href="#SVGID_1_"  overflow="visible"/>
	</clipPath>
	<path clip-path="url(#SVGID_2_)" d="M24,0H4C1.801,0,0,1.8,0,4v20c0,2.2,1.801,4,4,4h20c2.201,0,4-1.8,4-4V4C28,1.8,26.201,0,24,0
		 M6,24c-1.104,0-2-0.895-2-2c0-1.104,0.896-2,2-2c1.105,0,2,0.896,2,2C8,23.105,7.105,24,6,24 M6,8C4.896,8,4,7.105,4,6
		c0-1.105,0.896-2,2-2c1.105,0,2,0.895,2,2C8,7.105,7.105,8,6,8 M22,24c-1.104,0-2-0.895-2-2c0-1.104,0.896-2,2-2
		c1.105,0,2,0.896,2,2C24,23.105,23.105,24,22,24 M22,8c-1.104,0-2-0.895-2-2c0-1.105,0.896-2,2-2c1.105,0,2,0.895,2,2
		C24,7.105,23.105,8,22,8"/>
</g>
</svg>
