<?xml version="1.0" encoding="utf-8"?>
<!-- Generator: Adobe Illustrator 17.1.0, SVG Export Plug-In . SVG Version: 6.00 Build 0)  -->
<!DOCTYPE svg PUBLIC "-//W3C//DTD SVG 1.1//EN" "http://www.w3.org/Graphics/SVG/1.1/DTD/svg11.dtd">
<svg version="1.1" id="Layer_1" xmlns="http://www.w3.org/2000/svg" xmlns:xlink="http://www.w3.org/1999/xlink" x="0px" y="0px"
	 viewBox="0 0 28 28" enable-background="new 0 0 28 28" xml:space="preserve">
<g>
	<defs>
		<rect id="SVGID_1_" width="28" height="28"/>
	</defs>
	<clipPath id="SVGID_2_">
		<use xlink:href="#SVGID_1_"  overflow="visible"/>
	</clipPath>
	<path clip-path="url(#SVGID_2_)" d="M24,0H4C1.8,0,0,1.8,0,4v20c0,2.2,1.8,4,4,4h20c2.2,0,4-1.8,4-4V4C28,1.8,26.2,0,24,0 M8,24
		c-1.105,0-2-0.895-2-2c0-1.104,0.895-2,2-2c1.104,0,2,0.896,2,2C10,23.105,9.104,24,8,24 M8,16c-1.105,0-2-0.895-2-2
		c0-1.104,0.895-2,2-2c1.104,0,2,0.896,2,2C10,15.105,9.104,16,8,16 M8,8C6.895,8,6,7.105,6,6c0-1.105,0.895-2,2-2
		c1.104,0,2,0.895,2,2C10,7.105,9.104,8,8,8 M20,24c-1.105,0-2-0.895-2-2c0-1.104,0.895-2,2-2c1.104,0,2,0.896,2,2
		C22,23.105,21.104,24,20,24 M20,16c-1.105,0-2-0.895-2-2c0-1.104,0.895-2,2-2c1.104,0,2,0.896,2,2C22,15.105,21.104,16,20,16 M20,8
		c-1.105,0-2-0.895-2-2c0-1.105,0.895-2,2-2c1.104,0,2,0.895,2,2C22,7.105,21.104,8,20,8"/>
</g>
</svg>
