<?xml version="1.0" encoding="utf-8"?>
<!-- Generator: Adobe Illustrator 17.1.0, SVG Export Plug-In . SVG Version: 6.00 Build 0)  -->
<!DOCTYPE svg PUBLIC "-//W3C//DTD SVG 1.1//EN" "http://www.w3.org/Graphics/SVG/1.1/DTD/svg11.dtd">
<svg version="1.1" id="Layer_1" xmlns="http://www.w3.org/2000/svg" xmlns:xlink="http://www.w3.org/1999/xlink" x="0px" y="0px"
	 viewBox="0 0 28 28" enable-background="new 0 0 28 28" xml:space="preserve">
<g>
	<defs>
		<rect id="SVGID_1_" width="28" height="28"/>
	</defs>
	<clipPath id="SVGID_2_">
		<use xlink:href="#SVGID_1_"  overflow="visible"/>
	</clipPath>
	<path clip-path="url(#SVGID_2_)" d="M5.5,8.502c0-0.169,0.018-0.333,0.026-0.5H0v20h18v-9.835c-0.814,0.213-1.652,0.335-2.5,0.335
		C9.987,18.502,5.5,14.016,5.5,8.502 M3,15.002h3v1H3V15.002z M3,18.002h6v1H3V18.002z M15,25.002H3v-1h12V25.002z M15,22.002H3v-1
		h12V22.002z M27.414,17.588l-4.664-4.665C23.538,11.634,24,10.124,24,8.502c0-4.694-3.804-8.5-8.5-8.5c-4.693,0-8.5,3.806-8.5,8.5
		s3.807,8.5,8.5,8.5c1.622,0,3.133-0.462,4.422-1.251l4.664,4.665c0.391,0.391,0.903,0.586,1.414,0.586
		c0.512,0,1.025-0.195,1.414-0.586C28.196,19.635,28.196,18.369,27.414,17.588 M20.97,12.006c-0.507,0.788-1.177,1.458-1.966,1.965
		c-1.012,0.65-2.212,1.031-3.504,1.031c-3.59,0-6.5-2.91-6.5-6.5s2.91-6.5,6.5-6.5s6.5,2.91,6.5,6.5
		C22,9.794,21.619,10.994,20.97,12.006 M10.551,8.002H16v1h-5.449c0.074,0.725,0.295,1.4,0.645,2H16v1h-4.06
		c0.907,0.924,2.167,1.5,3.56,1.5c0.881,0,1.738-0.244,2.5-0.688V5.002h-6.06C11.163,5.792,10.668,6.841,10.551,8.002"/>
</g>
</svg>
