<?xml version="1.0" encoding="utf-8"?>
<!-- Generator: Adobe Illustrator 17.1.0, SVG Export Plug-In . SVG Version: 6.00 Build 0)  -->
<!DOCTYPE svg PUBLIC "-//W3C//DTD SVG 1.1//EN" "http://www.w3.org/Graphics/SVG/1.1/DTD/svg11.dtd">
<svg version="1.1" id="Layer_1" xmlns="http://www.w3.org/2000/svg" xmlns:xlink="http://www.w3.org/1999/xlink" x="0px" y="0px"
	 viewBox="0 0 28 28" enable-background="new 0 0 28 28" xml:space="preserve">
<path d="M2.701,0L0,2.701l3.51,3.511L0,9.724l2.699,2.699l3.512-3.511l3.51,3.511l2.701-2.7l-2.307-2.306L8.912,6.212l3.51-3.511
	L9.721,0.002l-3.51,3.51L2.701,0z M11,24h14v1H11V24z M11,21h14v1H11V21z M11,18h14v1H11V18z M12.548,0l1.288,1.287l1.414,1.414
	l-3.51,3.511l2.096,2.097l1.414,1.414l-1.414,1.414L9.721,15.25L8,13.531V28h20V9h-9V0H12.548z M20,0v8h8L20,0z"/>
</svg>
