<?xml version="1.0" encoding="utf-8"?>
<!-- Generator: Adobe Illustrator 17.1.0, SVG Export Plug-In . SVG Version: 6.00 Build 0)  -->
<!DOCTYPE svg PUBLIC "-//W3C//DTD SVG 1.1//EN" "http://www.w3.org/Graphics/SVG/1.1/DTD/svg11.dtd">
<svg version="1.1" id="Layer_1" xmlns="http://www.w3.org/2000/svg" xmlns:xlink="http://www.w3.org/1999/xlink" x="0px" y="0px"
	 viewBox="0 0 28 28" enable-background="new 0 0 28 28" xml:space="preserve">
<g>
	<defs>
		<rect id="SVGID_1_" width="28" height="28"/>
	</defs>
	<clipPath id="SVGID_2_">
		<use xlink:href="#SVGID_1_"  overflow="visible"/>
	</clipPath>
	<path clip-path="url(#SVGID_2_)" d="M4.999,9h18L23,3H10.999l-4-3H1.363C0.609,0-0.001,0.61-0.001,1.364V28h0.025
		c0-0.081-0.015-0.162,0.005-0.242l4-18C4.141,9.312,4.54,9,4.999,9"/>
	<path clip-path="url(#SVGID_2_)" d="M23,10H5L1,28h22.625l4.376-18H23z M21.728,22.899l-2.829,2.829l-3.535-3.536l-3.535,3.536
		L9,22.899l3.536-3.535L9,15.829L11.829,13l3.535,3.536L18.899,13l2.829,2.829l-3.536,3.535L21.728,22.899z"/>
</g>
</svg>
