<?xml version="1.0" encoding="utf-8"?>
<!-- Generator: Adobe Illustrator 17.1.0, SVG Export Plug-In . SVG Version: 6.00 Build 0)  -->
<!DOCTYPE svg PUBLIC "-//W3C//DTD SVG 1.1//EN" "http://www.w3.org/Graphics/SVG/1.1/DTD/svg11.dtd">
<svg version="1.1" id="Layer_1" xmlns="http://www.w3.org/2000/svg" xmlns:xlink="http://www.w3.org/1999/xlink" x="0px" y="0px"
	 viewBox="0 0 28 28" enable-background="new 0 0 28 28" xml:space="preserve">
<path d="M6.001,18h4v4h-4V18z M12,18h4.001v4H12V18z M18,18h4v4h-4V18z M6.001,12h4v4.001h-4V12z M12,12h4.001v4.001H12V12z M18,12
	h4v4.001h-4V12z M6.001,6h4v4h-4V6z M12,6h4.001v4H12V6z M18,6h4v4h-4V6z M22,0v4h-4V0h-1.999v4H12V0h-2v4H6.001V0H4v4H0v2h4v4H0v2
	h4v4H0v2h4v4H0v2h4v4h2.001v-4H10v4h2v-4h4.001v4H18v-4h4v4h2.001v-4H28v-2h-3.999v-4H28v-2h-3.999v-4H28v-2h-3.999V6H28V4h-3.999V0
	H22z"/>
</svg>
