<?xml version="1.0" encoding="utf-8"?>
<!-- Generator: Adobe Illustrator 17.1.0, SVG Export Plug-In . SVG Version: 6.00 Build 0)  -->
<!DOCTYPE svg PUBLIC "-//W3C//DTD SVG 1.1//EN" "http://www.w3.org/Graphics/SVG/1.1/DTD/svg11.dtd">
<svg version="1.1" id="Layer_1" xmlns="http://www.w3.org/2000/svg" xmlns:xlink="http://www.w3.org/1999/xlink" x="0px" y="0px"
	 viewBox="0 0 28 28" enable-background="new 0 0 28 28" xml:space="preserve">
<g>
	<defs>
		<rect id="SVGID_1_" width="28" height="28"/>
	</defs>
	<clipPath id="SVGID_2_">
		<use xlink:href="#SVGID_1_"  overflow="visible"/>
	</clipPath>
	<path clip-path="url(#SVGID_2_)" d="M18.338,0C21.685,1.616,24,5.033,24,9c0,5.523-4.477,10-10,10S4,14.523,4,9
		c0-3.967,2.316-7.384,5.664-9H0v22h28V0H18.338z M2.707,20.709c-0.391,0.389-1.023,0.389-1.414,0c-0.391-0.391-0.391-1.025,0-1.416
		c0.391-0.389,1.023-0.389,1.414,0C3.098,19.684,3.098,20.318,2.707,20.709 M2.707,2.707c-0.391,0.391-1.023,0.391-1.414,0
		c-0.391-0.391-0.391-1.023,0-1.414c0.391-0.391,1.023-0.391,1.414,0C3.098,1.684,3.098,2.316,2.707,2.707 M26.707,20.738
		c-0.391,0.391-1.023,0.391-1.414,0c-0.391-0.388-0.391-1.023,0-1.414c0.391-0.39,1.023-0.39,1.414,0
		C27.098,19.715,27.098,20.35,26.707,20.738 M26.707,2.707c-0.391,0.391-1.023,0.391-1.414,0c-0.391-0.391-0.391-1.023,0-1.414
		c0.391-0.391,1.023-0.391,1.414,0C27.098,1.684,27.098,2.316,26.707,2.707 M9.285,5.976c-0.183-0.512-0.043-1.17-0.072-1.72
		C9.174,3.512,8.881,2.594,8.24,2.09C6.262,3.742,5,6.224,5,8.999C5,13.971,9.031,18,14,18c4.971,0,9-4.029,9-9.001
		C23,4.031,18.971,0,14,0c-0.301,0-0.596,0.018-0.891,0.045c-0.222,0.428-0.867,0.947-0.627,1.398
		c0.36,0.684,1.254-0.285,1.676-0.416c0.539-0.168,1.494-0.425,1.531,0.348c0.028,0.559-0.55,1.008-0.476,1.637
		c0.65,0.172,1.006-0.864,1.578-0.315c0.555,0.526-0.131,1.215-0.471,1.573c-0.551,0.581-0.513,0.889-0.767,1.565
		c-0.41,1.084-0.409-0.035-0.678-0.361c-0.328-0.401-1.193-0.377-1.6-0.17c-0.613,0.314-0.617,0.867-0.369,1.492
		c0.67,1.695,2.672,0.43,3.914,1.146c1.164,0.67,1.422,3.038,0.473,3.869c-0.334,0.295-0.979,0.629-1.25,1.114
		c-0.143,0.258-0.086,0.624-0.209,0.917c-0.086,0.205-0.957,2.06-1.328,1.328l-0.416-0.344c-0.912-0.949-0.322-2.94-1.336-4.03
		c-0.49-0.527-1.088-0.682-1.033-1.529c0.043-0.659,0.463-0.75,0.765-1.241c0.541-0.865-1.136-1.724-2.037-1.832
		C9.807,6.116,9.574,6.765,9.285,5.976 M0,28h28v-5H0V28z"/>
</g>
</svg>
