<?xml version="1.0" encoding="utf-8"?>
<!-- Generator: Adobe Illustrator 17.1.0, SVG Export Plug-In . SVG Version: 6.00 Build 0)  -->
<!DOCTYPE svg PUBLIC "-//W3C//DTD SVG 1.1//EN" "http://www.w3.org/Graphics/SVG/1.1/DTD/svg11.dtd">
<svg version="1.1" id="Layer_1" xmlns="http://www.w3.org/2000/svg" xmlns:xlink="http://www.w3.org/1999/xlink" x="0px" y="0px"
	 viewBox="0 0 28 28" enable-background="new 0 0 28 28" xml:space="preserve">
<g>
	<defs>
		<rect id="SVGID_1_" width="28" height="28"/>
	</defs>
	<clipPath id="SVGID_2_">
		<use xlink:href="#SVGID_1_"  overflow="visible"/>
	</clipPath>
	<path clip-path="url(#SVGID_2_)" d="M16,0v6h4l-2.571,3h4.899c0.978,1,1.554,2.374,1.554,3.739c0,3.821-4.423,6.947-9.882,6.947
		c-5.457,0-9.881-3.126-9.881-6.947C4.119,11.374,4.693,10,5.672,9h4.9L8,6h4V0H0v22h28V0H16z M2.707,20.709
		c-0.391,0.389-1.025,0.389-1.414,0c-0.391-0.391-0.391-1.025,0-1.416c0.389-0.389,1.023-0.389,1.414,0
		C3.097,19.684,3.097,20.318,2.707,20.709 M2.707,2.707c-0.391,0.391-1.025,0.391-1.414,0c-0.391-0.391-0.391-1.023,0-1.414
		c0.389-0.391,1.023-0.391,1.414,0C3.097,1.684,3.097,2.316,2.707,2.707 M26.707,20.738c-0.391,0.391-1.024,0.391-1.414,0
		c-0.391-0.388-0.391-1.023,0-1.414c0.39-0.39,1.023-0.39,1.414,0C27.097,19.715,27.097,20.35,26.707,20.738 M26.707,2.707
		c-0.391,0.391-1.025,0.391-1.414,0c-0.391-0.391-0.391-1.023,0-1.414c0.389-0.391,1.023-0.391,1.414,0
		C27.097,1.684,27.097,2.316,26.707,2.707 M0,28h28v-5H0V28z M6.152,10c-0.656,1-0.998,1.8-0.998,2.722
		c0,3.242,3.969,5.903,8.846,5.903c4.879,0,8.847-2.674,8.847-5.916c0-0.922-0.343-1.709-0.998-2.709h-5.277L14,13l-2.571-3H6.152z"
		/>
</g>
</svg>
