<?xml version="1.0" encoding="utf-8"?>
<!-- Generator: Adobe Illustrator 17.1.0, SVG Export Plug-In . SVG Version: 6.00 Build 0)  -->
<!DOCTYPE svg PUBLIC "-//W3C//DTD SVG 1.1//EN" "http://www.w3.org/Graphics/SVG/1.1/DTD/svg11.dtd">
<svg version="1.1" id="Layer_1" xmlns="http://www.w3.org/2000/svg" xmlns:xlink="http://www.w3.org/1999/xlink" x="0px" y="0px"
	 viewBox="0 0 28 28" enable-background="new 0 0 28 28" xml:space="preserve">
<g>
	<defs>
		<rect id="SVGID_1_" width="28" height="28"/>
	</defs>
	<clipPath id="SVGID_2_">
		<use xlink:href="#SVGID_1_"  overflow="visible"/>
	</clipPath>
	<path clip-path="url(#SVGID_2_)" d="M20.654,0c-2.943,0-5.478,1.881-6.652,4.578C12.828,1.881,10.293,0,7.353,0
		C3.293,0,0,5.117,0,9.496C0,18.406,14.002,28,14.002,28S28,18.123,28,9.496C28,5.117,24.707,0,20.654,0 M20.365,17.535
		l-2.829,2.829l-3.535-3.536l-3.535,3.536l-2.83-2.829L11.173,14l-3.537-3.535l2.83-2.83l3.535,3.537l3.535-3.537l2.829,2.83
		L16.829,14L20.365,17.535z"/>
</g>
</svg>
