<?xml version="1.0" encoding="utf-8"?>
<!-- Generator: Adobe Illustrator 17.1.0, SVG Export Plug-In . SVG Version: 6.00 Build 0)  -->
<!DOCTYPE svg PUBLIC "-//W3C//DTD SVG 1.1//EN" "http://www.w3.org/Graphics/SVG/1.1/DTD/svg11.dtd">
<svg version="1.1" id="Layer_1" xmlns="http://www.w3.org/2000/svg" xmlns:xlink="http://www.w3.org/1999/xlink" x="0px" y="0px"
	 viewBox="0 0 28 28" enable-background="new 0 0 28 28" xml:space="preserve">
<polygon points="12.001,0 12.001,8 7.001,8 14.001,16 21,8 16.001,8 16.001,0 "/>
<polygon points="18,0 18,3 21,3 21,2.963 21.032,3 23.206,3 24.524,15 19.267,15 18.581,20 9.421,20 8.733,15 3.476,15 4.794,3 6,3 
	6.967,3 10.001,3 10.001,0 2.008,0 0,18.1 0,28 28,28 28,18.1 25.99,0 "/>
</svg>
