<?xml version="1.0" encoding="utf-8"?>
<!-- Generator: Adobe Illustrator 17.1.0, SVG Export Plug-In . SVG Version: 6.00 Build 0)  -->
<!DOCTYPE svg PUBLIC "-//W3C//DTD SVG 1.1//EN" "http://www.w3.org/Graphics/SVG/1.1/DTD/svg11.dtd">
<svg version="1.1" id="Layer_1" xmlns="http://www.w3.org/2000/svg" xmlns:xlink="http://www.w3.org/1999/xlink" x="0px" y="0px"
	 viewBox="0 0 28 28" enable-background="new 0 0 28 28" xml:space="preserve">
<g>
	<defs>
		<rect id="SVGID_1_" width="28" height="28"/>
	</defs>
	<clipPath id="SVGID_2_">
		<use xlink:href="#SVGID_1_"  overflow="visible"/>
	</clipPath>
	<path clip-path="url(#SVGID_2_)" d="M5.941,13h-4C0.937,12-1.334,8.668,1.06,5.557c0,0,1.822-2.643,0.557-4.724
		c0,0-0.211-0.386,0.088-0.7C2.004-0.181,2.49,0.16,2.49,0.16S11.484,8,5.941,13 M2.439,28h3l0.502-14h-4L2.439,28z M28,2.6v22.801
		C28,26.836,26.836,28,25.4,28H12.599C11.164,28,10,26.836,10,25.401V2.6C10,1.164,11.164,0,12.599,0H25.4C26.836,0,28,1.164,28,2.6
		 M16,3h6V2h-6V3z M20.5,24.998c0-0.828-0.67-1.5-1.5-1.498c-0.828-0.002-1.5,0.67-1.5,1.498c0,0.83,0.672,1.5,1.502,1.502
		C19.83,26.498,20.5,25.826,20.5,24.998 M26,5H12v17h14V5z"/>
</g>
</svg>
