<?xml version="1.0" encoding="utf-8"?>
<!-- Generator: Adobe Illustrator 17.1.0, SVG Export Plug-In . SVG Version: 6.00 Build 0)  -->
<!DOCTYPE svg PUBLIC "-//W3C//DTD SVG 1.1//EN" "http://www.w3.org/Graphics/SVG/1.1/DTD/svg11.dtd">
<svg version="1.1" id="Layer_1" xmlns="http://www.w3.org/2000/svg" xmlns:xlink="http://www.w3.org/1999/xlink" x="0px" y="0px"
	 viewBox="0 0 28 28" enable-background="new 0 0 28 28" xml:space="preserve">
<g>
	<defs>
		<rect id="SVGID_1_" width="28" height="28"/>
	</defs>
	<clipPath id="SVGID_2_">
		<use xlink:href="#SVGID_1_"  overflow="visible"/>
	</clipPath>
	<path clip-path="url(#SVGID_2_)" d="M4.418,16.018L4,8l1.58-2.815L4.918,0H1.059L0.394,5.185L2,8l-0.443,8.016
		c-0.258,0.14-0.481,0.315-0.686,0.521C0.326,17.083,0,17.837,0,18.667v6.32C0,26.65,1.338,27.999,3.002,28
		c0.83,0,1.578-0.336,2.123-0.881C5.67,26.573,6,25.819,6,24.989v-6.32C6,17.521,5.359,16.526,4.418,16.018 M25.4,0H12.6
		C11.164,0,10,1.164,10,2.6v22.8c0,1.436,1.164,2.6,2.6,2.6h12.8c1.436,0,2.6-1.164,2.6-2.6V2.6C28,1.164,26.836,0,25.4,0 M16,2h6v1
		h-6V2z M19.002,26.5c-0.83-0.002-1.502-0.672-1.502-1.502c0-0.828,0.672-1.5,1.5-1.498c0.83-0.002,1.5,0.67,1.5,1.498
		C20.5,25.826,19.83,26.498,19.002,26.5 M26,22H12V5h14V22z"/>
</g>
</svg>
