<?xml version="1.0" encoding="utf-8"?>
<!-- Generator: Adobe Illustrator 17.1.0, SVG Export Plug-In . SVG Version: 6.00 Build 0)  -->
<!DOCTYPE svg PUBLIC "-//W3C//DTD SVG 1.1//EN" "http://www.w3.org/Graphics/SVG/1.1/DTD/svg11.dtd">
<svg version="1.1" id="Layer_1" xmlns="http://www.w3.org/2000/svg" xmlns:xlink="http://www.w3.org/1999/xlink" x="0px" y="0px"
	 viewBox="0 0 28 28" enable-background="new 0 0 28 28" xml:space="preserve">
<g>
	<defs>
		<rect id="SVGID_1_" width="28" height="28"/>
	</defs>
	<clipPath id="SVGID_2_">
		<use xlink:href="#SVGID_1_"  overflow="visible"/>
	</clipPath>
	<path clip-path="url(#SVGID_2_)" d="M3.5,28L7,22H0L3.5,28z M0,21h7V5.016H0V21z M3.502,0C1.568,0,0,0.714,0,2.008V4h7V2.008
		C7,0.714,5.434,0,3.502,0 M25.4,0H12.6C11.164,0,10,1.164,10,2.6v22.8c0,1.436,1.164,2.6,2.6,2.6h12.8c1.436,0,2.6-1.164,2.6-2.6
		V2.6C28,1.164,26.836,0,25.4,0 M16,2h6v1h-6V2z M19.002,26.5c-0.83-0.002-1.502-0.672-1.502-1.502c0-0.828,0.672-1.5,1.5-1.498
		c0.83-0.002,1.5,0.67,1.5,1.498C20.5,25.826,19.83,26.498,19.002,26.5 M26,22H12V5h14V22z"/>
</g>
</svg>
