<?xml version="1.0" encoding="utf-8"?>
<!-- Generator: Adobe Illustrator 17.1.0, SVG Export Plug-In . SVG Version: 6.00 Build 0)  -->
<!DOCTYPE svg PUBLIC "-//W3C//DTD SVG 1.1//EN" "http://www.w3.org/Graphics/SVG/1.1/DTD/svg11.dtd">
<svg version="1.1" id="Layer_1" xmlns="http://www.w3.org/2000/svg" xmlns:xlink="http://www.w3.org/1999/xlink" x="0px" y="0px"
	 viewBox="0 0 28 28" enable-background="new 0 0 28 28" xml:space="preserve">
<path d="M7.001,22H21v3H7.001V22z M5.001,16.999h3V20h-3V16.999z M10,16.999h3V20h-3V16.999z M15.001,16.999h3V20h-3V16.999z
	 M20,16.999h3.001V20H20V16.999z M2,12h3.001v3H2V12z M7.001,12h3v3h-3V12z M12,12h3.001v3H12V12z M17,12h3v3h-3V12z M22,12h4.001v3
	H22V12z M0,27.999h28v-19H0V27.999z M13.998,0L6.001,6.999H22L13.998,0z"/>
</svg>
