<?xml version="1.0" encoding="utf-8"?>
<!-- Generator: Adobe Illustrator 17.1.0, SVG Export Plug-In . SVG Version: 6.00 Build 0)  -->
<!DOCTYPE svg PUBLIC "-//W3C//DTD SVG 1.1//EN" "http://www.w3.org/Graphics/SVG/1.1/DTD/svg11.dtd">
<svg version="1.1" id="Layer_1" xmlns="http://www.w3.org/2000/svg" xmlns:xlink="http://www.w3.org/1999/xlink" x="0px" y="0px"
	 viewBox="0 0 28 28" enable-background="new 0 0 28 28" xml:space="preserve">
<path d="M6,21l8.004,7L22,21H6z M7,13h13.999v3.001H7V13z M5,8h3v3H5V8z M10,8h3v3h-3V8z M15,8h3v3h-3V8z M20,8h3.001v3H20V8z M2,3
	h3.001v3.001H2V3z M7,3h3v3.001H7V3z M12,3h3.001v3.001H12V3z M17,3h3v3.001h-3V3z M22,3h4.001v3.001H22V3z M0,19h28V0H0V19z"/>
</svg>
