<?xml version="1.0" encoding="utf-8"?>
<!-- Generator: Adobe Illustrator 17.1.0, SVG Export Plug-In . SVG Version: 6.00 Build 0)  -->
<!DOCTYPE svg PUBLIC "-//W3C//DTD SVG 1.1//EN" "http://www.w3.org/Graphics/SVG/1.1/DTD/svg11.dtd">
<svg version="1.1" id="Layer_1" xmlns="http://www.w3.org/2000/svg" xmlns:xlink="http://www.w3.org/1999/xlink" x="0px" y="0px"
	 viewBox="0 0 28 28" enable-background="new 0 0 28 28" xml:space="preserve">
<g>
	<defs>
		<rect id="SVGID_1_" width="28" height="28"/>
	</defs>
	<clipPath id="SVGID_2_">
		<use xlink:href="#SVGID_1_"  overflow="visible"/>
	</clipPath>
	<path clip-path="url(#SVGID_2_)" d="M16.133,10h-4.266C10.836,10,10,10.836,10,11.867v4.266C10,17.164,10.836,18,11.867,18h4.266
		C17.164,18,18,17.164,18,16.133v-4.266C18,10.836,17.164,10,16.133,10 M6.133,0H1.869C0.838,0,0,0.836,0,1.866v4.268
		C0,7.164,0.838,8,1.869,8h4.264C7.164,8,8,7.164,8,6.134V1.866C8,0.836,7.164,0,6.133,0 M6.133,10H1.869
		C0.838,10,0,10.836,0,11.867v4.266C0,17.164,0.838,18,1.869,18h4.264C7.164,18,8,17.164,8,16.133v-4.266
		C8,10.836,7.164,10,6.133,10 M6.133,20H1.869C0.838,20,0,20.837,0,21.869v4.262C0,27.163,0.838,28,1.869,28h4.264
		C7.164,28,8,27.163,8,26.131v-4.262C8,20.837,7.164,20,6.133,20 M16.133,20h-4.266C10.836,20,10,20.837,10,21.869v4.262
		C10,27.163,10.836,28,11.867,28h4.266C17.164,28,18,27.163,18,26.131v-4.262C18,20.837,17.164,20,16.133,20 M26.135,10h-4.268
		C20.836,10,20,10.836,20,11.867v4.266C20,17.164,20.836,18,21.867,18h4.268C27.164,18,28,17.164,28,16.133v-4.266
		C28,10.836,27.164,10,26.135,10 M26.135,0h-4.268C20.836,0,20,0.836,20,1.866v4.268C20,7.164,20.836,8,21.867,8h4.268
		C27.164,8,28,7.164,28,6.134V1.866C28,0.836,27.164,0,26.135,0 M16.133,0h-4.266C10.836,0,10,0.836,10,1.866v4.268
		C10,7.164,10.836,8,11.867,8h4.266C17.164,8,18,7.164,18,6.134V1.866C18,0.836,17.164,0,16.133,0 M26.135,20h-4.268
		C20.836,20,20,20.837,20,21.869v4.262C20,27.163,20.836,28,21.867,28h4.268C27.164,28,28,27.163,28,26.131v-4.262
		C28,20.837,27.164,20,26.135,20"/>
</g>
</svg>
