<?xml version="1.0" encoding="utf-8"?>
<!-- Generator: Adobe Illustrator 17.1.0, SVG Export Plug-In . SVG Version: 6.00 Build 0)  -->
<!DOCTYPE svg PUBLIC "-//W3C//DTD SVG 1.1//EN" "http://www.w3.org/Graphics/SVG/1.1/DTD/svg11.dtd">
<svg version="1.1" id="Layer_1" xmlns="http://www.w3.org/2000/svg" xmlns:xlink="http://www.w3.org/1999/xlink" x="0px" y="0px"
	 viewBox="0 0 28 28" enable-background="new 0 0 28 28" xml:space="preserve">
<path d="M0,28h4v-4H0V28z M6,28h22v-4H6V28z M0,22h4v-4H0V22z M6,22h22v-4H6V22z M0,16h4v-4.001H0V16z M6,16h22v-4.001H6V16z M0,10
	h4V6H0V10z M6,10h22V6H6V10z M0,4h4V0H0V4z M6,4h22V0H6V4z"/>
</svg>
