<?xml version="1.0" encoding="utf-8"?>
<!-- Generator: Adobe Illustrator 17.1.0, SVG Export Plug-In . SVG Version: 6.00 Build 0)  -->
<!DOCTYPE svg PUBLIC "-//W3C//DTD SVG 1.1//EN" "http://www.w3.org/Graphics/SVG/1.1/DTD/svg11.dtd">
<svg version="1.1" id="Layer_1" xmlns="http://www.w3.org/2000/svg" xmlns:xlink="http://www.w3.org/1999/xlink" x="0px" y="0px"
	 viewBox="0 0 28 28" enable-background="new 0 0 28 28" xml:space="preserve">
<g>
	<defs>
		<rect id="SVGID_1_" width="28" height="28"/>
	</defs>
	<clipPath id="SVGID_2_">
		<use xlink:href="#SVGID_1_"  overflow="visible"/>
	</clipPath>
	<path clip-path="url(#SVGID_2_)" d="M0,0v28h19v-9h9V0H0z M4.502,5C3.672,5,3,4.329,3,3.5C3,2.673,3.672,2,4.502,2
		C5.33,2,6,2.673,6,3.5C6,4.329,5.33,5,4.502,5 M23.502,5C22.674,5,22,4.329,22,3.5C22,2.673,22.674,2,23.502,2
		C24.328,2,25,2.673,25,3.5C25,4.329,24.328,5,23.502,5 M20,27.999L28,20h-8V27.999z"/>
</g>
</svg>
