<?xml version="1.0" encoding="utf-8"?>
<!-- Generator: Adobe Illustrator 17.1.0, SVG Export Plug-In . SVG Version: 6.00 Build 0)  -->
<!DOCTYPE svg PUBLIC "-//W3C//DTD SVG 1.1//EN" "http://www.w3.org/Graphics/SVG/1.1/DTD/svg11.dtd">
<svg version="1.1" id="Layer_1" xmlns="http://www.w3.org/2000/svg" xmlns:xlink="http://www.w3.org/1999/xlink" x="0px" y="0px"
	 viewBox="0 0 28 28" enable-background="new 0 0 28 28" xml:space="preserve">
<g>
	<defs>
		<rect id="SVGID_1_" width="28" height="28"/>
	</defs>
	<clipPath id="SVGID_2_">
		<use xlink:href="#SVGID_1_"  overflow="visible"/>
	</clipPath>
	<path clip-path="url(#SVGID_2_)" d="M0,28h28V0H0V28z M17.502,2C18.33,2,19,2.673,19,3.5C19,4.329,18.33,5,17.502,5
		C16.672,5,16,4.329,16,3.5C16,2.673,16.672,2,17.502,2 M10.502,2C11.328,2,12,2.673,12,3.5C12,4.329,11.328,5,10.502,5
		C9.674,5,9,4.329,9,3.5C9,2.673,9.674,2,10.502,2 M4.502,2C5.33,2,6,2.673,6,3.5C6,4.329,5.33,5,4.502,5C3.672,5,3,4.329,3,3.5
		C3,2.673,3.672,2,4.502,2 M25,25H3v-1h22V25z M25,22H3v-1h22V22z M25,19H3v-1h22V19z M25,16H3v-1h22V16z M25,13H3v-1h22V13z
		 M23.502,5C22.674,5,22,4.329,22,3.5C22,2.673,22.674,2,23.502,2C24.328,2,25,2.673,25,3.5C25,4.329,24.328,5,23.502,5"/>
</g>
</svg>
