<?xml version="1.0" encoding="utf-8"?>
<!-- Generator: Adobe Illustrator 17.1.0, SVG Export Plug-In . SVG Version: 6.00 Build 0)  -->
<!DOCTYPE svg PUBLIC "-//W3C//DTD SVG 1.1//EN" "http://www.w3.org/Graphics/SVG/1.1/DTD/svg11.dtd">
<svg version="1.1" id="Layer_1" xmlns="http://www.w3.org/2000/svg" xmlns:xlink="http://www.w3.org/1999/xlink" x="0px" y="0px"
	 viewBox="0 0 28 28" enable-background="new 0 0 28 28" xml:space="preserve">
<g>
	<defs>
		<rect id="SVGID_1_" width="28" height="28"/>
	</defs>
	<clipPath id="SVGID_2_">
		<use xlink:href="#SVGID_1_"  overflow="visible"/>
	</clipPath>
	<path clip-path="url(#SVGID_2_)" d="M23.999,7.008l-1.074,1.074c-1.902-1.902-4.527-3.08-7.423-3.08
		c-0.68,0-1.343,0.07-1.986,0.195l1.476-1.478c0.298,0.176,0.641,0.283,1.01,0.283c1.105,0,2.001-0.896,2.001-2
		C18.003,0.897,17.107,0,16.002,0c-1.105,0-2,0.897-2,2.002c0,0.369,0.107,0.713,0.283,1.01l-3.637,3.637L9.001,5.002L5,9.004
		l1.647,1.647l-3.636,3.638C2.713,14.113,2.37,14.006,2,14.006c-1.105,0-2,0.895-2,2c0,1.106,0.895,2,2,2c1.106,0,2-0.894,2-2
		c0-0.369-0.107-0.713-0.282-1.01l1.476-1.476C5.069,14.162,5,14.826,5,15.506c0,2.897,1.178,5.523,3.08,7.424l-1.079,1.08
		L11.012,28l3.99-3.99l-4-4.002l-1.508,1.508C7.954,19.977,7,17.85,7,15.506c0-1.312,0.308-2.551,0.841-3.662l1.16,1.162
		l4.001-4.002l-1.16-1.16c1.11-0.533,2.348-0.84,3.66-0.84c2.344,0,4.469,0.953,6.009,2.492l-1.508,1.508l4.001,4.002L28,11.01
		L23.999,7.008z"/>
</g>
</svg>
