<?xml version="1.0" encoding="utf-8"?>
<!-- Generator: Adobe Illustrator 17.1.0, SVG Export Plug-In . SVG Version: 6.00 Build 0)  -->
<!DOCTYPE svg PUBLIC "-//W3C//DTD SVG 1.1//EN" "http://www.w3.org/Graphics/SVG/1.1/DTD/svg11.dtd">
<svg version="1.1" id="Layer_1" xmlns="http://www.w3.org/2000/svg" xmlns:xlink="http://www.w3.org/1999/xlink" x="0px" y="0px"
	 viewBox="0 0 28 28" enable-background="new 0 0 28 28" xml:space="preserve">
<path d="M0,28h14v-2H0V28z M0,23h14v-2H0V23z M0,18h14v-2H0V18z M16,28h2V14h-2V28z M21,28h2.001V14H21V28z M26,28h2V14h-2V28z
	 M14,12h13.999v-2H14V12z M14,7h13.999V4.999H14V7z M0,14h2V0.001H0V14z M5,14h2V0.001H5V14z M10,14h2V0.001h-2V14z M14,2h13.999V0
	H14V2z"/>
</svg>
