<?xml version="1.0" encoding="utf-8"?>
<!-- Generator: Adobe Illustrator 17.1.0, SVG Export Plug-In . SVG Version: 6.00 Build 0)  -->
<!DOCTYPE svg PUBLIC "-//W3C//DTD SVG 1.1//EN" "http://www.w3.org/Graphics/SVG/1.1/DTD/svg11.dtd">
<svg version="1.1" id="Layer_1" xmlns="http://www.w3.org/2000/svg" xmlns:xlink="http://www.w3.org/1999/xlink" x="0px" y="0px"
	 viewBox="0 0 28 28" enable-background="new 0 0 28 28" xml:space="preserve">
<g>
	<defs>
		<rect id="SVGID_1_" width="28" height="28"/>
	</defs>
	<clipPath id="SVGID_2_">
		<use xlink:href="#SVGID_1_"  overflow="visible"/>
	</clipPath>
	<path clip-path="url(#SVGID_2_)" d="M18,14c1.666,0,5-1.549,5-5V5c0-2.76-2.239-5-5-5s-5,2.24-5,5v4C13,12.451,16.334,13.998,18,14
		"/>
	<polygon clip-path="url(#SVGID_2_)" points="14,19 9,19 9,14 5,14 5,19 0,19 0,23 5,23 5,28 9,28 9,23 14,23 	"/>
	<path clip-path="url(#SVGID_2_)" d="M18,15c-2.822,0-4.857,0.803-6.335,2H16v8h-5v3h17v-2C28,22.333,26.572,15,18,15"/>
</g>
</svg>
