<?xml version="1.0" encoding="utf-8"?>
<!-- Generator: Adobe Illustrator 17.1.0, SVG Export Plug-In . SVG Version: 6.00 Build 0)  -->
<!DOCTYPE svg PUBLIC "-//W3C//DTD SVG 1.1//EN" "http://www.w3.org/Graphics/SVG/1.1/DTD/svg11.dtd">
<svg version="1.1" id="Layer_1" xmlns="http://www.w3.org/2000/svg" xmlns:xlink="http://www.w3.org/1999/xlink" x="0px" y="0px"
	 viewBox="0 0 28 28" enable-background="new 0 0 28 28" xml:space="preserve">
<g>
	<defs>
		<rect id="SVGID_1_" width="28" height="28"/>
	</defs>
	<clipPath id="SVGID_2_">
		<use xlink:href="#SVGID_1_"  overflow="visible"/>
	</clipPath>
	<path clip-path="url(#SVGID_2_)" d="M18,14c1.666,0,5-1.549,5-5V5c0-2.76-2.239-5-5-5s-5,2.24-5,5v4C13,12.451,16.334,13.998,18,14
		"/>
	<polygon clip-path="url(#SVGID_2_)" points="9.192,21.636 12.728,18.101 9.899,15.272 6.364,18.808 2.829,15.272 0,18.101 
		3.536,21.636 0,25.171 2.829,28 6.364,24.464 9.899,28 12.728,25.171 	"/>
	<path clip-path="url(#SVGID_2_)" d="M18,15c-1.858,0-3.363,0.359-4.608,0.936l2.165,2.165l-3.536,3.535l3.536,3.535L12.728,28H28
		v-2C28,22.333,26.572,15,18,15"/>
</g>
</svg>
