<?xml version="1.0" encoding="utf-8"?>
<!-- Generator: Adobe Illustrator 17.1.0, SVG Export Plug-In . SVG Version: 6.00 Build 0)  -->
<!DOCTYPE svg PUBLIC "-//W3C//DTD SVG 1.1//EN" "http://www.w3.org/Graphics/SVG/1.1/DTD/svg11.dtd">
<svg version="1.1" id="Layer_1" xmlns="http://www.w3.org/2000/svg" xmlns:xlink="http://www.w3.org/1999/xlink" x="0px" y="0px"
	 viewBox="0 0 28 28" enable-background="new 0 0 28 28" xml:space="preserve">
<g>
	<defs>
		<rect id="SVGID_1_" width="28" height="28"/>
	</defs>
	<clipPath id="SVGID_2_">
		<use xlink:href="#SVGID_1_"  overflow="visible"/>
	</clipPath>
	<path clip-path="url(#SVGID_2_)" d="M18,14c1.666,0,5-1.549,5-5V5c0-2.76-2.239-5-5-5s-5,2.24-5,5v4C13,12.451,16.334,13.998,18,14
		"/>
	<path clip-path="url(#SVGID_2_)" d="M14,20.07c0-1.877-1.647-4.07-3.673-4.07c-1.471,0-2.739,0.806-3.326,1.962
		C6.414,16.806,5.146,16,3.677,16C1.646,16,0,18.193,0,20.07C0,23.889,7.001,28,7.001,28S14,23.766,14,20.07"/>
	<path clip-path="url(#SVGID_2_)" d="M18,15c-1.526,0-2.816,0.241-3.922,0.643C15.269,16.834,16,18.501,16,20.07
		c0,3.133-3.088,6.102-5.472,7.93H28v-2C28,22.333,26.572,15,18,15"/>
</g>
</svg>
