<?xml version="1.0" encoding="utf-8"?>
<!-- Generator: Adobe Illustrator 17.1.0, SVG Export Plug-In . SVG Version: 6.00 Build 0)  -->
<!DOCTYPE svg PUBLIC "-//W3C//DTD SVG 1.1//EN" "http://www.w3.org/Graphics/SVG/1.1/DTD/svg11.dtd">
<svg version="1.1" id="Layer_1" xmlns="http://www.w3.org/2000/svg" xmlns:xlink="http://www.w3.org/1999/xlink" x="0px" y="0px"
	 viewBox="0 0 28 28" enable-background="new 0 0 28 28" xml:space="preserve">
<rect y="23.999" width="28" height="4"/>
<g>
	<defs>
		<rect id="SVGID_1_" width="28" height="28"/>
	</defs>
	<clipPath id="SVGID_2_">
		<use xlink:href="#SVGID_1_"  overflow="visible"/>
	</clipPath>
	<path clip-path="url(#SVGID_2_)" d="M14.464,0c-0.151,0-0.307,0.001-0.459,0.003C13.853,0.002,13.69,0,13.54,0
		C2.409,0,0,4.785,0,6.09V9h6V7c0.002-1.066,2.821-2.178,5.217-2.427c0.841-0.085,1.789-0.135,2.784-0.137
		c0.994,0.002,1.943,0.052,2.782,0.137C19.18,4.822,21.872,5.618,22,7v2h6V6.09C28,4.787,25.591,0,14.464,0"/>
	<path clip-path="url(#SVGID_2_)" d="M14,11c-2.757,0-5,2.019-5,4.5s2.243,4.5,5,4.5c0.678,0,1.323-0.124,1.913-0.346L15,16
		l3.718,0.929C18.887,16.477,19,16.001,19,15.5C19,13.019,16.757,11,14,11"/>
	<path clip-path="url(#SVGID_2_)" d="M21,10V7c-1-1-3-1.231-4-1.337V8h-6V5.663C10,5.769,8,6,7,7v3H6c-1.995,3-5.359,10-6,13h0.005
		H28c-0.641-3-4.006-10-6-13H21z M14,21c-3.314,0-6-2.463-6-5.5s2.686-5.5,6-5.5c3.313,0,6,2.463,6,5.5S17.313,21,14,21"/>
</g>
</svg>
