<?xml version="1.0" encoding="utf-8"?>
<!-- Generator: Adobe Illustrator 17.1.0, SVG Export Plug-In . SVG Version: 6.00 Build 0)  -->
<!DOCTYPE svg PUBLIC "-//W3C//DTD SVG 1.1//EN" "http://www.w3.org/Graphics/SVG/1.1/DTD/svg11.dtd">
<svg version="1.1" id="Layer_1" xmlns="http://www.w3.org/2000/svg" xmlns:xlink="http://www.w3.org/1999/xlink" x="0px" y="0px"
	 viewBox="0 0 28 28" enable-background="new 0 0 28 28" xml:space="preserve">
<g>
	<defs>
		<rect id="SVGID_1_" width="28" height="28"/>
	</defs>
	<clipPath id="SVGID_2_">
		<use xlink:href="#SVGID_1_"  overflow="visible"/>
	</clipPath>
	<path clip-path="url(#SVGID_2_)" d="M10.551,8H15v5.448c0.168,0.018,0.33,0.052,0.5,0.052c0.881,0,1.739-0.244,2.5-0.687V5h-6.06
		C11.164,5.789,10.668,6.839,10.551,8 M15,18.475V21H3V11h2.83C5.623,10.199,5.5,9.364,5.5,8.5c0-0.169,0.018-0.333,0.026-0.5H0v20
		h18v-9.834c-0.814,0.212-1.652,0.334-2.5,0.334C15.332,18.5,15.168,18.483,15,18.475 M27.414,17.586l-4.664-4.664
		C23.539,11.632,24,10.121,24,8.5C24,3.806,20.196,0,15.5,0C10.807,0,7,3.806,7,8.5s3.807,8.5,8.5,8.5
		c1.623,0,3.133-0.463,4.422-1.25l4.664,4.664C24.977,20.805,25.489,21,26,21c0.512,0,1.026-0.195,1.414-0.586
		C28.196,19.633,28.196,18.367,27.414,17.586 M20.971,12.004c-0.508,0.788-1.178,1.459-1.967,1.965C17.992,14.619,16.793,15,15.5,15
		C11.91,15,9,12.09,9,8.5S11.91,2,15.5,2S22,4.91,22,8.5C22,9.791,21.619,10.992,20.971,12.004"/>
</g>
</svg>
