<?xml version="1.0" encoding="utf-8"?>
<!-- Generator: Adobe Illustrator 17.1.0, SVG Export Plug-In . SVG Version: 6.00 Build 0)  -->
<!DOCTYPE svg PUBLIC "-//W3C//DTD SVG 1.1//EN" "http://www.w3.org/Graphics/SVG/1.1/DTD/svg11.dtd">
<svg version="1.1" id="Layer_1" xmlns="http://www.w3.org/2000/svg" xmlns:xlink="http://www.w3.org/1999/xlink" x="0px" y="0px"
	 viewBox="0 0 28 28" enable-background="new 0 0 28 28" xml:space="preserve">
<g>
	<defs>
		<rect id="SVGID_1_" width="28" height="28"/>
	</defs>
	<clipPath id="SVGID_2_">
		<use xlink:href="#SVGID_1_"  overflow="visible"/>
	</clipPath>
	<path clip-path="url(#SVGID_2_)" d="M14,17.901c1.152,0,2-0.936,2-2.087V2.087C16,0.932,15.152,0,14,0c-1.15,0-2,0.932-2,2.087
		v13.727C12,16.965,12.85,17.901,14,17.901 M20,1.154v4.749c2,1.774,4.019,4.74,4.019,8.097c0,5.42-4.537,9.831-9.957,9.831
		C8.643,23.831,3.98,19.42,3.98,14C3.98,10.643,6,7.677,8,5.903V1.154C3,3.312,0,8.255,0,14c0,7.72,6.123,14,13.842,14
		C21.562,28,28,21.72,28,14C28,8.255,25,3.312,20,1.154"/>
</g>
</svg>
