<?xml version="1.0" encoding="utf-8"?>
<!-- Generator: Adobe Illustrator 17.1.0, SVG Export Plug-In . SVG Version: 6.00 Build 0)  -->
<!DOCTYPE svg PUBLIC "-//W3C//DTD SVG 1.1//EN" "http://www.w3.org/Graphics/SVG/1.1/DTD/svg11.dtd">
<svg version="1.1" id="Layer_1" xmlns="http://www.w3.org/2000/svg" xmlns:xlink="http://www.w3.org/1999/xlink" x="0px" y="0px"
	 viewBox="0 0 28 28" enable-background="new 0 0 28 28" xml:space="preserve">
<g>
	<defs>
		<rect id="SVGID_1_" width="28" height="28"/>
	</defs>
	<clipPath id="SVGID_2_">
		<use xlink:href="#SVGID_1_"  overflow="visible"/>
	</clipPath>
	<path clip-path="url(#SVGID_2_)" d="M21.469,13.064c3.607,0,6.531-2.922,6.531-6.531C28,2.927,25.076,0,21.469,0
		c-3.61,0-6.536,2.927-6.536,6.533C14.933,10.142,17.859,13.064,21.469,13.064 M6.535,14.937C2.926,14.937,0,17.863,0,21.47
		S2.926,27.999,6.535,28c3.607-0.001,6.531-2.923,6.531-6.53S10.142,14.937,6.535,14.937 M21.469,14.937
		c-3.612,0-6.536,2.926-6.536,6.533c0,3.608,2.924,6.529,6.536,6.53C25.074,27.999,28,25.078,28,21.47
		C28,17.863,25.074,14.937,21.469,14.937 M21.469,25.926c-2.459,0-4.461-1.999-4.461-4.456c0-2.459,2-4.458,4.461-4.458
		c2.457,0,4.457,1.999,4.457,4.458C25.926,23.927,23.926,25.926,21.469,25.926 M6.535,0C2.926,0,0,2.927,0,6.533
		c0,3.609,2.926,6.531,6.535,6.531c3.607,0,6.531-2.922,6.531-6.531C13.066,2.927,10.142,0,6.535,0"/>
</g>
</svg>
