<?xml version="1.0" encoding="utf-8"?>
<!-- Generator: Adobe Illustrator 17.1.0, SVG Export Plug-In . SVG Version: 6.00 Build 0)  -->
<!DOCTYPE svg PUBLIC "-//W3C//DTD SVG 1.1//EN" "http://www.w3.org/Graphics/SVG/1.1/DTD/svg11.dtd">
<svg version="1.1" id="Layer_1" xmlns="http://www.w3.org/2000/svg" xmlns:xlink="http://www.w3.org/1999/xlink" x="0px" y="0px"
	 viewBox="0 0 28 28" enable-background="new 0 0 28 28" xml:space="preserve">
<g>
	<defs>
		<rect id="SVGID_1_" width="28" height="28"/>
	</defs>
	<clipPath id="SVGID_2_">
		<use xlink:href="#SVGID_1_"  overflow="visible"/>
	</clipPath>
	<path clip-path="url(#SVGID_2_)" d="M16,28.101c0-8.822-7.178-16-16-16v-5c11.599,0,21,9.4,21,21H16z M23,28.101
		c0-12.683-10.317-23-23-23v-5.202c15.467,0,28,12.622,28,28.202H23z"/>
	<path clip-path="url(#SVGID_2_)" d="M3.25,28.101c-1.794,0-3.25-1.456-3.25-3.25c0-1.795,1.456-3.25,3.25-3.25
		s3.25,1.455,3.25,3.25C6.5,26.645,5.044,28.101,3.25,28.101"/>
</g>
</svg>
