<?xml version="1.0" encoding="utf-8"?>
<!-- Generator: Adobe Illustrator 17.1.0, SVG Export Plug-In . SVG Version: 6.00 Build 0)  -->
<!DOCTYPE svg PUBLIC "-//W3C//DTD SVG 1.1//EN" "http://www.w3.org/Graphics/SVG/1.1/DTD/svg11.dtd">
<svg version="1.1" id="Layer_1" xmlns="http://www.w3.org/2000/svg" xmlns:xlink="http://www.w3.org/1999/xlink" x="0px" y="0px"
	 viewBox="0 0 28 28" enable-background="new 0 0 28 28" xml:space="preserve">
<g>
	<defs>
		<rect id="SVGID_1_" width="28" height="28"/>
	</defs>
	<clipPath id="SVGID_2_">
		<use xlink:href="#SVGID_1_"  overflow="visible"/>
	</clipPath>
	<path clip-path="url(#SVGID_2_)" d="M10.513,4.667c0,1.261-0.413,2.424-1.105,3.37h17.194C27.463,7.173,28,5.975,28,4.667
		c0-2.432-1.844-4.428-4.199-4.646V0H8.098C9.557,1.032,10.513,2.737,10.513,4.667 M8.662,21.024H0.598
		C0.225,21.697,0,22.465,0,23.29c0,2.576,2.073,4.666,4.629,4.666c2.557,0,4.629-2.09,4.629-4.666
		C9.258,22.465,9.035,21.697,8.662,21.024 M22.171,12.229c-0.283-1.06-0.294-2.058,0.171-2.854c0.062-0.104,0.115-0.205,0.158-0.302
		H7.372l1.042-1.424C8.752,7.241,9.016,6.773,9.2,6.265c0.002-0.008,0.005-0.014,0.007-0.022c0.14-0.39,0.229-0.804,0.26-1.235
		c0.002-0.014,0.004-0.025,0.006-0.039H9.469c0.006-0.101,0.015-0.2,0.015-0.302C9.484,2.089,7.412,0,4.856,0
		C2.299,0,0.227,2.089,0.227,4.667c0,0.243,0.023,0.481,0.06,0.715c0.082,7.367,7.869,13.24,7.869,13.24H8.098
		c1.459,1.034,2.415,2.739,2.415,4.668c0,1.954-0.982,3.682-2.472,4.71h15.76C26.156,27.781,28,25.721,28,23.29
		c0-0.491-0.077-1.007-0.213-1.509C27.921,21.196,28,20.589,28,19.963C28,16.28,25.528,13.177,22.171,12.229 M20.028,26.963
		c-3.835,0-6.944-3.135-6.944-7c0-3.866,3.109-7,6.944-7c0.912,0,1.783,0.182,2.581,0.504c0.129,0.053,0.255,0.111,0.381,0.171
		c0.05,0.025,0.1,0.049,0.148,0.072c0.12,0.062,0.239,0.125,0.354,0.191c0.044,0.027,0.088,0.054,0.131,0.081
		c0.363,0.222,0.705,0.478,1.022,0.761c0.054,0.05,0.109,0.099,0.162,0.15c0.084,0.08,0.165,0.161,0.244,0.245
		c0.06,0.062,0.115,0.127,0.173,0.191c0.071,0.082,0.142,0.16,0.21,0.244c0.111,0.138,0.216,0.281,0.316,0.426
		c0.049,0.074,0.094,0.149,0.141,0.223c0.061,0.098,0.121,0.196,0.177,0.297c0.045,0.077,0.086,0.155,0.127,0.234
		c0.056,0.11,0.108,0.223,0.159,0.336c0.033,0.07,0.066,0.142,0.095,0.213c0.076,0.181,0.143,0.365,0.201,0.554
		c0.014,0.047,0.026,0.095,0.04,0.142c0.044,0.153,0.085,0.307,0.118,0.463c0.015,0.073,0.029,0.146,0.042,0.218
		c0.025,0.142,0.047,0.285,0.064,0.429c0.01,0.072,0.019,0.14,0.026,0.211c0.018,0.207,0.031,0.416,0.031,0.626
		c0,0.006,0.002,0.011,0.002,0.018C26.973,23.828,23.863,26.963,20.028,26.963 M18.42,23.462l4.631-3.499l-4.631-3.5V23.462z"/>
</g>
</svg>
