<?xml version="1.0" encoding="utf-8"?>
<!-- Generator: Adobe Illustrator 17.1.0, SVG Export Plug-In . SVG Version: 6.00 Build 0)  -->
<!DOCTYPE svg PUBLIC "-//W3C//DTD SVG 1.1//EN" "http://www.w3.org/Graphics/SVG/1.1/DTD/svg11.dtd">
<svg version="1.1" id="Layer_1" xmlns="http://www.w3.org/2000/svg" xmlns:xlink="http://www.w3.org/1999/xlink" x="0px" y="0px"
	 viewBox="0 0 28 28" enable-background="new 0 0 28 28" xml:space="preserve">
<g>
	<defs>
		<rect id="SVGID_1_" width="28" height="28"/>
	</defs>
	<clipPath id="SVGID_2_">
		<use xlink:href="#SVGID_1_"  overflow="visible"/>
	</clipPath>
	<path clip-path="url(#SVGID_2_)" d="M10.455,4.667c0,1.261-0.415,2.424-1.109,3.37h17.252C27.461,7.173,28,5.975,28,4.667
		c0-2.432-1.852-4.428-4.214-4.646V0H8.031C9.493,1.032,10.455,2.737,10.455,4.667 M8.691,21.024H0.6C0.225,21.697,0,22.465,0,23.29
		c0,2.576,2.08,4.666,4.645,4.666s4.644-2.09,4.644-4.666C9.289,22.465,9.064,21.697,8.691,21.024 M20,16.592
		c-1.852,0-3.355,1.51-3.355,3.371c0,1.862,1.503,3.37,3.355,3.37c1.854,0,3.355-1.508,3.355-3.37
		C23.355,18.102,21.854,16.592,20,16.592 M22.151,12.229c-0.284-1.06-0.296-2.058,0.172-2.854c0.062-0.104,0.115-0.205,0.157-0.302
		H7.304l1.045-1.424c0.337-0.408,0.602-0.876,0.788-1.384c0.002-0.008,0.005-0.014,0.007-0.022c0.139-0.39,0.229-0.804,0.26-1.235
		c0.002-0.014,0.005-0.025,0.005-0.039H9.407c0.006-0.101,0.015-0.2,0.015-0.302C9.422,2.089,7.343,0,4.777,0
		C2.213,0,0.132,2.089,0.132,4.667c0,0.243,0.025,0.481,0.061,0.715c0.082,7.367,7.895,13.24,7.895,13.24H8.031
		c1.462,1.034,2.424,2.739,2.424,4.668c0,1.954-0.985,3.682-2.482,4.71h15.813C26.148,27.781,28,25.721,28,23.29
		c0-0.491-0.078-1.007-0.215-1.509C27.921,21.196,28,20.589,28,19.963C28,16.28,25.52,13.177,22.151,12.229 M20,26.963
		c-3.848,0-6.966-3.135-6.966-7c0-3.866,3.118-7,6.966-7c0.916,0,1.789,0.182,2.589,0.504c0.132,0.053,0.259,0.111,0.386,0.171
		c0.048,0.025,0.097,0.049,0.146,0.072c0.121,0.062,0.24,0.125,0.356,0.191c0.044,0.027,0.087,0.054,0.13,0.08
		c0.366,0.223,0.708,0.479,1.026,0.762c0.054,0.05,0.109,0.099,0.163,0.15c0.084,0.08,0.165,0.161,0.245,0.245
		c0.06,0.062,0.116,0.127,0.174,0.191c0.07,0.082,0.142,0.16,0.21,0.244c0.11,0.138,0.217,0.281,0.317,0.426
		c0.051,0.074,0.094,0.149,0.14,0.223c0.063,0.098,0.124,0.196,0.18,0.297c0.043,0.077,0.086,0.155,0.125,0.234
		c0.057,0.11,0.112,0.223,0.161,0.336c0.033,0.07,0.066,0.142,0.096,0.213c0.075,0.181,0.142,0.365,0.202,0.554
		c0.014,0.047,0.024,0.095,0.04,0.142c0.043,0.152,0.084,0.307,0.119,0.463c0.014,0.073,0.027,0.145,0.041,0.218
		c0.025,0.142,0.049,0.285,0.064,0.429c0.01,0.072,0.02,0.14,0.026,0.211c0.019,0.207,0.031,0.415,0.031,0.626
		c0,0.006,0.002,0.011,0.002,0.018C26.969,23.828,23.848,26.963,20,26.963"/>
</g>
</svg>
