<?xml version="1.0" encoding="utf-8"?>
<!-- Generator: Adobe Illustrator 17.1.0, SVG Export Plug-In . SVG Version: 6.00 Build 0)  -->
<!DOCTYPE svg PUBLIC "-//W3C//DTD SVG 1.1//EN" "http://www.w3.org/Graphics/SVG/1.1/DTD/svg11.dtd">
<svg version="1.1" id="Layer_1" xmlns="http://www.w3.org/2000/svg" xmlns:xlink="http://www.w3.org/1999/xlink" x="0px" y="0px"
	 viewBox="0 0 28 28" enable-background="new 0 0 28 28" xml:space="preserve">
<g>
	<defs>
		<rect id="SVGID_1_" width="28" height="28"/>
	</defs>
	<clipPath id="SVGID_2_">
		<use xlink:href="#SVGID_1_"  overflow="visible"/>
	</clipPath>
	<path clip-path="url(#SVGID_2_)" d="M10.395,4.667c0,1.261-0.416,2.424-1.112,3.37h17.31C27.459,7.173,28,5.975,28,4.667
		c0-2.432-1.857-4.428-4.229-4.647V0H7.963C9.431,1.032,10.395,2.737,10.395,4.667 M22.131,12.228
		c-0.285-1.059-0.295-2.057,0.174-2.853c0.062-0.105,0.113-0.205,0.158-0.302H7.232l1.049-1.425c0.34-0.407,0.606-0.876,0.791-1.383
		C9.074,6.257,9.078,6.251,9.08,6.243c0.141-0.391,0.231-0.805,0.262-1.235c0.001-0.014,0.004-0.026,0.005-0.039H9.344
		c0.006-0.101,0.015-0.2,0.015-0.302C9.359,2.089,7.272,0,4.697,0C2.124,0,0.039,2.089,0.039,4.667c0,0.243,0.023,0.48,0.061,0.715
		c0.082,7.367,7.921,13.24,7.921,13.24H7.963c1.468,1.034,2.432,2.739,2.432,4.668c0,1.954-0.989,3.682-2.49,4.71h15.866
		C26.143,27.781,28,25.721,28,23.29c0-0.491-0.078-1.007-0.215-1.509C27.92,21.196,28,20.589,28,19.963
		C28,16.28,25.511,13.177,22.131,12.228 M19.975,26.963c-3.862,0-6.992-3.135-6.992-7c0-3.866,3.13-7,6.992-7
		c0.918,0,1.793,0.181,2.597,0.504c0.131,0.052,0.258,0.111,0.385,0.171c0.049,0.025,0.1,0.048,0.148,0.072
		c0.122,0.061,0.241,0.125,0.356,0.191c0.045,0.027,0.088,0.054,0.133,0.08c0.364,0.223,0.709,0.479,1.027,0.762
		c0.056,0.05,0.11,0.099,0.164,0.15c0.084,0.08,0.166,0.161,0.245,0.245c0.061,0.062,0.117,0.127,0.175,0.191
		c0.071,0.082,0.144,0.16,0.212,0.244c0.11,0.138,0.217,0.28,0.316,0.426c0.051,0.074,0.096,0.148,0.143,0.223
		c0.062,0.098,0.123,0.196,0.18,0.297c0.045,0.077,0.086,0.155,0.127,0.234c0.056,0.11,0.109,0.223,0.16,0.336
		c0.032,0.07,0.066,0.141,0.095,0.213c0.076,0.181,0.143,0.365,0.204,0.553c0.013,0.048,0.024,0.096,0.038,0.143
		c0.045,0.152,0.086,0.307,0.119,0.463c0.015,0.073,0.029,0.145,0.043,0.218c0.025,0.142,0.047,0.285,0.064,0.429
		c0.01,0.072,0.018,0.14,0.026,0.211c0.017,0.207,0.031,0.415,0.031,0.626c0,0.006,0.002,0.011,0.002,0.018
		C26.965,23.828,23.835,26.963,19.975,26.963 M9.321,23.29c0-0.825-0.225-1.593-0.6-2.266H0.602C0.227,21.697,0,22.465,0,23.29
		c0,2.576,2.087,4.666,4.66,4.666C7.234,27.956,9.321,25.866,9.321,23.29 M16.819,23.027h5.999V17.02h-5.999V23.027z"/>
</g>
</svg>
