<?xml version="1.0" encoding="utf-8"?>
<!-- Generator: Adobe Illustrator 17.1.0, SVG Export Plug-In . SVG Version: 6.00 Build 0)  -->
<!DOCTYPE svg PUBLIC "-//W3C//DTD SVG 1.1//EN" "http://www.w3.org/Graphics/SVG/1.1/DTD/svg11.dtd">
<svg version="1.1" id="Layer_1" xmlns="http://www.w3.org/2000/svg" xmlns:xlink="http://www.w3.org/1999/xlink" x="0px" y="0px"
	 viewBox="0 0 28 28" enable-background="new 0 0 28 28" xml:space="preserve">
<polygon points="4,10 0,10 0,18 4,18 12,24 12,4 "/>
<g>
	<defs>
		<rect id="SVGID_1_" width="28" height="28"/>
	</defs>
	<clipPath id="SVGID_2_">
		<use xlink:href="#SVGID_1_"  overflow="visible"/>
	</clipPath>
	<path clip-path="url(#SVGID_2_)" d="M21.648,0.211c-0.364-0.314-0.918-0.273-1.232,0.094c-0.315,0.369-0.273,0.921,0.095,1.234
		C24.159,4.661,26.25,9.203,26.25,14c0,4.795-2.091,9.337-5.737,12.459c-0.368,0.314-0.41,0.865-0.096,1.234
		C20.589,27.897,20.836,28,21.082,28c0.202,0,0.402-0.071,0.568-0.211C25.687,24.334,28,19.309,28,14
		C28,8.69,25.687,3.664,21.648,0.211"/>
	<path clip-path="url(#SVGID_2_)" d="M24.422,14c0-4.301-1.874-8.37-5.143-11.166c-0.366-0.311-0.919-0.272-1.234,0.097
		c-0.314,0.368-0.269,0.92,0.097,1.233c2.878,2.464,4.53,6.049,4.53,9.836s-1.652,7.371-4.528,9.834
		c-0.367,0.314-0.411,0.865-0.097,1.233c0.175,0.203,0.419,0.307,0.665,0.307c0.201,0,0.405-0.07,0.569-0.21
		C22.549,22.368,24.422,18.3,24.422,14"/>
	<path clip-path="url(#SVGID_2_)" d="M20.723,14c0-2.952-1.287-5.746-3.528-7.666c-0.366-0.313-0.918-0.271-1.234,0.097
		c-0.315,0.368-0.272,0.918,0.095,1.233c1.854,1.588,2.917,3.895,2.917,6.336c0,2.439-1.063,4.746-2.915,6.334
		c-0.367,0.316-0.41,0.867-0.094,1.233c0.172,0.204,0.417,0.307,0.663,0.307c0.202,0,0.405-0.069,0.569-0.21
		C19.438,19.742,20.723,16.948,20.723,14"/>
</g>
</svg>
