<?xml version="1.0" encoding="utf-8"?>
<!-- Generator: Adobe Illustrator 17.1.0, SVG Export Plug-In . SVG Version: 6.00 Build 0)  -->
<!DOCTYPE svg PUBLIC "-//W3C//DTD SVG 1.1//EN" "http://www.w3.org/Graphics/SVG/1.1/DTD/svg11.dtd">
<svg version="1.1" id="Layer_1" xmlns="http://www.w3.org/2000/svg" xmlns:xlink="http://www.w3.org/1999/xlink" x="0px" y="0px"
	 viewBox="0 0 28 28" enable-background="new 0 0 28 28" xml:space="preserve">
<polygon points="25.666,0 23.334,2.333 20.999,0 18.668,2.333 16.334,0 14,2.333 11.666,0 9.334,2.333 7,0 4.668,2.333 2.333,0 
	0,2.333 2.333,4.666 0,7.001 2.333,9.333 0,11.667 2.333,13.999 0,16.334 2.333,18.667 0,21.001 2.333,23.332 0,25.667 2.333,28 
	4.668,25.667 7,28 9.334,25.667 11.666,28 14,25.667 16.334,28 18.668,25.667 20.999,28 23.334,25.667 25.666,28 28,25.667 
	25.666,23.332 28,21.001 25.666,18.667 28,16.334 25.666,13.999 28,11.667 25.666,9.333 28,7.001 25.666,4.666 28,2.333 "/>
</svg>
