<?xml version="1.0" encoding="UTF-8" standalone="no"?>
<svg width="38px" height="36px" viewBox="0 0 38 36" version="1.1" xmlns="http://www.w3.org/2000/svg" xmlns:xlink="http://www.w3.org/1999/xlink" xmlns:sketch="http://www.bohemiancoding.com/sketch/ns">
    <!-- Generator: Sketch 3.0.4 (8053) - http://www.bohemiancoding.com/sketch -->
    <title>Add to List</title>
    <desc>Created with Sketch.</desc>
    <defs></defs>
    <g id="Icons" stroke="none" stroke-width="1" fill="none" fill-rule="evenodd" sketch:type="MSPage">
        <g id="Design-&amp;-Development" sketch:type="MSArtboardGroup" transform="translate(-201.000000, -82.000000)" fill="#231F1F">
            <g id="Add-to-List" sketch:type="MSLayerGroup" transform="translate(201.000000, 82.000000)">
                <path d="M38,17 L38,19 C38,19.552 37.552,20 37,20 L17,20 C16.447,20 16,19.552 16,19 L16,17 C16,16.448 16.447,16 17,16 L37,16 C37.552,16 38,16.448 38,17 L38,17 Z M37,24 L9,24 C8.447,24 8,24.448 8,25 L8,27 C8,27.552 8.447,28 9,28 L37,28 C37.552,28 38,27.552 38,27 L38,25 C38,24.448 37.552,24 37,24 L37,24 Z M37,32 L9,32 C8.447,32 8,32.448 8,33 L8,35 C8,35.552 8.447,36 9,36 L37,36 C37.552,36 38,35.552 38,35 L38,33 C38,32.448 37.552,32 37,32 L37,32 Z M8,19 C8,19.552 8.447,20 9,20 L11,20 C11.552,20 12,19.552 12,19 L12,12 L19,12 C19.552,12 20,11.552 20,11 L20,9 C20,8.448 19.552,8 19,8 L12,8 L12,1 C12,0.448 11.552,0 11,0 L9,0 C8.447,0 8,0.448 8,1 L8,8 L1,8 C0.447,8 0,8.448 0,9 L0,11 C0,11.552 0.447,12 1,12 L8,12 L8,19 L8,19 Z" sketch:type="MSShapeGroup"></path>
            </g>
        </g>
    </g>
</svg>