<?xml version="1.0" encoding="UTF-8" standalone="no"?>
<svg width="40px" height="40px" viewBox="0 0 40 40" version="1.1" xmlns="http://www.w3.org/2000/svg" xmlns:xlink="http://www.w3.org/1999/xlink" xmlns:sketch="http://www.bohemiancoding.com/sketch/ns">
    <!-- Generator: Sketch 3.0.4 (8053) - http://www.bohemiancoding.com/sketch -->
    <title>Add</title>
    <desc>Created with Sketch.</desc>
    <defs></defs>
    <g id="Icons" stroke="none" stroke-width="1" fill="none" fill-rule="evenodd" sketch:type="MSPage">
        <g id="Design-&amp;-Development" sketch:type="MSArtboardGroup" transform="translate(-80.000000, -80.000000)" fill="#d9534f">
            <g id="Add" sketch:type="MSLayerGroup" transform="translate(80.000000, 80.000000)">
                <path d="M28.999,0 L10.999,0 C4.934,0 0,4.935 0,11 L0,29 C0,35.065 4.934,40 10.999,40 L28.999,40 C35.065,40 40,35.065 40,29 L40,11 C40,4.935 35.065,0 28.999,0 L28.999,0 Z M30,21 C30,21.552 29.552,22 28.999,22 L22,22 L22,29 C22,29.552 21.552,30 21,30 L19,30 C18.447,30 18,29.552 18,29 L18,22 L10.999,22 C10.447,22 10,21.552 10,21 L10,19 C10,18.448 10.447,18 10.999,18 L18,18 L18,11 C18,10.448 18.447,10 19,10 L21,10 C21.552,10 22,10.448 22,11 L22,18 L28.999,18 C29.552,18 30,18.448 30,19 L30,21 L30,21 Z" sketch:type="MSShapeGroup"></path>
            </g>
        </g>
    </g>
</svg>