<?xml version="1.0" encoding="UTF-8" standalone="no"?>
<svg width="38px" height="38px" viewBox="0 0 38 38" version="1.1" xmlns="http://www.w3.org/2000/svg" xmlns:xlink="http://www.w3.org/1999/xlink" xmlns:sketch="http://www.bohemiancoding.com/sketch/ns">
    <!-- Generator: Sketch 3.0.4 (8053) - http://www.bohemiancoding.com/sketch -->
    <title>After Effects</title>
    <desc>Created with Sketch.</desc>
    <defs></defs>
    <g id="Icons" stroke="none" stroke-width="1" fill="none" fill-rule="evenodd" sketch:type="MSPage">
        <g id="Design-&amp;-Development" sketch:type="MSArtboardGroup" transform="translate(-321.000000, -81.000000)" fill="#231F1F">
            <g id="After-Effects" sketch:type="MSLayerGroup" transform="translate(321.000000, 81.000000)">
                <path d="M13.981,14.709 L16.129,19.854 L11.833,19.854 L13.981,14.709 L13.981,14.709 Z M25.537,16.784 C24.227,16.784 23.307,17.82 23.112,19.311 L27.908,19.311 C27.767,17.893 26.953,16.784 25.537,16.784 L25.537,16.784 Z M38,10 L38,28 C38,33.523 33.522,38 28,38 L10,38 C4.477,38 0,33.523 0,28 L0,10 C0,4.477 4.477,0 10,0 L28,0 C33.522,0 38,4.477 38,10 L38,10 Z M20.005,23.926 C20.005,23.781 19.97,23.617 19.882,23.454 L15.343,12.909 C15.098,12.345 14.679,12 14.068,12 L13.964,12 C13.352,12 12.916,12.345 12.672,12.909 L8.132,23.454 C8.045,23.635 7.992,23.799 7.992,23.962 C7.992,24.544 8.429,24.999 8.988,24.999 C9.441,24.999 9.808,24.744 9.983,24.29 L11.013,21.835 L16.949,21.835 L17.944,24.217 C18.136,24.69 18.486,24.999 18.992,24.999 C19.568,24.999 20.005,24.526 20.005,23.926 L20.005,23.926 Z M29.997,19.711 C29.997,17.493 28.528,14.985 25.555,14.985 C22.882,14.985 20.989,17.239 20.989,19.983 L20.989,20.02 C20.989,22.982 23.077,25 25.785,25 C27.236,25 28.298,24.509 29.147,23.728 C29.307,23.564 29.431,23.328 29.431,23.055 C29.431,22.546 29.059,22.164 28.581,22.164 C28.333,22.164 28.192,22.237 28.032,22.364 C27.431,22.873 26.723,23.2 25.82,23.2 C24.44,23.2 23.36,22.328 23.13,20.765 L28.988,20.765 C29.537,20.765 29.997,20.329 29.997,19.711 L29.997,19.711 Z" sketch:type="MSShapeGroup"></path>
            </g>
        </g>
    </g>
</svg>