<?xml version="1.0" encoding="UTF-8" standalone="no"?>
<svg width="40px" height="36px" viewBox="0 0 40 36" version="1.1" xmlns="http://www.w3.org/2000/svg" xmlns:xlink="http://www.w3.org/1999/xlink" xmlns:sketch="http://www.bohemiancoding.com/sketch/ns">
    <!-- Generator: Sketch 3.0.4 (8053) - http://www.bohemiancoding.com/sketch -->
    <title>Artboard</title>
    <desc>Created with Sketch.</desc>
    <defs></defs>
    <g id="Icons" stroke="none" stroke-width="1" fill="none" fill-rule="evenodd" sketch:type="MSPage">
        <g id="Design-&amp;-Development" sketch:type="MSArtboardGroup" transform="translate(-440.000000, -82.000000)" fill="#231F1F">
            <g id="Artboard" sketch:type="MSLayerGroup" transform="translate(440.000000, 82.000000)">
                <path d="M9,6 L9,1 C9,0.448 9.447,0 10,0 C10.552,0 11,0.448 11,1 L11,6 C11,6.552 10.552,7 10,7 C9.447,7 9,6.552 9,6 L9,6 Z M6,9 L1,9 C0.447,9 0,9.448 0,10 C0,10.552 0.447,11 1,11 L6,11 C6.552,11 7,10.552 7,10 C7,9.448 6.552,9 6,9 L6,9 Z M34,11 L39,11 C39.552,11 40,10.552 40,10 C40,9.448 39.552,9 39,9 L34,9 C33.447,9 33,9.448 33,10 C33,10.552 33.447,11 34,11 L34,11 Z M30,0 C29.447,0 29,0.448 29,1 L29,6 C29,6.552 29.447,7 30,7 C30.552,7 31,6.552 31,6 L31,1 C31,0.448 30.552,0 30,0 L30,0 Z M10,29 C9.447,29 9,29.448 9,30 L9,35 C9,35.552 9.447,36 10,36 C10.552,36 11,35.552 11,35 L11,30 C11,29.448 10.552,29 10,29 L10,29 Z M30,29 C29.447,29 29,29.448 29,30 L29,35 C29,35.552 29.447,36 30,36 C30.552,36 31,35.552 31,35 L31,30 C31,29.448 30.552,29 30,29 L30,29 Z M6,25 L1,25 C0.447,25 0,25.448 0,26 C0,26.552 0.447,27 1,27 L6,27 C6.552,27 7,26.552 7,26 C7,25.448 6.552,25 6,25 L6,25 Z M39,25 L34,25 C33.447,25 33,25.448 33,26 C33,26.552 33.447,27 34,27 L39,27 C39.552,27 40,26.552 40,26 C40,25.448 39.552,25 39,25 L39,25 Z M29,9 L11,9 C9.896,9 9,9.897 9,11 L9,25 C9,26.103 9.896,27 11,27 L29,27 C30.103,27 31,26.103 31,25 L31,11 C31,9.897 30.103,9 29,9 L29,9 Z" sketch:type="MSShapeGroup"></path>
            </g>
        </g>
    </g>
</svg>