<?xml version="1.0" encoding="UTF-8" standalone="no"?>
<svg width="34px" height="37px" viewBox="0 0 34 37" version="1.1" xmlns="http://www.w3.org/2000/svg" xmlns:xlink="http://www.w3.org/1999/xlink" xmlns:sketch="http://www.bohemiancoding.com/sketch/ns">
    <!-- Generator: Sketch 3.0.4 (8053) - http://www.bohemiancoding.com/sketch -->
    <title>Backward</title>
    <desc>Created with Sketch.</desc>
    <defs></defs>
    <g id="Icons" stroke="none" stroke-width="1" fill="none" fill-rule="evenodd" sketch:type="MSPage">
        <g id="Design-&amp;-Development" sketch:type="MSArtboardGroup" transform="translate(-563.000000, -81.000000)" fill="#231F1F">
            <g id="Backward" sketch:type="MSLayerGroup" transform="translate(563.000000, 81.000000)">
                <path d="M22.708,30.293 C23.098,30.684 23.098,31.316 22.708,31.707 L17.708,36.707 C17.317,37.098 16.684,37.098 16.294,36.707 L11.294,31.707 C10.903,31.316 10.903,30.684 11.294,30.293 C11.489,30.098 11.745,30 12,30 C12.256,30 12.512,30.098 12.708,30.293 L17.001,34.586 L21.294,30.293 C21.684,29.902 22.317,29.902 22.708,30.293 L22.708,30.293 Z M32.001,13 L2.001,13 C0.896,13 0,13.895 0,15 L0,17 C0,18.104 0.896,19 2.001,19 L32.001,19 C33.105,19 34,18.104 34,17 L34,15 C34,13.895 33.105,13 32.001,13 L32.001,13 Z M32.001,0 L2.001,0 C0.896,0 0,0.895 0,2 L0,4 C0,5.105 0.896,6 2.001,6 L15,6 L15,11 L19.001,11 L19.001,6 L32.001,6 C33.105,6 34,5.105 34,4 L34,2 C34,0.895 33.105,0 32.001,0 L32.001,0 Z M19.001,29 L19.001,21 L15,21 L15,29 C15,30.104 15.896,31 17.001,31 C18.105,31 19.001,30.104 19.001,29 L19.001,29 Z" sketch:type="MSShapeGroup"></path>
            </g>
        </g>
    </g>
</svg>