<?xml version="1.0" encoding="UTF-8" standalone="no"?>
<svg width="48px" height="22px" viewBox="0 0 48 22" version="1.1" xmlns="http://www.w3.org/2000/svg" xmlns:xlink="http://www.w3.org/1999/xlink" xmlns:sketch="http://www.bohemiancoding.com/sketch/ns">
    <!-- Generator: Sketch 3.0.4 (8053) - http://www.bohemiancoding.com/sketch -->
    <title>Bandaid</title>
    <desc>Created with Sketch.</desc>
    <defs></defs>
    <g id="Icons" stroke="none" stroke-width="1" fill="none" fill-rule="evenodd" sketch:type="MSPage">
        <g id="Design-&amp;-Development" sketch:type="MSArtboardGroup" transform="translate(-676.000000, -89.000000)" fill="#231F1F">
            <g id="Bandaid" sketch:type="MSLayerGroup" transform="translate(676.000000, 89.000000)">
                <path d="M40,3 L34.568,3 C33.784,1.201 32.003,0 30,0 L18,0 C15.996,0 14.215,1.201 13.431,3 L8,3 C3.589,3 0,6.589 0,11 C0,15.411 3.589,19 8,19 L13.431,19 C14.215,20.799 15.996,22 18,22 L30,22 C32.003,22 33.784,20.799 34.568,19 L40,19 C44.411,19 48,15.411 48,11 C48,6.589 44.411,3 40,3 L40,3 Z M7.999,14 C7.447,14 6.999,13.552 6.999,13 C6.999,12.448 7.447,12 7.999,12 C8.552,12 9,12.448 9,13 C9,13.552 8.552,14 7.999,14 L7.999,14 Z M7.999,10 C7.447,10 6.999,9.552 6.999,9 C6.999,8.448 7.447,8 7.999,8 C8.552,8 9,8.448 9,9 C9,9.552 8.552,10 7.999,10 L7.999,10 Z M12,14 C11.447,14 10.999,13.552 10.999,13 C10.999,12.448 11.447,12 12,12 C12.552,12 12.999,12.448 12.999,13 C12.999,13.552 12.552,14 12,14 L12,14 Z M12,10 C11.447,10 10.999,9.552 10.999,9 C10.999,8.448 11.447,8 12,8 C12.552,8 12.999,8.448 12.999,9 C12.999,9.552 12.552,10 12,10 L12,10 Z M15.999,14 C15.447,14 15,13.552 15,13 C15,12.448 15.447,12 15.999,12 C16.552,12 16.999,12.448 16.999,13 C16.999,13.552 16.552,14 15.999,14 L15.999,14 Z M15.999,10 C15.447,10 15,9.552 15,9 C15,8.448 15.447,8 15.999,8 C16.552,8 16.999,8.448 16.999,9 C16.999,9.552 16.552,10 15.999,10 L15.999,10 Z M19.999,18 C19.447,18 18.999,17.552 18.999,17 C18.999,16.448 19.447,16 19.999,16 C20.552,16 21,16.448 21,17 C21,17.552 20.552,18 19.999,18 L19.999,18 Z M19.999,14 C19.447,14 18.999,13.552 18.999,13 C18.999,12.448 19.447,12 19.999,12 C20.552,12 21,12.448 21,13 C21,13.552 20.552,14 19.999,14 L19.999,14 Z M19.999,10 C19.447,10 18.999,9.552 18.999,9 C18.999,8.448 19.447,8 19.999,8 C20.552,8 21,8.448 21,9 C21,9.552 20.552,10 19.999,10 L19.999,10 Z M19.999,6 C19.447,6 18.999,5.552 18.999,5 C18.999,4.448 19.447,4 19.999,4 C20.552,4 21,4.448 21,5 C21,5.552 20.552,6 19.999,6 L19.999,6 Z M24,18 C23.447,18 22.999,17.552 22.999,17 C22.999,16.448 23.447,16 24,16 C24.552,16 24.999,16.448 24.999,17 C24.999,17.552 24.552,18 24,18 L24,18 Z M24,14 C23.447,14 22.999,13.552 22.999,13 C22.999,12.448 23.447,12 24,12 C24.552,12 24.999,12.448 24.999,13 C24.999,13.552 24.552,14 24,14 L24,14 Z M24,10 C23.447,10 22.999,9.552 22.999,9 C22.999,8.448 23.447,8 24,8 C24.552,8 24.999,8.448 24.999,9 C24.999,9.552 24.552,10 24,10 L24,10 Z M24,6 C23.447,6 22.999,5.552 22.999,5 C22.999,4.448 23.447,4 24,4 C24.552,4 24.999,4.448 24.999,5 C24.999,5.552 24.552,6 24,6 L24,6 Z M27.999,18 C27.447,18 27,17.552 27,17 C27,16.448 27.447,16 27.999,16 C28.552,16 29,16.448 29,17 C29,17.552 28.552,18 27.999,18 L27.999,18 Z M27.999,14 C27.447,14 27,13.552 27,13 C27,12.448 27.447,12 27.999,12 C28.552,12 29,12.448 29,13 C29,13.552 28.552,14 27.999,14 L27.999,14 Z M27.999,10 C27.447,10 27,9.552 27,9 C27,8.448 27.447,8 27.999,8 C28.552,8 29,8.448 29,9 C29,9.552 28.552,10 27.999,10 L27.999,10 Z M27.999,6 C27.447,6 27,5.552 27,5 C27,4.448 27.447,4 27.999,4 C28.552,4 29,4.448 29,5 C29,5.552 28.552,6 27.999,6 L27.999,6 Z M32,14 C31.447,14 30.999,13.552 30.999,13 C30.999,12.448 31.447,12 32,12 C32.552,12 32.999,12.448 32.999,13 C32.999,13.552 32.552,14 32,14 L32,14 Z M32,10 C31.447,10 30.999,9.552 30.999,9 C30.999,8.448 31.447,8 32,8 C32.552,8 32.999,8.448 32.999,9 C32.999,9.552 32.552,10 32,10 L32,10 Z M35.999,14 C35.447,14 35,13.552 35,13 C35,12.448 35.447,12 35.999,12 C36.552,12 36.999,12.448 36.999,13 C36.999,13.552 36.552,14 35.999,14 L35.999,14 Z M35.999,10 C35.447,10 35,9.552 35,9 C35,8.448 35.447,8 35.999,8 C36.552,8 36.999,8.448 36.999,9 C36.999,9.552 36.552,10 35.999,10 L35.999,10 Z M39.999,14 C39.447,14 38.999,13.552 38.999,13 C38.999,12.448 39.447,12 39.999,12 C40.552,12 41,12.448 41,13 C41,13.552 40.552,14 39.999,14 L39.999,14 Z M39.999,10 C39.447,10 38.999,9.552 38.999,9 C38.999,8.448 39.447,8 39.999,8 C40.552,8 41,8.448 41,9 C41,9.552 40.552,10 39.999,10 L39.999,10 Z" sketch:type="MSShapeGroup"></path>
            </g>
        </g>
    </g>
</svg>