<?xml version="1.0" encoding="UTF-8" standalone="no"?>
<svg width="36px" height="36px" viewBox="0 0 36 36" version="1.1" xmlns="http://www.w3.org/2000/svg" xmlns:xlink="http://www.w3.org/1999/xlink" xmlns:sketch="http://www.bohemiancoding.com/sketch/ns">
    <!-- Generator: Sketch 3.0.4 (8053) - http://www.bohemiancoding.com/sketch -->
    <title>Bigger</title>
    <desc>Created with Sketch.</desc>
    <defs></defs>
    <g id="Icons" stroke="none" stroke-width="1" fill="none" fill-rule="evenodd" sketch:type="MSPage">
        <g id="Design-&amp;-Development" sketch:type="MSArtboardGroup" transform="translate(-802.000000, -82.000000)" fill="#231F1F">
            <g id="Bigger" sketch:type="MSLayerGroup" transform="translate(802.000000, 82.000000)">
                <path d="M10,35 C10,35.552 9.553,36 9,36 L1,36 L0.997,36 C0.863,35.999 0.735,35.973 0.619,35.925 C0.5,35.876 0.39,35.803 0.293,35.707 C0.196,35.611 0.124,35.499 0.075,35.381 C0.027,35.265 0,35.137 0,35.003 L0,35 L0,27 C0,26.448 0.447,26 1,26 C1.553,26 2,26.448 2,27 L2,32.586 L10.293,24.293 C10.684,23.902 11.317,23.902 11.707,24.293 C12.098,24.684 12.098,25.316 11.707,25.707 L3.414,34 L9,34 C9.553,34 10,34.448 10,35 L10,35 Z M35.925,0.619 C35.876,0.5 35.804,0.389 35.707,0.293 C35.61,0.197 35.5,0.124 35.381,0.075 C35.265,0.027 35.137,0 35.003,0 L35,0 L27,0 C26.447,0 26,0.448 26,1 C26,1.552 26.447,2 27,2 L32.586,2 L24.293,10.293 C23.902,10.684 23.902,11.316 24.293,11.707 C24.488,11.902 24.744,12 25,12 C25.256,12 25.512,11.902 25.707,11.707 L34,3.414 L34,9 C34,9.552 34.447,10 35,10 C35.553,10 36,9.552 36,9 L36,1 L36,0.997 C36,0.863 35.973,0.735 35.925,0.619 L35.925,0.619 Z M25,14 C24.199,14 23.445,13.688 22.879,13.121 C22.313,12.555 22,11.801 22,11 C22,10.199 22.313,9.445 22.879,8.879 L26.758,5 L10,5 C7.239,5 5,7.239 5,10 L5,26.757 L8.879,22.879 C9.445,22.312 10.199,22 11,22 C11.801,22 12.555,22.312 13.121,22.879 C13.688,23.445 14,24.199 14,25 C14,25.801 13.688,26.555 13.121,27.121 L9.242,31 L26.001,31 C28.762,31 31.001,28.761 31.001,26 L31.001,9.242 L27.121,13.121 C26.555,13.688 25.801,14 25,14 L25,14 Z" sketch:type="MSShapeGroup"></path>
            </g>
        </g>
    </g>
</svg>