<?xml version="1.0" encoding="UTF-8" standalone="no"?>
<svg width="22px" height="40px" viewBox="0 0 22 40" version="1.1" xmlns="http://www.w3.org/2000/svg" xmlns:xlink="http://www.w3.org/1999/xlink" xmlns:sketch="http://www.bohemiancoding.com/sketch/ns">
    <!-- Generator: Sketch 3.0.4 (8053) - http://www.bohemiancoding.com/sketch -->
    <title>Bluetooth</title>
    <desc>Created with Sketch.</desc>
    <defs></defs>
    <g id="Icons" stroke="none" stroke-width="1" fill="none" fill-rule="evenodd" sketch:type="MSPage">
        <g id="Design-&amp;-Development" sketch:type="MSArtboardGroup" transform="translate(-929.000000, -80.000000)" fill="#231F1F">
            <g id="Bluetooth" sketch:type="MSLayerGroup" transform="translate(929.000000, 80.000000)">
                <path d="M13.82775,20.0010429 L21.41375,12.4150429 C22.19475,11.6340429 22.19475,10.3680429 21.41375,9.58704291 L12.41375,0.587042909 C11.84075,0.0140429089 10.98375,-0.157957091 10.23375,0.153042909 C9.48675,0.463042909 8.99975,1.19204291 8.99975,2.00104291 L8.99975,15.1730429 L3.41375,9.58704291 C2.63275,8.80604291 1.36675,8.80604291 0.58575,9.58704291 C-0.19525,10.3680429 -0.19525,11.6340429 0.58575,12.4150429 L8.17175,20.0010429 L0.58575,27.5870429 C-0.19525,28.3680429 -0.19525,29.6340429 0.58575,30.4150429 C0.97675,30.8060429 1.48775,31.0010429 1.99975,31.0010429 C2.51175,31.0010429 3.02275,30.8060429 3.41375,30.4150429 L8.99975,24.8290429 L8.99975,38.0010429 C8.99975,38.8100429 9.48675,39.5390429 10.23375,39.8490429 C10.48175,39.9510429 10.74175,40.0010429 10.99975,40.0010429 C11.52075,40.0010429 12.03075,39.7980429 12.41375,39.4150429 L21.41375,30.4150429 C22.19475,29.6340429 22.19475,28.3680429 21.41375,27.5870429 L13.82775,20.0010429 L13.82775,20.0010429 Z M12.99975,6.83004291 L17.17175,11.0010429 L12.99975,15.1720429 L12.99975,6.83004291 L12.99975,6.83004291 Z M12.99975,33.1720429 L12.99975,24.8300429 L17.17175,29.0010429 L12.99975,33.1720429 L12.99975,33.1720429 Z" sketch:type="MSShapeGroup"></path>
            </g>
        </g>
    </g>
</svg>