<?xml version="1.0" encoding="UTF-8" standalone="no"?>
<svg width="36px" height="35px" viewBox="0 0 36 35" version="1.1" xmlns="http://www.w3.org/2000/svg" xmlns:xlink="http://www.w3.org/1999/xlink" xmlns:sketch="http://www.bohemiancoding.com/sketch/ns">
    <!-- Generator: Sketch 3.0.4 (8053) - http://www.bohemiancoding.com/sketch -->
    <title>Clone Stamp</title>
    <desc>Created with Sketch.</desc>
    <defs></defs>
    <g id="Icons" stroke="none" stroke-width="1" fill="none" fill-rule="evenodd" sketch:type="MSPage">
        <g id="Design-&amp;-Development" sketch:type="MSArtboardGroup" transform="translate(-82.000000, -243.000000)" fill="#231F1F">
            <g id="Clone-Stamp" sketch:type="MSLayerGroup" transform="translate(82.000000, 243.000000)">
                <path d="M34.001,34 C34.001,34.552 33.553,35 33,35 L3,35 C2.448,35 2.001,34.552 2.001,34 C2.001,33.448 2.448,33 3,33 L33,33 C33.553,33 34.001,33.448 34.001,34 L34.001,34 Z M31.001,23 L23.001,23 L23.001,18.835 C23.001,17.483 23.488,16.224 24.337,15.382 C26.055,13.681 27,11.414 27,9 C27,4.038 22.963,0 18,0 C13.038,0 9,4.038 9,9 C9,11.414 9.946,13.681 11.664,15.382 C12.513,16.224 13.001,17.483 13.001,18.835 L13.001,23 L5.001,23 C2.244,23 0,25.243 0,28 L0,31 C0,31.552 0.448,32 1.001,32 L35.001,32 C35.553,32 36,31.552 36,31 L36,28 C36,25.243 33.757,23 31.001,23 L31.001,23 Z" sketch:type="MSShapeGroup"></path>
            </g>
        </g>
    </g>
</svg>