<?xml version="1.0" encoding="UTF-8" standalone="no"?>
<svg width="41px" height="32px" viewBox="0 0 41 32" version="1.1" xmlns="http://www.w3.org/2000/svg" xmlns:xlink="http://www.w3.org/1999/xlink" xmlns:sketch="http://www.bohemiancoding.com/sketch/ns">
    <!-- Generator: Sketch 3.0.4 (8053) - http://www.bohemiancoding.com/sketch -->
    <title>CMD + V</title>
    <desc>Created with Sketch.</desc>
    <defs></defs>
    <g id="Icons" stroke="none" stroke-width="1" fill="none" fill-rule="evenodd" sketch:type="MSPage">
        <g id="Design-&amp;-Development" sketch:type="MSArtboardGroup" transform="translate(-320.000000, -244.000000)" fill="#231F1F">
            <g id="CMD-+-V" sketch:type="MSLayerGroup" transform="translate(320.000000, 244.000000)">
                <path d="M9.496,16.994 L9,16.994 L9,15.006 L9.496,15.006 C10.877,15.006 12,13.883 12,12.503 C12,11.123 10.877,10 9.496,10 C8.116,10 6.993,11.123 6.993,12.503 L6.993,13 L5.006,13 L5.006,12.503 C5.006,11.123 3.883,10 2.503,10 C1.123,10 0,11.123 0,12.503 C0,13.883 1.123,15.006 2.503,15.006 L3,15.006 L3,16.994 L2.503,16.994 C1.123,16.994 0,18.117 0,19.497 C0,20.877 1.123,22 2.503,22 C3.883,22 5.006,20.877 5.006,19.497 L5.006,19 L6.993,19 L6.993,19.497 C6.993,20.877 8.116,22 9.496,22 C10.877,22 12,20.877 12,19.497 C12,18.117 10.877,16.994 9.496,16.994 L9.496,16.994 Z M5,15 L7,15 L7,17 L5,17 L5,15 Z M8.993,12.503 C8.993,12.226 9.219,12 9.496,12 C9.774,12 10,12.226 10,12.503 C10,12.781 9.774,13.006 9.496,13.006 L8.993,13.006 L8.993,12.503 L8.993,12.503 Z M2,12.503 C2,12.226 2.225,12 2.503,12 C2.78,12 3.006,12.226 3.006,12.503 L3.006,13.006 L2.503,13.006 C2.225,13.006 2,12.781 2,12.503 L2,12.503 Z M3.006,19.497 C3.006,19.774 2.78,20 2.503,20 C2.225,20 2,19.774 2,19.497 C2,19.219 2.225,18.994 2.503,18.994 L3.006,18.994 L3.006,19.497 L3.006,19.497 Z M9.496,20 C9.219,20 8.993,19.774 8.993,19.497 L8.993,18.994 L9.496,18.994 C9.774,18.994 10,19.219 10,19.497 C10,19.774 9.774,20 9.496,20 L9.496,20 Z M34,0 L16,0 C12.14,0 9,3.14 9,7 L9,8.029 C9.163,8.01 9.328,8 9.496,8 C11.98,8 14,10.02 14,12.503 C14,13.913 13.348,15.174 12.331,16 C13.348,16.827 14,18.087 14,19.497 C14,21.98 11.98,24 9.496,24 C9.328,24 9.163,23.989 9,23.971 L9,25 C9,28.86 12.14,32 16,32 L34,32 C37.859,32 41,28.86 41,25 L41,7 C41,3.14 37.859,0 34,0 L34,0 Z M29.928,11.372 L25.928,21.372 C25.776,21.751 25.408,22 25,22 C24.591,22 24.223,21.751 24.071,21.372 L20.071,11.372 C19.866,10.858 20.115,10.277 20.628,10.071 C21.143,9.868 21.723,10.116 21.928,10.628 L25,18.308 L28.071,10.628 C28.276,10.116 28.856,9.866 29.371,10.071 C29.884,10.277 30.133,10.858 29.928,11.372 L29.928,11.372 Z" sketch:type="MSShapeGroup"></path>
            </g>
        </g>
    </g>
</svg>