<?xml version="1.0" encoding="UTF-8" standalone="no"?>
<svg width="40px" height="40px" viewBox="0 0 40 40" version="1.1" xmlns="http://www.w3.org/2000/svg" xmlns:xlink="http://www.w3.org/1999/xlink" xmlns:sketch="http://www.bohemiancoding.com/sketch/ns">
    <!-- Generator: Sketch 3.0.4 (8053) - http://www.bohemiancoding.com/sketch -->
    <title>Compass</title>
    <desc>Created with Sketch.</desc>
    <defs></defs>
    <g id="Icons" stroke="none" stroke-width="1" fill="none" fill-rule="evenodd" sketch:type="MSPage">
        <g id="Design-&amp;-Development" sketch:type="MSArtboardGroup" transform="translate(-680.000000, -240.000000)" fill="#231F1F">
            <g id="Compass" sketch:type="MSLayerGroup" transform="translate(680.000000, 240.000000)">
                <path d="M20,0 C8.972,0 0,8.972 0,20 C0,31.028 8.972,40 20,40 C31.028,40 40,31.028 40,20 C40,8.972 31.028,0 20,0 L20,0 Z M19,3 C19,2.448 19.447,2 20,2 C20.553,2 21,2.448 21,3 L21,6 C21,6.552 20.553,7 20,7 C19.447,7 19,6.552 19,6 L19,3 L19,3 Z M6,21 L3,21 C2.447,21 2,20.552 2,20 C2,19.448 2.447,19 3,19 L6,19 C6.553,19 7,19.448 7,20 C7,20.552 6.553,21 6,21 L6,21 Z M21,37 C21,37.552 20.553,38 20,38 C19.447,38 19,37.552 19,37 L19,34 C19,33.448 19.447,33 20,33 C20.553,33 21,33.448 21,34 L21,37 L21,37 Z M28.861,12.546 L23.153,23.166 L12.553,28.884 C11.633,29.38 10.631,28.377 11.126,27.455 L16.834,16.835 L27.435,11.117 C28.354,10.621 29.357,11.625 28.861,12.546 L28.861,12.546 Z M37,21 L34,21 C33.447,21 33,20.552 33,20 C33,19.448 33.447,19 34,19 L37,19 C37.553,19 38,19.448 38,20 C38,20.552 37.553,21 37,21 L37,21 Z" sketch:type="MSShapeGroup"></path>
            </g>
        </g>
    </g>
</svg>