<?xml version="1.0" encoding="UTF-8" standalone="no"?>
<svg width="36px" height="40px" viewBox="0 0 36 40" version="1.1" xmlns="http://www.w3.org/2000/svg" xmlns:xlink="http://www.w3.org/1999/xlink" xmlns:sketch="http://www.bohemiancoding.com/sketch/ns">
    <!-- Generator: Sketch 3.0.4 (8053) - http://www.bohemiancoding.com/sketch -->
    <title>Controls</title>
    <desc>Created with Sketch.</desc>
    <defs></defs>
    <g id="Icons" stroke="none" stroke-width="1" fill="none" fill-rule="evenodd" sketch:type="MSPage">
        <g id="Design-&amp;-Development" sketch:type="MSArtboardGroup" transform="translate(-802.000000, -240.000000)" fill="#231F1F">
            <g id="Controls" sketch:type="MSLayerGroup" transform="translate(802.000000, 240.000000)">
                <path d="M0,9 C0,4.038 4.037,0 9,0 C13.963,0 18,4.038 18,9 C18,13.962 13.963,18 9,18 C4.037,18 0,13.962 0,9 L0,9 Z M27,22 C22.037,22 18,26.038 18,31 C18,35.962 22.037,40 27,40 C31.963,40 36,35.962 36,31 C36,26.038 31.963,22 27,22 L27,22 Z M19.474,23 L7.77,23 C3.485,23 0,26.589 0,31 C0,35.411 3.485,39 7.77,39 L19.474,39 C17.341,36.992 16,34.153 16,31 C16,27.847 17.341,25.008 19.474,23 L19.474,23 Z M16.526,17 L28.231,17 C32.515,17 36,13.411 36,9 C36,4.589 32.515,1 28.231,1 L16.526,1 C18.659,3.008 20,5.847 20,9 C20,12.153 18.659,14.992 16.526,17 L16.526,17 Z" sketch:type="MSShapeGroup"></path>
            </g>
        </g>
    </g>
</svg>