<?xml version="1.0" encoding="UTF-8" standalone="no"?>
<svg width="40px" height="40px" viewBox="0 0 40 40" version="1.1" xmlns="http://www.w3.org/2000/svg" xmlns:xlink="http://www.w3.org/1999/xlink" xmlns:sketch="http://www.bohemiancoding.com/sketch/ns">
    <!-- Generator: Sketch 3.0.4 (8053) - http://www.bohemiancoding.com/sketch -->
    <title>Crop</title>
    <desc>Created with Sketch.</desc>
    <defs></defs>
    <g id="Icons" stroke="none" stroke-width="1" fill="none" fill-rule="evenodd" sketch:type="MSPage">
        <g id="Design-&amp;-Development" sketch:type="MSArtboardGroup" transform="translate(-920.000000, -240.000000)" fill="#231F1F">
            <g id="Crop" sketch:type="MSLayerGroup" transform="translate(920.000000, 240.000000)">
                <path d="M6.70725,33.29325 C7.09825,33.68425 7.09825,34.31625 6.70725,34.70725 L1.70725,39.70725 C1.51225,39.90225 1.25625,40.00025 1.00025,40.00025 C0.74425,40.00025 0.48825,39.90225 0.29325,39.70725 C-0.09775,39.31625 -0.09775,38.68425 0.29325,38.29325 L5.29325,33.29325 C5.68425,32.90225 6.31725,32.90225 6.70725,33.29325 L6.70725,33.29325 Z M22.29325,16.29325 L16.29325,22.29325 C15.90225,22.68425 15.90225,23.31625 16.29325,23.70725 C16.48825,23.90225 16.74425,24.00025 17.00025,24.00025 C17.25625,24.00025 17.51225,23.90225 17.70725,23.70725 L23.70725,17.70725 C24.09825,17.31625 24.09825,16.68425 23.70725,16.29325 C23.31725,15.90225 22.68425,15.90225 22.29325,16.29325 L22.29325,16.29325 Z M34.00025,7.00025 C34.25625,7.00025 34.51225,6.90225 34.70725,6.70725 L39.70725,1.70725 C40.09825,1.31625 40.09825,0.68425 39.70725,0.29325 C39.31725,-0.09775 38.68425,-0.09775 38.29325,0.29325 L33.29325,5.29325 C32.90225,5.68425 32.90225,6.31625 33.29325,6.70725 C33.48825,6.90225 33.74425,7.00025 34.00025,7.00025 L34.00025,7.00025 Z M39.00025,26.00025 L14.00025,26.00025 L14.00025,16.00025 L8.00025,16.00025 L8.00025,31.00025 C8.00025,31.55225 8.44725,32.00025 9.00025,32.00025 L26.00025,32.00025 L26.00025,39.00025 C26.00025,39.55225 26.44725,40.00025 27.00025,40.00025 L31.00025,40.00025 C31.55325,40.00025 32.00025,39.55225 32.00025,39.00025 L32.00025,32.00025 L39.00025,32.00025 C39.55325,32.00025 40.00025,31.55225 40.00025,31.00025 L40.00025,27.00025 C40.00025,26.44825 39.55325,26.00025 39.00025,26.00025 L39.00025,26.00025 Z M1.00025,14.00025 L26.00025,14.00025 L26.00025,24.00025 L32.00025,24.00025 L32.00025,9.00025 C32.00025,8.44825 31.55325,8.00025 31.00025,8.00025 L14.00025,8.00025 L14.00025,1.00025 C14.00025,0.44825 13.55325,0.00025 13.00025,0.00025 L9.00025,0.00025 C8.44725,0.00025 8.00025,0.44825 8.00025,1.00025 L8.00025,8.00025 L1.00025,8.00025 C0.44725,8.00025 0.00025,8.44825 0.00025,9.00025 L0.00025,13.00025 C0.00025,13.55225 0.44725,14.00025 1.00025,14.00025 L1.00025,14.00025 Z" sketch:type="MSShapeGroup"></path>
            </g>
        </g>
    </g>
</svg>