<?xml version="1.0" encoding="UTF-8" standalone="no"?>
<svg width="35px" height="35px" viewBox="0 0 35 35" version="1.1" xmlns="http://www.w3.org/2000/svg" xmlns:xlink="http://www.w3.org/1999/xlink" xmlns:sketch="http://www.bohemiancoding.com/sketch/ns">
    <!-- Generator: Sketch 3.0.4 (8053) - http://www.bohemiancoding.com/sketch -->
    <title>Crumpled Paper</title>
    <desc>Created with Sketch.</desc>
    <defs></defs>
    <g id="Icons" stroke="none" stroke-width="1" fill="none" fill-rule="evenodd" sketch:type="MSPage">
        <g id="Design-&amp;-Development" sketch:type="MSArtboardGroup" transform="translate(-1043.000000, -243.000000)" fill="#231F1F">
            <g id="Crumpled-Paper" sketch:type="MSLayerGroup" transform="translate(1043.000000, 243.000000)">
                <path d="M31.7260005,17.8991464 L26.9630005,17.8991464 C26.4100005,17.8991464 25.9630005,18.3461464 25.9630005,18.8991464 C25.9630005,19.4511464 26.4100005,19.8991464 26.9630005,19.8991464 L31.4630005,19.8991464 L33.1630005,22.1661464 C33.4530005,22.5521464 33.4250005,23.0901464 33.0980005,23.4441464 L23.0750005,34.3021464 C22.8160005,34.5831464 22.4190005,34.6921464 22.0530005,34.5821464 L15.2860005,32.5511464 L20.5500005,29.0421464 C21.0100005,28.7361464 21.1340005,28.1151464 20.8270005,27.6551464 C20.5210005,27.1961464 19.9010005,27.0711464 19.4400005,27.3781464 L10.5450005,33.3091464 C10.2020005,33.5371464 9.75400046,33.5321464 9.41700046,33.2961464 L2.28300046,28.3021464 C1.81000046,27.9711464 1.71500046,27.3091464 2.07600046,26.8581464 L4.74300046,23.5241464 C4.95500046,23.2591464 5.01800046,22.9041464 4.91100046,22.5821464 L3.67400046,18.8731464 L9.99600046,22.0331464 C10.1390005,22.1051464 10.2920005,22.1391464 10.4420005,22.1391464 C10.8090005,22.1391464 11.1620005,21.9371464 11.3380005,21.5861464 C11.5850005,21.0921464 11.3850005,20.4911464 10.8900005,20.2441464 L0.553000458,15.0761464 C-0.00499954183,14.7971464 -0.173999542,14.0811464 0.200000458,13.5821464 L1.76300046,11.4981464 C1.85200046,11.3791464 1.91400046,11.2411464 1.94300046,11.0951464 L3.55800046,3.02214643 C3.66500046,2.48714643 4.18100046,2.13614643 4.71700046,2.23414643 L13.7830005,3.88314643 C14.0750005,3.93614643 14.3750005,3.85614643 14.6030005,3.66714643 L18.7250005,0.232146427 C19.2100005,-0.172853573 19.9440005,-0.0308535728 20.2450005,0.525146427 L21.8940005,3.57614643 C21.9810005,3.73814643 22.1110005,3.87314643 22.2700005,3.96514643 L24.1310005,5.04814643 L20.6120005,7.28114643 C20.1460005,7.57714643 20.0070005,8.19514643 20.3030005,8.66114643 C20.4940005,8.96114643 20.8180005,9.12514643 21.1490005,9.12514643 C21.3330005,9.12514643 21.5170005,9.07514643 21.6840005,8.96914643 L29.3390005,4.11314643 C29.8880005,3.76514643 30.6180005,4.02514643 30.8230005,4.64214643 L34.4660005,15.5691464 C34.6230005,16.0411464 34.4090005,16.5581464 33.9640005,16.7801464 L31.7260005,17.8991464" sketch:type="MSShapeGroup"></path>
            </g>
        </g>
    </g>
</svg>