<?xml version="1.0" encoding="UTF-8" standalone="no"?>
<svg width="34px" height="35px" viewBox="0 0 34 35" version="1.1" xmlns="http://www.w3.org/2000/svg" xmlns:xlink="http://www.w3.org/1999/xlink" xmlns:sketch="http://www.bohemiancoding.com/sketch/ns">
    <!-- Generator: Sketch 3.0.4 (8053) - http://www.bohemiancoding.com/sketch -->
    <title>CTRL + V</title>
    <desc>Created with Sketch.</desc>
    <defs></defs>
    <g id="Icons" stroke="none" stroke-width="1" fill="none" fill-rule="evenodd" sketch:type="MSPage">
        <g id="Design-&amp;-Development" sketch:type="MSArtboardGroup" transform="translate(-80.000000, -402.000000)" fill="#231F1F">
            <g id="CTRL-+-V" sketch:type="MSLayerGroup" transform="translate(80.000000, 402.000000)">
                <path d="M15.921,15.0133688 C16.435,15.0133688 16.851,15.4473688 16.851,15.9843688 L16.851,16.2903688 C17.12,15.6263688 17.56,15.0133688 18.11,15.0133688 C18.685,15.0133688 19.015,15.4093688 19.015,15.9583688 C19.015,16.4693688 18.697,16.7763688 18.318,16.8653688 C17.376,17.0953688 16.851,17.8493688 16.851,19.2293688 L16.851,21.0433688 C16.851,21.5803688 16.435,22.0143688 15.921,22.0143688 C15.408,22.0143688 14.992,21.5803688 14.992,21.0433688 L14.992,15.9843688 C14.992,15.4473688 15.408,15.0133688 15.921,15.0133688 L15.921,15.0133688 Z M20.991,22.0143688 C21.545,22.0143688 21.993,21.6003688 21.993,21.0893688 L21.993,13.9143688 C21.993,13.4033688 21.545,12.9903688 20.991,12.9903688 C20.438,12.9903688 19.99,13.4033688 19.99,13.9143688 L19.99,21.0893688 C19.99,21.6003688 20.438,22.0143688 20.991,22.0143688 L20.991,22.0143688 Z M7.099,19.3333688 C6.872,19.3333688 6.669,19.4203688 6.518,19.5443688 C5.962,19.9793688 5.419,20.2283688 4.598,20.2283688 C3.082,20.2283688 2.034,18.9853688 2.034,17.4953688 L2.034,17.4703688 C2.034,15.9793688 3.107,14.7613688 4.598,14.7613688 C5.293,14.7613688 5.861,14.9853688 6.404,15.3833688 C6.543,15.4703688 6.72,15.5693688 6.985,15.5693688 C7.516,15.5693688 7.945,15.1593688 7.945,14.6373688 C7.945,14.3023688 7.768,14.0283688 7.566,13.8793688 C6.834,13.3453688 5.937,12.9973688 4.611,12.9973688 C1.895,12.9973688 0,15.0223688 0,17.4953688 L0,17.5193688 C0,20.0173688 1.933,21.9923688 4.535,21.9923688 C5.95,21.9923688 6.884,21.5823688 7.68,20.8993688 C7.857,20.7503688 8.008,20.5133688 8.008,20.2153688 C8.008,19.7313688 7.591,19.3333688 7.099,19.3333688 L7.099,19.3333688 Z M12.624,17.5383688 C13.032,17.5383688 13.36,17.2013688 13.36,16.7823688 C13.36,16.3633688 13.032,16.0273688 12.624,16.0273688 L11.866,16.0273688 L11.866,14.8723688 C11.866,14.3843688 11.481,13.9893688 11.005,13.9893688 C10.53,13.9893688 10.145,14.3843688 10.145,14.8723688 L10.145,16.0273688 L9.713,16.0273688 C9.306,16.0273688 8.977,16.3633688 8.977,16.7823688 C8.977,17.2013688 9.306,17.5383688 9.713,17.5383688 L10.145,17.5383688 L10.145,20.1163688 C10.145,21.5583688 10.858,21.9883688 11.911,21.9883688 C12.285,21.9883688 12.579,21.9413688 12.896,21.8133688 C13.133,21.7203688 13.337,21.4653688 13.337,21.1513688 C13.337,20.7443688 13.009,20.4183688 12.624,20.4183688 C12.59,20.4183688 12.477,20.4303688 12.42,20.4303688 C12.036,20.4303688 11.866,20.2323688 11.866,19.8253688 L11.866,17.5383688 L12.624,17.5383688 L12.624,17.5383688 Z M9.405,12.4963688 C9.863,12.1813688 10.41,11.9893688 11.005,11.9893688 C12.284,11.9893688 13.37,12.8393688 13.735,14.0093688 C14.272,13.3983688 15.053,13.0133688 15.921,13.0133688 C15.956,13.0133688 15.988,13.0223688 16.022,13.0233688 L11.817,1.93736879 C11.23,0.389368789 9.498,-0.391631211 7.948,0.196368789 C6.399,0.784368789 5.62,2.51536879 6.207,4.06536879 L9.405,12.4963688 L9.405,12.4963688 Z M32.076,0.196368789 C30.527,-0.392631211 28.795,0.388368789 28.207,1.93736879 L23.993,13.0473688 L23.993,21.0893688 C23.993,22.7023688 22.646,24.0143688 20.991,24.0143688 C19.901,24.0143688 18.945,23.4443688 18.419,22.5953688 C17.903,23.4463688 16.976,24.0153688 15.921,24.0153688 C15.253,24.0153688 14.636,23.7873688 14.143,23.4033688 C13.988,23.5083688 13.82,23.5963688 13.642,23.6673688 L17.207,33.0653688 C17.649,34.2303688 18.766,35.0013688 20.012,35.0013688 C21.259,35.0013688 22.375,34.2303688 22.817,33.0653688 L33.817,4.06536879 C34.405,2.51536879 33.625,0.784368789 32.076,0.196368789 L32.076,0.196368789 Z" sketch:type="MSShapeGroup"></path>
            </g>
        </g>
    </g>
</svg>