<?xml version="1.0" encoding="UTF-8" standalone="no"?>
<svg width="36px" height="36px" viewBox="0 0 36 36" version="1.1" xmlns="http://www.w3.org/2000/svg" xmlns:xlink="http://www.w3.org/1999/xlink" xmlns:sketch="http://www.bohemiancoding.com/sketch/ns">
    <!-- Generator: Sketch 3.0.4 (8053) - http://www.bohemiancoding.com/sketch -->
    <title>CTRL + C</title>
    <desc>Created with Sketch.</desc>
    <defs></defs>
    <g id="Icons" stroke="none" stroke-width="1" fill="none" fill-rule="evenodd" sketch:type="MSPage">
        <g id="Design-&amp;-Development" sketch:type="MSArtboardGroup" transform="translate(-1160.000000, -242.000000)" fill="#231F1F">
            <g id="CTRL-+-C" sketch:type="MSLayerGroup" transform="translate(1160.000000, 242.000000)">
                <path d="M8.008,20.222125 C8.008,20.520125 7.857,20.757125 7.68,20.906125 C6.884,21.589125 5.949,21.999125 4.535,21.999125 C1.933,21.999125 0,20.023125 0,17.526125 L0,17.502125 C0,15.029125 1.895,13.004125 4.61,13.004125 C5.937,13.004125 6.834,13.352125 7.566,13.886125 C7.768,14.035125 7.945,14.309125 7.945,14.644125 C7.945,15.166125 7.516,15.576125 6.985,15.576125 C6.72,15.576125 6.543,15.477125 6.404,15.390125 C5.861,14.992125 5.293,14.768125 4.598,14.768125 C3.107,14.768125 2.034,15.986125 2.034,17.477125 L2.034,17.502125 C2.034,18.992125 3.082,20.235125 4.598,20.235125 C5.419,20.235125 5.962,19.986125 6.518,19.551125 C6.669,19.427125 6.871,19.340125 7.099,19.340125 C7.591,19.340125 8.008,19.738125 8.008,20.222125 L8.008,20.222125 Z M12.624,17.545125 C13.032,17.545125 13.36,17.207125 13.36,16.789125 C13.36,16.370125 13.032,16.033125 12.624,16.033125 L11.866,16.033125 L11.866,14.879125 C11.866,14.391125 11.481,13.996125 11.005,13.996125 C10.53,13.996125 10.145,14.391125 10.145,14.879125 L10.145,16.033125 L9.713,16.033125 C9.306,16.033125 8.977,16.370125 8.977,16.789125 C8.977,17.207125 9.306,17.545125 9.713,17.545125 L10.145,17.545125 L10.145,20.123125 C10.145,21.565125 10.858,21.995125 11.911,21.995125 C12.285,21.995125 12.579,21.948125 12.896,21.820125 C13.134,21.727125 13.337,21.472125 13.337,21.158125 C13.337,20.751125 13.009,20.425125 12.624,20.425125 C12.59,20.425125 12.477,20.437125 12.42,20.437125 C12.036,20.437125 11.866,20.239125 11.866,19.832125 L11.866,17.545125 L12.624,17.545125 L12.624,17.545125 Z M18.11,15.020125 C17.56,15.020125 17.12,15.633125 16.85,16.297125 L16.85,15.991125 C16.85,15.454125 16.435,15.020125 15.921,15.020125 C15.408,15.020125 14.992,15.454125 14.992,15.991125 L14.992,21.050125 C14.992,21.587125 15.408,22.021125 15.921,22.021125 C16.435,22.021125 16.85,21.587125 16.85,21.050125 L16.85,19.236125 C16.85,17.856125 17.376,17.102125 18.318,16.872125 C18.697,16.783125 19.015,16.476125 19.015,15.965125 C19.015,15.416125 18.685,15.020125 18.11,15.020125 L18.11,15.020125 Z M20.991,12.997125 C20.438,12.997125 19.99,13.410125 19.99,13.921125 L19.99,21.097125 C19.99,21.607125 20.438,22.021125 20.991,22.021125 C21.545,22.021125 21.993,21.607125 21.993,21.097125 L21.993,13.921125 C21.993,13.410125 21.545,12.997125 20.991,12.997125 L20.991,12.997125 Z M8.745,12.271125 C8.903,12.388125 9.048,12.519125 9.178,12.662125 C9.674,12.246125 10.311,11.996125 11.005,11.996125 C11.328,11.996125 11.638,12.050125 11.927,12.150125 C12.454,11.204125 13.11,10.309125 13.913,9.50612501 C18.591,4.82812501 26.204,4.82712501 30.884,9.50612501 C32.056,10.677125 33.955,10.677125 35.127,9.50512501 C36.298,8.33412501 36.298,6.43512501 35.127,5.26312501 C28.109,-1.75487499 16.688,-1.75387499 9.671,5.26312501 C7.952,6.98212501 6.66,8.96712501 5.783,11.084125 C6.895,11.242125 7.871,11.633125 8.745,12.271125 L8.745,12.271125 Z M30.884,26.476125 C26.206,31.153125 18.593,31.155125 13.913,26.476125 C13.154,25.717125 12.531,24.874125 12.018,23.986125 C11.981,23.987125 11.949,23.995125 11.911,23.995125 C10.535,23.995125 9.468,23.474125 8.826,22.554125 C7.843,23.356125 6.736,23.794125 5.432,23.935125 C6.296,26.412125 7.695,28.743125 9.671,30.719125 C13.179,34.227125 17.789,35.982125 22.399,35.982125 C27.008,35.982125 31.618,34.227125 35.127,30.719125 C36.298,29.547125 36.298,27.647125 35.127,26.476125 C33.955,25.304125 32.056,25.305125 30.884,26.476125 L30.884,26.476125 Z" sketch:type="MSShapeGroup"></path>
            </g>
        </g>
    </g>
</svg>