<?xml version="1.0" encoding="UTF-8" standalone="no"?>
<svg width="34px" height="36px" viewBox="0 0 34 36" version="1.1" xmlns="http://www.w3.org/2000/svg" xmlns:xlink="http://www.w3.org/1999/xlink" xmlns:sketch="http://www.bohemiancoding.com/sketch/ns">
    <!-- Generator: Sketch 3.0.4 (8053) - http://www.bohemiancoding.com/sketch -->
    <title>CTRL + X</title>
    <desc>Created with Sketch.</desc>
    <defs></defs>
    <g id="Icons" stroke="none" stroke-width="1" fill="none" fill-rule="evenodd" sketch:type="MSPage">
        <g id="Design-&amp;-Development" sketch:type="MSArtboardGroup" transform="translate(-200.000000, -402.000000)" fill="#231F1F">
            <g id="CTRL-+-X" sketch:type="MSLayerGroup" transform="translate(200.000000, 402.000000)">
                <path d="M16.851,16.9896561 L16.851,17.2956561 C17.12,16.6316561 17.56,16.0186561 18.11,16.0186561 C18.685,16.0186561 19.015,16.4146561 19.015,16.9636561 C19.015,17.4746561 18.697,17.7816561 18.318,17.8706561 C17.376,18.1006561 16.851,18.8546561 16.851,20.2346561 L16.851,22.0486561 C16.851,22.5856561 16.435,23.0196561 15.921,23.0196561 C15.408,23.0196561 14.992,22.5856561 14.992,22.0486561 L14.992,16.9896561 C14.992,16.4526561 15.408,16.0186561 15.921,16.0186561 C16.435,16.0186561 16.851,16.4526561 16.851,16.9896561 L16.851,16.9896561 Z M8.008,21.2206561 C8.008,20.7366561 7.591,20.3386561 7.099,20.3386561 C6.871,20.3386561 6.669,20.4256561 6.518,20.5496561 C5.962,20.9846561 5.419,21.2336561 4.598,21.2336561 C3.082,21.2336561 2.034,19.9906561 2.034,18.5006561 L2.034,18.4756561 C2.034,16.9846561 3.107,15.7666561 4.598,15.7666561 C5.293,15.7666561 5.861,15.9906561 6.404,16.3886561 C6.543,16.4756561 6.72,16.5746561 6.985,16.5746561 C7.516,16.5746561 7.945,16.1646561 7.945,15.6426561 C7.945,15.3076561 7.768,15.0336561 7.566,14.8846561 C6.834,14.3506561 5.937,14.0026561 4.611,14.0026561 C1.895,14.0026561 0,16.0276561 0,18.5006561 L0,18.5246561 C0,21.0226561 1.933,22.9976561 4.535,22.9976561 C5.949,22.9976561 6.884,22.5876561 7.68,21.9046561 C7.857,21.7556561 8.008,21.5186561 8.008,21.2206561 L8.008,21.2206561 Z M11.005,14.9946561 C10.53,14.9946561 10.145,15.3896561 10.145,15.8776561 L10.145,17.0326561 L9.713,17.0326561 C9.306,17.0326561 8.977,17.3686561 8.977,17.7876561 C8.977,18.2066561 9.306,18.5436561 9.713,18.5436561 L10.145,18.5436561 L10.145,21.1216561 C10.145,22.5636561 10.858,22.9936561 11.911,22.9936561 C12.285,22.9936561 12.579,22.9466561 12.896,22.8186561 C13.134,22.7256561 13.337,22.4706561 13.337,22.1566561 C13.337,21.7496561 13.009,21.4236561 12.624,21.4236561 C12.59,21.4236561 12.477,21.4356561 12.42,21.4356561 C12.036,21.4356561 11.866,21.2376561 11.866,20.8306561 L11.866,18.5436561 L12.624,18.5436561 C13.032,18.5436561 13.36,18.2066561 13.36,17.7876561 C13.36,17.3686561 13.032,17.0326561 12.624,17.0326561 L11.866,17.0326561 L11.866,15.8776561 C11.866,15.3896561 11.481,14.9946561 11.005,14.9946561 L11.005,14.9946561 Z M21.993,22.0946561 L21.993,14.9196561 C21.993,14.4086561 21.545,13.9956561 20.991,13.9956561 C20.438,13.9956561 19.99,14.4086561 19.99,14.9196561 L19.99,22.0946561 C19.99,22.6056561 20.438,23.0196561 20.991,23.0196561 C21.545,23.0196561 21.993,22.6056561 21.993,22.0946561 L21.993,22.0946561 Z M23.993,14.9196561 L23.993,17.6416561 L33.429,4.77365612 C34.409,3.43765612 34.12,1.56065612 32.784,0.580656123 C31.447,-0.398343877 29.57,-0.110343877 28.59,1.22565612 L20.674,12.0206561 C20.779,12.0096561 20.883,11.9956561 20.991,11.9956561 C22.646,11.9956561 23.993,13.3076561 23.993,14.9196561 L23.993,14.9196561 Z M7.236,0.580656123 C5.899,1.56065612 5.611,3.43765612 6.59,4.77365612 L13.952,14.8126561 C14.474,14.3266561 15.159,14.0186561 15.921,14.0186561 C16.312,14.0186561 16.685,14.0966561 17.027,14.2376561 C17.367,14.0936561 17.731,14.0186561 18.11,14.0186561 L18.136,14.0186561 C18.377,13.2946561 18.902,12.6956561 19.58,12.3416561 L11.429,1.22565612 C10.449,-0.110343877 8.571,-0.398343877 7.236,0.580656123 L7.236,0.580656123 Z M18.419,23.6006561 C17.903,24.4516561 16.976,25.0206561 15.921,25.0206561 C15.253,25.0206561 14.636,24.7926561 14.143,24.4086561 C13.983,24.5166561 13.81,24.6096561 13.626,24.6806561 C13.104,24.8916561 12.553,24.9936561 11.911,24.9936561 C11.663,24.9936561 11.438,24.9576561 11.211,24.9246561 L6.59,31.2256561 C5.611,32.5616561 5.899,34.4396561 7.236,35.4196561 C8.572,36.3986561 10.449,36.1106561 11.429,34.7736561 L19.089,24.3286561 C18.83,24.1186561 18.594,23.8826561 18.419,23.6006561 L18.419,23.6006561 Z M23.993,18.3586561 L23.993,22.0946561 C23.993,23.5686561 22.864,24.7786561 21.407,24.9786561 L28.59,34.7736561 C29.178,35.5756561 30.089,35.9996561 31.012,35.9996561 C31.628,35.9996561 32.249,35.8106561 32.784,35.4196561 C34.12,34.4396561 34.409,32.5616561 33.429,31.2256561 L23.993,18.3586561 L23.993,18.3586561 Z" sketch:type="MSShapeGroup"></path>
            </g>
        </g>
    </g>
</svg>