<?xml version="1.0" encoding="UTF-8" standalone="no"?>
<svg width="41px" height="35px" viewBox="0 0 41 35" version="1.1" xmlns="http://www.w3.org/2000/svg" xmlns:xlink="http://www.w3.org/1999/xlink" xmlns:sketch="http://www.bohemiancoding.com/sketch/ns">
    <!-- Generator: Sketch 3.0.4 (8053) - http://www.bohemiancoding.com/sketch -->
    <title>Desktop (over)</title>
    <desc>Created with Sketch.</desc>
    <defs></defs>
    <g id="Icons" stroke="none" stroke-width="1" fill="none" fill-rule="evenodd" sketch:type="MSPage">
        <g id="Design-&amp;-Development" sketch:type="MSArtboardGroup" transform="translate(-319.000000, -403.000000)" fill="#231F1F">
            <g id="Desktop-(over)" sketch:type="MSLayerGroup" transform="translate(319.000000, 403.000000)">
                <path d="M26,19 L3,19 C1.345,19 0,20.346 0,22 L0,32 C0,33.654 1.345,35 3,35 L26,35 C27.654,35 29,33.654 29,32 L29,22 C29,20.346 27.654,19 26,19 L26,19 Z M14,23 L17,23 L17,26 L14,26 L14,23 Z M9,23 L12,23 L12,26 L9,26 L9,23 Z M4,23 L7,23 L7,26 L4,26 L4,23 Z M4,28 L20,28 L20,31 L4,31 L4,28 Z M25,31 L22,31 L22,26 L19,26 L19,23 L25,23 L25,31 L25,31 Z M41,23 L41,31 C41,33.206 39.205,35 37,35 L35,35 C32.794,35 31,33.206 31,31 L31,23 C31,20.794 32.794,19 35,19 L37,19 C39.205,19 41,20.794 41,23 L41,23 Z M28.92,13.348 C29.13,14.17 28.932,15.106 28.361,15.839 C27.786,16.577 26.919,17 25.98,17 L15.026,17 C14.088,17 13.22,16.577 12.645,15.839 C12.074,15.106 11.877,14.17 12.103,13.271 L13.013,7.834 C13.094,7.353 13.511,7 14,7 L27,7 C27.487,7 27.904,7.352 27.985,7.833 L28.92,13.348 L28.92,13.348 Z M41,2 L41,4 C41,5.103 40.103,6 39,6 L2,6 C0.896,6 0,5.103 0,4 L0,2 C0,0.897 0.896,0 2,0 L39,0 C40.103,0 41,0.897 41,2 L41,2 Z" sketch:type="MSShapeGroup"></path>
            </g>
        </g>
    </g>
</svg>