<?xml version="1.0" encoding="UTF-8" standalone="no"?>
<svg width="30px" height="34px" viewBox="0 0 30 34" version="1.1" xmlns="http://www.w3.org/2000/svg" xmlns:xlink="http://www.w3.org/1999/xlink" xmlns:sketch="http://www.bohemiancoding.com/sketch/ns">
    <!-- Generator: Sketch 3.0.4 (8053) - http://www.bohemiancoding.com/sketch -->
    <title>Duplicate</title>
    <desc>Created with Sketch.</desc>
    <defs></defs>
    <g id="Icons" stroke="none" stroke-width="1" fill="none" fill-rule="evenodd" sketch:type="MSPage">
        <g id="Design-&amp;-Development" sketch:type="MSArtboardGroup" transform="translate(-685.000000, -403.000000)" fill="#231F1F">
            <g id="Duplicate" sketch:type="MSLayerGroup" transform="translate(685.000000, 403.000000)">
                <path d="M23,2 L3,2 C2.448,2 2,2.449 2,3 L2,27 C2,27.552 1.553,28 1,28 C0.447,28 0,27.552 0,27 L0,3 C0,1.346 1.346,0 3,0 L23,0 C23.553,0 24,0.448 24,1 C24,1.552 23.553,2 23,2 L23,2 Z M20,25 L20,34 L20.172,34 C20.973,34 21.727,33.688 22.293,33.121 L29.122,26.293 C29.688,25.727 30,24.974 30,24.171 L30,24 L21,24 C20.448,24 20,24.449 20,25 L20,25 Z M27,4 L7,4 C5.346,4 4,5.346 4,7 L4,31 C4,32.654 5.346,34 7,34 L18,34 L18,25 C18,23.346 19.346,22 21,22 L30,22 L30,7 C30,5.346 28.654,4 27,4 L27,4 Z" sketch:type="MSShapeGroup"></path>
            </g>
        </g>
    </g>
</svg>