<?xml version="1.0" encoding="UTF-8" standalone="no"?>
<svg width="39px" height="40px" viewBox="0 0 39 40" version="1.1" xmlns="http://www.w3.org/2000/svg" xmlns:xlink="http://www.w3.org/1999/xlink" xmlns:sketch="http://www.bohemiancoding.com/sketch/ns">
    <!-- Generator: Sketch 3.0.4 (8053) - http://www.bohemiancoding.com/sketch -->
    <title>Edit</title>
    <desc>Created with Sketch.</desc>
    <defs></defs>
    <g id="Icons" stroke="none" stroke-width="1" fill="none" fill-rule="evenodd" sketch:type="MSPage">
        <g id="Design-&amp;-Development" sketch:type="MSArtboardGroup" transform="translate(-922.000000, -400.000000)" fill="#231F1F">
            <g id="Edit" sketch:type="MSLayerGroup" transform="translate(922.000000, 400.000000)">
                <path d="M23.8,32.23 L30,26.03 L30,37 C30,38.654 28.654,40 27,40 L3,40 C1.346,40 0,38.654 0,37 L0,3 C0,1.346 1.346,0 3,0 L27,0 C28.654,0 30,1.346 30,3 L30,3.552 C28.923,3.636 27.898,4.074 27.15,4.822 L11.771,20.201 C11.442,20.53 11.211,20.944 11.102,21.407 L8.558,32.442 C8.361,33.288 8.61,34.16 9.226,34.775 C9.69,35.24 10.335,35.507 10.993,35.507 C11.177,35.507 11.361,35.487 11.555,35.443 L22.591,32.899 C23.049,32.794 23.467,32.563 23.8,32.23 L23.8,32.23 Z M38.508,13.66 C38.504,14.33 38.24,14.961 37.765,15.436 L22.386,30.816 C22.319,30.882 22.236,30.929 22.145,30.95 L11.106,33.495 C11.068,33.503 11.03,33.507 10.993,33.507 C10.862,33.507 10.734,33.456 10.64,33.361 C10.518,33.239 10.467,33.063 10.506,32.895 L13.051,21.856 C13.072,21.765 13.118,21.682 13.185,21.615 L28.563,6.236 C29.518,5.284 31.171,5.276 32.116,6.222 L37.778,11.884 C38.252,12.357 38.511,12.988 38.508,13.66 L38.508,13.66 Z M17.778,23.805 L30.89,10.694 C31.28,10.303 31.28,9.67 30.89,9.28 C30.499,8.889 29.866,8.889 29.476,9.28 L16.364,22.391 C15.974,22.781 15.974,23.414 16.364,23.805 C16.56,24 16.815,24.098 17.071,24.098 C17.327,24.098 17.583,24 17.778,23.805 L17.778,23.805 Z M34.721,13.111 C34.33,12.72 33.697,12.72 33.307,13.111 L20.195,26.222 C19.805,26.613 19.805,27.246 20.195,27.636 C20.391,27.832 20.647,27.929 20.902,27.929 C21.158,27.929 21.414,27.832 21.609,27.636 L34.721,14.525 C35.111,14.134 35.111,13.501 34.721,13.111 L34.721,13.111 Z" sketch:type="MSShapeGroup"></path>
            </g>
        </g>
    </g>
</svg>