<?xml version="1.0" encoding="UTF-8" standalone="no"?>
<svg width="36px" height="34px" viewBox="0 0 36 34" version="1.1" xmlns="http://www.w3.org/2000/svg" xmlns:xlink="http://www.w3.org/1999/xlink" xmlns:sketch="http://www.bohemiancoding.com/sketch/ns">
    <!-- Generator: Sketch 3.0.4 (8053) - http://www.bohemiancoding.com/sketch -->
    <title>Eye (hide)</title>
    <desc>Created with Sketch.</desc>
    <defs></defs>
    <g id="Icons" stroke="none" stroke-width="1" fill="none" fill-rule="evenodd" sketch:type="MSPage">
        <g id="Design-&amp;-Development" sketch:type="MSArtboardGroup" transform="translate(-1162.000000, -403.000000)" fill="#231F1F">
            <g id="Eye-(hide)" sketch:type="MSLayerGroup" transform="translate(1162.000000, 403.000000)">
                <path d="M35.45,18.69325 C33.501,21.49125 27.899,28.00025 17.986,28.00025 C15.821,28.00025 13.871,27.67225 12.106,27.15125 L16.462,22.79625 C16.95,22.92525 17.46,23.00025 17.989,23.00025 C21.297,23.00025 23.989,20.30925 23.989,17.00025 C23.989,16.47125 23.913,15.96125 23.784,15.47325 L29.665,9.59225 C32.561,11.57225 34.463,13.90525 35.445,15.30725 C36.163,16.33525 36.166,17.66425 35.45,18.69325 L35.45,18.69325 Z M34.722,1.70725 L2.807,33.62225 L2.722,33.70725 C2.527,33.90225 2.271,34.00025 2.015,34.00025 C1.759,34.00025 1.503,33.90225 1.308,33.70725 C0.917,33.31625 0.917,32.68425 1.308,32.29325 L8.111,25.49025 C4.209,23.35225 1.713,20.37125 0.537,18.70325 C-0.179,17.68425 -0.179,16.31625 0.537,15.29825 C2.508,12.50125 8.155,6.00025 17.986,6.00025 C21.069,6.00025 23.737,6.63425 26.009,7.59225 L33.308,0.29325 C33.699,-0.09775 34.331,-0.09775 34.722,0.29325 C35.113,0.68425 35.113,1.31625 34.722,1.70725 L34.722,1.70725 Z M21.475,12.12625 C20.491,11.42025 19.289,11.00025 17.989,11.00025 C14.68,11.00025 11.989,13.69125 11.989,17.00025 C11.989,18.30125 12.409,19.50225 13.115,20.48625 L21.475,12.12625 L21.475,12.12625 Z" sketch:type="MSShapeGroup"></path>
            </g>
        </g>
    </g>
</svg>