<?xml version="1.0" encoding="UTF-8" standalone="no"?>
<svg width="41px" height="40px" viewBox="0 0 41 40" version="1.1" xmlns="http://www.w3.org/2000/svg" xmlns:xlink="http://www.w3.org/1999/xlink" xmlns:sketch="http://www.bohemiancoding.com/sketch/ns">
    <!-- Generator: Sketch 3.0.4 (8053) - http://www.bohemiancoding.com/sketch -->
    <title>Flow Chart</title>
    <desc>Created with Sketch.</desc>
    <defs></defs>
    <g id="Icons" stroke="none" stroke-width="1" fill="none" fill-rule="evenodd" sketch:type="MSPage">
        <g id="Design-&amp;-Development" sketch:type="MSArtboardGroup" transform="translate(-319.000000, -560.000000)" fill="#231F1F">
            <g id="Flow-Chart" sketch:type="MSLayerGroup" transform="translate(319.000000, 560.000000)">
                <path d="M36,37 C34.896,37 34,36.103 34,35 C34,33.897 34.896,33 36,33 L37,33 L37,21 L32,21 C30.896,21 30,20.103 30,19 C30,17.897 30.896,17 32,17 L39,17 C40.103,17 41,17.897 41,19 L41,35 C41,36.103 40.103,37 39,37 L36,37 L36,37 Z M10,21 C11.103,21 12,20.103 12,19 C12,17.897 11.103,17 10,17 L4,17 L4,6 L5,6 C6.103,6 7,5.103 7,4 C7,2.897 6.103,2 5,2 L2,2 C0.896,2 0,2.897 0,4 L0,19 C0,20.103 0.896,21 2,21 L10,21 L10,21 Z M10,8 L32,8 C32.552,8 33,7.552 33,7 L33,1 C33,0.448 32.552,0 32,0 L10,0 C9.447,0 9,0.448 9,1 L9,7 C9,7.552 9.447,8 10,8 L10,8 Z M14,19 C14,22.86 17.14,26 21,26 C24.859,26 28,22.86 28,19 C28,15.14 24.859,12 21,12 C17.14,12 14,15.14 14,19 L14,19 Z M31.371,34.071 L21.371,30.071 C21.132,29.976 20.867,29.976 20.628,30.071 L10.628,34.071 C10.249,34.224 10,34.591 10,35 C10,35.409 10.249,35.776 10.628,35.929 L20.628,39.929 C20.748,39.976 20.874,40 21,40 C21.126,40 21.252,39.976 21.371,39.929 L31.371,35.929 C31.75,35.776 32,35.409 32,35 C32,34.591 31.75,34.224 31.371,34.071 L31.371,34.071 Z" sketch:type="MSShapeGroup"></path>
            </g>
        </g>
    </g>
</svg>