<?xml version="1.0" encoding="UTF-8" standalone="no"?>
<svg width="34px" height="37px" viewBox="0 0 34 37" version="1.1" xmlns="http://www.w3.org/2000/svg" xmlns:xlink="http://www.w3.org/1999/xlink" xmlns:sketch="http://www.bohemiancoding.com/sketch/ns">
    <!-- Generator: Sketch 3.0.4 (8053) - http://www.bohemiancoding.com/sketch -->
    <title>Forward</title>
    <desc>Created with Sketch.</desc>
    <defs></defs>
    <g id="Icons" stroke="none" stroke-width="1" fill="none" fill-rule="evenodd" sketch:type="MSPage">
        <g id="Design-&amp;-Development" sketch:type="MSArtboardGroup" transform="translate(-443.000000, -561.000000)" fill="#231F1F">
            <g id="Forward" sketch:type="MSLayerGroup" transform="translate(443.000000, 561.000000)">
                <path d="M11.293,6.70725 C10.902,6.31625 10.902,5.68425 11.293,5.29325 L16.293,0.29325 C16.683,-0.09775 17.316,-0.09775 17.707,0.29325 L22.707,5.29325 C23.097,5.68425 23.097,6.31625 22.707,6.70725 C22.511,6.90225 22.255,7.00025 22,7.00025 C21.744,7.00025 21.488,6.90225 21.293,6.70725 L17,2.41425 L12.707,6.70725 C12.316,7.09825 11.683,7.09825 11.293,6.70725 L11.293,6.70725 Z M2,24.00025 L13,24.00025 L13,18.00025 L2,18.00025 C0.895,18.00025 0,18.89525 0,20.00025 L0,22.00025 C0,23.10525 0.895,24.00025 2,24.00025 L2,24.00025 Z M32,18.00025 L21,18.00025 L21,24.00025 L32,24.00025 C33.104,24.00025 34,23.10525 34,22.00025 L34,20.00025 C34,18.89525 33.104,18.00025 32,18.00025 L32,18.00025 Z M32,31.00025 L19,31.00025 L19,8.00025 C19,6.89525 18.104,6.00025 17,6.00025 C15.895,6.00025 15,6.89525 15,8.00025 L15,31.00025 L2,31.00025 C0.895,31.00025 0,31.89525 0,33.00025 L0,35.00025 C0,36.10525 0.895,37.00025 2,37.00025 L32,37.00025 C33.104,37.00025 34,36.10525 34,35.00025 L34,33.00025 C34,31.89525 33.104,31.00025 32,31.00025 L32,31.00025 Z" sketch:type="MSShapeGroup"></path>
            </g>
        </g>
    </g>
</svg>