<?xml version="1.0" encoding="UTF-8" standalone="no"?>
<svg width="45px" height="25px" viewBox="0 0 45 25" version="1.1" xmlns="http://www.w3.org/2000/svg" xmlns:xlink="http://www.w3.org/1999/xlink" xmlns:sketch="http://www.bohemiancoding.com/sketch/ns">
    <!-- Generator: Sketch 3.0.4 (8053) - http://www.bohemiancoding.com/sketch -->
    <title>Graphs</title>
    <desc>Created with Sketch.</desc>
    <defs></defs>
    <g id="Icons" stroke="none" stroke-width="1" fill="none" fill-rule="evenodd" sketch:type="MSPage">
        <g id="Design-&amp;-Development" sketch:type="MSArtboardGroup" transform="translate(-558.000000, -568.000000)" fill="#231F1F">
            <g id="Graphs" sketch:type="MSLayerGroup" transform="translate(558.000000, 568.000000)">
                <path d="M40.586,7.242 L32.646,15.181 C32.868,15.746 33,16.356 33,17 C33,19.761 30.761,22 28,22 C25.238,22 22.999,19.761 22.999,17 C22.999,16.356 23.131,15.746 23.353,15.181 L19.818,11.647 C19.253,11.868 18.643,12 18,12 C17.356,12 16.746,11.868 16.181,11.647 L9.646,18.182 C9.868,18.746 10,19.357 10,20 C10,22.761 7.761,25 4.999,25 C2.238,25 0,22.761 0,20 C0,17.239 2.238,15 4.999,15 C5.643,15 6.253,15.132 6.818,15.353 L13.353,8.818 C13.132,8.254 13,7.643 13,7 C13,4.238 15.238,2 18,2 C20.761,2 22.999,4.238 22.999,7 C22.999,7.643 22.868,8.253 22.646,8.818 L26.181,12.353 C26.746,12.132 27.356,12 28,12 C28.643,12 29.253,12.132 29.818,12.353 L37.757,4.414 C38.538,3.633 39.804,3.633 40.586,4.414 C41.366,5.195 41.366,6.461 40.586,7.242 Z M44,0 L35.999,0 C35.447,0 35,0.448 35,1 C35,1.552 35.447,2 35.999,2 L42.999,2 L42.999,9 C42.999,9.552 43.447,10 44,10 C44.552,10 44.999,9.552 44.999,9 L44.999,1 C44.999,0.448 44.552,0 44,0 L44,0 Z" sketch:type="MSShapeGroup"></path>
            </g>
        </g>
    </g>
</svg>