<?xml version="1.0" encoding="UTF-8" standalone="no"?>
<svg width="38px" height="38px" viewBox="0 0 38 38" version="1.1" xmlns="http://www.w3.org/2000/svg" xmlns:xlink="http://www.w3.org/1999/xlink" xmlns:sketch="http://www.bohemiancoding.com/sketch/ns">
    <!-- Generator: Sketch 3.0.4 (8053) - http://www.bohemiancoding.com/sketch -->
    <title>Group</title>
    <desc>Created with Sketch.</desc>
    <defs></defs>
    <g id="Icons" stroke="none" stroke-width="1" fill="none" fill-rule="evenodd" sketch:type="MSPage">
        <g id="Design-&amp;-Development" sketch:type="MSArtboardGroup" transform="translate(-801.000000, -561.000000)" fill="#231F1F">
            <g id="Group" sketch:type="MSLayerGroup" transform="translate(801.000000, 561.000000)">
                <path d="M36,32 L36,6 C33.794,6 32,4.205 32,2 L6,2 C6,4.205 4.206,6 2,6 L2,32 C4.206,32 6,33.794 6,36 L32,36 C32,33.794 33.794,32 36,32 L36,32 Z M17,19 L9,19 C7.895,19 7,18.105 7,17 L7,9 C7,7.895 7.895,7 9,7 L17,7 C18.105,7 19,7.895 19,9 L19,17 C19,18.105 18.105,19 17,19 L17,19 Z M25,31 C21.686,31 19,28.314 19,25 C19,21.686 21.686,19 25,19 C28.314,19 31,21.686 31,25 C31,28.314 28.314,31 25,31 L25,31 Z M0,2 C0,0.895 0.895,0 2,0 C3.105,0 4,0.895 4,2 C4,3.105 3.105,4 2,4 C0.895,4 0,3.105 0,2 L0,2 Z M34,2 C34,0.895 34.896,0 36,0 C37.105,0 38,0.895 38,2 C38,3.105 37.105,4 36,4 C34.896,4 34,3.105 34,2 L34,2 Z M38,36 C38,37.104 37.105,38 36,38 C34.896,38 34,37.104 34,36 C34,34.895 34.896,34 36,34 C37.105,34 38,34.895 38,36 L38,36 Z M4,36 C4,37.104 3.105,38 2,38 C0.895,38 0,37.104 0,36 C0,34.895 0.895,34 2,34 C3.105,34 4,34.895 4,36 L4,36 Z" sketch:type="MSShapeGroup"></path>
            </g>
        </g>
    </g>
</svg>