<?xml version="1.0" encoding="UTF-8" standalone="no"?>
<svg width="39px" height="39px" viewBox="0 0 39 39" version="1.1" xmlns="http://www.w3.org/2000/svg" xmlns:xlink="http://www.w3.org/1999/xlink" xmlns:sketch="http://www.bohemiancoding.com/sketch/ns">
    <!-- Generator: Sketch 3.0.4 (8053) - http://www.bohemiancoding.com/sketch -->
    <title>Hand Tool</title>
    <desc>Created with Sketch.</desc>
    <defs></defs>
    <g id="Icons" stroke="none" stroke-width="1" fill="none" fill-rule="evenodd" sketch:type="MSPage">
        <g id="Design-&amp;-Development" sketch:type="MSArtboardGroup" transform="translate(-920.000000, -560.000000)" fill="#231F1F">
            <g id="Hand-Tool" sketch:type="MSLayerGroup" transform="translate(920.000000, 560.000000)">
                <path d="M36.9005581,26.8801565 C39.6675581,29.6471565 39.6675581,34.1331565 36.9005581,36.9001565 C34.1335581,39.6671565 29.6475581,39.6671565 26.8805581,36.9001565 C25.5205581,35.5401565 24.8315581,33.7651565 24.8095581,31.9831565 C24.7975581,30.9911565 24.3325581,30.0581565 23.6305581,29.3571565 L16.3205581,22.0461565 C15.1865581,20.9121565 13.4755581,20.4541565 11.9885581,21.0571565 C9.79555814,21.9471565 7.18755814,21.5021565 5.40955814,19.7231565 L4.69355814,19.0081565 L0.665558143,13.9731565 C-0.301441857,12.7641565 -0.204441857,11.0231565 0.889558143,9.92915645 L2.54655814,8.27215645 L7.13555814,12.8611565 C10.2195581,12.7831565 12.7835581,10.2201565 12.8605581,7.13515645 L8.27155814,2.54615645 L9.92855814,0.889156453 C11.0225581,-0.204843547 12.7645581,-0.300843547 13.9725581,0.665156453 L19.0075581,4.69315645 L19.7235581,5.40915645 C21.5015581,7.18815645 21.9465581,9.79515645 21.0575581,11.9891565 C20.4545581,13.4751565 20.9125581,15.1861565 22.0465581,16.3211565 L29.3565581,23.6311565 C30.0585581,24.3321565 30.9905581,24.7971565 31.9835581,24.8101565 C33.7655581,24.8321565 35.5405581,25.5201565 36.9005581,26.8801565 L36.9005581,26.8801565 Z M29.7435581,29.7431565 C28.5575581,30.9291565 28.5575581,32.8511565 29.7435581,34.0371565 C30.9285581,35.2231565 32.8515581,35.2231565 34.0375581,34.0371565 C35.2235581,32.8511565 35.2235581,30.9291565 34.0375581,29.7431565 C32.8515581,28.5571565 30.9285581,28.5571565 29.7435581,29.7431565 L29.7435581,29.7431565 Z" sketch:type="MSShapeGroup"></path>
            </g>
        </g>
    </g>
</svg>