<?xml version="1.0" encoding="UTF-8" standalone="no"?>
<svg width="31px" height="39px" viewBox="0 0 31 39" version="1.1" xmlns="http://www.w3.org/2000/svg" xmlns:xlink="http://www.w3.org/1999/xlink" xmlns:sketch="http://www.bohemiancoding.com/sketch/ns">
    <!-- Generator: Sketch 3.0.4 (8053) - http://www.bohemiancoding.com/sketch -->
    <title>History</title>
    <desc>Created with Sketch.</desc>
    <defs></defs>
    <g id="Icons" stroke="none" stroke-width="1" fill="none" fill-rule="evenodd" sketch:type="MSPage">
        <g id="Design-&amp;-Development" sketch:type="MSArtboardGroup" transform="translate(-1046.000000, -560.000000)" fill="#231F1F">
            <g id="History" sketch:type="MSLayerGroup" transform="translate(1046.000000, 560.000000)">
                <path d="M0,9.00025 L0,3.00025 C0,1.89525 0.895,1.00025 2,1.00025 L8,1.00025 C9.104,1.00025 10,1.89525 10,3.00025 L10,9.00025 C10,10.10525 9.104,11.00025 8,11.00025 L2,11.00025 C0.895,11.00025 0,10.10525 0,9.00025 L0,9.00025 Z M25,4.00025 L20.161,4.00025 C19.056,4.00025 18.161,4.89525 18.161,6.00025 C18.161,7.10525 19.056,8.00025 20.161,8.00025 L25,8.00025 C26.105,8.00025 27,8.89525 27,10.00025 L27,30.00025 C27,31.10525 26.105,32.00025 25,32.00025 L10,32.00025 L10,31.00025 C10,29.89525 9.104,29.00025 8,29.00025 L2,29.00025 C0.895,29.00025 0,29.89525 0,31.00025 L0,37.00025 C0,38.10425 0.895,39.00025 2,39.00025 L8,39.00025 C9.104,39.00025 10,38.10425 10,37.00025 L10,36.00025 L25,36.00025 C28.314,36.00025 31,33.31425 31,30.00025 L31,10.00025 C31,6.68625 28.314,4.00025 25,4.00025 L25,4.00025 Z M2,25.00025 L8,25.00025 C9.104,25.00025 10,24.10525 10,23.00025 L10,17.00025 C10,15.89525 9.104,15.00025 8,15.00025 L2,15.00025 C0.895,15.00025 0,15.89525 0,17.00025 L0,23.00025 C0,24.10525 0.895,25.00025 2,25.00025 L2,25.00025 Z M17.292,11.70725 C17.487,11.90225 17.743,12.00025 17.999,12.00025 C18.255,12.00025 18.511,11.90225 18.706,11.70725 C19.097,11.31625 19.097,10.68425 18.706,10.29325 L14.413,6.00025 L18.706,1.70725 C19.097,1.31625 19.097,0.68425 18.706,0.29325 C18.316,-0.09775 17.683,-0.09775 17.292,0.29325 L12.292,5.29325 C11.901,5.68425 11.901,6.31625 12.292,6.70725 L17.292,11.70725 L17.292,11.70725 Z" sketch:type="MSShapeGroup"></path>
            </g>
        </g>
    </g>
</svg>