<?xml version="1.0" encoding="UTF-8" standalone="no"?>
<svg width="38px" height="25px" viewBox="0 0 38 25" version="1.1" xmlns="http://www.w3.org/2000/svg" xmlns:xlink="http://www.w3.org/1999/xlink" xmlns:sketch="http://www.bohemiancoding.com/sketch/ns">
    <!-- Generator: Sketch 3.0.4 (8053) - http://www.bohemiancoding.com/sketch -->
    <title>iCloud</title>
    <desc>Created with Sketch.</desc>
    <defs></defs>
    <g id="Icons" stroke="none" stroke-width="1" fill="none" fill-rule="evenodd" sketch:type="MSPage">
        <g id="Design-&amp;-Development" sketch:type="MSArtboardGroup" transform="translate(-1161.000000, -567.000000)" fill="#231F1F">
            <g id="iCloud" sketch:type="MSLayerGroup" transform="translate(1161.000000, 567.000000)">
                <path d="M30,25 L8,25 C3.581,25 0,21.418 0,17 C0,13.622 2.096,10.739 5.057,9.566 C5.035,9.378 5,9.194 5,9 C5,6.239 7.238,4 10,4 C11.109,4 12.124,4.373 12.954,4.985 C14.43,2.032 17.474,0 21,0 C25.97,0 30,4.029 30,9 C34.418,9 38,12.582 38,17 C38,21.418 34.418,25 30,25" sketch:type="MSShapeGroup"></path>
            </g>
        </g>
    </g>
</svg>