<?xml version="1.0" encoding="UTF-8" standalone="no"?>
<svg width="40px" height="38px" viewBox="0 0 40 38" version="1.1" xmlns="http://www.w3.org/2000/svg" xmlns:xlink="http://www.w3.org/1999/xlink" xmlns:sketch="http://www.bohemiancoding.com/sketch/ns">
    <!-- Generator: Sketch 3.0.4 (8053) - http://www.bohemiancoding.com/sketch -->
    <title>iMac</title>
    <desc>Created with Sketch.</desc>
    <defs></defs>
    <g id="Icons" stroke="none" stroke-width="1" fill="none" fill-rule="evenodd" sketch:type="MSPage">
        <g id="Design-&amp;-Development" sketch:type="MSArtboardGroup" transform="translate(-200.000000, -721.000000)" fill="#231F1F">
            <g id="iMac" sketch:type="MSLayerGroup" transform="translate(200.000000, 721.000000)">
                <path d="M31.416,35.322 C31.94,35.766 32.11,36.423 31.887,37.027 C31.669,37.618 31.126,38 30.505,38 L9.465,38 C8.843,38 8.3,37.618 8.083,37.027 C7.86,36.423 8.03,35.766 8.515,35.351 L13,32.238 L13,29.5 C13,29.224 13.223,29 13.5,29 L26.5,29 C26.776,29 27,29.224 27,29.5 L27,32.239 L31.416,35.322 L31.416,35.322 Z M40,2.5 L40,24.5 C40,25.878 38.878,27 37.5,27 L2.5,27 C1.121,27 0,25.878 0,24.5 L0,2.5 C0,1.122 1.121,0 2.5,0 L37.5,0 C38.878,0 40,1.122 40,2.5 L40,2.5 Z M36.5,20 C36.5,19.448 36.052,19 35.5,19 L4.5,19 C3.947,19 3.5,19.448 3.5,20 C3.5,20.552 3.947,21 4.5,21 L35.5,21 C36.052,21 36.5,20.552 36.5,20 L36.5,20 Z" sketch:type="MSShapeGroup"></path>
            </g>
        </g>
    </g>
</svg>