<?xml version="1.0" encoding="UTF-8" standalone="no"?>
<svg width="38px" height="38px" viewBox="0 0 38 38" version="1.1" xmlns="http://www.w3.org/2000/svg" xmlns:xlink="http://www.w3.org/1999/xlink" xmlns:sketch="http://www.bohemiancoding.com/sketch/ns">
    <!-- Generator: Sketch 3.0.4 (8053) - http://www.bohemiancoding.com/sketch -->
    <title>Intersect Tool </title>
    <desc>Created with Sketch.</desc>
    <defs></defs>
    <g id="Icons" stroke="none" stroke-width="1" fill="none" fill-rule="evenodd" sketch:type="MSPage">
        <g id="Design-&amp;-Development" sketch:type="MSArtboardGroup" transform="translate(-321.000000, -721.000000)" fill="#231F1F">
            <g id="Intersect-Tool-" sketch:type="MSLayerGroup" transform="translate(321.000000, 721.000000)">
                <path d="M35,0 L15,0 C13.343,0 12,1.343 12,3 L12,12 L3,12 C1.343,12 0,13.343 0,15 L0,35 C0,36.657 1.343,38 3,38 L23,38 C24.656,38 26,36.657 26,35 L26,26 L35,26 C36.656,26 38,24.657 38,23 L38,3 C38,1.343 36.656,0 35,0 L35,0 Z M22,34 L4,34 L4,16 L12,16 L12,23 C12,24.657 13.343,26 15,26 L22,26 L22,34 L22,34 Z M34,22 L26,22 L26,15 C26,13.343 24.656,12 23,12 L16,12 L16,4 L34,4 L34,22 L34,22 Z" sketch:type="MSShapeGroup"></path>
            </g>
        </g>
    </g>
</svg>