<?xml version="1.0" encoding="UTF-8" standalone="no"?>
<svg width="47px" height="34px" viewBox="0 0 47 34" version="1.1" xmlns="http://www.w3.org/2000/svg" xmlns:xlink="http://www.w3.org/1999/xlink" xmlns:sketch="http://www.bohemiancoding.com/sketch/ns">
    <!-- Generator: Sketch 3.0.4 (8053) - http://www.bohemiancoding.com/sketch -->
    <title>iPad</title>
    <desc>Created with Sketch.</desc>
    <defs></defs>
    <g id="Icons" stroke="none" stroke-width="1" fill="none" fill-rule="evenodd" sketch:type="MSPage">
        <g id="Design-&amp;-Development" sketch:type="MSArtboardGroup" transform="translate(-556.000000, -723.000000)" fill="#231F1F">
            <g id="iPad" sketch:type="MSLayerGroup" transform="translate(556.000000, 723.000000)">
                <path d="M43.999,0 L3.999,0 C2.345,0 0.999,1.346 0.999,3 L0.999,4 C0.447,4 0,4.448 0,5 L0,9 C0,9.552 0.447,10 0.999,10 L0.999,30 C0.999,31.654 2.345,33 3.999,33 L6.999,33 C6.999,33.552 7.447,34 8,34 L9.999,34 C10.552,34 11,33.552 11,33 L12,33 C12,33.552 12.447,34 12.999,34 L15,34 C15.552,34 15.999,33.552 15.999,33 L43.999,33 C45.654,33 46.999,31.654 46.999,30 L46.999,3 C46.999,1.346 45.654,0 43.999,0 L43.999,0 Z M43.5,18 C42.671,18 42,17.328 42,16.5 C42,15.672 42.671,15 43.5,15 C44.328,15 45,15.672 45,16.5 C45,17.328 44.328,18 43.5,18 L43.5,18 Z M39.999,5 L39.999,28 C39.999,28.552 39.552,29 39,29 C38.447,29 37.999,28.552 37.999,28 L37.999,5 C37.999,4.448 38.447,4 39,4 C39.552,4 39.999,4.448 39.999,5 L39.999,5 Z M9.999,5 L9.999,28 C9.999,28.552 9.552,29 9,29 C8.447,29 8,28.552 8,28 L8,5 C8,4.448 8.447,4 9,4 C9.552,4 9.999,4.448 9.999,5 L9.999,5 Z" sketch:type="MSShapeGroup"></path>
            </g>
        </g>
    </g>
</svg>