<?xml version="1.0" encoding="UTF-8" standalone="no"?>
<svg width="40px" height="22px" viewBox="0 0 40 22" version="1.1" xmlns="http://www.w3.org/2000/svg" xmlns:xlink="http://www.w3.org/1999/xlink" xmlns:sketch="http://www.bohemiancoding.com/sketch/ns">
    <!-- Generator: Sketch 3.0.4 (8053) - http://www.bohemiancoding.com/sketch -->
    <title>Keyboard</title>
    <desc>Created with Sketch.</desc>
    <defs></defs>
    <g id="Icons" stroke="none" stroke-width="1" fill="none" fill-rule="evenodd" sketch:type="MSPage">
        <g id="Design-&amp;-Development" sketch:type="MSArtboardGroup" transform="translate(-800.000000, -729.000000)" fill="#231F1F">
            <g id="Keyboard" sketch:type="MSLayerGroup" transform="translate(800.000000, 729.000000)">
                <path d="M37,0 L3,0 C1.346,0 0,1.346 0,3 L0,19 C0,20.654 1.346,22 3,22 L37,22 C38.654,22 40,20.654 40,19 L40,3 C40,1.346 38.654,0 37,0 L37,0 Z M29,4 L31,4 C31.553,4 32,4.448 32,5 C32,5.552 31.553,6 31,6 L29,6 C28.447,6 28,5.552 28,5 C28,4.448 28.447,4 29,4 L29,4 Z M24,4 L26,4 C26.553,4 27,4.448 27,5 C27,5.552 26.553,6 26,6 L24,6 C23.447,6 23,5.552 23,5 C23,4.448 23.447,4 24,4 L24,4 Z M25,10 L27,10 L27,12 L25,12 L25,10 Z M23,14 L25,14 L25,16 L23,16 L23,14 Z M21,10 L23,10 L23,12 L21,12 L21,10 Z M19,4 L21,4 C21.553,4 22,4.448 22,5 C22,5.552 21.553,6 21,6 L19,6 C18.447,6 18,5.552 18,5 C18,4.448 18.447,4 19,4 L19,4 Z M19,14 L21,14 L21,16 L19,16 L19,14 Z M17,10 L19,10 L19,12 L17,12 L17,10 Z M14,4 L16,4 C16.553,4 17,4.448 17,5 C17,5.552 16.553,6 16,6 L14,6 C13.447,6 13,5.552 13,5 C13,4.448 13.447,4 14,4 L14,4 Z M15,14 L17,14 L17,16 L15,16 L15,14 Z M13,10 L15,10 L15,12 L13,12 L13,10 Z M9,4 L11,4 C11.553,4 12,4.448 12,5 C12,5.552 11.553,6 11,6 L9,6 C8.447,6 8,5.552 8,5 C8,4.448 8.447,4 9,4 L9,4 Z M11,14 L13,14 L13,16 L11,16 L11,14 Z M7,18 L9,18 L9,20 L7,20 L7,18 Z M9,10 L11,10 L11,12 L9,12 L9,10 Z M11,18 L29,18 L29,20 L11,20 L11,18 Z M27,14 L29,14 L29,16 L27,16 L27,14 Z M29,10 L31,10 L31,12 L29,12 L29,10 Z M31,18 L33,18 L33,20 L31,20 L31,18 Z" sketch:type="MSShapeGroup"></path>
            </g>
        </g>
    </g>
</svg>