<?xml version="1.0" encoding="UTF-8" standalone="no"?>
<svg width="38px" height="38px" viewBox="0 0 38 38" version="1.1" xmlns="http://www.w3.org/2000/svg" xmlns:xlink="http://www.w3.org/1999/xlink" xmlns:sketch="http://www.bohemiancoding.com/sketch/ns">
    <!-- Generator: Sketch 3.0.4 (8053) - http://www.bohemiancoding.com/sketch -->
    <title>Link</title>
    <desc>Created with Sketch.</desc>
    <defs></defs>
    <g id="Icons" stroke="none" stroke-width="1" fill="none" fill-rule="evenodd" sketch:type="MSPage">
        <g id="Design-&amp;-Development" sketch:type="MSArtboardGroup" transform="translate(-921.000000, -721.000000)" fill="#231F1F">
            <g id="Link" sketch:type="MSLayerGroup" transform="translate(921.000000, 721.000000)">
                <path d="M20.5175,23.152 C21.5715,26.299 20.8575,29.912 18.3545,32.414 L15.4135,35.355 C13.7085,37.061 11.4395,38 9.0275,38 C6.6145,38 4.3465,37.061 2.6415,35.355 C-0.8805,31.834 -0.8805,26.106 2.6415,22.586 L5.5835,19.645 C7.2885,17.939 9.5565,17 11.9695,17 C12.9725,17 13.9475,17.172 14.8715,17.484 L11.2885,21.067 C10.2045,21.213 9.1985,21.687 8.4125,22.473 L5.4695,25.414 C3.5085,27.375 3.5085,30.566 5.4695,32.527 C6.4205,33.476 7.6835,34 9.0275,34 C10.3715,34 11.6345,33.476 12.5845,32.527 L15.5265,29.586 C16.3255,28.786 16.7815,27.781 16.9295,26.739 L20.5175,23.152 L20.5175,23.152 Z M35.3545,2.645 C33.6495,0.939 31.3815,0 28.9695,0 C26.5575,0 24.2895,0.939 22.5835,2.645 L19.6415,5.586 C17.1335,8.093 16.4215,11.718 17.4865,14.87 L21.0635,11.293 C21.2055,10.24 21.6615,9.222 22.4695,8.414 L25.4125,5.473 C26.3625,4.523 27.6255,4 28.9695,4 C30.3125,4 31.5755,4.523 32.5265,5.473 C34.4875,7.434 34.4875,10.625 32.5265,12.586 L29.5845,15.527 C28.8055,16.305 27.8125,16.778 26.7405,16.93 L23.1465,20.523 C24.0635,20.831 25.0315,21 26.0275,21 C28.4405,21 30.7085,20.061 32.4135,18.355 L35.3545,15.414 C38.8765,11.893 38.8765,6.166 35.3545,2.645 L35.3545,2.645 Z M11.5905,26.42 C11.9815,26.811 12.4935,27.006 13.0045,27.006 C13.5165,27.006 14.0285,26.811 14.4195,26.42 L26.4225,14.42 C27.2035,13.64 27.2035,12.373 26.4225,11.592 C25.6405,10.811 24.3745,10.811 23.5935,11.592 L11.5905,23.592 C10.8095,24.373 10.8095,25.64 11.5905,26.42 L11.5905,26.42 Z" sketch:type="MSShapeGroup"></path>
            </g>
        </g>
    </g>
</svg>