<?xml version="1.0" encoding="UTF-8" standalone="no"?>
<svg width="30px" height="38px" viewBox="0 0 30 38" version="1.1" xmlns="http://www.w3.org/2000/svg" xmlns:xlink="http://www.w3.org/1999/xlink" xmlns:sketch="http://www.bohemiancoding.com/sketch/ns">
    <!-- Generator: Sketch 3.0.4 (8053) - http://www.bohemiancoding.com/sketch -->
    <title>Lock</title>
    <desc>Created with Sketch.</desc>
    <defs></defs>
    <g id="Icons" stroke="none" stroke-width="1" fill="none" fill-rule="evenodd" sketch:type="MSPage">
        <g id="Design-&amp;-Development" sketch:type="MSArtboardGroup" transform="translate(-1045.000000, -721.000000)" fill="#231F1F">
            <g id="Lock" sketch:type="MSLayerGroup" transform="translate(1045.000000, 721.000000)">
                <path d="M26,18 L25,18 L25,10 C25,4.477 20.522,0 15,0 C9.477,0 5,4.477 5,10 L5,18 L4,18 C1.79,18 0,19.791 0,22 L0,34 C0,36.209 1.79,38 4,38 L26,38 C28.209,38 30,36.209 30,34 L30,22 C30,19.791 28.209,18 26,18 L26,18 Z M16,27.723 L16,31 C16,31.552 15.552,32 15,32 C14.447,32 14,31.552 14,31 L14,27.723 C13.404,27.376 13,26.738 13,26 C13,24.895 13.895,24 15,24 C16.104,24 17,24.895 17,26 C17,26.738 16.595,27.376 16,27.723 L16,27.723 Z M9,18 L9,10 C9,6.691 11.691,4 15,4 C18.308,4 21,6.691 21,10 L21,18 L9,18 L9,18 Z" sketch:type="MSShapeGroup"></path>
            </g>
        </g>
    </g>
</svg>