<?xml version="1.0" encoding="UTF-8" standalone="no"?>
<svg width="40px" height="28px" viewBox="0 0 40 28" version="1.1" xmlns="http://www.w3.org/2000/svg" xmlns:xlink="http://www.w3.org/1999/xlink" xmlns:sketch="http://www.bohemiancoding.com/sketch/ns">
    <!-- Generator: Sketch 3.0.4 (8053) - http://www.bohemiancoding.com/sketch -->
    <title>Macbook</title>
    <desc>Created with Sketch.</desc>
    <defs></defs>
    <g id="Icons" stroke="none" stroke-width="1" fill="none" fill-rule="evenodd" sketch:type="MSPage">
        <g id="Design-&amp;-Development" sketch:type="MSArtboardGroup" transform="translate(-80.000000, -886.000000)" fill="#231F1F">
            <g id="Macbook" sketch:type="MSLayerGroup" transform="translate(80.000000, 886.000000)">
                <path d="M34.999,17 L34.999,2 C34.999,0.895 34.104,0 33,0 L7,0 C5.895,0 4.999,0.895 4.999,2 L4.999,17 L0,24 L0,26 C0,27.105 0.895,28 1.999,28 L37.999,28 C39.104,28 40,27.105 40,26 L40,24 L34.999,17 L34.999,17 Z M31,18 L9,18 C8.447,18 7.999,17.553 7.999,17 C7.999,16.447 8.447,16 9,16 L31,16 C31.552,16 31.999,16.447 31.999,17 C31.999,17.553 31.552,18 31,18 L31,18 Z" sketch:type="MSShapeGroup"></path>
            </g>
        </g>
    </g>
</svg>