<?xml version="1.0" encoding="UTF-8" standalone="no"?>
<svg width="41px" height="41px" viewBox="0 0 41 41" version="1.1" xmlns="http://www.w3.org/2000/svg" xmlns:xlink="http://www.w3.org/1999/xlink" xmlns:sketch="http://www.bohemiancoding.com/sketch/ns">
    <!-- Generator: Sketch 3.0.4 (8053) - http://www.bohemiancoding.com/sketch -->
    <title>Magic Wand </title>
    <desc>Created with Sketch.</desc>
    <defs></defs>
    <g id="Icons" stroke="none" stroke-width="1" fill="none" fill-rule="evenodd" sketch:type="MSPage">
        <g id="Design-&amp;-Development" sketch:type="MSArtboardGroup" transform="translate(-198.000000, -879.000000)" fill="#231F1F">
            <g id="Magic-Wand-" sketch:type="MSLayerGroup" transform="translate(198.000000, 879.000000)">
                <path d="M4,13 L1,13 C0.447,13 0,12.553 0,12 C0,11.447 0.447,11 1,11 L4,11 C4.552,11 5,11.447 5,12 C5,12.553 4.552,13 4,13 L4,13 Z M5.293,17.293 L3.293,19.293 C2.902,19.684 2.902,20.316 3.293,20.707 C3.488,20.902 3.744,21 4,21 C4.255,21 4.511,20.902 4.707,20.707 L6.707,18.707 C7.097,18.316 7.097,17.684 6.707,17.293 C6.316,16.902 5.683,16.902 5.293,17.293 L5.293,17.293 Z M12,5 C12.552,5 13,4.553 13,4 L13,1 C13,0.447 12.552,0 12,0 C11.447,0 11,0.447 11,1 L11,4 C11,4.553 11.447,5 12,5 L12,5 Z M4.707,3.293 C4.316,2.902 3.683,2.902 3.293,3.293 C2.902,3.684 2.902,4.316 3.293,4.707 L5.293,6.707 C5.488,6.902 5.744,7 6,7 C6.255,7 6.511,6.902 6.707,6.707 C7.097,6.316 7.097,5.684 6.707,5.293 L4.707,3.293 L4.707,3.293 Z M19,12 C19,12.553 19.447,13 20,13 L23,13 C23.552,13 24,12.553 24,12 C24,11.447 23.552,11 23,11 L20,11 C19.447,11 19,11.447 19,12 L19,12 Z M18,7 C18.255,7 18.511,6.902 18.707,6.707 L20.707,4.707 C21.097,4.316 21.097,3.684 20.707,3.293 C20.316,2.902 19.683,2.902 19.293,3.293 L17.293,5.293 C16.902,5.684 16.902,6.316 17.293,6.707 C17.488,6.902 17.744,7 18,7 L18,7 Z M12,19 C11.447,19 11,19.447 11,20 L11,23 C11,23.553 11.447,24 12,24 C12.552,24 13,23.553 13,23 L13,20 C13,19.447 12.552,19 12,19 L12,19 Z M40.428,37.643 L21.099,18.314 L18.314,21.1 L37.643,40.428 C38.412,41.197 39.659,41.197 40.428,40.428 C41.197,39.659 41.197,38.412 40.428,37.643 L40.428,37.643 Z M13.326,10.541 C12.557,9.772 11.31,9.772 10.541,10.541 C9.772,11.31 9.772,12.557 10.541,13.326 L16.9,19.685 L19.685,16.9 L13.326,10.541 L13.326,10.541 Z" sketch:type="MSShapeGroup"></path>
            </g>
        </g>
    </g>
</svg>