<?xml version="1.0" encoding="UTF-8" standalone="no"?>
<svg width="40px" height="22px" viewBox="0 0 40 22" version="1.1" xmlns="http://www.w3.org/2000/svg" xmlns:xlink="http://www.w3.org/1999/xlink" xmlns:sketch="http://www.bohemiancoding.com/sketch/ns">
    <!-- Generator: Sketch 3.0.4 (8053) - http://www.bohemiancoding.com/sketch -->
    <title>Menu</title>
    <desc>Created with Sketch.</desc>
    <defs></defs>
    <g id="Icons" stroke="none" stroke-width="1" fill="none" fill-rule="evenodd" sketch:type="MSPage">
        <g id="Design-&amp;-Development" sketch:type="MSArtboardGroup" transform="translate(-440.000000, -889.000000)" fill="#231F1F">
            <g id="Menu" sketch:type="MSLayerGroup" transform="translate(440.000000, 889.000000)">
                <path d="M40,1 L40,5 C40,5.553 39.552,6 39,6 L9,6 C8.447,6 8,5.553 8,5 L8,1 C8,0.447 8.447,0 9,0 L39,0 C39.552,0 40,0.447 40,1 L40,1 Z M9,14 L29,14 C29.552,14 30,13.553 30,13 L30,9 C30,8.447 29.552,8 29,8 L9,8 C8.447,8 8,8.447 8,9 L8,13 C8,13.553 8.447,14 9,14 L9,14 Z M39,16 L9,16 C8.447,16 8,16.447 8,17 L8,21 C8,21.553 8.447,22 9,22 L39,22 C39.552,22 40,21.553 40,21 L40,17 C40,16.447 39.552,16 39,16 L39,16 Z M5,0 L1,0 C0.447,0 0,0.447 0,1 L0,5 C0,5.553 0.447,6 1,6 L5,6 C5.552,6 6,5.553 6,5 L6,1 C6,0.447 5.552,0 5,0 L5,0 Z M5,8 L1,8 C0.447,8 0,8.447 0,9 L0,13 C0,13.553 0.447,14 1,14 L5,14 C5.552,14 6,13.553 6,13 L6,9 C6,8.447 5.552,8 5,8 L5,8 Z M5,16 L1,16 C0.447,16 0,16.447 0,17 L0,21 C0,21.553 0.447,22 1,22 L5,22 C5.552,22 6,21.553 6,21 L6,17 C6,16.447 5.552,16 5,16 L5,16 Z" sketch:type="MSShapeGroup"></path>
            </g>
        </g>
    </g>
</svg>