<?xml version="1.0" encoding="UTF-8" standalone="no"?>
<svg width="42px" height="42px" viewBox="0 0 42 42" version="1.1" xmlns="http://www.w3.org/2000/svg" xmlns:xlink="http://www.w3.org/1999/xlink" xmlns:sketch="http://www.bohemiancoding.com/sketch/ns">
    <!-- Generator: Sketch 3.0.4 (8053) - http://www.bohemiancoding.com/sketch -->
    <title>Move Tool</title>
    <desc>Created with Sketch.</desc>
    <defs></defs>
    <g id="Icons" stroke="none" stroke-width="1" fill="none" fill-rule="evenodd" sketch:type="MSPage">
        <g id="Design-&amp;-Development" sketch:type="MSArtboardGroup" transform="translate(-679.000000, -879.000000)" fill="#231F1F">
            <g id="Move-Tool" sketch:type="MSLayerGroup" transform="translate(679.000000, 879.000000)">
                <path d="M15.29325,6.70725 C14.90225,6.31625 14.90225,5.68425 15.29325,5.29325 L20.29325,0.29325 C20.68425,-0.09775 21.31725,-0.09775 21.70725,0.29325 L26.70725,5.29325 C27.09825,5.68425 27.09825,6.31625 26.70725,6.70725 C26.51225,6.90225 26.25625,7.00025 26.00025,7.00025 C25.74425,7.00025 25.48825,6.90225 25.29325,6.70725 L21.00025,2.41425 L16.70725,6.70725 C16.31725,7.09825 15.68425,7.09825 15.29325,6.70725 L15.29325,6.70725 Z M25.29325,35.29325 L21.00025,39.58625 L16.70725,35.29325 C16.31725,34.90225 15.68425,34.90225 15.29325,35.29325 C14.90225,35.68425 14.90225,36.31625 15.29325,36.70725 L20.29325,41.70725 C20.48825,41.90225 20.74425,42.00025 21.00025,42.00025 C21.25625,42.00025 21.51225,41.90225 21.70725,41.70725 L26.70725,36.70725 C27.09825,36.31625 27.09825,35.68425 26.70725,35.29325 C26.31725,34.90225 25.68425,34.90225 25.29325,35.29325 L25.29325,35.29325 Z M36.00025,21.00025 C36.00025,19.89525 35.10525,19.00025 34.00025,19.00025 L23.00025,19.00025 L23.00025,8.00025 C23.00025,6.89525 22.10525,6.00025 21.00025,6.00025 C19.89625,6.00025 19.00025,6.89525 19.00025,8.00025 L19.00025,19.00025 L8.00025,19.00025 C6.89625,19.00025 6.00025,19.89525 6.00025,21.00025 C6.00025,22.10425 6.89625,23.00025 8.00025,23.00025 L19.00025,23.00025 L19.00025,34.00025 C19.00025,35.10525 19.89625,36.00025 21.00025,36.00025 C22.10525,36.00025 23.00025,35.10525 23.00025,34.00025 L23.00025,23.00025 L34.00025,23.00025 C35.10525,23.00025 36.00025,22.10425 36.00025,21.00025 L36.00025,21.00025 Z M2.41425,21.00025 L6.70725,16.70725 C7.09825,16.31625 7.09825,15.68425 6.70725,15.29325 C6.31725,14.90225 5.68425,14.90225 5.29325,15.29325 L0.29325,20.29325 C-0.09775,20.68425 -0.09775,21.31625 0.29325,21.70725 L5.29325,26.70725 C5.48825,26.90225 5.74425,27.00025 6.00025,27.00025 C6.25625,27.00025 6.51225,26.90225 6.70725,26.70725 C7.09825,26.31625 7.09825,25.68425 6.70725,25.29325 L2.41425,21.00025 L2.41425,21.00025 Z M41.70725,20.29325 L36.70725,15.29325 C36.31725,14.90225 35.68425,14.90225 35.29325,15.29325 C34.90225,15.68425 34.90225,16.31625 35.29325,16.70725 L39.58625,21.00025 L35.29325,25.29325 C34.90225,25.68425 34.90225,26.31625 35.29325,26.70725 C35.48825,26.90225 35.74425,27.00025 36.00025,27.00025 C36.25625,27.00025 36.51225,26.90225 36.70725,26.70725 L41.70725,21.70725 C42.09825,21.31625 42.09825,20.68425 41.70725,20.29325 L41.70725,20.29325 Z" sketch:type="MSShapeGroup"></path>
            </g>
        </g>
    </g>
</svg>