<?xml version="1.0" encoding="UTF-8" standalone="no"?>
<svg width="42px" height="42px" viewBox="0 0 42 42" version="1.1" xmlns="http://www.w3.org/2000/svg" xmlns:xlink="http://www.w3.org/1999/xlink" xmlns:sketch="http://www.bohemiancoding.com/sketch/ns">
    <!-- Generator: Sketch 3.0.4 (8053) - http://www.bohemiancoding.com/sketch -->
    <title>Pattern</title>
    <desc>Created with Sketch.</desc>
    <defs></defs>
    <g id="Icons" stroke="none" stroke-width="1" fill="none" fill-rule="evenodd" sketch:type="MSPage">
        <g id="Design-&amp;-Development" sketch:type="MSArtboardGroup" transform="translate(-199.000000, -1039.000000)" fill="#231F1F">
            <g id="Pattern" sketch:type="MSLayerGroup" transform="translate(199.000000, 1039.000000)">
                <path d="M9,31 C9,29.897 9.897,29 11,29 C12.103,29 13,29.897 13,31 C13,32.102 12.103,33 11,33 C9.897,33 9,32.102 9,31 L9,31 Z M13.269,14.287 C14.262,15.597 14.836,17.747 14.967,20 L20,20 L20,14.967 C17.747,14.836 15.597,14.263 14.287,13.27 C14.012,13.667 13.667,14.012 13.269,14.287 L13.269,14.287 Z M11,9 C9.897,9 9,9.897 9,11 C9,12.102 9.897,13 11,13 C12.103,13 13,12.102 13,11 C13,9.897 12.103,9 11,9 L11,9 Z M22,9.043 L22,12.957 C25.118,12.751 27,11.639 27,11 C27,10.361 25.118,9.249 22,9.043 L22,9.043 Z M15,11 C15,11.639 16.881,12.751 20,12.957 L20,9.043 C16.881,9.249 15,10.361 15,11 L15,11 Z M22,7.033 C24.252,7.163 26.402,7.737 27.712,8.73 C28.435,7.687 29.637,7 31,7 C33.205,7 35,8.794 35,11 C35,12.362 34.312,13.565 33.269,14.287 C34.262,15.597 34.836,17.747 34.967,20 L42,20 L42,1 C42,0.447 41.552,0 41,0 L22,0 L22,7.033 L22,7.033 Z M12.957,22 L9.043,22 C9.248,25.118 10.361,27 11,27 C11.638,27 12.751,25.118 12.957,22 L12.957,22 Z M22,20 L27.032,20 C27.163,17.747 27.737,15.597 28.73,14.287 C28.332,14.012 27.988,13.667 27.712,13.27 C26.402,14.263 24.252,14.836 22,14.967 L22,20 L22,20 Z M31,9 C29.897,9 29,9.897 29,11 C29,12.102 29.897,13 31,13 C32.103,13 33,12.102 33,11 C33,9.897 32.103,9 31,9 L31,9 Z M12.957,20 C12.751,16.882 11.638,15 11,15 C10.361,15 9.248,16.882 9.043,20 L12.957,20 L12.957,20 Z M7.032,20 C7.163,17.747 7.737,15.597 8.73,14.287 C7.687,13.565 7,12.362 7,11 C7,8.794 8.794,7 11,7 C12.362,7 13.564,7.687 14.287,8.73 C15.597,7.737 17.747,7.163 20,7.033 L20,0 L1,0 C0.447,0 0,0.447 0,1 L0,20 L7.032,20 L7.032,20 Z M29.043,22 C29.248,25.118 30.361,27 31,27 C31.638,27 32.751,25.118 32.957,22 L29.043,22 L29.043,22 Z M31,15 C30.361,15 29.248,16.882 29.043,20 L32.957,20 C32.751,16.882 31.638,15 31,15 L31,15 Z M34.967,22 C34.836,24.252 34.262,26.403 33.269,27.713 C34.312,28.435 35,29.637 35,31 C35,33.206 33.205,35 31,35 C29.637,35 28.435,34.313 27.712,33.27 C26.402,34.263 24.252,34.836 22,34.967 L22,42 L41,42 C41.552,42 42,41.553 42,41 L42,22 L34.967,22 L34.967,22 Z M20,34.967 C17.747,34.836 15.597,34.263 14.287,33.27 C13.564,34.313 12.362,35 11,35 C8.794,35 7,33.206 7,31 C7,29.637 7.687,28.435 8.73,27.713 C7.737,26.403 7.163,24.252 7.032,22 L0,22 L0,41 C0,41.553 0.447,42 1,42 L20,42 L20,34.967 L20,34.967 Z M28.73,27.713 C27.737,26.403 27.163,24.252 27.032,22 L22,22 L22,27.033 C24.252,27.163 26.402,27.737 27.712,28.73 C27.988,28.333 28.332,27.988 28.73,27.713 L28.73,27.713 Z M20,32.957 L20,29.043 C16.881,29.249 15,30.361 15,31 C15,31.639 16.881,32.751 20,32.957 L20,32.957 Z M31,33 C32.103,33 33,32.102 33,31 C33,29.897 32.103,29 31,29 C29.897,29 29,29.897 29,31 C29,32.102 29.897,33 31,33 L31,33 Z M27,31 C27,30.361 25.118,29.249 22,29.043 L22,32.957 C25.118,32.751 27,31.639 27,31 L27,31 Z M20,22 L14.967,22 C14.836,24.252 14.262,26.403 13.269,27.713 C13.667,27.988 14.012,28.333 14.287,28.73 C15.597,27.737 17.747,27.163 20,27.033 L20,22 L20,22 Z" sketch:type="MSShapeGroup"></path>
            </g>
        </g>
    </g>
</svg>