<?xml version="1.0" encoding="UTF-8" standalone="no"?>
<svg width="17px" height="49px" viewBox="0 0 17 49" version="1.1" xmlns="http://www.w3.org/2000/svg" xmlns:xlink="http://www.w3.org/1999/xlink" xmlns:sketch="http://www.bohemiancoding.com/sketch/ns">
    <!-- Generator: Sketch 3.0.4 (8053) - http://www.bohemiancoding.com/sketch -->
    <title>Pen</title>
    <desc>Created with Sketch.</desc>
    <defs></defs>
    <g id="Icons" stroke="none" stroke-width="1" fill="none" fill-rule="evenodd" sketch:type="MSPage">
        <g id="Design-&amp;-Development" sketch:type="MSArtboardGroup" transform="translate(-333.000000, -1035.000000)" fill="#231F1F">
            <g id="Pen" sketch:type="MSLayerGroup" transform="translate(333.000000, 1035.000000)">
                <path d="M8.001,46 L8.001,48 C8.001,48.553 7.553,49 7.001,49 C6.448,49 6.001,48.553 6.001,48 L6.001,46 C6.001,45.447 6.448,45 7.001,45 C7.553,45 8.001,45.447 8.001,46 L8.001,46 Z M3.934,43.301037 C4.073,43.718963 4.452,44 4.879,44 L9.122,44 C9.549,44 9.928,43.718963 10.067,43.301037 C11.069,40.2925926 11.919,35.3562963 12.443,30 L1.558,30 C2.082,35.3562963 2.933,40.2925926 3.934,43.301037 L3.934,43.301037 Z M13.001,26 L1.001,26 C0.449,26 0,26.448 0,27 C0,27.552 0.449,28 1.001,28 L13.001,28 C13.552,28 14.001,27.552 14.001,27 C14.001,26.448 13.552,26 13.001,26 L13.001,26 Z M12.001,8.992 C11.889,8.992 11.786,9.022 11.686,9.056 C11.268,7.913 10.713,6.954 10.001,6.247 L10.001,3 C10.001,1.346 8.655,0 7.001,0 C5.346,0 4.001,1.346 4.001,3 L4.001,6.247 C1.379,8.847 1.001,15.044 1.001,20 C1.001,21.464 0.929,22.476 1,24 L13,24 C13.071,22.476 13.001,21.464 13.001,20 C13.001,17.108 12.871,13.794 12.246,11.014 C13.492,11.127 14.516,12.065 14.671,13.301 C15.001,15.934 15.001,18.46 15.001,19.969 C15.001,21.575 14.949,23.321 14.852,25.158 C14.839,25.404 14.828,25.647 14.814,25.896 C14.781,26.447 15.202,26.921 15.753,26.953 C15.773,26.954 15.793,26.955 15.813,26.955 C15.859,26.955 15.899,26.936 15.943,26.93 C16.407,26.866 16.781,26.498 16.81,26.014 C16.937,23.864 17.001,21.83 17.001,19.969 C17.001,18.413 17.001,15.809 16.655,13.053 C16.365,10.737 14.364,8.992 12.001,8.992 Z" sketch:type="MSShapeGroup"></path>
            </g>
        </g>
    </g>
</svg>