<?xml version="1.0" encoding="UTF-8" standalone="no"?>
<svg width="38px" height="38px" viewBox="0 0 38 38" version="1.1" xmlns="http://www.w3.org/2000/svg" xmlns:xlink="http://www.w3.org/1999/xlink" xmlns:sketch="http://www.bohemiancoding.com/sketch/ns">
    <!-- Generator: Sketch 3.0.4 (8053) - http://www.bohemiancoding.com/sketch -->
    <title>Photoshop</title>
    <desc>Created with Sketch.</desc>
    <defs></defs>
    <g id="Icons" stroke="none" stroke-width="1" fill="none" fill-rule="evenodd" sketch:type="MSPage">
        <g id="Design-&amp;-Development" sketch:type="MSArtboardGroup" transform="translate(-681.000000, -1041.000000)" fill="#231F1F">
            <g id="Photoshop" sketch:type="MSLayerGroup" transform="translate(681.000000, 1041.000000)">
                <path d="M17.699,16.364 L17.699,16.401 C17.699,17.748 16.63,18.707 14.916,18.707 L12.281,18.707 L12.281,14.058 L14.916,14.058 C16.612,14.058 17.699,14.851 17.699,16.364 L17.699,16.364 Z M38,10 L38,28 C38,33.523 33.523,38 28,38 L10.001,38 C4.478,38 0,33.523 0,28 L0,10 C0,4.477 4.478,0 10.001,0 L28,0 C33.523,0 38,4.477 38,10 L38,10 Z M20.003,16.309 C20.003,13.708 18.123,11.992 15.1,11.992 L11.156,11.992 C10.511,11.992 10.014,12.49 10.014,13.136 L10.014,23.872 C10.014,24.499 10.511,24.997 11.156,24.997 C11.783,24.997 12.281,24.499 12.281,23.872 L12.281,20.754 L14.842,20.754 C17.68,20.754 20.003,19.242 20.003,16.346 L20.003,16.309 L20.003,16.309 Z M28.986,21.928 C28.986,20.194 27.331,19.555 25.866,19.116 C24.687,18.751 23.602,18.459 23.602,17.747 L23.602,17.711 C23.602,17.163 24.116,16.761 25.01,16.761 C25.714,16.761 26.551,17.017 27.369,17.419 C27.521,17.491 27.635,17.528 27.826,17.528 C28.359,17.528 28.777,17.145 28.777,16.634 C28.777,16.25 28.549,15.958 28.225,15.794 C27.255,15.301 26.133,15.009 25.067,15.009 C23.07,15.009 21.491,16.122 21.491,17.948 L21.491,17.985 C21.491,19.828 23.146,20.413 24.63,20.814 C25.809,21.161 26.875,21.417 26.875,22.165 L26.875,22.202 C26.875,22.841 26.304,23.242 25.315,23.242 C24.401,23.242 23.393,22.932 22.423,22.311 C22.29,22.238 22.118,22.184 21.928,22.184 C21.396,22.184 20.996,22.585 20.996,23.078 C20.996,23.443 21.186,23.717 21.434,23.845 C22.594,24.612 23.983,24.995 25.257,24.995 C27.35,24.995 28.986,23.991 28.986,21.964 L28.986,21.928 L28.986,21.928 Z" sketch:type="MSShapeGroup"></path>
            </g>
        </g>
    </g>
</svg>