<?xml version="1.0" encoding="UTF-8" standalone="no"?>
<svg width="38px" height="30px" viewBox="0 0 38 30" version="1.1" xmlns="http://www.w3.org/2000/svg" xmlns:xlink="http://www.w3.org/1999/xlink" xmlns:sketch="http://www.bohemiancoding.com/sketch/ns">
    <!-- Generator: Sketch 3.0.4 (8053) - http://www.bohemiancoding.com/sketch -->
    <title>Picture</title>
    <desc>Created with Sketch.</desc>
    <defs></defs>
    <g id="Icons" stroke="none" stroke-width="1" fill="none" fill-rule="evenodd" sketch:type="MSPage">
        <g id="Design-&amp;-Development" sketch:type="MSArtboardGroup" transform="translate(-801.000000, -1045.000000)" fill="#231F1F">
            <g id="Picture" sketch:type="MSLayerGroup" transform="translate(801.000000, 1045.000000)">
                <path d="M36,0 L1.999,0 C0.895,0 0,0.895 0,2 L0,28 C0,29.105 0.895,30 1.999,30 L36,30 C37.104,30 37.999,29.105 37.999,28 L37.999,2 C37.999,0.895 37.104,0 36,0 L36,0 Z M29.499,6 C30.88,6 31.999,7.119 31.999,8.5 C31.999,9.881 30.88,11 29.499,11 C28.119,11 27,9.881 27,8.5 C27,7.119 28.119,6 29.499,6 L29.499,6 Z M3.999,26 L12.585,17.414 C13.366,16.633 14.633,16.633 15.414,17.414 L24,26 L3.999,26 L3.999,26 Z M26.827,26 L22.413,21.586 L24.585,19.414 C25.366,18.633 26.633,18.633 27.414,19.414 L33.999,26 L26.827,26 L26.827,26 Z" sketch:type="MSShapeGroup"></path>
            </g>
        </g>
    </g>
</svg>