<?xml version="1.0" encoding="UTF-8" standalone="no"?>
<svg width="33px" height="36px" viewBox="0 0 33 36" version="1.1" xmlns="http://www.w3.org/2000/svg" xmlns:xlink="http://www.w3.org/1999/xlink" xmlns:sketch="http://www.bohemiancoding.com/sketch/ns">
    <!-- Generator: Sketch 3.0.4 (8053) - http://www.bohemiancoding.com/sketch -->
    <title>Polygon</title>
    <desc>Created with Sketch.</desc>
    <defs></defs>
    <g id="Icons" stroke="none" stroke-width="1" fill="none" fill-rule="evenodd" sketch:type="MSPage">
        <g id="Design-&amp;-Development" sketch:type="MSArtboardGroup" transform="translate(-924.000000, -1041.000000)" fill="#231F1F">
            <g id="Polygon" sketch:type="MSLayerGroup" transform="translate(924.000000, 1041.000000)">
                <path d="M16.002,36.01 C15.832,36.01 15.662,35.967 15.509,35.88 L0.507,27.378 C0.194,27.2 0,26.868 0,26.508 L0,9.503 C0,9.143 0.194,8.811 0.507,8.633 L15.509,0.13 C15.662,0.043 15.832,0 16.002,0 C16.172,0 16.342,0.043 16.496,0.13 L31.497,8.633 C31.811,8.811 32.004,9.143 32.004,9.503 L32.004,26.508 C32.004,26.868 31.811,27.2 31.497,27.378 L16.496,35.88 C16.342,35.967 16.172,36.01 16.002,36.01" sketch:type="MSShapeGroup"></path>
            </g>
        </g>
    </g>
</svg>