<?xml version="1.0" encoding="UTF-8" standalone="no"?>
<svg width="40px" height="27px" viewBox="0 0 40 27" version="1.1" xmlns="http://www.w3.org/2000/svg" xmlns:xlink="http://www.w3.org/1999/xlink" xmlns:sketch="http://www.bohemiancoding.com/sketch/ns">
    <!-- Generator: Sketch 3.0.4 (8053) - http://www.bohemiancoding.com/sketch -->
    <title>Protractor</title>
    <desc>Created with Sketch.</desc>
    <defs></defs>
    <g id="Icons" stroke="none" stroke-width="1" fill="none" fill-rule="evenodd" sketch:type="MSPage">
        <g id="Design-&amp;-Development" sketch:type="MSArtboardGroup" transform="translate(-1040.000000, -1046.000000)" fill="#231F1F">
            <g id="Protractor" sketch:type="MSLayerGroup" transform="translate(1040.000000, 1046.000000)">
                <path d="M38,15 L35.969,15 C35.451,6.642 28.486,0 20,0 C11.514,0 4.549,6.642 4.031,15 L2,15 C0.896,15 0,15.895 0,17 L0,25 C0,26.104 0.896,27 2,27 L38,27 C39.105,27 40,26.104 40,25 L40,17 C40,15.895 39.105,15 38,15 L38,15 Z M19,3 C19,2.447 19.447,2 20,2 C20.553,2 21,2.447 21,3 L21,5.6 C21,6.152 20.553,6.6 20,6.6 C19.447,6.6 19,6.152 19,5.6 L19,3 L19,3 Z M9.6,17 L7,17 C6.447,17 6,16.553 6,16 C6,15.447 6.447,15 7,15 L9.6,15 C10.152,15 10.6,15.447 10.6,16 C10.6,16.553 10.152,17 9.6,17 L9.6,17 Z M11.859,11.3 C11.674,11.62 11.338,11.8 10.992,11.8 C10.822,11.8 10.65,11.757 10.493,11.666 L8.241,10.366 C7.763,10.09 7.599,9.478 7.875,9 C8.151,8.521 8.764,8.357 9.241,8.634 L11.493,9.934 C11.972,10.21 12.136,10.821 11.859,11.3 L11.859,11.3 Z M15.3,7.859 C15.143,7.95 14.971,7.993 14.801,7.993 C14.455,7.993 14.119,7.814 13.934,7.493 L12.634,5.242 C12.358,4.764 12.522,4.152 13,3.876 C13.477,3.601 14.089,3.763 14.366,4.242 L15.666,6.493 C15.942,6.972 15.778,7.583 15.3,7.859 L15.3,7.859 Z M20,23 C18.895,23 18,22.105 18,21 C18,19.895 18.895,19 20,19 C21.104,19 22,19.895 22,21 C22,22.105 21.104,23 20,23 L20,23 Z M16.127,15 C16.571,13.276 18.14,12 20,12 C21.86,12 23.429,13.276 23.873,15 L16.127,15 L16.127,15 Z M27.366,5.242 L26.066,7.493 C25.88,7.814 25.544,7.993 25.198,7.993 C25.028,7.993 24.856,7.95 24.699,7.859 C24.221,7.583 24.057,6.971 24.333,6.493 L25.634,4.242 C25.91,3.763 26.522,3.601 27,3.876 C27.479,4.152 27.643,4.765 27.366,5.242 L27.366,5.242 Z M28.14,11.3 C27.863,10.821 28.027,10.21 28.506,9.934 L30.758,8.634 C31.233,8.357 31.847,8.521 32.124,9 C32.4,9.478 32.236,10.09 31.758,10.366 L29.506,11.666 C29.349,11.757 29.177,11.8 29.007,11.8 C28.661,11.8 28.325,11.62 28.14,11.3 L28.14,11.3 Z M33,17 L30.399,17 C29.847,17 29.4,16.553 29.4,16 C29.4,15.447 29.847,15 30.399,15 L33,15 C33.553,15 34,15.447 34,16 C34,16.553 33.553,17 33,17 L33,17 Z" sketch:type="MSShapeGroup"></path>
            </g>
        </g>
    </g>
</svg>