<?xml version="1.0" encoding="UTF-8" standalone="no"?>
<svg width="36px" height="40px" viewBox="0 0 36 40" version="1.1" xmlns="http://www.w3.org/2000/svg" xmlns:xlink="http://www.w3.org/1999/xlink" xmlns:sketch="http://www.bohemiancoding.com/sketch/ns">
    <!-- Generator: Sketch 3.0.4 (8053) - http://www.bohemiancoding.com/sketch -->
    <title>Rotate</title>
    <desc>Created with Sketch.</desc>
    <defs></defs>
    <g id="Icons" stroke="none" stroke-width="1" fill="none" fill-rule="evenodd" sketch:type="MSPage">
        <g id="Design-&amp;-Development" sketch:type="MSArtboardGroup" transform="translate(-81.000000, -1201.000000)" fill="#231F1F">
            <g id="Rotate" sketch:type="MSLayerGroup" transform="translate(81.000000, 1201.000000)">
                <path d="M35.707,12.707 L31.707,16.707 C31.511,16.902 31.255,17 30.999,17 C30.744,17 30.488,16.902 30.293,16.707 L26.293,12.707 C25.902,12.316 25.902,11.684 26.293,11.293 C26.683,10.902 27.316,10.902 27.707,11.293 L30.999,14.586 L34.293,11.293 C34.683,10.902 35.316,10.902 35.707,11.293 C36.097,11.684 36.097,12.316 35.707,12.707 L35.707,12.707 Z M21,2 C25.962,2 30,6.037 30,11 C30,11.553 30.447,12 30.999,12 C31.552,12 32,11.553 32,11 C32,4.935 27.065,0 21,0 C20.447,0 20,0.447 20,1 C20,1.553 20.447,2 21,2 L21,2 Z M32,22 L20,22 L20,28 C20,30.206 18.205,32 15.999,32 L9.999,32 L9.999,38 C9.999,39.105 10.895,40 12,40 L32,40 C33.104,40 33.999,39.105 33.999,38 L33.999,24 C33.999,22.895 33.104,22 32,22 L32,22 Z M18,28 L18,8 C18,6.895 17.104,6 15.999,6 L2,6 C0.895,6 0,6.895 0,8 L0,28 C0,29.105 0.895,30 2,30 L15.999,30 C17.104,30 18,29.105 18,28 L18,28 Z" sketch:type="MSShapeGroup"></path>
            </g>
        </g>
    </g>
</svg>