<?xml version="1.0" encoding="UTF-8" standalone="no"?>
<svg width="42px" height="16px" viewBox="0 0 42 16" version="1.1" xmlns="http://www.w3.org/2000/svg" xmlns:xlink="http://www.w3.org/1999/xlink" xmlns:sketch="http://www.bohemiancoding.com/sketch/ns">
    <!-- Generator: Sketch 3.0.4 (8053) - http://www.bohemiancoding.com/sketch -->
    <title>Ruler</title>
    <desc>Created with Sketch.</desc>
    <defs></defs>
    <g id="Icons" stroke="none" stroke-width="1" fill="none" fill-rule="evenodd" sketch:type="MSPage">
        <g id="Design-&amp;-Development" sketch:type="MSArtboardGroup" transform="translate(-199.000000, -1213.000000)" fill="#231F1F">
            <g id="Ruler" sketch:type="MSLayerGroup" transform="translate(199.000000, 1213.000000)">
                <path d="M40,0 L2,0 C0.895,0 0,0.895 0,2 L0,14 C0,15.104 0.895,16 2,16 L40,16 C41.104,16 42,15.104 42,14 L42,2 C42,0.895 41.104,0 40,0 L40,0 Z M7,7 C7,7.553 6.552,8 6,8 C5.447,8 5,7.553 5,7 L5,3 C5,2.447 5.447,2 6,2 C6.552,2 7,2.447 7,3 L7,7 L7,7 Z M12,10 C12,10.553 11.552,11 11,11 C10.447,11 10,10.553 10,10 L10,3 C10,2.447 10.447,2 11,2 C11.552,2 12,2.447 12,3 L12,10 L12,10 Z M17,7 C17,7.553 16.552,8 16,8 C15.447,8 15,7.553 15,7 L15,3 C15,2.447 15.447,2 16,2 C16.552,2 17,2.447 17,3 L17,7 L17,7 Z M22,10 C22,10.553 21.552,11 21,11 C20.447,11 20,10.553 20,10 L20,3 C20,2.447 20.447,2 21,2 C21.552,2 22,2.447 22,3 L22,10 L22,10 Z M27,7 C27,7.553 26.552,8 26,8 C25.447,8 25,7.553 25,7 L25,3 C25,2.447 25.447,2 26,2 C26.552,2 27,2.447 27,3 L27,7 L27,7 Z M32,10 C32,10.553 31.552,11 31,11 C30.447,11 30,10.553 30,10 L30,3 C30,2.447 30.447,2 31,2 C31.552,2 32,2.447 32,3 L32,10 L32,10 Z M37,7 C37,7.553 36.552,8 36,8 C35.447,8 35,7.553 35,7 L35,3 C35,2.447 35.447,2 36,2 C36.552,2 37,2.447 37,3 L37,7 L37,7 Z" sketch:type="MSShapeGroup"></path>
            </g>
        </g>
    </g>
</svg>