<?xml version="1.0" encoding="UTF-8" standalone="no"?>
<svg width="38px" height="38px" viewBox="0 0 38 38" version="1.1" xmlns="http://www.w3.org/2000/svg" xmlns:xlink="http://www.w3.org/1999/xlink" xmlns:sketch="http://www.bohemiancoding.com/sketch/ns">
    <!-- Generator: Sketch 3.0.4 (8053) - http://www.bohemiancoding.com/sketch -->
    <title>Scale</title>
    <desc>Created with Sketch.</desc>
    <defs></defs>
    <g id="Icons" stroke="none" stroke-width="1" fill="none" fill-rule="evenodd" sketch:type="MSPage">
        <g id="Design-&amp;-Development" sketch:type="MSArtboardGroup" transform="translate(-321.000000, -1202.000000)" fill="#231F1F">
            <g id="Scale" sketch:type="MSLayerGroup" transform="translate(321.000000, 1202.000000)">
                <path d="M38,28 C38,33.523 33.522,38 28,38 C22.477,38 18,33.523 18,28 C18,22.477 22.477,18 28,18 C33.522,18 38,22.477 38,28 L38,28 Z M16.008,27.84 C15.35,27.934 14.683,28 14,28 C6.267,28 0,21.732 0,14 C0,11.563 0.624,9.274 1.719,7.278 C2.367,7.73 3.151,8 4,8 C4.767,8 5.477,7.772 6.086,7.396 C6.135,7.508 6.201,7.615 6.293,7.707 L12.293,13.707 C12.488,13.902 12.744,14 13,14 C13.255,14 13.511,13.902 13.707,13.707 C14.097,13.316 14.097,12.684 13.707,12.293 L7.707,6.293 C7.615,6.201 7.508,6.135 7.396,6.087 C7.772,5.477 8,4.767 8,4 C8,3.151 7.73,2.367 7.278,1.719 C9.273,0.625 11.563,0 14,0 C21.732,0 28,6.268 28,14 C28,14.684 27.934,15.351 27.839,16.008 C21.351,16.094 16.094,21.351 16.008,27.84 L16.008,27.84 Z M18,12 C18,11.448 17.552,11 17,11 C16.447,11 16,11.447 16,12 L15.999,15.999 L12,16 C11.447,16 11,16.448 11,17 C11,17.553 11.447,18 12,18 L16.999,17.999 C17.551,17.999 17.999,17.552 17.999,16.999 L18,12 L18,12 Z M4,6 C5.103,6 6,5.102 6,4 C6,2.897 5.103,2 4,2 C2.897,2 2,2.897 2,4 C2,5.102 2.897,6 4,6 L4,6 Z" sketch:type="MSShapeGroup"></path>
            </g>
        </g>
    </g>
</svg>