<?xml version="1.0" encoding="UTF-8" standalone="no"?>
<svg width="37px" height="42px" viewBox="0 0 37 42" version="1.1" xmlns="http://www.w3.org/2000/svg" xmlns:xlink="http://www.w3.org/1999/xlink" xmlns:sketch="http://www.bohemiancoding.com/sketch/ns">
    <!-- Generator: Sketch 3.0.4 (8053) - http://www.bohemiancoding.com/sketch -->
    <title>Scissors</title>
    <desc>Created with Sketch.</desc>
    <defs></defs>
    <g id="Icons" stroke="none" stroke-width="1" fill="none" fill-rule="evenodd" sketch:type="MSPage">
        <g id="Design-&amp;-Development" sketch:type="MSArtboardGroup" transform="translate(-442.000000, -1199.000000)" fill="#231F1F">
            <g id="Scissors" sketch:type="MSLayerGroup" transform="translate(442.000000, 1199.000000)">
                <path d="M10.8318374,28.1369614 L13.2498374,25.6649614 C13.3918374,25.5199614 13.5568374,25.4089614 13.7318374,25.3159614 L10.9358374,22.4469614 L1.70683736,31.9149614 C-0.611162643,34.2849614 -0.568162643,38.1549614 1.83583736,40.4699614 C4.15883736,42.7069614 7.86583736,42.4729614 10.1228374,40.1659614 L12.2818374,37.8919614 C14.2498374,35.8799614 14.7288374,32.7059614 13.2338374,30.3049614 C12.6068374,29.2959614 11.7628374,28.5919614 10.8318374,28.1369614 L10.8318374,28.1369614 Z M9.69783736,34.9149614 L7.20283736,37.5329614 C6.44383736,38.3089614 5.21383736,38.3089614 4.45483736,37.5329614 C3.69583736,36.7579614 3.69583736,35.4999614 4.45483736,34.7239614 L6.94983736,32.1059614 C7.70883736,31.3299614 8.93883736,31.3299614 9.69783736,32.1059614 C10.4568374,32.8819614 10.4568374,34.1399614 9.69783736,34.9149614 L9.69783736,34.9149614 Z M18.5088374,14.9449614 L18.2478374,14.9459614 C22.9308374,10.1659614 29.1798374,7.35696141 35.7618374,7.04496141 C36.2108374,7.02396141 36.4468374,7.57596141 36.1328374,7.89596141 L24.6948374,19.5839614 L21.2928374,16.1069614 C20.5598374,15.3589614 19.5558374,14.9389614 18.5088374,14.9449614 L18.5088374,14.9449614 Z M19.8768374,17.5189614 C19.5168374,17.1519614 19.0238374,16.9439614 18.5098374,16.9439614 L14.6238374,16.9439614 C14.1088374,16.9439614 13.6158374,16.7369614 13.2568374,16.3689614 L10.8318374,13.8909614 C11.7628374,13.4359614 12.6068374,12.7319614 13.2338374,11.7229614 C14.7288374,9.32196141 14.2498374,6.14796141 12.2818374,4.13596141 L10.1228374,1.86196141 C7.86583736,-0.445038588 4.15883736,-0.679038588 1.83583736,1.55796141 C-0.568162643,3.87296141 -0.611162643,7.74296141 1.70683736,10.1129614 L18.2328374,27.0669614 C22.9168374,31.8569614 29.1738374,34.6699614 35.7618374,34.9829614 C36.2108374,35.0039614 36.4468374,34.4519614 36.1328374,34.1319614 L19.8768374,17.5189614 L19.8768374,17.5189614 Z M9.69783736,9.92196141 C8.93883736,10.6979614 7.70883736,10.6979614 6.94983736,9.92196141 L4.45483736,7.30396141 C3.69583736,6.52796141 3.69583736,5.26996141 4.45483736,4.49496141 C5.21383736,3.71896141 6.44383736,3.71896141 7.20283736,4.49496141 L9.69783736,7.11296141 C10.4568374,7.88796141 10.4568374,9.14596141 9.69783736,9.92196141 L9.69783736,9.92196141 Z" sketch:type="MSShapeGroup"></path>
            </g>
        </g>
    </g>
</svg>