<?xml version="1.0" encoding="UTF-8" standalone="no"?>
<svg width="43px" height="43px" viewBox="0 0 43 43" version="1.1" xmlns="http://www.w3.org/2000/svg" xmlns:xlink="http://www.w3.org/1999/xlink" xmlns:sketch="http://www.bohemiancoding.com/sketch/ns">
    <!-- Generator: Sketch 3.0.4 (8053) - http://www.bohemiancoding.com/sketch -->
    <title>Select</title>
    <desc>Created with Sketch.</desc>
    <defs></defs>
    <g id="Icons" stroke="none" stroke-width="1" fill="none" fill-rule="evenodd" sketch:type="MSPage">
        <g id="Design-&amp;-Development" sketch:type="MSArtboardGroup" transform="translate(-558.000000, -1199.000000)" fill="#231F1F">
            <g id="Select" sketch:type="MSLayerGroup" transform="translate(558.000000, 1199.000000)">
                <path d="M43,29 L43,35 C43,35.552 42.552,36 41.999,36 L35.999,36 L35.999,42 C35.999,42.552 35.552,43 34.999,43 L28.999,43 C28.447,43 28,42.552 28,42 L28,36 L22,36 C21.447,36 21,35.552 21,35 L21,34 L13.999,34 C12.895,34 12,33.104 12,32 C12,30.895 12.895,30 13.999,30 L21,30 L21,29 C21,28.448 21.447,28 22,28 L28,28 L28,22 C28,21.448 28.447,21 28.999,21 L30,21 L30,14 C30,12.895 30.895,12 31.999,12 C33.104,12 34,12.895 34,14 L34,21 L34.999,21 C35.552,21 35.999,21.448 35.999,22 L35.999,28 L41.999,28 C42.552,28 43,28.448 43,29 L43,29 Z M13.999,4 L19.999,4 C21.104,4 22,3.104 22,2 C22,0.895 21.104,0 19.999,0 L13.999,0 C12.895,0 12,0.895 12,2 C12,3.104 12.895,4 13.999,4 L13.999,4 Z M1.999,22 C3.104,22 4,21.104 4,20 L4,14 C4,12.895 3.104,12 1.999,12 C0.895,12 0,12.895 0,14 L0,20 C0,21.104 0.895,22 1.999,22 L1.999,22 Z M25.999,4 L30,4 L30,8 C30,9.104 30.895,10 31.999,10 C33.104,10 34,9.104 34,8 L34,4 C34,1.794 32.205,0 30,0 L25.999,0 C24.895,0 24,0.895 24,2 C24,3.104 24.895,4 25.999,4 L25.999,4 Z M7.999,0 L4,0 C1.794,0 0,1.794 0,4 L0,8 C0,9.104 0.895,10 1.999,10 C3.104,10 4,9.104 4,8 L4,4 L7.999,4 C9.104,4 10,3.104 10,2 C10,0.895 9.104,0 7.999,0 L7.999,0 Z M7.999,30 L4,30 L4,26 C4,24.895 3.104,24 1.999,24 C0.895,24 0,24.895 0,26 L0,30 C0,32.206 1.794,34 4,34 L7.999,34 C9.104,34 10,33.104 10,32 C10,30.895 9.104,30 7.999,30 L7.999,30 Z" sketch:type="MSShapeGroup"></path>
            </g>
        </g>
    </g>
</svg>