<?xml version="1.0" encoding="UTF-8" standalone="no"?>
<svg width="36px" height="32px" viewBox="0 0 36 32" version="1.1" xmlns="http://www.w3.org/2000/svg" xmlns:xlink="http://www.w3.org/1999/xlink" xmlns:sketch="http://www.bohemiancoding.com/sketch/ns">
    <!-- Generator: Sketch 3.0.4 (8053) - http://www.bohemiancoding.com/sketch -->
    <title>Servers</title>
    <desc>Created with Sketch.</desc>
    <defs></defs>
    <g id="Icons" stroke="none" stroke-width="1" fill="none" fill-rule="evenodd" sketch:type="MSPage">
        <g id="Design-&amp;-Development" sketch:type="MSArtboardGroup" transform="translate(-682.000000, -1205.000000)" fill="#231F1F">
            <g id="Servers" sketch:type="MSLayerGroup" transform="translate(682.000000, 1205.000000)">
                <path d="M35.001,5 L1,5 L7.479,0.372 C7.818,0.13 8.225,0 8.641,0 L27.36,0 C27.776,0 28.183,0.13 28.522,0.372 L35.001,5 L35.001,5 Z M36,8 L36,13 C36,13.552 35.552,14 35,14 L16,14 L16,11 C16,10.447 15.553,10 15,10 C14.447,10 14,10.447 14,11 L14,14 L12,14 L12,11 C12,10.447 11.553,10 11,10 C10.447,10 10,10.447 10,11 L10,14 L8,14 L8,11 C8,10.447 7.553,10 7,10 C6.447,10 6,10.447 6,11 L6,14 L4,14 L4,11 C4,10.447 3.553,10 3,10 C2.447,10 2,10.447 2,11 L2,14 L1,14 C0.448,14 0,13.552 0,13 L0,8 C0,7.448 0.448,7 1,7 L35,7 C35.552,7 36,7.448 36,8 L36,8 Z M34,10.5 C34,9.672 33.329,9 32.5,9 C31.672,9 31,9.672 31,10.5 C31,11.328 31.672,12 32.5,12 C33.329,12 34,11.328 34,10.5 L34,10.5 Z M36,17 L36,22 C36,22.552 35.552,23 35,23 L16,23 L16,20 C16,19.447 15.553,19 15,19 C14.447,19 14,19.447 14,20 L14,23 L12,23 L12,20 C12,19.447 11.553,19 11,19 C10.447,19 10,19.447 10,20 L10,23 L8,23 L8,20 C8,19.447 7.553,19 7,19 C6.447,19 6,19.447 6,20 L6,23 L4,23 L4,20 C4,19.447 3.553,19 3,19 C2.447,19 2,19.447 2,20 L2,23 L1,23 C0.448,23 0,22.552 0,22 L0,17 C0,16.448 0.448,16 1,16 L35,16 C35.552,16 36,16.448 36,17 L36,17 Z M34,19.5 C34,18.672 33.329,18 32.5,18 C31.672,18 31,18.672 31,19.5 C31,20.328 31.672,21 32.5,21 C33.329,21 34,20.328 34,19.5 L34,19.5 Z M36,26 L36,31 C36,31.552 35.552,32 35,32 L16,32 L16,29 C16,28.447 15.553,28 15,28 C14.447,28 14,28.447 14,29 L14,32 L12,32 L12,29 C12,28.447 11.553,28 11,28 C10.447,28 10,28.447 10,29 L10,32 L8,32 L8,29 C8,28.447 7.553,28 7,28 C6.447,28 6,28.447 6,29 L6,32 L4,32 L4,29 C4,28.447 3.553,28 3,28 C2.447,28 2,28.447 2,29 L2,32 L1,32 C0.448,32 0,31.552 0,31 L0,26 C0,25.448 0.448,25 1,25 L35,25 C35.552,25 36,25.448 36,26 L36,26 Z M34,28.5 C34,27.672 33.329,27 32.5,27 C31.672,27 31,27.672 31,28.5 C31,29.328 31.672,30 32.5,30 C33.329,30 34,29.328 34,28.5 L34,28.5 Z" sketch:type="MSShapeGroup"></path>
            </g>
        </g>
    </g>
</svg>