<?xml version="1.0" encoding="UTF-8" standalone="no"?>
<svg width="38px" height="38px" viewBox="0 0 38 38" version="1.1" xmlns="http://www.w3.org/2000/svg" xmlns:xlink="http://www.w3.org/1999/xlink" xmlns:sketch="http://www.bohemiancoding.com/sketch/ns">
    <!-- Generator: Sketch 3.0.4 (8053) - http://www.bohemiancoding.com/sketch -->
    <title>Settings</title>
    <desc>Created with Sketch.</desc>
    <defs></defs>
    <g id="Icons" stroke="none" stroke-width="1" fill="none" fill-rule="evenodd" sketch:type="MSPage">
        <g id="Design-&amp;-Development" sketch:type="MSArtboardGroup" transform="translate(-801.000000, -1202.000000)" fill="#231F1F">
            <g id="Settings" sketch:type="MSLayerGroup" transform="translate(801.000000, 1202.000000)">
                <path d="M36.209,15.811 L33.581,15.535 C33.208,13.958 32.586,12.482 31.759,11.142 L33.423,9.086 C34.067,8.29 34.006,7.137 33.283,6.413 L31.586,4.717 C30.863,3.993 29.709,3.933 28.914,4.576 L26.858,6.241 C25.518,5.414 24.041,4.792 22.465,4.418 L22.188,1.79 C22.081,0.773 21.223,0 20.199,0 L17.8,0 C16.777,0 15.918,0.773 15.811,1.79 L15.534,4.418 C13.958,4.792 12.481,5.414 11.141,6.241 L9.085,4.576 C8.29,3.933 7.136,3.993 6.413,4.717 L4.716,6.413 C3.993,7.137 3.932,8.29 4.576,9.086 L6.24,11.142 C5.413,12.482 4.791,13.958 4.418,15.535 L1.79,15.811 C0.772,15.919 0,16.777 0,17.8 L0,20.199 C0,21.223 0.772,22.081 1.79,22.188 L4.418,22.465 C4.791,24.042 5.413,25.518 6.24,26.858 L4.576,28.914 C3.932,29.71 3.993,30.863 4.716,31.587 L6.413,33.283 C7.136,34.007 8.29,34.067 9.085,33.424 L11.141,31.759 C12.481,32.586 13.958,33.208 15.534,33.582 L15.811,36.209 C15.918,37.227 16.777,38 17.8,38 L20.199,38 C21.223,38 22.081,37.227 22.188,36.209 L22.465,33.582 C24.041,33.208 25.518,32.586 26.858,31.759 L28.914,33.424 C29.709,34.068 30.863,34.007 31.586,33.283 L33.283,31.587 C34.006,30.863 34.067,29.71 33.423,28.914 L31.759,26.858 C32.586,25.518 33.208,24.042 33.581,22.465 L36.209,22.188 C37.227,22.081 37.999,21.223 37.999,20.199 L37.999,17.8 C37.999,16.777 37.227,15.919 36.209,15.811 L36.209,15.811 Z M18.999,26 C15.134,26 12,22.866 12,19 C12,15.134 15.134,12 18.999,12 C22.866,12 25.999,15.134 25.999,19 C25.999,22.866 22.866,26 18.999,26 L18.999,26 Z" sketch:type="MSShapeGroup"></path>
            </g>
        </g>
    </g>
</svg>