<?xml version="1.0" encoding="UTF-8" standalone="no"?>
<svg width="34px" height="38px" viewBox="0 0 34 38" version="1.1" xmlns="http://www.w3.org/2000/svg" xmlns:xlink="http://www.w3.org/1999/xlink" xmlns:sketch="http://www.bohemiancoding.com/sketch/ns">
    <!-- Generator: Sketch 3.0.4 (8053) - http://www.bohemiancoding.com/sketch -->
    <title>Shadows</title>
    <desc>Created with Sketch.</desc>
    <defs></defs>
    <g id="Icons" stroke="none" stroke-width="1" fill="none" fill-rule="evenodd" sketch:type="MSPage">
        <g id="Design-&amp;-Development" sketch:type="MSArtboardGroup" transform="translate(-923.000000, -1202.000000)" fill="#231F1F">
            <g id="Shadows" sketch:type="MSLayerGroup" transform="translate(923.000000, 1202.000000)">
                <path d="M30,3 L30,37 C30,37.553 29.553,38 29,38 C28.447,38 28,37.553 28,37 L28,30 L26,30 L26,37 C26,37.553 25.553,38 25,38 C24.447,38 24,37.553 24,37 L24,30 L22,30 L22,37 C22,37.553 21.553,38 21,38 C20.447,38 20,37.553 20,37 L20,30 L18,30 L18,37 C18,37.553 17.553,38 17,38 C16.447,38 16,37.553 16,37 L16,30 L14,30 L14,37 C14,37.553 13.553,38 13,38 C12.447,38 12,37.553 12,37 L12,30 L10,30 L10,37 C10,37.553 9.553,38 9,38 C8.447,38 8,37.553 8,37 L8,30 L6,30 L6,37 C6,37.553 5.553,38 5,38 C4.447,38 4,37.553 4,37 L4,30 L3,30 C1.346,30 0,28.654 0,27 L0,3 C0,1.346 1.346,0 3,0 L27,0 C28.654,0 30,1.346 30,3 L30,3 Z M33,8 C32.447,8 32,8.447 32,9 L32,37 C32,37.553 32.447,38 33,38 C33.553,38 34,37.553 34,37 L34,9 C34,8.447 33.553,8 33,8 L33,8 Z" sketch:type="MSShapeGroup"></path>
            </g>
        </g>
    </g>
</svg>