<?xml version="1.0" encoding="UTF-8" standalone="no"?>
<svg width="38px" height="38px" viewBox="0 0 38 38" version="1.1" xmlns="http://www.w3.org/2000/svg" xmlns:xlink="http://www.w3.org/1999/xlink" xmlns:sketch="http://www.bohemiancoding.com/sketch/ns">
    <!-- Generator: Sketch 3.0.4 (8053) - http://www.bohemiancoding.com/sketch -->
    <title>Sketch</title>
    <desc>Created with Sketch.</desc>
    <defs></defs>
    <g id="Icons" stroke="none" stroke-width="1" fill="none" fill-rule="evenodd" sketch:type="MSPage">
        <g id="Design-&amp;-Development" sketch:type="MSArtboardGroup" transform="translate(-1161.000000, -1202.000000)" fill="#231F1F">
            <g id="Sketch" sketch:type="MSLayerGroup" transform="translate(1161.000000, 1202.000000)">
                <path d="M15.192,10 L12.693,9 L15.192,8 L22.808,8 L25.307,9 L22.808,10 L15.192,10 L15.192,10 Z M23.371,11.929 C23.253,11.976 23.127,12 23,12 L15,12 C14.873,12 14.747,11.976 14.629,11.929 L10.241,10.173 L7.633,12.781 L13.266,16 L24.734,16 L30.367,12.781 L27.759,10.173 L23.371,11.929 L23.371,11.929 Z M38,10 L38,28 C38,33.523 33.522,38 28,38 L10,38 C4.477,38 0,33.523 0,28 L0,10 C0,4.477 4.477,0 10,0 L28,0 C33.522,0 38,4.477 38,10 L38,10 Z M32.707,12.293 L28.712,8.298 C28.711,8.297 28.71,8.296 28.709,8.295 L28.707,8.293 C28.698,8.284 28.685,8.281 28.676,8.272 C28.588,8.191 28.491,8.123 28.382,8.078 C28.378,8.076 28.375,8.073 28.371,8.071 L23.371,6.071 C23.253,6.024 23.127,6 23,6 L15,6 C14.873,6 14.747,6.024 14.629,6.071 L9.629,8.071 C9.625,8.073 9.623,8.076 9.619,8.078 C9.507,8.124 9.406,8.193 9.316,8.278 C9.309,8.284 9.3,8.286 9.293,8.293 L9.292,8.294 C9.29,8.296 9.289,8.297 9.288,8.298 L5.293,12.293 C4.946,12.64 4.902,13.188 5.189,13.586 L18.189,31.586 C18.377,31.846 18.679,32 19,32 C19.321,32 19.623,31.846 19.811,31.586 L32.811,13.586 C33.098,13.188 33.054,12.64 32.707,12.293 L32.707,12.293 Z" sketch:type="MSShapeGroup"></path>
            </g>
        </g>
    </g>
</svg>