<?xml version="1.0" encoding="UTF-8" standalone="no"?>
<svg width="40px" height="39px" viewBox="0 0 40 39" version="1.1" xmlns="http://www.w3.org/2000/svg" xmlns:xlink="http://www.w3.org/1999/xlink" xmlns:sketch="http://www.bohemiancoding.com/sketch/ns">
    <!-- Generator: Sketch 3.0.4 (8053) - http://www.bohemiancoding.com/sketch -->
    <title>Slice</title>
    <desc>Created with Sketch.</desc>
    <defs></defs>
    <g id="Icons" stroke="none" stroke-width="1" fill="none" fill-rule="evenodd" sketch:type="MSPage">
        <g id="Design-&amp;-Development" sketch:type="MSArtboardGroup" transform="translate(-80.000000, -1360.000000)" fill="#231F1F">
            <g id="Slice" sketch:type="MSLayerGroup" transform="translate(80.000000, 1360.000000)">
                <path d="M38.82125,6.7825 L27.61525,18.0895 L29.71825,20.2115 C30.10425,20.6005 30.10425,21.2295 29.71825,21.6195 L15.71425,35.7495 C15.25325,36.2145 14.75425,36.6255 14.23025,36.9945 L28.99425,36.9945 C29.54725,36.9945 29.99525,37.4415 29.99525,37.9945 C29.99525,38.5475 29.54725,38.9945 28.99425,38.9945 L8.99525,38.9945 C8.89425,38.9945 8.80225,38.9645 8.71125,38.9375 C8.47525,38.9525 8.24025,38.9725 8.00225,38.9725 C5.08825,38.9725 2.34925,37.8275 0.29025,35.7495 C-0.09675,35.3595 -0.09675,34.7305 0.29025,34.3415 L33.19925,1.1355 C34.69925,-0.3785 37.32025,-0.3785 38.82125,1.1355 C40.36325,2.6925 40.36325,5.2255 38.82125,6.7825" sketch:type="MSShapeGroup"></path>
            </g>
        </g>
    </g>
</svg>