<?xml version="1.0" encoding="UTF-8" standalone="no"?>
<svg width="40px" height="40px" viewBox="0 0 40 40" version="1.1" xmlns="http://www.w3.org/2000/svg" xmlns:xlink="http://www.w3.org/1999/xlink" xmlns:sketch="http://www.bohemiancoding.com/sketch/ns">
    <!-- Generator: Sketch 3.0.4 (8053) - http://www.bohemiancoding.com/sketch -->
    <title>Smaller</title>
    <desc>Created with Sketch.</desc>
    <defs></defs>
    <g id="Icons" stroke="none" stroke-width="1" fill="none" fill-rule="evenodd" sketch:type="MSPage">
        <g id="Design-&amp;-Development" sketch:type="MSArtboardGroup" transform="translate(-200.000000, -1360.000000)" fill="#231F1F">
            <g id="Smaller" sketch:type="MSLayerGroup" transform="translate(200.000000, 1360.000000)">
                <path d="M11.92425,28.61925 C11.97325,28.73525 11.99925,28.86325 12.00025,28.99725 L12.00025,29.00025 L12.00025,37.00025 C12.00025,37.55325 11.55225,38.00025 11.00025,38.00025 C10.44725,38.00025 10.00025,37.55325 10.00025,37.00025 L10.00025,31.41425 L1.70725,39.70725 C1.51125,39.90225 1.25525,40.00025 1.00025,40.00025 C0.74425,40.00025 0.48825,39.90225 0.29325,39.70725 C-0.09775,39.31625 -0.09775,38.68425 0.29325,38.29325 L8.58625,30.00025 L3.00025,30.00025 C2.44725,30.00025 2.00025,29.55325 2.00025,29.00025 C2.00025,28.44725 2.44725,28.00025 3.00025,28.00025 L11.00025,28.00025 L11.00325,28.00025 C11.13625,28.00025 11.26425,28.02725 11.38025,28.07525 C11.49925,28.12425 11.61025,28.19625 11.70725,28.29325 C11.80325,28.39025 11.87625,28.50025 11.92425,28.61925 L11.92425,28.61925 Z M39.70725,0.29325 C39.31625,-0.09775 38.68325,-0.09775 38.29325,0.29325 L30.00025,8.58625 L30.00025,3.00025 C30.00025,2.44725 29.55225,2.00025 29.00025,2.00025 C28.44725,2.00025 28.00025,2.44725 28.00025,3.00025 L28.00025,11.00025 L28.00025,11.00325 C28.00025,11.13725 28.02625,11.26525 28.07525,11.38125 C28.12425,11.50025 28.19625,11.61025 28.29325,11.70725 C28.38925,11.80425 28.50025,11.87625 28.61925,11.92525 C28.73525,11.97325 28.86325,12.00025 28.99725,12.00025 L29.00025,12.00025 L37.00025,12.00025 C37.55225,12.00025 38.00025,11.55325 38.00025,11.00025 C38.00025,10.44725 37.55225,10.00025 37.00025,10.00025 L31.41425,10.00025 L39.70725,1.70725 C40.09725,1.31625 40.09725,0.68425 39.70725,0.29325 L39.70725,0.29325 Z M27.85725,13.77425 C27.48725,13.62225 27.15725,13.40125 26.87525,13.11725 C26.59325,12.83525 26.37425,12.50525 26.22425,12.14025 C26.07825,11.78825 26.00125,11.40425 26.00025,11.01025 L26.00025,7.00025 L12.00025,7.00025 C9.24325,7.00025 7.00025,9.24325 7.00025,12.00025 L7.00025,26.00025 L11.00025,26.00025 C11.39525,26.00025 11.77825,26.07625 12.14225,26.22625 C12.51225,26.37825 12.84225,26.59925 13.12525,26.88325 C13.40625,27.16525 13.62525,27.49525 13.77525,27.86025 C13.92125,28.21225 13.99825,28.59625 14.00025,28.99025 L14.00025,33.00025 L28.00025,33.00025 C30.75625,33.00025 33.00025,30.75725 33.00025,28.00025 L33.00025,14.00025 L29.00025,14.00025 C28.60525,14.00025 28.22125,13.92425 27.85725,13.77425 L27.85725,13.77425 Z" sketch:type="MSShapeGroup"></path>
            </g>
        </g>
    </g>
</svg>