<?xml version="1.0" encoding="UTF-8" standalone="no"?>
<svg width="36px" height="43px" viewBox="0 0 36 43" version="1.1" xmlns="http://www.w3.org/2000/svg" xmlns:xlink="http://www.w3.org/1999/xlink" xmlns:sketch="http://www.bohemiancoding.com/sketch/ns">
    <!-- Generator: Sketch 3.0.4 (8053) - http://www.bohemiancoding.com/sketch -->
    <title>Stencil</title>
    <desc>Created with Sketch.</desc>
    <defs></defs>
    <g id="Icons" stroke="none" stroke-width="1" fill="none" fill-rule="evenodd" sketch:type="MSPage">
        <g id="Design-&amp;-Development" sketch:type="MSArtboardGroup" transform="translate(-322.000000, -1358.000000)" fill="#231F1F">
            <g id="Stencil" sketch:type="MSLayerGroup" transform="translate(322.000000, 1358.000000)">
                <path d="M33,0 L3,0 C1.345,0 0,1.346 0,3 L0,29 C0,30.654 1.345,32 3,32 L7.607,32 C8.421,34.015 9.997,35.605 12,36.414 L12,40 C12,41.654 13.345,43 15,43 C16.654,43 18,41.654 18,40 L18,36.396 C18.54,36.181 19.045,35.915 19.509,35.602 C20.313,35.866 21.149,36 22,36 C24.845,36 27.475,34.442 28.896,32 L33,32 C34.654,32 36,30.654 36,29 L36,3 C36,1.346 34.654,0 33,0 L33,0 Z M4,4 L32,4 L32,28 L4,28 L4,4 Z M8,16 C8,13.239 10.238,11 13,11 C13,8.239 15.238,6 18,6 C20.761,6 23,8.239 23,11 C25.761,11 28,13.239 28,16 C28,18.761 25.761,21 23,21 C23,23.761 20.761,26 18,26 C15.238,26 13,23.761 13,21 C10.238,21 8,18.761 8,16 L8,16 Z" sketch:type="MSShapeGroup"></path>
            </g>
        </g>
    </g>
</svg>