<?xml version="1.0" encoding="UTF-8" standalone="no"?>
<svg width="15px" height="47px" viewBox="0 0 15 47" version="1.1" xmlns="http://www.w3.org/2000/svg" xmlns:xlink="http://www.w3.org/1999/xlink" xmlns:sketch="http://www.bohemiancoding.com/sketch/ns">
    <!-- Generator: Sketch 3.0.4 (8053) - http://www.bohemiancoding.com/sketch -->
    <title>Stylus</title>
    <desc>Created with Sketch.</desc>
    <defs></defs>
    <g id="Icons" stroke="none" stroke-width="1" fill="none" fill-rule="evenodd" sketch:type="MSPage">
        <g id="Design-&amp;-Development" sketch:type="MSArtboardGroup" transform="translate(-453.000000, -1356.000000)" fill="#231F1F">
            <g id="Stylus" sketch:type="MSLayerGroup" transform="translate(453.000000, 1356.000000)">
                <path d="M14,12.003 L0,12.003 L0,2.953 C0,2.634 0.152,2.333 0.411,2.144 C2.338,0.741 4.617,0 7,0 C9.382,0 11.661,0.741 13.588,2.144 C13.847,2.333 14,2.634 14,2.953 L14,12.003 L14,12.003 Z M15,20.003 L15,30.003 C15,30.556 14.552,31.003 14,31.003 L14,34.004 C14,34.086 13.989,34.167 13.97,34.246 L11.697,43.348 C11.157,45.509 9.226,47.018 7,47.018 C4.774,47.018 2.842,45.509 2.302,43.348 L0.029,34.246 C0.01,34.167 0,34.086 0,34.004 L0,14.003 L14,14.003 L14,19.003 C14.552,19.003 15,19.45 15,20.003 L15,20.003 Z M11.719,35.003 L2.28,35.003 L4.028,42.003 L9.971,42.003 L11.719,35.003 L11.719,35.003 Z" sketch:type="MSShapeGroup"></path>
            </g>
        </g>
    </g>
</svg>