<?xml version="1.0" encoding="UTF-8" standalone="no"?>
<svg width="40px" height="40px" viewBox="0 0 40 40" version="1.1" xmlns="http://www.w3.org/2000/svg" xmlns:xlink="http://www.w3.org/1999/xlink" xmlns:sketch="http://www.bohemiancoding.com/sketch/ns">
    <!-- Generator: Sketch 3.0.4 (8053) - http://www.bohemiancoding.com/sketch -->
    <title>Symbol</title>
    <desc>Created with Sketch.</desc>
    <defs></defs>
    <g id="Icons" stroke="none" stroke-width="1" fill="none" fill-rule="evenodd" sketch:type="MSPage">
        <g id="Design-&amp;-Development" sketch:type="MSArtboardGroup" transform="translate(-680.000000, -1360.000000)" fill="#231F1F">
            <g id="Symbol" sketch:type="MSLayerGroup" transform="translate(680.000000, 1360.000000)">
                <path d="M20,0 C8.972,0 0,8.972 0,20 C0,31.028 8.972,40 20,40 C31.028,40 40,31.028 40,20 C40,8.972 31.028,0 20,0 L20,0 Z M25.5,25.5 C25.5,28.538 23.038,31 20.001,31 C16.963,31 14.5,28.538 14.5,25.5 C11.463,25.5 9,23.038 9,20 C9,16.962 11.463,14.5 14.5,14.5 C14.5,11.462 16.963,9 20.001,9 C23.038,9 25.5,11.462 25.5,14.5 C28.538,14.5 31.001,16.962 31.001,20 C31.001,23.038 28.538,25.5 25.5,25.5 L25.5,25.5 Z" sketch:type="MSShapeGroup"></path>
            </g>
        </g>
    </g>
</svg>