<?xml version="1.0" encoding="UTF-8" standalone="no"?>
<svg width="44px" height="36px" viewBox="0 0 44 36" version="1.1" xmlns="http://www.w3.org/2000/svg" xmlns:xlink="http://www.w3.org/1999/xlink" xmlns:sketch="http://www.bohemiancoding.com/sketch/ns">
    <!-- Generator: Sketch 3.0.4 (8053) - http://www.bohemiancoding.com/sketch -->
    <title>Terminal</title>
    <desc>Created with Sketch.</desc>
    <defs></defs>
    <g id="Icons" stroke="none" stroke-width="1" fill="none" fill-rule="evenodd" sketch:type="MSPage">
        <g id="Design-&amp;-Development" sketch:type="MSArtboardGroup" transform="translate(-798.000000, -1362.000000)" fill="#231F1F">
            <g id="Terminal" sketch:type="MSLayerGroup" transform="translate(798.000000, 1362.000000)">
                <path d="M41,0 L3,0 C1.346,0 0,1.346 0,3 L0,33 C0,34.654 1.346,36 3,36 L41,36 C42.654,36 44,34.654 44,33 L44,3 C44,1.346 42.654,0 41,0 L41,0 Z M42,33 C42,33.552 41.552,34 41,34 L3,34 C2.448,34 2,33.552 2,33 L2,3 C2,2.448 2.448,2 3,2 L41,2 C41.552,2 42,2.448 42,3 L42,33 L42,33 Z M4,32 L40,32 L40,4 L4,4 L4,32 Z M20,17 L26,17 C26.553,17 27,17.447 27,18 C27,18.553 26.553,19 26,19 L20,19 C19.447,19 19,18.553 19,18 C19,17.447 19.447,17 20,17 L20,17 Z M9.504,10.868 C9.025,10.594 8.857,9.983 9.132,9.504 C9.404,9.023 10.016,8.855 10.496,9.132 L17.496,13.132 C17.808,13.31 18,13.642 18,14 C18,14.358 17.808,14.69 17.496,14.868 L10.496,18.868 C10.34,18.958 10.169,19 10.001,19 C9.653,19 9.317,18.819 9.132,18.496 C8.857,18.017 9.025,17.406 9.504,17.132 L14.984,14 L9.504,10.868 L9.504,10.868 Z" sketch:type="MSShapeGroup"></path>
            </g>
        </g>
    </g>
</svg>