<?xml version="1.0" encoding="UTF-8" standalone="no"?>
<svg width="41px" height="38px" viewBox="0 0 41 38" version="1.1" xmlns="http://www.w3.org/2000/svg" xmlns:xlink="http://www.w3.org/1999/xlink" xmlns:sketch="http://www.bohemiancoding.com/sketch/ns">
    <!-- Generator: Sketch 3.0.4 (8053) - http://www.bohemiancoding.com/sketch -->
    <title>Tools</title>
    <desc>Created with Sketch.</desc>
    <defs></defs>
    <g id="Icons" stroke="none" stroke-width="1" fill="none" fill-rule="evenodd" sketch:type="MSPage">
        <g id="Design-&amp;-Development" sketch:type="MSArtboardGroup" transform="translate(-1040.000000, -1361.000000)" fill="#231F1F">
            <g id="Tools" sketch:type="MSLayerGroup" transform="translate(1040.000000, 1361.000000)">
                <path d="M35.7747776,30.1281885 C37.2377776,31.5881885 37.4747776,33.9591885 36.1587776,35.5501885 C34.6477776,37.3751885 31.9337776,37.4701885 30.2967776,35.8361885 L14.9107776,20.4721885 C14.2717776,19.8331885 13.2847776,19.7161885 12.5067776,20.1741885 C10.2297776,21.5131885 7.24877757,21.2061885 5.29277757,19.2531885 L4.59177757,18.5541885 L0.65077757,13.6371885 C-0.29422243,12.4581885 -0.20022243,10.7571885 0.86877757,9.69018847 L1.78277757,8.77818847 C2.17277757,8.38918847 2.80477757,8.38918847 3.19577757,8.77818847 L6.97877757,12.5541885 C9.99577757,12.4801885 12.5027776,9.97818847 12.5777776,6.96618847 L8.79677757,3.19318847 C8.40477757,2.80218847 8.40477757,2.16818847 8.79677757,1.77718847 L9.70777757,0.868188473 C10.7777776,-0.199811527 12.4797776,-0.293811527 13.6607776,0.649188473 L18.5887776,4.58418847 L19.2887776,5.28318847 C21.2447776,7.23518847 21.5527776,10.2101885 20.2117776,12.4821885 C19.7527776,13.2591885 19.8707776,14.2461885 20.5087776,14.8841885 L35.7747776,30.1281885 L35.7747776,30.1281885 Z M40.5267776,6.80818847 L37.2047776,3.48618847 C36.9087776,3.19018847 36.4597776,3.11018847 36.0787776,3.28518847 L28.4287776,6.81218847 C28.1607776,6.93618847 27.9607776,7.17118847 27.8827776,7.45518847 L26.2247776,13.4811885 L24.0717776,15.6331885 L28.3857776,19.9351885 L30.5317776,17.7891885 L36.5577776,16.1301885 C36.8417776,16.0521885 37.0777776,15.8521885 37.2007776,15.5851885 L40.7277776,7.93418847 C40.9037776,7.55418847 40.8227776,7.10518847 40.5267776,6.80818847 L40.5267776,6.80818847 Z M7.45677757,29.5141885 C5.51677757,31.4511885 5.51677757,34.5911885 7.45677757,36.5281885 C9.39677757,38.4641885 12.5417776,38.4641885 14.4817776,36.5281885 L21.3217776,29.6991885 L14.2977776,22.6851885 L7.45677757,29.5141885 L7.45677757,29.5141885 Z" sketch:type="MSShapeGroup"></path>
            </g>
        </g>
    </g>
</svg>