<?xml version="1.0" encoding="UTF-8" standalone="no"?>
<svg width="40px" height="45px" viewBox="0 0 40 45" version="1.1" xmlns="http://www.w3.org/2000/svg" xmlns:xlink="http://www.w3.org/1999/xlink" xmlns:sketch="http://www.bohemiancoding.com/sketch/ns">
    <!-- Generator: Sketch 3.0.4 (8053) - http://www.bohemiancoding.com/sketch -->
    <title>Trackpad</title>
    <desc>Created with Sketch.</desc>
    <defs></defs>
    <g id="Icons" stroke="none" stroke-width="1" fill="none" fill-rule="evenodd" sketch:type="MSPage">
        <g id="Design-&amp;-Development" sketch:type="MSArtboardGroup" transform="translate(-1160.000000, -1357.000000)" fill="#d9534f">
            <g id="Trackpad" sketch:type="MSLayerGroup" transform="translate(1160.000000, 1357.000000)">
                <path d="M0,0 L40,0 L40,4 L0,4 L0,0 Z M0,30 C0,32.209 1.79,34 4,34 L9,34 L9,40 C9,40.553 9.447,41 10,41 C10.421,41 10.778,40.739 10.925,40.37 C10.971,40.255 11,40.131 11,40 L11,19 C11,16.794 12.794,15 15,15 C17.206,15 19,16.794 19,19 L19,44 C19,44.553 19.447,45 20,45 C20.553,45 21,44.553 21,44 L21,25 C21,22.794 22.794,21 25,21 C27.206,21 29,22.794 29,25 L29,40 C29,40.131 29.029,40.255 29.075,40.37 C29.222,40.739 29.579,41 30,41 C30.553,41 31,40.553 31,40 L31,34 L36,34 C38.209,34 40,32.209 40,30 L40,6 L0,6 L0,30 L0,30 Z M15,17 C13.895,17 13,17.895 13,19 L13,21 L17,21 L17,19 C17,17.895 16.104,17 15,17 L15,17 Z M25,23 C23.895,23 23,23.895 23,25 L23,27 L27,27 L27,25 C27,23.895 26.104,23 25,23 L25,23 Z" sketch:type="MSShapeGroup"></path>
            </g>
        </g>
    </g>
</svg>