<?xml version="1.0" encoding="UTF-8" standalone="no"?>
<svg width="42px" height="42px" viewBox="0 0 42 42" version="1.1" xmlns="http://www.w3.org/2000/svg" xmlns:xlink="http://www.w3.org/1999/xlink" xmlns:sketch="http://www.bohemiancoding.com/sketch/ns">
    <!-- Generator: Sketch 3.0.4 (8053) - http://www.bohemiancoding.com/sketch -->
    <title>Transform</title>
    <desc>Created with Sketch.</desc>
    <defs></defs>
    <g id="Icons" stroke="none" stroke-width="1" fill="none" fill-rule="evenodd" sketch:type="MSPage">
        <g id="Design-&amp;-Development" sketch:type="MSArtboardGroup" transform="translate(-79.000000, -1519.000000)" fill="#231F1F">
            <g id="Transform" sketch:type="MSLayerGroup" transform="translate(79.000000, 1519.000000)">
                <path d="M37.515,20.749 L29.185,35.177 C28.317,34.453 27.216,34 26.001,34 C23.764,34 21.889,35.486 21.251,37.514 L6.823,29.184 C7.547,28.317 8.001,27.216 8.001,26 C8.001,23.764 6.515,21.888 4.486,21.251 L12.817,6.822 C13.684,7.546 14.785,8 16.001,8 C18.237,8 20.112,6.514 20.75,4.486 L35.178,12.816 C34.454,13.683 34.001,14.784 34.001,16 C34.001,18.236 35.486,20.112 37.515,20.749 L37.515,20.749 Z M23.001,4 L29.001,4 C29.553,4 30,3.553 30,3 C30,2.447 29.553,2 29.001,2 L23.001,2 C22.448,2 22.001,2.447 22.001,3 C22.001,3.553 22.448,4 23.001,4 L23.001,4 Z M33,4 L37.001,4 C37.552,4 38.001,4.448 38.001,5 L38.001,9 C38.001,9.553 38.448,10 39,10 C39.553,10 40.001,9.553 40.001,9 L40.001,5 C40.001,3.346 38.655,2 37.001,2 L33,2 C32.448,2 32.001,2.447 32.001,3 C32.001,3.553 32.448,4 33,4 L33,4 Z M9,38 L5.001,38 C4.449,38 4.001,37.552 4.001,37 L4.001,33 C4.001,32.447 3.553,32 3,32 C2.448,32 2.001,32.447 2.001,33 L2.001,37 C2.001,38.654 3.346,40 5.001,40 L9,40 C9.553,40 10.001,39.553 10.001,39 C10.001,38.447 9.553,38 9,38 L9,38 Z M3,20 C3.553,20 4.001,19.553 4.001,19 L4.001,13 C4.001,12.447 3.553,12 3,12 C2.448,12 2.001,12.447 2.001,13 L2.001,19 C2.001,19.553 2.448,20 3,20 L3,20 Z M19.001,38 L13.001,38 C12.448,38 12,38.447 12,39 C12,39.553 12.448,40 13.001,40 L19.001,40 C19.553,40 20.001,39.553 20.001,39 C20.001,38.447 19.553,38 19.001,38 L19.001,38 Z M39,22 C38.448,22 38.001,22.447 38.001,23 L38.001,29 C38.001,29.553 38.448,30 39,30 C39.553,30 40.001,29.553 40.001,29 L40.001,23 C40.001,22.447 39.553,22 39,22 L39,22 Z M3,10 C3.553,10 4.001,9.553 4.001,9 L4.001,5 C4.001,4.448 4.449,4 5.001,4 L9,4 C9.553,4 10.001,3.553 10.001,3 C10.001,2.447 9.553,2 9,2 L5.001,2 C3.346,2 2.001,3.346 2.001,5 L2.001,9 C2.001,9.553 2.448,10 3,10 L3,10 Z M39,32 C38.448,32 38.001,32.447 38.001,33 L38.001,37 C38.001,37.552 37.552,38 37.001,38 L33,38 C32.448,38 32.001,38.447 32.001,39 C32.001,39.553 32.448,40 33,40 L37.001,40 C38.655,40 40.001,38.654 40.001,37 L40.001,33 C40.001,32.447 39.553,32 39,32 L39,32 Z M6,26 C6,24.346 4.655,23 3,23 C1.346,23 0,24.346 0,26 C0,27.654 1.346,29 3,29 C4.655,29 6,27.654 6,26 L6,26 Z M16.001,6 C17.655,6 19.001,4.654 19.001,3 C19.001,1.346 17.655,0 16.001,0 C14.346,0 13.001,1.346 13.001,3 C13.001,4.654 14.346,6 16.001,6 L16.001,6 Z M39,13 C37.346,13 36,14.346 36,16 C36,17.654 37.346,19 39,19 C40.655,19 42,17.654 42,16 C42,14.346 40.655,13 39,13 L39,13 Z M26.001,36 C24.346,36 23.001,37.346 23.001,39 C23.001,40.654 24.346,42 26.001,42 C27.655,42 29.001,40.654 29.001,39 C29.001,37.346 27.655,36 26.001,36 L26.001,36 Z" sketch:type="MSShapeGroup"></path>
            </g>
        </g>
    </g>
</svg>