<?xml version="1.0" encoding="UTF-8" standalone="no"?>
<svg width="38px" height="38px" viewBox="0 0 38 38" version="1.1" xmlns="http://www.w3.org/2000/svg" xmlns:xlink="http://www.w3.org/1999/xlink" xmlns:sketch="http://www.bohemiancoding.com/sketch/ns">
    <!-- Generator: Sketch 3.0.4 (8053) - http://www.bohemiancoding.com/sketch -->
    <title>Transparent</title>
    <desc>Created with Sketch.</desc>
    <defs></defs>
    <g id="Icons" stroke="none" stroke-width="1" fill="none" fill-rule="evenodd" sketch:type="MSPage">
        <g id="Design-&amp;-Development" sketch:type="MSArtboardGroup" transform="translate(-201.000000, -1521.000000)" fill="#231F1F">
            <g id="Transparent" sketch:type="MSLayerGroup" transform="translate(201.000000, 1521.000000)">
                <path d="M26,14 L26,24 L37,24 C37.552,24 38,24.447 38,25 L38,37 C38,37.553 37.552,38 37,38 L25,38 C24.447,38 24,37.553 24,37 L24,26 L14,26 L14,37 C14,37.553 13.552,38 13,38 L1,38 C0.447,38 0,37.553 0,37 L0,25 C0,24.447 0.447,24 1,24 L12,24 L12,14 L1,14 C0.447,14 0,13.553 0,13 L0,1 C0,0.447 0.447,0 1,0 L13,0 C13.552,0 14,0.447 14,1 L14,12 L24,12 L24,1 C24,0.447 24.447,0 25,0 L37,0 C37.552,0 38,0.447 38,1 L38,13 C38,13.553 37.552,14 37,14 L26,14" sketch:type="MSShapeGroup"></path>
            </g>
        </g>
    </g>
</svg>