<?xml version="1.0" encoding="UTF-8" standalone="no"?>
<svg width="28px" height="38px" viewBox="0 0 28 38" version="1.1" xmlns="http://www.w3.org/2000/svg" xmlns:xlink="http://www.w3.org/1999/xlink" xmlns:sketch="http://www.bohemiancoding.com/sketch/ns">
    <!-- Generator: Sketch 3.0.4 (8053) - http://www.bohemiancoding.com/sketch -->
    <title>Trashcan</title>
    <desc>Created with Sketch.</desc>
    <defs></defs>
    <g id="Icons" stroke="none" stroke-width="1" fill="none" fill-rule="evenodd" sketch:type="MSPage">
        <g id="Design-&amp;-Development" sketch:type="MSArtboardGroup" transform="translate(-326.000000, -1521.000000)" fill="#231F1F">
            <g id="Trashcan" sketch:type="MSLayerGroup" transform="translate(326.000000, 1521.000000)">
                <path d="M9,1 C9,0.447 9.447,0 10,0 L18,0 C18.552,0 19,0.447 19,1 C19,1.553 18.552,2 18,2 L10,2 C9.447,2 9,1.553 9,1 L9,1 Z M24,4 L4,4 C1.79,4 0,5.791 0,8 L28,8 C28,5.791 26.209,4 24,4 L24,4 Z M0,10 L28,10 L25.382,34.426 C25.165,36.459 23.449,38 21.405,38 L6.594,38 C4.55,38 2.834,36.459 2.617,34.426 L0,10 L0,10 Z M19.001,32.947 C18.972,33.499 19.396,33.97 19.947,33.999 C19.965,34 19.983,34 20.001,34 C20.528,34 20.97,33.586 20.998,33.053 L21.998,14.053 C22.027,13.501 21.603,13.03 21.052,13.001 C20.512,12.97 20.03,13.396 20.001,13.947 L19.001,32.947 L19.001,32.947 Z M13,33 C13,33.553 13.447,34 14,34 C14.552,34 15,33.553 15,33 L15,14 C15,13.447 14.552,13 14,13 C13.447,13 13,13.447 13,14 L13,33 L13,33 Z M6.001,14.053 L7.001,33.053 C7.029,33.586 7.47,34 7.999,34 C8.016,34 8.034,34 8.052,33.999 C8.603,33.97 9.027,33.499 8.998,32.947 L7.998,13.947 C7.969,13.396 7.5,12.974 6.947,13.001 C6.396,13.03 5.972,13.501 6.001,14.053 L6.001,14.053 Z" sketch:type="MSShapeGroup"></path>
            </g>
        </g>
    </g>
</svg>