<?xml version="1.0" encoding="UTF-8" standalone="no"?>
<svg width="38px" height="38px" viewBox="0 0 38 38" version="1.1" xmlns="http://www.w3.org/2000/svg" xmlns:xlink="http://www.w3.org/1999/xlink" xmlns:sketch="http://www.bohemiancoding.com/sketch/ns">
    <!-- Generator: Sketch 3.0.4 (8053) - http://www.bohemiancoding.com/sketch -->
    <title>Union Tool </title>
    <desc>Created with Sketch.</desc>
    <defs></defs>
    <g id="Icons" stroke="none" stroke-width="1" fill="none" fill-rule="evenodd" sketch:type="MSPage">
        <g id="Design-&amp;-Development" sketch:type="MSArtboardGroup" transform="translate(-441.000000, -1521.000000)" fill="#231F1F">
            <g id="Union-Tool-" sketch:type="MSLayerGroup" transform="translate(441.000000, 1521.000000)">
                <path d="M38,3 L38,23 C38,24.657 36.656,26 35,26 L26,26 L26,35 C26,36.657 24.656,38 23,38 L3,38 C1.343,38 0,36.657 0,35 L0,15 C0,13.343 1.343,12 3,12 L12,12 L12,3 C12,1.343 13.343,0 15,0 L35,0 C36.656,0 38,1.343 38,3" sketch:type="MSShapeGroup"></path>
            </g>
        </g>
    </g>
</svg>