<?xml version="1.0" encoding="UTF-8" standalone="no"?>
<svg width="40px" height="38px" viewBox="0 0 40 38" version="1.1" xmlns="http://www.w3.org/2000/svg" xmlns:xlink="http://www.w3.org/1999/xlink" xmlns:sketch="http://www.bohemiancoding.com/sketch/ns">
    <!-- Generator: Sketch 3.0.4 (8053) - http://www.bohemiancoding.com/sketch -->
    <title>Vector</title>
    <desc>Created with Sketch.</desc>
    <defs></defs>
    <g id="Icons" stroke="none" stroke-width="1" fill="none" fill-rule="evenodd" sketch:type="MSPage">
        <g id="Design-&amp;-Development" sketch:type="MSArtboardGroup" transform="translate(-559.000000, -1521.000000)" fill="#231F1F">
            <g id="Vector" sketch:type="MSLayerGroup" transform="translate(559.000000, 1521.000000)">
                <path d="M39.999,19 C39.999,24.192 36.022,28.473 30.954,28.955 C30.472,34.022 26.191,38 21,38 C15.808,38 11.527,34.022 11.045,28.955 C8.168,28.681 5.646,27.182 3.999,24.989 L3.999,30.184 C5.161,30.598 6,31.698 6,33 C6,34.654 4.654,36 3,36 C1.345,36 0,34.654 0,33 C0,31.698 0.838,30.598 2,30.184 L2,24 L5,24 C6.654,24 8,22.654 8,21 L8,17 C8,15.346 6.654,14 5,14 L2,14 L2,7.816 C0.838,7.402 0,6.302 0,5 C0,3.346 1.345,2 3,2 C4.654,2 6,3.346 6,5 C6,6.302 5.161,7.402 3.999,7.816 L3.999,13.011 C5.646,10.818 8.168,9.319 11.045,9.045 C11.527,3.978 15.808,0 21,0 C26.191,0 30.472,3.978 30.954,9.045 C36.022,9.527 39.999,13.808 39.999,19 L39.999,19 Z M0.999,22 L5,22 C5.551,22 6,21.552 6,21 L6,17 C6,16.448 5.551,16 5,16 L0.999,16 C0.448,16 0,16.448 0,17 L0,21 C0,21.552 0.448,22 0.999,22 L0.999,22 Z" sketch:type="MSShapeGroup"></path>
            </g>
        </g>
    </g>
</svg>