<?xml version="1.0" encoding="UTF-8" standalone="no"?>
<svg width="45px" height="30px" viewBox="0 0 45 30" version="1.1" xmlns="http://www.w3.org/2000/svg" xmlns:xlink="http://www.w3.org/1999/xlink" xmlns:sketch="http://www.bohemiancoding.com/sketch/ns">
    <!-- Generator: Sketch 3.0.4 (8053) - http://www.bohemiancoding.com/sketch -->
    <title>Wacom Tablet</title>
    <desc>Created with Sketch.</desc>
    <defs></defs>
    <g id="Icons" stroke="none" stroke-width="1" fill="none" fill-rule="evenodd" sketch:type="MSPage">
        <g id="Design-&amp;-Development" sketch:type="MSArtboardGroup" transform="translate(-678.000000, -1525.000000)" fill="#231F1F">
            <g id="Wacom-Tablet" sketch:type="MSLayerGroup" transform="translate(678.000000, 1525.000000)">
                <path d="M45.001,12 L45.001,18 C45.001,18.552 44.553,19 44,19 L42.001,19 L42.001,11 L44,11 C44.553,11 45.001,11.448 45.001,12 L45.001,12 Z M40,2 L40,28 C40,29.105 39.105,30 38,30 L2,30 C0.896,30 0,29.105 0,28 L0,2 C0,0.895 0.896,0 2,0 L38,0 C39.105,0 40,0.895 40,2 L40,2 Z M9,15 C9,13.346 7.654,12 6,12 C4.346,12 3,13.346 3,15 C3,16.654 4.346,18 6,18 C7.654,18 9,16.654 9,15 L9,15 Z M17,25 C17,24.447 16.553,24 16,24 L13,24 L13,21 C13,20.447 12.553,20 12,20 C11.447,20 11,20.447 11,21 L11,25 C11,25.553 11.447,26 12,26 L16,26 C16.553,26 17,25.553 17,25 L17,25 Z M17,5 C17,4.447 16.553,4 16,4 L12,4 C11.447,4 11,4.447 11,5 L11,9 C11,9.553 11.447,10 12,10 C12.553,10 13,9.553 13,9 L13,6 L16,6 C16.553,6 17,5.553 17,5 L17,5 Z M36,21 C36,20.447 35.553,20 35,20 C34.447,20 34,20.447 34,21 L34,24 L31,24 C30.447,24 30,24.447 30,25 C30,25.553 30.447,26 31,26 L35,26 C35.553,26 36,25.553 36,25 L36,21 L36,21 Z M36,5 C36,4.447 35.553,4 35,4 L31,4 C30.447,4 30,4.447 30,5 C30,5.553 30.447,6 31,6 L34,6 L34,9 C34,9.553 34.447,10 35,10 C35.553,10 36,9.553 36,9 L36,5 L36,5 Z" sketch:type="MSShapeGroup"></path>
            </g>
        </g>
    </g>
</svg>