<?xml version="1.0" encoding="UTF-8" standalone="no"?>
<svg width="40px" height="40px" viewBox="0 0 40 40" version="1.1" xmlns="http://www.w3.org/2000/svg" xmlns:xlink="http://www.w3.org/1999/xlink" xmlns:sketch="http://www.bohemiancoding.com/sketch/ns">
    <!-- Generator: Sketch 3.0.4 (8053) - http://www.bohemiancoding.com/sketch -->
    <title>Wallpapers</title>
    <desc>Created with Sketch.</desc>
    <defs></defs>
    <g id="Icons" stroke="none" stroke-width="1" fill="none" fill-rule="evenodd" sketch:type="MSPage">
        <g id="Design-&amp;-Development" sketch:type="MSArtboardGroup" transform="translate(-800.000000, -1520.000000)" fill="#231F1F">
            <g id="Wallpapers" sketch:type="MSLayerGroup" transform="translate(800.000000, 1520.000000)">
                <path d="M10.001,0 L30,0 C35.523,0 40.001,4.477 40.001,10 L40.001,30 C40.001,35.523 35.523,40 30,40 L10.001,40 C4.478,40 0,35.523 0,30 L0,10 C0,4.477 4.478,0 10.001,0 L10.001,0 Z M37,20 C37,17.263 34.787,15.037 32.057,15.006 C33.966,13.053 33.957,9.915 32.022,7.979 C31.077,7.035 29.821,6.515 28.486,6.515 C27.17,6.515 25.934,7.025 24.994,7.943 C24.963,5.213 22.737,3 20,3 C17.263,3 15.038,5.213 15.006,7.942 C14.067,7.024 12.831,6.515 11.516,6.515 C10.18,6.515 8.924,7.035 7.979,7.979 C6.044,9.915 6.035,13.053 7.944,15.006 C5.213,15.037 3,17.262 3,20 C3,22.738 5.213,24.963 7.944,24.994 C6.035,26.947 6.044,30.085 7.979,32.02 C8.924,32.965 10.18,33.485 11.516,33.485 C12.831,33.485 14.067,32.976 15.006,32.057 C15.038,34.787 17.263,37 20,37 C22.737,37 24.963,34.787 24.994,32.057 C25.934,32.975 27.17,33.485 28.486,33.485 C29.821,33.485 31.077,32.965 32.022,32.02 C33.957,30.085 33.966,26.947 32.057,24.994 C34.787,24.963 37,22.737 37,20 L37,20 Z M28.486,8.515 C29.287,8.515 30.04,8.827 30.607,9.394 C31.777,10.563 31.777,12.466 30.607,13.636 L29.243,15 L25,15 L25,10.757 L26.364,9.394 C26.932,8.827 27.685,8.515 28.486,8.515 L28.486,8.515 Z M20,5 C21.654,5 23,6.346 23,8 L23,9.929 L20,12.929 L17,9.929 L17,8 C17,6.346 18.346,5 20,5 L20,5 Z M9.394,9.394 C9.961,8.827 10.714,8.515 11.516,8.515 C12.317,8.515 13.069,8.827 13.637,9.394 L15,10.757 L15,15 L10.758,15 L9.394,13.636 C8.224,12.466 8.224,10.563 9.394,9.394 L9.394,9.394 Z M5,20 C5,18.346 6.346,17 8,17 L9.93,17 L12.93,20 L9.93,23 L8,23 C6.346,23 5,21.654 5,20 L5,20 Z M9.394,30.606 C8.224,29.436 8.224,27.534 9.394,26.364 L10.758,25 L15,25 L15,29.243 L13.637,30.606 C12.501,31.74 10.527,31.738 9.394,30.606 L9.394,30.606 Z M20,35 C18.346,35 17,33.654 17,32 L17,30.071 L20,27.071 L23,30.071 L23,32 C23,33.654 21.654,35 20,35 L20,35 Z M30.607,30.606 C29.473,31.74 27.499,31.738 26.364,30.606 L25,29.242 L25,25 L29.243,25 L30.607,26.364 C31.777,27.534 31.777,29.436 30.607,30.606 L30.607,30.606 Z M32,23 L30.071,23 L27.071,20 L30.071,17 L32,17 C33.654,17 35,18.346 35,20 C35,21.654 33.654,23 32,23 L32,23 Z" sketch:type="MSShapeGroup"></path>
            </g>
        </g>
    </g>
</svg>