<?xml version="1.0" encoding="UTF-8" standalone="no"?>
<svg width="44px" height="27px" viewBox="0 0 44 27" version="1.1" xmlns="http://www.w3.org/2000/svg" xmlns:xlink="http://www.w3.org/1999/xlink" xmlns:sketch="http://www.bohemiancoding.com/sketch/ns">
    <!-- Generator: Sketch 3.0.4 (8053) - http://www.bohemiancoding.com/sketch -->
    <title>Wi-Fi</title>
    <desc>Created with Sketch.</desc>
    <defs></defs>
    <g id="Icons" stroke="none" stroke-width="1" fill="none" fill-rule="evenodd" sketch:type="MSPage">
        <g id="Design-&amp;-Development" sketch:type="MSArtboardGroup" transform="translate(-918.000000, -1527.000000)" fill="#231F1F">
            <g id="Wi-Fi" sketch:type="MSLayerGroup" transform="translate(918.000000, 1527.000000)">
                <path d="M43.01175,11.6015 C42.62075,11.9915 42.10875,12.1875 41.59775,12.1875 C41.08575,12.1875 40.57375,11.9915 40.18275,11.6015 C30.04675,1.4645 13.55075,1.4645 3.41375,11.6015 C2.63275,12.3825 1.36675,12.3825 0.58575,11.6015 C-0.19525,10.8195 -0.19525,9.5545 0.58575,8.7735 C12.28275,-2.9245 31.31375,-2.9245 43.01175,8.7735 C43.79275,9.5545 43.79275,10.8195 43.01175,11.6015 L43.01175,11.6015 Z M21.79875,9.9945 C16.45075,9.9945 11.42875,12.0715 7.65675,15.8445 C6.87575,16.6255 6.87575,17.8925 7.65675,18.6725 C8.04775,19.0635 8.55975,19.2585 9.07075,19.2585 C9.58275,19.2585 10.09475,19.0635 10.48475,18.6725 C13.50175,15.6555 17.51875,13.9945 21.79875,13.9945 C26.07775,13.9945 30.09675,15.6555 33.11275,18.6725 C33.89375,19.4535 35.15975,19.4535 35.94075,18.6725 C36.72275,17.8915 36.72275,16.6255 35.94075,15.8445 C32.16875,12.0715 27.14575,9.9945 21.79875,9.9945 L21.79875,9.9945 Z M14.72875,22.9145 C13.94675,23.6955 13.94675,24.9615 14.72875,25.7425 C15.50975,26.5245 16.77475,26.5245 17.55675,25.7425 C19.89575,23.4015 23.70175,23.4025 26.04175,25.7425 C26.43275,26.1335 26.94375,26.3285 27.45575,26.3285 C27.96775,26.3285 28.47875,26.1335 28.86975,25.7425 C29.65075,24.9615 29.65075,23.6955 28.86975,22.9145 C24.97075,19.0165 18.62575,19.0175 14.72875,22.9145 L14.72875,22.9145 Z" sketch:type="MSShapeGroup"></path>
            </g>
        </g>
    </g>
</svg>