<?xml version="1.0" encoding="UTF-8" standalone="no"?>
<svg width="40px" height="28px" viewBox="0 0 40 28" version="1.1" xmlns="http://www.w3.org/2000/svg" xmlns:xlink="http://www.w3.org/1999/xlink" xmlns:sketch="http://www.bohemiancoding.com/sketch/ns">
    <!-- Generator: Sketch 3.0.4 (8053) - http://www.bohemiancoding.com/sketch -->
    <title>Workstation</title>
    <desc>Created with Sketch.</desc>
    <defs></defs>
    <g id="Icons" stroke="none" stroke-width="1" fill="none" fill-rule="evenodd" sketch:type="MSPage">
        <g id="Design-&amp;-Development" sketch:type="MSArtboardGroup" transform="translate(-1040.000000, -1526.000000)" fill="#231F1F">
            <g id="Workstation" sketch:type="MSLayerGroup" transform="translate(1040.000000, 1526.000000)">
                <path d="M40.003,4 L40.003,16 C40.003,17.654 38.657,19 37.003,19 L32.003,19 L32.003,23 L35.003,23 C35.556,23 36.003,23.447 36.003,24 C36.003,24.553 35.556,25 35.003,25 L19.002,25 C18.449,25 18.002,24.553 18.002,24 C18.002,23.447 18.449,23 19.002,23 L22.002,23 L22.002,19 L17.002,19 L17.002,15 L36.003,15 C36.556,15 37.003,14.553 37.003,14 C37.003,13.447 36.556,13 36.003,13 L17.002,13 L17.002,1 L37.003,1 C38.657,1 40.003,2.346 40.003,4 L40.003,4 Z M15.001,2 L15.001,26 C15.001,27.104 14.106,28 13.001,28 L2,28 C0.896,28 0,27.104 0,26 L0,2 C0,0.895 0.896,0 2,0 L13.001,0 C14.106,0 15.001,0.895 15.001,2 L15.001,2 Z M12.001,12 C12.001,11.447 11.554,11 11.001,11 L4.001,11 C3.448,11 3.001,11.447 3.001,12 C3.001,12.553 3.448,13 4.001,13 L11.001,13 C11.554,13 12.001,12.553 12.001,12 L12.001,12 Z M12.001,8 C12.001,7.447 11.554,7 11.001,7 L4.001,7 C3.448,7 3.001,7.447 3.001,8 C3.001,8.553 3.448,9 4.001,9 L11.001,9 C11.554,9 12.001,8.553 12.001,8 L12.001,8 Z M12.001,4 C12.001,3.447 11.554,3 11.001,3 L4.001,3 C3.448,3 3.001,3.447 3.001,4 C3.001,4.553 3.448,5 4.001,5 L11.001,5 C11.554,5 12.001,4.553 12.001,4 L12.001,4 Z" sketch:type="MSShapeGroup"></path>
            </g>
        </g>
    </g>
</svg>