<?xml version="1.0" encoding="UTF-8" standalone="no"?>
<svg width="38px" height="38px" viewBox="0 0 38 38" version="1.1" xmlns="http://www.w3.org/2000/svg" xmlns:xlink="http://www.w3.org/1999/xlink" xmlns:sketch="http://www.bohemiancoding.com/sketch/ns">
    <!-- Generator: Sketch 3.0.4 (8053) - http://www.bohemiancoding.com/sketch -->
    <title>Zoom</title>
    <desc>Created with Sketch.</desc>
    <defs></defs>
    <g id="Icons" stroke="none" stroke-width="1" fill="none" fill-rule="evenodd" sketch:type="MSPage">
        <g id="Design-&amp;-Development" sketch:type="MSArtboardGroup" transform="translate(-1161.000000, -1521.000000)" fill="#231F1F">
            <g id="Zoom" sketch:type="MSLayerGroup" transform="translate(1161.000000, 1521.000000)">
                <path d="M36.7205,31.3576728 L29.0805,23.7176728 C28.6895,23.3266728 28.0565,23.3266728 27.6655,23.7176728 L27.1895,24.1936728 L23.5585,20.5636728 C25.3195,18.1106728 26.2605,15.0296728 25.9375,11.7096728 C25.3565,5.73967284 20.6105,0.837672836 14.6565,0.102672836 C6.17850002,-0.945327164 -0.944499976,6.17867284 0.102500024,14.6556728 C0.837500024,20.6096728 5.73950002,25.3556728 11.7105,25.9366728 C15.0295,26.2596728 18.1105,25.3186728 20.5645,23.5586728 L24.1945,27.1886728 L23.7175,27.6656728 C23.3275,28.0556728 23.3275,28.6886728 23.7175,29.0796728 L31.5105,36.8716728 C33.0385,38.4006728 35.5475,38.3506728 37.0125,36.7236728 C38.3865,35.1976728 38.1725,32.8096728 36.7205,31.3576728 L36.7205,31.3576728 Z M13.0005,21.9996728 C8.02950002,21.9996728 4.00050002,17.9696728 4.00050002,12.9996728 C4.00050002,8.02967284 8.02950002,3.99967284 13.0005,3.99967284 C17.9705,3.99967284 22.0005,8.02967284 22.0005,12.9996728 C22.0005,17.9696728 17.9705,21.9996728 13.0005,21.9996728 L13.0005,21.9996728 Z" sketch:type="MSShapeGroup"></path>
            </g>
        </g>
    </g>
</svg>