<svg width="108" height="41" viewBox="0 0 108 41" fill="none" xmlns="http://www.w3.org/2000/svg">
<path d="M7.79198 4.36799H2.79998L3.47198 0.839993H17.752L17.08 4.36799H12.112L9.44798 18H5.12798L7.79198 4.36799Z" fill="white"/>
<path d="M29.7765 7.41599L29.0805 10.944H21.5925L20.9205 14.472H29.7525L29.0565 18H15.9045L19.2405 0.839993H32.2485L31.5765 4.36799H22.8885L22.2885 7.41599H29.7765Z" fill="white"/>
<path d="M33.6165 0.839993H38.0805L40.2165 6.07199L44.4405 0.839993H49.0965L42.2325 9.19199L46.1445 18H41.4405L39.1125 12.432L34.6005 18H29.7045L37.1445 9.23999L33.6165 0.839993Z" fill="white"/>
<path d="M52.5137 14.424L50.7137 18H46.3217L55.8737 0.839993H60.1937L63.0497 18H58.8017L58.3937 14.424H52.5137ZM58.0577 11.136L57.3377 4.79999H57.2897L54.1217 11.136H58.0577Z" fill="white"/>
<path d="M72.3375 7.41599C73.7615 7.95999 74.8335 8.42399 75.5535 8.80799C76.2895 9.17599 76.8895 9.68799 77.3535 10.344C77.8175 10.984 78.0495 11.832 78.0495 12.888C78.0495 14.648 77.4175 16.008 76.1535 16.968C74.9055 17.912 73.1695 18.384 70.9455 18.384C69.4415 18.384 68.1295 18.144 67.0095 17.664C65.9055 17.184 65.0575 16.496 64.4655 15.6C63.8895 14.704 63.6015 13.656 63.6015 12.456H67.8735C67.8735 13.304 68.1855 13.92 68.8095 14.304C69.4335 14.672 70.2255 14.856 71.1855 14.856C72.8815 14.856 73.7295 14.272 73.7295 13.104C73.7295 12.656 73.5535 12.32 73.2015 12.096C72.8495 11.872 72.2415 11.616 71.3775 11.328C71.0415 11.232 70.6175 11.088 70.1055 10.896C68.5695 10.336 67.3935 9.69599 66.5775 8.97599C65.7775 8.25599 65.3775 7.27199 65.3775 6.02399C65.3775 5.67199 65.3935 5.39999 65.4255 5.20799C65.6495 3.60799 66.4015 2.41599 67.6815 1.63199C68.9775 0.847993 70.5855 0.455994 72.5055 0.455994C73.8655 0.455994 75.0415 0.687994 76.0335 1.15199C77.0415 1.59999 77.8095 2.23999 78.3375 3.07199C78.8815 3.90399 79.1535 4.86399 79.1535 5.95199H74.9055C74.9215 5.32799 74.6895 4.84799 74.2095 4.51199C73.7455 4.15999 73.1135 3.98399 72.3135 3.98399C71.5295 3.98399 70.8975 4.11199 70.4175 4.36799C69.9375 4.60799 69.6975 4.98399 69.6975 5.49599C69.6975 5.89599 69.8895 6.22399 70.2735 6.47999C70.6575 6.73599 71.3455 7.04799 72.3375 7.41599Z" fill="white"/>
<path d="M8.58398 22.84L7.28798 29.56H13.168L14.464 22.84H18.784L15.448 40H11.128L12.472 33.088H6.59198L5.24798 40H0.927979L4.26398 22.84H8.58398Z" fill="white"/>
<path d="M25.7459 40.384C24.2099 40.384 22.8979 40.096 21.8099 39.52C20.7379 38.944 19.9299 38.144 19.3859 37.12C18.8419 36.08 18.5699 34.872 18.5699 33.496C18.5699 32.712 18.6499 31.944 18.8099 31.192C19.1299 29.496 19.7379 27.992 20.6339 26.68C21.5299 25.352 22.6739 24.32 24.0659 23.584C25.4579 22.832 27.0179 22.456 28.7459 22.456C30.2819 22.456 31.5859 22.744 32.6579 23.32C33.7459 23.896 34.5619 24.704 35.1059 25.744C35.6659 26.784 35.9459 27.992 35.9459 29.368C35.9459 29.992 35.8659 30.744 35.7059 31.624C35.3699 33.32 34.7459 34.832 33.8339 36.16C32.9379 37.488 31.7939 38.528 30.4019 39.28C29.0259 40.016 27.4739 40.384 25.7459 40.384ZM25.9619 36.856C27.4819 36.856 28.6979 36.336 29.6099 35.296C30.5219 34.256 31.1459 32.888 31.4819 31.192C31.6099 30.504 31.6739 29.88 31.6739 29.32C31.6739 27.096 30.6339 25.984 28.5539 25.984C27.0179 25.984 25.7939 26.504 24.8819 27.544C23.9699 28.568 23.3539 29.928 23.0339 31.624C22.9059 32.344 22.8419 32.976 22.8419 33.52C22.8419 35.744 23.8819 36.856 25.9619 36.856Z" fill="white"/>
<path d="M43.2012 22.84L40.5612 36.472H48.1932L47.4972 40H35.5452L38.8812 22.84H43.2012Z" fill="white"/>
<path d="M52.3109 22.84H59.7989C61.8149 22.84 63.3749 23.384 64.4789 24.472C65.5829 25.56 66.1348 27.112 66.1348 29.128C66.1348 29.848 66.0468 30.688 65.8708 31.648C65.3428 34.352 64.3189 36.424 62.7989 37.864C61.2789 39.288 59.3269 40 56.9429 40H48.9749L52.3109 22.84ZM53.9909 36.472H56.7269C58.0389 36.472 59.1029 36.016 59.9189 35.104C60.7349 34.176 61.3029 32.88 61.6229 31.216C61.7669 30.512 61.8389 29.888 61.8389 29.344C61.8389 27.36 60.8709 26.368 58.9349 26.368H55.9589L53.9909 36.472Z" fill="white"/>
<path d="M70.0589 26.608C69.4669 26.656 68.9788 26.528 68.5948 26.224C68.2268 25.92 68.0429 25.488 68.0429 24.928C68.0429 24.832 68.0589 24.672 68.0909 24.448C68.2029 23.872 68.4669 23.424 68.8829 23.104C69.2989 22.784 69.7869 22.624 70.3469 22.624C70.9869 22.624 71.4668 22.808 71.7868 23.176C72.1068 23.544 72.2669 24.064 72.2669 24.736C72.2669 25.072 72.2349 25.4 72.1709 25.72C71.8989 27.064 71.3389 28.16 70.4909 29.008C69.6429 29.856 68.5708 30.36 67.2748 30.52L67.3708 28.792C67.9628 28.712 68.5149 28.456 69.0269 28.024C69.5549 27.592 69.8989 27.12 70.0589 26.608Z" fill="white"/>
<path d="M85.2062 29.416L84.5102 32.944H77.0222L76.3502 36.472H85.1822L84.4862 40H71.3342L74.6702 22.84H87.6782L87.0062 26.368H78.3182L77.7182 29.416H85.2062Z" fill="white"/>
<path d="M89.6702 22.84H94.9262L96.3182 33.784H96.3662L102.03 22.84H107.334L103.998 40H99.9182L102.006 29.32H101.982L96.7262 40H93.7022L92.5742 29.32H92.5022L90.4142 40H86.3342L89.6702 22.84Z" fill="white"/>
</svg>
