<svg id="Layer_3" data-name="Layer 3" xmlns="http://www.w3.org/2000/svg" xmlns:xlink="http://www.w3.org/1999/xlink" viewBox="0 0 185 246"><defs><style>.cls-1{fill:url(#linear-gradient);}.cls-2{fill:url(#linear-gradient-2);}.cls-3{fill:#2b2b2b;}</style><linearGradient id="linear-gradient" x1="-1245.61" y1="-3046.4" x2="-1244.61" y2="-3046.4" gradientTransform="matrix(0, -246, -246, 0, -749321.95, -306174.45)" gradientUnits="userSpaceOnUse"><stop offset="0" stop-color="#e6e6e6"/><stop offset="1" stop-color="#fff"/></linearGradient><linearGradient id="linear-gradient-2" x1="-1261.86" y1="-3043.17" x2="-1260.86" y2="-3043.17" gradientTransform="matrix(0, -100.88, -100.88, 0, -306855.99, -127061.41)" gradientUnits="userSpaceOnUse"><stop offset="0" stop-color="#1e1e1e"/><stop offset="1" stop-color="#3c3c3c"/></linearGradient></defs><rect class="cls-1" width="185" height="246" rx="9.95"/><path class="cls-2" d="M166.21,182.06A20.89,20.89,0,0,0,136,165.54a20.92,20.92,0,1,0-24.28,0,20.91,20.91,0,1,0,2,36.18l-13.36,23.15a2.42,2.42,0,0,0,2.09,3.63h42.75a2.42,2.42,0,0,0,2.1-3.63L134,201.72a20.9,20.9,0,0,0,32.23-19.66Z"/><polygon class="cls-3" points="14 44.3 14 28.19 29.02 17.23 44.19 17.23 44.19 123.03 29.02 123.03 29.02 33.27 14 44.3"/><path class="cls-3" d="M53.31,47.64Q53.46,33,62.68,25.07a29.61,29.61,0,0,1,20.6-7.84,30.09,30.09,0,0,1,21,7.84Q113,33,113.33,47.64V94.3q-.3,14.58-9.08,22.49a30.63,30.63,0,0,1-21,8,30.16,30.16,0,0,1-20.6-8q-9.23-7.91-9.37-22.49Zm44.85.94Q97.73,32.7,83.28,32.4q-14.5.29-14.8,16.18V93.43q.28,16,14.8,16.18,14.44-.15,14.88-16.18Z"/></svg>