<svg id="Layer_3" data-name="Layer 3" xmlns="http://www.w3.org/2000/svg" xmlns:xlink="http://www.w3.org/1999/xlink" viewBox="0 0 185 246"><defs><style>.cls-1{fill:url(#linear-gradient);}.cls-2{fill:url(#linear-gradient-2);}.cls-3{fill:url(#linear-gradient-3);}</style><linearGradient id="linear-gradient" x1="-1245.66" y1="-3336.89" x2="-1244.66" y2="-3336.89" gradientTransform="matrix(0, -246, -246, 0, -820781.95, -306186.79)" gradientUnits="userSpaceOnUse"><stop offset="0" stop-color="#e6e6e6"/><stop offset="1" stop-color="#fff"/></linearGradient><linearGradient id="linear-gradient-2" x1="-1261.98" y1="-3333.67" x2="-1260.98" y2="-3333.67" gradientTransform="matrix(0, -100.88, -100.88, 0, -336156.17, -127073.81)" gradientUnits="userSpaceOnUse"><stop offset="0" stop-color="#b73737"/><stop offset="1" stop-color="#c45757"/></linearGradient><linearGradient id="linear-gradient-3" x1="15.5" y1="71.21" x2="114.83" y2="71.21" gradientTransform="matrix(1, 0, 0, 1, 0, 0)" xlink:href="#linear-gradient-2"/></defs><rect class="cls-1" width="185" height="246" rx="9.95"/><polygon class="cls-2" points="88.29 178 128 228.44 167.71 178 128 127.56 88.29 178"/><path class="cls-3" d="M15.5,45.38V29.27l15-11H45.69V124.12H30.52V34.35ZM54.81,94.51Q55,109.09,64.18,117a30.16,30.16,0,0,0,20.6,8,30.63,30.63,0,0,0,21-8q8.79-7.91,9.08-22.49V47.85q-.3-14.66-9.08-22.57a30.09,30.09,0,0,0-21-7.84,29.61,29.61,0,0,0-20.6,7.84Q55,33.19,54.81,47.85Zm44.85-.87q-.43,16-14.88,16.18-14.5-.15-14.8-16.18V48.79q.28-15.88,14.8-16.18,14.44.28,14.88,16.18Z"/></svg>