<svg id="Layer_3" data-name="Layer 3" xmlns="http://www.w3.org/2000/svg" xmlns:xlink="http://www.w3.org/1999/xlink" viewBox="0 0 185 246"><defs><style>.cls-1{fill:url(#linear-gradient);}.cls-2{fill:url(#linear-gradient-2);}.cls-3{fill:#bc4444;}</style><linearGradient id="linear-gradient" x1="-1466.47" y1="-3336.95" x2="-1465.47" y2="-3336.95" gradientTransform="matrix(0, -246, -246, 0, -820798.26, -360505.46)" gradientUnits="userSpaceOnUse"><stop offset="0" stop-color="#e6e6e6"/><stop offset="1" stop-color="#fff"/></linearGradient><linearGradient id="linear-gradient-2" x1="-1482.78" y1="-3333.79" x2="-1481.78" y2="-3333.79" gradientTransform="matrix(0, -100.88, -100.88, 0, -336172.48, -149347.48)" gradientUnits="userSpaceOnUse"><stop offset="0" stop-color="#b73737"/><stop offset="1" stop-color="#c45757"/></linearGradient></defs><rect class="cls-1" width="185" height="246" rx="9.95"/><polygon class="cls-2" points="84.29 178 124 228.44 163.71 178 124 127.56 84.29 178"/><path class="cls-3" d="M36.35,111.22a16.3,16.3,0,0,0,8.9,2.4,20,20,0,0,0,13-4.73A16,16,0,0,0,63,102.55,22.5,22.5,0,0,0,64.76,93V16.94h17.1V94.73q-.31,17-11.15,26.32a37.2,37.2,0,0,1-25,9.67Q26.06,130.26,16.38,116l13.78-10A18.53,18.53,0,0,0,36.35,111.22Z"/></svg>