<svg id="Layer_3" data-name="Layer 3" xmlns="http://www.w3.org/2000/svg" xmlns:xlink="http://www.w3.org/1999/xlink" viewBox="0 0 185 246"><defs><style>.cls-1{fill:url(#linear-gradient);}.cls-2{fill:url(#linear-gradient-2);}.cls-3{fill:#2b2b2b;}</style><linearGradient id="linear-gradient" x1="-1906.4" y1="-3046.6" x2="-1905.4" y2="-3046.6" gradientTransform="matrix(0, -246, -246, 0, -749370.79, -468727.61)" gradientUnits="userSpaceOnUse"><stop offset="0" stop-color="#e6e6e6"/><stop offset="1" stop-color="#fff"/></linearGradient><linearGradient id="linear-gradient-2" x1="-1922.64" y1="-3043.65" x2="-1921.64" y2="-3043.65" gradientTransform="matrix(0, -100.88, -100.88, 0, -306904.8, -193718.12)" gradientUnits="userSpaceOnUse"><stop offset="0" stop-color="#1e1e1e"/><stop offset="1" stop-color="#3c3c3c"/></linearGradient></defs><rect class="cls-1" width="185" height="246" rx="9.95"/><path class="cls-2" d="M166.21,182.06A20.89,20.89,0,0,0,136,165.54a20.92,20.92,0,1,0-24.28,0,20.91,20.91,0,1,0,2,36.18l-13.36,23.15a2.42,2.42,0,0,0,2.09,3.63h42.75a2.42,2.42,0,0,0,2.1-3.63L134,201.72a20.9,20.9,0,0,0,32.23-19.66Z"/><polygon class="cls-3" points="17.16 17.23 33.45 17.23 33.45 72.57 33.74 72.57 77.95 17.23 97.25 17.23 62.84 59.6 100.86 124.66 81.56 124.66 52.31 72.13 33.45 91.95 33.45 124.66 17.16 124.66 17.16 17.23"/></svg>