<svg id="Layer_3" data-name="Layer 3" xmlns="http://www.w3.org/2000/svg" xmlns:xlink="http://www.w3.org/1999/xlink" viewBox="0 0 185 246"><defs><style>.cls-1{fill:url(#linear-gradient);}.cls-2{fill:url(#linear-gradient-2);}.cls-3{fill:#bc4444;}</style><linearGradient id="linear-gradient" x1="-1906.51" y1="-3627.61" x2="-1905.51" y2="-3627.61" gradientTransform="matrix(0, -246, -246, 0, -892299.18, -468754.29)" gradientUnits="userSpaceOnUse"><stop offset="0" stop-color="#e6e6e6"/><stop offset="1" stop-color="#fff"/></linearGradient><linearGradient id="linear-gradient-2" x1="-1930.98" y1="-3623.21" x2="-1929.98" y2="-3623.21" gradientTransform="matrix(0, -78.18, -78.18, 0, -283145.08, -150750.12)" gradientUnits="userSpaceOnUse"><stop offset="0" stop-color="#b73737"/><stop offset="1" stop-color="#c45757"/></linearGradient></defs><rect class="cls-1" width="185" height="246" rx="9.95"/><path class="cls-2" d="M146.48,138.91c-16.62,0-22.48,15.64-22.48,15.64s-5.86-15.64-22.48-15.64S81,157.48,81,163.34s1,30.3,43,53.75c42-23.45,43-47.89,43-53.75S163.09,138.91,146.48,138.91Z"/><polygon class="cls-3" points="17.16 15.57 33.45 15.57 33.45 70.91 33.74 70.91 77.95 15.57 97.25 15.57 62.84 57.94 100.86 123 81.56 123 52.31 70.47 33.45 90.28 33.45 123 17.16 123 17.16 15.57"/></svg>