<svg id="Layer_3" data-name="Layer 3" xmlns="http://www.w3.org/2000/svg" xmlns:xlink="http://www.w3.org/1999/xlink" viewBox="0 0 185 246"><defs><style>.cls-1{fill:url(#linear-gradient);}.cls-2{fill:url(#linear-gradient-2);}.cls-3{fill:#2b2b2b;}</style><linearGradient id="linear-gradient" x1="-2120.37" y1="-2756.13" x2="-2119.37" y2="-2756.13" gradientTransform="matrix(0, -246, -246, 0, -677916.39, -521364.22)" gradientUnits="userSpaceOnUse"><stop offset="0" stop-color="#e6e6e6"/><stop offset="1" stop-color="#fff"/></linearGradient><linearGradient id="linear-gradient-2" x1="-2136.47" y1="-2753.28" x2="-2135.47" y2="-2753.28" gradientTransform="matrix(0, -100.88, -100.88, 0, -277611.44, -215293.98)" gradientUnits="userSpaceOnUse"><stop offset="0" stop-color="#1e1e1e"/><stop offset="1" stop-color="#3c3c3c"/></linearGradient></defs><rect class="cls-1" width="185" height="246" rx="9.95"/><path class="cls-2" d="M162.63,161.91c-5.07-6.54-12.22-12.2-17.42-17.94-1.19-1.31-18.61-20-18-20.68q-8.48,10.17-17.36,20c-4.38,4.85-8.85,9.47-13.49,14S87.5,167,86.05,173.35a26.78,26.78,0,0,0,1.8,16,27.87,27.87,0,0,0,9.57,12.42c6.79,4.7,15,4.38,22.27,1L110.56,221a2.23,2.23,0,0,0,2,3.22h29.3a2.23,2.23,0,0,0,2-3.22q-4.58-9.13-9.12-18.29A21.62,21.62,0,0,0,156.6,202a26.6,26.6,0,0,0,9.26-11.08c3.08-6.49,4.07-14.2,1.5-20.9A32.24,32.24,0,0,0,162.63,161.91Z"/><path class="cls-3" d="M82,103.18H39.21l-8.67,25.24H12.42l41-112.9H67.79l41,112.9h-18ZM77.16,88,60.82,38.67h-.31L44.17,88Z"/></svg>