<svg id="Layer_3" data-name="Layer 3" xmlns="http://www.w3.org/2000/svg" xmlns:xlink="http://www.w3.org/1999/xlink" viewBox="0 0 185 246"><defs><style>.cls-1{fill:url(#linear-gradient);}.cls-2{fill:url(#linear-gradient-2);}.cls-3{fill:#2b2b2b;}</style><linearGradient id="linear-gradient" x1="525.15" y1="-3045.84" x2="526.15" y2="-3045.84" gradientTransform="matrix(0, -246, -246, 0, -749183.24, 129433.23)" gradientUnits="userSpaceOnUse"><stop offset="0" stop-color="#e6e6e6"/><stop offset="1" stop-color="#fff"/></linearGradient><linearGradient id="linear-gradient-2" x1="508.91" y1="-3041.8" x2="509.91" y2="-3041.8" gradientTransform="matrix(0, -100.88, -100.88, 0, -306717.25, 51564.3)" gradientUnits="userSpaceOnUse"><stop offset="0" stop-color="#1e1e1e"/><stop offset="1" stop-color="#3c3c3c"/></linearGradient></defs><rect class="cls-1" width="185" height="246" rx="9.95"/><path class="cls-2" d="M166.21,182.06A20.89,20.89,0,0,0,136,165.54a20.92,20.92,0,1,0-24.28,0,20.91,20.91,0,1,0,2,36.18l-13.36,23.15a2.42,2.42,0,0,0,2.09,3.63h42.75a2.42,2.42,0,0,0,2.1-3.63L134,201.72a20.9,20.9,0,0,0,32.23-19.66Z"/><path class="cls-3" d="M23.52,115.79,67.57,60.67a21.38,21.38,0,0,0,3.49-6.2,23.11,23.11,0,0,0,.62-5.11,16.75,16.75,0,0,0-4-11.07q-4.11-4.73-11.62-4.88A15.3,15.3,0,0,0,45,37.67q-4.56,4.26-5.42,12H23.52q.61-14.08,9.45-23.3a30.17,30.17,0,0,1,21.9-9.14q14.57.16,23.62,9.29,9.21,9.06,9.37,23A31.23,31.23,0,0,1,81,69.34L44.73,114.86H87.86V131H23.52Z"/></svg>