<svg id="Layer_3" data-name="Layer 3" xmlns="http://www.w3.org/2000/svg" xmlns:xlink="http://www.w3.org/1999/xlink" viewBox="0 0 185 246"><defs><style>.cls-1{fill:url(#linear-gradient);}.cls-2{fill:url(#linear-gradient-2);}.cls-3{fill:#bc4444;}</style><linearGradient id="linear-gradient" x1="525.08" y1="-3336.34" x2="526.08" y2="-3336.34" gradientTransform="matrix(0, -246, -246, 0, -820647.19, 129416.89)" gradientUnits="userSpaceOnUse"><stop offset="0" stop-color="#e6e6e6"/><stop offset="1" stop-color="#fff"/></linearGradient><linearGradient id="linear-gradient-2" x1="508.74" y1="-3332.3" x2="509.74" y2="-3332.3" gradientTransform="matrix(0, -100.88, -100.88, 0, -336021.41, 51547.9)" gradientUnits="userSpaceOnUse"><stop offset="0" stop-color="#b73737"/><stop offset="1" stop-color="#c45757"/></linearGradient></defs><rect class="cls-1" width="185" height="246" rx="9.95"/><polygon class="cls-2" points="84.29 178 124 228.44 163.71 178 124 127.56 84.29 178"/><path class="cls-3" d="M26,122,70.07,66.88a21.38,21.38,0,0,0,3.49-6.2,23.11,23.11,0,0,0,.62-5.11,16.75,16.75,0,0,0-4-11.07q-4.11-4.72-11.62-4.88a15.3,15.3,0,0,0-11.07,4.26q-4.56,4.26-5.42,12H26q.61-14.08,9.45-23.3a30.17,30.17,0,0,1,21.9-9.14q14.57.16,23.62,9.29,9.21,9.06,9.37,23a31.23,31.23,0,0,1-6.82,19.82L47.23,121.07H90.36v16.18H26Z"/></svg>