<svg id="Layer_3" data-name="Layer 3" xmlns="http://www.w3.org/2000/svg" xmlns:xlink="http://www.w3.org/1999/xlink" viewBox="0 0 185 246"><defs><style>.cls-1{fill:url(#linear-gradient);}.cls-2{fill:url(#linear-gradient-2);}.cls-3{fill:#bc4444;}</style><linearGradient id="linear-gradient" x1="525.04" y1="-3626.85" x2="526.04" y2="-3626.85" gradientTransform="matrix(0, -246, -246, 0, -892111.63, 129406.55)" gradientUnits="userSpaceOnUse"><stop offset="0" stop-color="#e6e6e6"/><stop offset="1" stop-color="#fff"/></linearGradient><linearGradient id="linear-gradient-2" x1="500.57" y1="-3620.81" x2="501.57" y2="-3620.81" gradientTransform="matrix(0, -78.18, -78.18, 0, -282957.53, 39352.69)" gradientUnits="userSpaceOnUse"><stop offset="0" stop-color="#b73737"/><stop offset="1" stop-color="#c45757"/></linearGradient></defs><rect class="cls-1" width="185" height="246" rx="9.95"/><path class="cls-2" d="M146.48,138.91c-16.62,0-22.48,15.64-22.48,15.64s-5.86-15.64-22.48-15.64S81,157.48,81,163.34s1,30.3,43,53.75c42-23.45,43-47.89,43-53.75S163.09,138.91,146.48,138.91Z"/><path class="cls-3" d="M20.52,118,64.57,62.83a21.34,21.34,0,0,0,3.49-6.19,23.18,23.18,0,0,0,.62-5.11,16.75,16.75,0,0,0-4-11.07q-4.11-4.73-11.62-4.88A15.3,15.3,0,0,0,42,39.84q-4.56,4.26-5.42,12H20.52q.61-14.1,9.45-23.31a30.17,30.17,0,0,1,21.9-9.13q14.57.15,23.62,9.29,9.21,9.06,9.37,23A31.21,31.21,0,0,1,78,71.5L41.73,117H84.86v16.18H20.52Z"/></svg>