<svg id="Layer_3" data-name="Layer 3" xmlns="http://www.w3.org/2000/svg" xmlns:xlink="http://www.w3.org/1999/xlink" viewBox="0 0 185 246"><defs><style>.cls-1{fill:url(#linear-gradient);}.cls-2{fill:url(#linear-gradient-2);}.cls-3{fill:#2b2b2b;}</style><linearGradient id="linear-gradient" x1="309.25" y1="-3045.88" x2="310.25" y2="-3045.88" gradientTransform="matrix(0, -246, -246, 0, -749195.08, 76321.98)" gradientUnits="userSpaceOnUse"><stop offset="0" stop-color="#e6e6e6"/><stop offset="1" stop-color="#fff"/></linearGradient><linearGradient id="linear-gradient-2" x1="293.01" y1="-3041.91" x2="294.01" y2="-3041.91" gradientTransform="matrix(0, -100.88, -100.88, 0, -306729.13, 29785.45)" gradientUnits="userSpaceOnUse"><stop offset="0" stop-color="#1e1e1e"/><stop offset="1" stop-color="#3c3c3c"/></linearGradient></defs><rect class="cls-1" width="185" height="246" rx="9.95"/><path class="cls-2" d="M166.21,182.06A20.89,20.89,0,0,0,136,165.54a20.92,20.92,0,1,0-24.28,0,20.91,20.91,0,1,0,2,36.18l-13.36,23.15a2.42,2.42,0,0,0,2.09,3.63h42.75a2.42,2.42,0,0,0,2.1-3.63L134,201.72a20.9,20.9,0,0,0,32.23-19.66Z"/><path class="cls-3" d="M45.68,65.31h5.48q8.12,0,12.61-4.53a15.18,15.18,0,0,0,4.48-11.37,16.37,16.37,0,0,0-4.63-11.6,16.45,16.45,0,0,0-11.55-4.53,14.53,14.53,0,0,0-9.27,3.31q-4.41,3.3-5.93,10.21H21a32.89,32.89,0,0,1,10-21,28.85,28.85,0,0,1,20.52-8.6q15.12.16,24,9.76A32.41,32.41,0,0,1,84.13,49.1a34.67,34.67,0,0,1-2.28,12.44q-2.66,6-9.5,10.68A27.84,27.84,0,0,1,82.46,83.28a32.07,32.07,0,0,1,3,13.51q-.15,15.75-9.65,24.8-9.34,9.3-24,9.45a30.24,30.24,0,0,1-20.06-7.37Q23,116.29,20.38,102.32H36.26a22.55,22.55,0,0,0,6,9.06Q46.22,115,52.75,115a15.91,15.91,0,0,0,11.78-4.84q4.86-4.53,5-12.9-.15-8.52-5-13.21a17,17,0,0,0-12.16-4.53H45.68Z"/></svg>