<svg id="Layer_3" data-name="Layer 3" xmlns="http://www.w3.org/2000/svg" xmlns:xlink="http://www.w3.org/1999/xlink" viewBox="0 0 185 246"><defs><style>.cls-1{fill:url(#linear-gradient);}.cls-2{fill:url(#linear-gradient-2);}.cls-3{fill:#bc4444;}</style><linearGradient id="linear-gradient" x1="309.19" y1="-3336.39" x2="310.19" y2="-3336.39" gradientTransform="matrix(0, -246, -246, 0, -820658.59, 76306.14)" gradientUnits="userSpaceOnUse"><stop offset="0" stop-color="#e6e6e6"/><stop offset="1" stop-color="#fff"/></linearGradient><linearGradient id="linear-gradient-2" x1="292.85" y1="-3332.41" x2="293.85" y2="-3332.41" gradientTransform="matrix(0, -100.88, -100.88, 0, -336032.81, 29769.55)" gradientUnits="userSpaceOnUse"><stop offset="0" stop-color="#b73737"/><stop offset="1" stop-color="#c45757"/></linearGradient></defs><rect class="cls-1" width="185" height="246" rx="9.95"/><polygon class="cls-2" points="84.29 178 124 228.44 163.71 178 124 127.56 84.29 178"/><path class="cls-3" d="M47.68,71h5.48q8.12,0,12.61-4.53a15.18,15.18,0,0,0,4.48-11.37A15.66,15.66,0,0,0,54.07,39,14.53,14.53,0,0,0,44.8,42.3q-4.41,3.3-5.93,10.21H23a32.89,32.89,0,0,1,10-21,28.85,28.85,0,0,1,20.52-8.6q15.12.16,24,9.76a32.41,32.41,0,0,1,8.66,22.11,34.67,34.67,0,0,1-2.28,12.44q-2.66,6-9.5,10.68A27.84,27.84,0,0,1,84.46,89a32.07,32.07,0,0,1,3,13.51q-.15,15.75-9.65,24.81-9.34,9.28-24,9.44a30.24,30.24,0,0,1-20.06-7.37Q25,122,22.38,108H38.26a22.55,22.55,0,0,0,6,9.06q3.94,3.61,10.48,3.61a15.91,15.91,0,0,0,11.78-4.84q4.86-4.53,5-12.9-.15-8.52-5-13.21a17,17,0,0,0-12.16-4.53H47.68Z"/></svg>