<svg id="Layer_3" data-name="Layer 3" xmlns="http://www.w3.org/2000/svg" xmlns:xlink="http://www.w3.org/1999/xlink" viewBox="0 0 185 246"><defs><style>.cls-1{fill:url(#linear-gradient);}.cls-2{fill:url(#linear-gradient-2);}.cls-3{fill:#bc4444;}</style><linearGradient id="linear-gradient" x1="309.14" y1="-3626.89" x2="310.14" y2="-3626.89" gradientTransform="matrix(0, -246, -246, 0, -892123.53, 76295.3)" gradientUnits="userSpaceOnUse"><stop offset="0" stop-color="#e6e6e6"/><stop offset="1" stop-color="#fff"/></linearGradient><linearGradient id="linear-gradient-2" x1="284.67" y1="-3620.96" x2="285.67" y2="-3620.96" gradientTransform="matrix(0, -78.18, -78.18, 0, -282969.43, 22473.29)" gradientUnits="userSpaceOnUse"><stop offset="0" stop-color="#b73737"/><stop offset="1" stop-color="#c45757"/></linearGradient></defs><rect class="cls-1" width="185" height="246" rx="9.95"/><path class="cls-2" d="M146.48,138.91c-16.62,0-22.48,15.64-22.48,15.64s-5.86-15.64-22.48-15.64S81,157.48,81,163.34s1,30.3,43,53.75c42-23.45,43-47.89,43-53.75S163.09,138.91,146.48,138.91Z"/><path class="cls-3" d="M42.68,67.47h5.48q8.12,0,12.61-4.53a15.18,15.18,0,0,0,4.48-11.36A15.66,15.66,0,0,0,49.07,35.45a14.58,14.58,0,0,0-9.27,3.3Q35.39,42.05,33.87,49H18a32.84,32.84,0,0,1,10-21,28.81,28.81,0,0,1,20.52-8.6q15.12.15,24,9.75a32.44,32.44,0,0,1,8.66,22.12,34.67,34.67,0,0,1-2.28,12.44q-2.66,6-9.5,10.67A27.84,27.84,0,0,1,79.46,85.44a32.11,32.11,0,0,1,3,13.52q-.15,15.74-9.65,24.8-9.34,9.3-24,9.45a30.2,30.2,0,0,1-20.06-7.38Q20,118.47,17.38,104.49H33.26a22.69,22.69,0,0,0,6,9.06q3.94,3.6,10.48,3.61a16,16,0,0,0,11.78-4.84q4.86-4.53,5-12.9-.15-8.53-5-13.21a17,17,0,0,0-12.16-4.53H42.68Z"/></svg>