<svg id="Layer_3" data-name="Layer 3" xmlns="http://www.w3.org/2000/svg" xmlns:xlink="http://www.w3.org/1999/xlink" viewBox="0 0 185 246"><defs><style>.cls-1{fill:url(#linear-gradient);}.cls-2{fill:url(#linear-gradient-2);}.cls-3{fill:#2b2b2b;}</style><linearGradient id="linear-gradient" x1="-128.8" y1="-3046.01" x2="-127.8" y2="-3046.01" gradientTransform="matrix(0, -246, -246, 0, -749225.2, -31439.52)" gradientUnits="userSpaceOnUse"><stop offset="0" stop-color="#e6e6e6"/><stop offset="1" stop-color="#fff"/></linearGradient><linearGradient id="linear-gradient-2" x1="-145.05" y1="-3042.21" x2="-144.05" y2="-3042.21" gradientTransform="matrix(0, -100.88, -100.88, 0, -306759.21, -14403.33)" gradientUnits="userSpaceOnUse"><stop offset="0" stop-color="#1e1e1e"/><stop offset="1" stop-color="#3c3c3c"/></linearGradient></defs><rect class="cls-1" width="185" height="246" rx="9.95"/><path class="cls-2" d="M166.21,182.06A20.89,20.89,0,0,0,136,165.54a20.92,20.92,0,1,0-24.28,0,20.91,20.91,0,1,0,2,36.18l-13.36,23.15a2.42,2.42,0,0,0,2.09,3.63h42.75a2.42,2.42,0,0,0,2.1-3.63L134,201.72a20.9,20.9,0,0,0,32.23-19.66Z"/><path class="cls-3" d="M23.66,17.23H83.47V33.32H38.82V58.73a28.26,28.26,0,0,1,17.94-6.16,33.69,33.69,0,0,1,11.85,2.31,25.71,25.71,0,0,1,8.24,5.85,27.26,27.26,0,0,1,6.78,10.7,38.51,38.51,0,0,1,1.53,8.08q.47,4.86.47,11.93,0,10.94-1.54,16.79a26.92,26.92,0,0,1-5.39,10.23,31.38,31.38,0,0,1-9.62,8,28.54,28.54,0,0,1-14.63,3.93,35,35,0,0,1-20.86-6.78q-9.63-6.93-11.94-22.4H37.74q2.63,12.93,16.09,13.09,5.78,0,9.24-2.31a11.72,11.72,0,0,0,4.62-5.85,27.33,27.33,0,0,0,1.69-7.85c.11-2.78.16-5.47.16-8.09q.15-9.61-3-15.62a12,12,0,0,0-5-4.55,21.49,21.49,0,0,0-8.24-1.38,16.29,16.29,0,0,0-8,2q-3.61,2.07-6.47,7.24H23.66Z"/></svg>