<svg id="Layer_3" data-name="Layer 3" xmlns="http://www.w3.org/2000/svg" xmlns:xlink="http://www.w3.org/1999/xlink" viewBox="0 0 185 246"><defs><style>.cls-1{fill:url(#linear-gradient);}.cls-2{fill:url(#linear-gradient-2);}.cls-3{fill:#bc4444;}</style><linearGradient id="linear-gradient" x1="-128.91" y1="-3627.02" x2="-127.91" y2="-3627.02" gradientTransform="matrix(0, -246, -246, 0, -892153.59, -31466.19)" gradientUnits="userSpaceOnUse"><stop offset="0" stop-color="#e6e6e6"/><stop offset="1" stop-color="#fff"/></linearGradient><linearGradient id="linear-gradient-2" x1="-153.38" y1="-3621.35" x2="-152.38" y2="-3621.35" gradientTransform="matrix(0, -78.18, -78.18, 0, -282999.48, -11774.63)" gradientUnits="userSpaceOnUse"><stop offset="0" stop-color="#b73737"/><stop offset="1" stop-color="#c45757"/></linearGradient></defs><rect class="cls-1" width="185" height="246" rx="9.95"/><path class="cls-2" d="M146.48,138.91c-16.62,0-22.48,15.64-22.48,15.64s-5.86-15.64-22.48-15.64S81,157.48,81,163.34s1,30.3,43,53.75c42-23.45,43-47.89,43-53.75S163.09,138.91,146.48,138.91Z"/><path class="cls-3" d="M20.66,19.4H80.47V35.49H35.82v25.4a28.31,28.31,0,0,1,17.94-6.16A34.14,34.14,0,0,1,65.61,57a25.71,25.71,0,0,1,8.24,5.85,27.26,27.26,0,0,1,6.78,10.7,38.61,38.61,0,0,1,1.53,8.09q.47,4.84.47,11.93,0,10.94-1.54,16.78a27,27,0,0,1-5.39,10.24,31.52,31.52,0,0,1-9.62,8,28.54,28.54,0,0,1-14.63,3.92,35.08,35.08,0,0,1-20.86-6.77q-9.63-6.93-11.94-22.4H34.74q2.63,12.93,16.09,13.08,5.78,0,9.24-2.31a11.64,11.64,0,0,0,4.62-5.85,27.33,27.33,0,0,0,1.69-7.85q.16-4.15.16-8.08.15-9.63-3-15.63a12,12,0,0,0-5-4.54,21.29,21.29,0,0,0-8.24-1.39,16.29,16.29,0,0,0-8,2,18.18,18.18,0,0,0-6.47,7.24H20.66Z"/></svg>