<svg id="Layer_3" data-name="Layer 3" xmlns="http://www.w3.org/2000/svg" xmlns:xlink="http://www.w3.org/1999/xlink" viewBox="0 0 185 246"><defs><style>.cls-1{fill:url(#linear-gradient);}.cls-2{fill:url(#linear-gradient-2);}.cls-3{fill:#2b2b2b;}</style><linearGradient id="linear-gradient" x1="-348.49" y1="-3046.07" x2="-347.49" y2="-3046.07" gradientTransform="matrix(0, -246, -246, 0, -749240.89, -85482.6)" gradientUnits="userSpaceOnUse"><stop offset="0" stop-color="#e6e6e6"/><stop offset="1" stop-color="#fff"/></linearGradient><linearGradient id="linear-gradient-2" x1="-364.74" y1="-3042.37" x2="-363.74" y2="-3042.37" gradientTransform="matrix(0, -100.88, -100.88, 0, -306774.89, -36564.29)" gradientUnits="userSpaceOnUse"><stop offset="0" stop-color="#1e1e1e"/><stop offset="1" stop-color="#3c3c3c"/></linearGradient></defs><rect class="cls-1" width="185" height="246" rx="9.95"/><path class="cls-2" d="M166.21,182.06A20.89,20.89,0,0,0,136,165.54a20.92,20.92,0,1,0-24.28,0,20.91,20.91,0,1,0,2,36.18l-13.36,23.15a2.42,2.42,0,0,0,2.09,3.63h42.75a2.42,2.42,0,0,0,2.1-3.63L134,201.72a20.9,20.9,0,0,0,32.23-19.66Z"/><path class="cls-3" d="M67.79,17.23a8.44,8.44,0,0,1-.73,1.65q-.8,1.65-2.18,4.48c-.92,1.89-2,4.07-3.22,6.52l-3.87,7.74q-2,4.07-4.14,8.2c-1.4,2.76-2.76,5.39-4.06,7.89L46,60.53c-1.08,2-2,3.68-2.69,4.9a12.28,12.28,0,0,1,5-1.57,49.87,49.87,0,0,1,6.48-.11,25.09,25.09,0,0,1,9.23,1.84,24.19,24.19,0,0,1,11.5,9.85,34.6,34.6,0,0,1,3,6A31.36,31.36,0,0,1,80,87a26.51,26.51,0,0,1,.42,4v4.41c0,1,0,2,0,3s-.07,1.89-.12,2.61c0,.36-.22,1.29-.5,2.8a36,36,0,0,1-1.53,5.36,40.92,40.92,0,0,1-3.18,6.67,30.11,30.11,0,0,1-5.44,6.74,31.65,31.65,0,0,1-8.2,5.48A32.64,32.64,0,0,1,49.93,131,33.79,33.79,0,0,1,37.6,130a29.39,29.39,0,0,1-9.28-4.36,28.09,28.09,0,0,1-6.51-6.55,35.18,35.18,0,0,1-4.1-7.63,34,34,0,0,1-2-7.51,24.12,24.12,0,0,1-.19-6.13c.3-2.5.64-4.74,1-6.71s.78-3.84,1.27-5.63,1-3.55,1.65-5.29,1.32-3.62,2.14-5.67c.2-.51.77-1.72,1.69-3.64s2.05-4.27,3.41-7.08,2.87-5.9,4.56-9.28,3.37-6.79,5.05-10.27q6-12.11,13.41-27ZM64.57,99q0-2.91-.23-6.44a18.48,18.48,0,0,0-1.72-6.7,13.74,13.74,0,0,0-4.87-5.48q-3.37-2.3-9.58-2.76a12.8,12.8,0,0,0-5.29.61,14.63,14.63,0,0,0-4.21,2.3,16.17,16.17,0,0,0-3.18,3.33,25.48,25.48,0,0,0-2.22,3.72A17.9,17.9,0,0,0,32,91a11.34,11.34,0,0,0-.38,2.42c0,1.27,0,2.69.08,4.25a32.17,32.17,0,0,0,.49,4.67,19,19,0,0,0,1.42,4.52,11.89,11.89,0,0,0,2.84,3.87,14,14,0,0,0,4.71,2.76,20.54,20.54,0,0,0,7.17,1.08,16.12,16.12,0,0,0,6-.89,14.71,14.71,0,0,0,4.37-2.45,14,14,0,0,0,2.95-3.33,19.5,19.5,0,0,0,1.8-3.6,17.58,17.58,0,0,0,.88-3.18A15.16,15.16,0,0,0,64.57,99Z"/></svg>