<svg id="Layer_3" data-name="Layer 3" xmlns="http://www.w3.org/2000/svg" xmlns:xlink="http://www.w3.org/1999/xlink" viewBox="0 0 185 246"><defs><style>.cls-1{fill:url(#linear-gradient);}.cls-2{fill:url(#linear-gradient-2);}.cls-3{fill:#bc4444;}</style><linearGradient id="linear-gradient" x1="-348.55" y1="-3336.57" x2="-347.55" y2="-3336.57" gradientTransform="matrix(0, -246, -246, 0, -820702.83, -85496.94)" gradientUnits="userSpaceOnUse"><stop offset="0" stop-color="#e6e6e6"/><stop offset="1" stop-color="#fff"/></linearGradient><linearGradient id="linear-gradient-2" x1="-364.88" y1="-3332.85" x2="-363.88" y2="-3332.85" gradientTransform="matrix(0, -100.88, -100.88, 0, -336077.05, -36578.69)" gradientUnits="userSpaceOnUse"><stop offset="0" stop-color="#b73737"/><stop offset="1" stop-color="#c45757"/></linearGradient></defs><rect class="cls-1" width="185" height="246" rx="9.95"/><polygon class="cls-2" points="84.29 178 124 228.44 163.71 178 124 127.56 84.29 178"/><path class="cls-3" d="M68.29,21.44a8.44,8.44,0,0,1-.73,1.65q-.8,1.65-2.18,4.48t-3.22,6.52l-3.87,7.74q-2,4.06-4.14,8.2c-1.4,2.76-2.76,5.39-4.06,7.89l-3.56,6.82c-1.08,2-2,3.68-2.69,4.91a12.14,12.14,0,0,1,5-1.58A49.87,49.87,0,0,1,55.34,68a25.29,25.29,0,0,1,9.23,1.84,24.19,24.19,0,0,1,11.5,9.85,34.6,34.6,0,0,1,3,6,31.36,31.36,0,0,1,1.49,5.52,26.51,26.51,0,0,1,.42,4v4.41c0,1,0,2,0,3s-.07,1.89-.12,2.61c0,.36-.22,1.29-.5,2.8a36,36,0,0,1-1.53,5.36,40.92,40.92,0,0,1-3.18,6.67,30.11,30.11,0,0,1-5.44,6.74,31.65,31.65,0,0,1-8.2,5.48,32.64,32.64,0,0,1-11.5,2.83,34,34,0,0,1-12.33-.91,29.62,29.62,0,0,1-9.28-4.37,28.09,28.09,0,0,1-6.51-6.55,35.18,35.18,0,0,1-4.1-7.63,33.8,33.8,0,0,1-2-7.51,24.12,24.12,0,0,1-.19-6.13c.3-2.5.64-4.74,1-6.71s.78-3.84,1.27-5.63,1-3.55,1.65-5.28,1.32-3.63,2.14-5.68c.2-.51.77-1.72,1.69-3.64s2.05-4.27,3.41-7.08,2.87-5.9,4.56-9.28S35.11,52,36.79,48.5q6-12.12,13.41-27.06Zm-3.22,81.77q0-2.91-.23-6.44a18.48,18.48,0,0,0-1.72-6.7,13.74,13.74,0,0,0-4.87-5.48q-3.37-2.3-9.58-2.76a12.8,12.8,0,0,0-5.29.61,14.63,14.63,0,0,0-4.21,2.3A16.17,16.17,0,0,0,36,88.07a25.48,25.48,0,0,0-2.22,3.72A17.9,17.9,0,0,0,32.5,95.2a11.34,11.34,0,0,0-.38,2.42c0,1.27,0,2.69.08,4.25a32,32,0,0,0,.49,4.67,19,19,0,0,0,1.42,4.52A11.89,11.89,0,0,0,37,114.93a14,14,0,0,0,4.71,2.76,20.54,20.54,0,0,0,7.17,1.08,16.12,16.12,0,0,0,6-.89,14.71,14.71,0,0,0,4.37-2.45,14,14,0,0,0,2.95-3.33,19.5,19.5,0,0,0,1.8-3.6,17.58,17.58,0,0,0,.88-3.18A15.16,15.16,0,0,0,65.07,103.21Z"/></svg>