<svg id="Layer_3" data-name="Layer 3" xmlns="http://www.w3.org/2000/svg" xmlns:xlink="http://www.w3.org/1999/xlink" viewBox="0 0 185 246"><defs><style>.cls-1{fill:url(#linear-gradient);}.cls-2{fill:url(#linear-gradient-2);}.cls-3{fill:#bc4444;}</style><linearGradient id="linear-gradient" x1="-348.6" y1="-3627.08" x2="-347.6" y2="-3627.08" gradientTransform="matrix(0, -246, -246, 0, -892169.27, -85509.28)" gradientUnits="userSpaceOnUse"><stop offset="0" stop-color="#e6e6e6"/><stop offset="1" stop-color="#fff"/></linearGradient><linearGradient id="linear-gradient-2" x1="-373.07" y1="-3621.55" x2="-372.07" y2="-3621.55" gradientTransform="matrix(0, -78.18, -78.18, 0, -283015.17, -28950.18)" gradientUnits="userSpaceOnUse"><stop offset="0" stop-color="#b73737"/><stop offset="1" stop-color="#c45757"/></linearGradient></defs><rect class="cls-1" width="185" height="246" rx="9.95"/><path class="cls-2" d="M146.48,138.91c-16.62,0-22.48,15.64-22.48,15.64s-5.86-15.64-22.48-15.64S81,157.48,81,163.34s1,30.3,43,53.75c42-23.45,43-47.89,43-53.75S163.09,138.91,146.48,138.91Z"/><path class="cls-3" d="M64.79,19.4a8.44,8.44,0,0,1-.73,1.65q-.8,1.65-2.18,4.48T58.66,32l-3.87,7.74q-2,4.06-4.14,8.2c-1.4,2.76-2.76,5.39-4.06,7.9L43,62.7c-1.08,2-2,3.67-2.69,4.9a12.13,12.13,0,0,1,5-1.57,48,48,0,0,1,6.48-.12,25.5,25.5,0,0,1,9.23,1.84A24.67,24.67,0,0,1,67.85,72a24.42,24.42,0,0,1,4.72,5.63,35.3,35.3,0,0,1,3,6.05A31.36,31.36,0,0,1,77,89.17a26.51,26.51,0,0,1,.42,4V97.6q0,1.5,0,3c0,1-.07,1.89-.12,2.6,0,.36-.22,1.29-.5,2.8a35.33,35.33,0,0,1-1.53,5.36,40.53,40.53,0,0,1-3.18,6.67,29.94,29.94,0,0,1-5.44,6.75,31.62,31.62,0,0,1-8.2,5.47,32.63,32.63,0,0,1-11.5,2.84,34,34,0,0,1-12.33-.92,29.4,29.4,0,0,1-9.28-4.37,27.9,27.9,0,0,1-6.51-6.55,35.34,35.34,0,0,1-4.1-7.62,34,34,0,0,1-2-7.51,24.14,24.14,0,0,1-.19-6.13c.3-2.51.64-4.74,1-6.71s.78-3.84,1.27-5.63,1-3.55,1.65-5.29,1.32-3.63,2.14-5.67c.2-.51.77-1.73,1.69-3.64S22.32,68.8,23.68,66s2.87-5.9,4.56-9.27,3.37-6.8,5.05-10.27q6-12.11,13.41-27.05Zm-3.22,81.76q0-2.91-.23-6.43A18.53,18.53,0,0,0,59.62,88a13.8,13.8,0,0,0-4.87-5.48q-3.37-2.3-9.58-2.76a12.8,12.8,0,0,0-5.29.62,14.63,14.63,0,0,0-4.21,2.3A16.17,16.17,0,0,0,32.49,86a24.47,24.47,0,0,0-2.22,3.72A17.65,17.65,0,0,0,29,93.16a11.27,11.27,0,0,0-.38,2.41c0,1.28,0,2.7.08,4.25a32.31,32.31,0,0,0,.49,4.68A19.14,19.14,0,0,0,30.61,109a11.89,11.89,0,0,0,2.84,3.87,14.3,14.3,0,0,0,4.71,2.76,20.8,20.8,0,0,0,7.17,1.07,16.13,16.13,0,0,0,6-.88,15.16,15.16,0,0,0,4.37-2.45,14,14,0,0,0,2.95-3.34,18.9,18.9,0,0,0,1.8-3.6,17.15,17.15,0,0,0,.88-3.18A15,15,0,0,0,61.57,101.16Z"/></svg>