<svg id="Layer_3" data-name="Layer 3" xmlns="http://www.w3.org/2000/svg" xmlns:xlink="http://www.w3.org/1999/xlink" viewBox="0 0 185 246"><defs><style>.cls-1{fill:url(#linear-gradient);}.cls-2{fill:url(#linear-gradient-2);}.cls-3{fill:#2b2b2b;}</style><linearGradient id="linear-gradient" x1="-348.42" y1="-2755.56" x2="-347.42" y2="-2755.56" gradientTransform="matrix(0, -246, -246, 0, -677776.44, -85466.26)" gradientUnits="userSpaceOnUse"><stop offset="0" stop-color="#e6e6e6"/><stop offset="1" stop-color="#fff"/></linearGradient><linearGradient id="linear-gradient-2" x1="-364.53" y1="-2751.74" x2="-363.53" y2="-2751.74" gradientTransform="matrix(0, -100.88, -100.88, 0, -277471.5, -36548.35)" gradientUnits="userSpaceOnUse"><stop offset="0" stop-color="#1e1e1e"/><stop offset="1" stop-color="#3c3c3c"/></linearGradient></defs><rect class="cls-1" width="185" height="246" rx="9.95"/><path class="cls-2" d="M147.39,161.62c-5.07-6.54-12.22-12.21-17.42-17.94-1.19-1.31-18.62-20-18-20.68-5.64,6.77-11.45,13.42-17.36,20-4.38,4.84-8.84,9.47-13.49,14s-8.85,9.67-10.29,16.06a26.81,26.81,0,0,0,1.79,16,28,28,0,0,0,9.57,12.42c6.79,4.7,15,4.38,22.27,1l-9.12,18.25a2.22,2.22,0,0,0,2,3.22h29.3a2.23,2.23,0,0,0,2-3.22q-4.57-9.14-9.12-18.29a21.64,21.64,0,0,0,21.89-.68,26.66,26.66,0,0,0,9.26-11.08c3.07-6.49,4.07-14.2,1.49-20.9A32,32,0,0,0,147.39,161.62Z"/><path class="cls-3" d="M67.79,15.45a8.26,8.26,0,0,1-.73,1.64l-2.18,4.49q-1.38,2.84-3.22,6.51l-3.87,7.74q-2,4.06-4.14,8.2c-1.4,2.76-2.76,5.39-4.06,7.89S47.1,56.7,46,58.74s-2,3.68-2.69,4.91a12.13,12.13,0,0,1,5-1.57A48,48,0,0,1,54.84,62a25.29,25.29,0,0,1,9.23,1.84,24.34,24.34,0,0,1,11.5,9.85,35,35,0,0,1,3,6A31.36,31.36,0,0,1,80,85.22a26.51,26.51,0,0,1,.42,4v4.41q0,1.48,0,3c0,1-.07,1.89-.12,2.6,0,.36-.22,1.29-.5,2.8a36,36,0,0,1-1.53,5.36,40.92,40.92,0,0,1-3.18,6.67,30.11,30.11,0,0,1-5.44,6.74,31.65,31.65,0,0,1-8.2,5.48,32.85,32.85,0,0,1-11.5,2.84,34,34,0,0,1-12.33-.92,29.4,29.4,0,0,1-9.28-4.37,27.9,27.9,0,0,1-6.51-6.55,35.18,35.18,0,0,1-4.1-7.63,33.8,33.8,0,0,1-2-7.51,24.12,24.12,0,0,1-.19-6.13c.3-2.5.64-4.74,1-6.7s.78-3.85,1.27-5.64,1-3.55,1.65-5.28,1.32-3.63,2.14-5.67c.2-.51.77-1.73,1.69-3.64s2.05-4.28,3.41-7.09,2.87-5.9,4.56-9.27S34.61,46,36.29,42.5q6-12.1,13.41-27ZM64.57,97.21q0-2.91-.23-6.44a18.53,18.53,0,0,0-1.72-6.7,13.74,13.74,0,0,0-4.87-5.48q-3.37-2.3-9.58-2.76a12.8,12.8,0,0,0-5.29.61,14.88,14.88,0,0,0-4.21,2.3,16.22,16.22,0,0,0-3.18,3.34,24.88,24.88,0,0,0-2.22,3.71A18.15,18.15,0,0,0,32,89.2a11.43,11.43,0,0,0-.38,2.42c0,1.27,0,2.69.08,4.25a32.31,32.31,0,0,0,.49,4.68,19.28,19.28,0,0,0,1.42,4.52,12.1,12.1,0,0,0,2.84,3.87,14.12,14.12,0,0,0,4.71,2.75,20.54,20.54,0,0,0,7.17,1.08,16.13,16.13,0,0,0,6-.88,15,15,0,0,0,4.37-2.46,13.8,13.8,0,0,0,2.95-3.33,19.5,19.5,0,0,0,1.8-3.6,17.58,17.58,0,0,0,.88-3.18A15.16,15.16,0,0,0,64.57,97.21Z"/></svg>