<svg id="Layer_3" data-name="Layer 3" xmlns="http://www.w3.org/2000/svg" xmlns:xlink="http://www.w3.org/1999/xlink" viewBox="0 0 185 246"><defs><style>.cls-1{fill:url(#linear-gradient);}.cls-2{fill:url(#linear-gradient-2);}.cls-3{fill:#2b2b2b;}</style><linearGradient id="linear-gradient" x1="-572.36" y1="-3046.15" x2="-571.36" y2="-3046.15" gradientTransform="matrix(0, -246, -246, 0, -749260.76, -140555.34)" gradientUnits="userSpaceOnUse"><stop offset="0" stop-color="#e6e6e6"/><stop offset="1" stop-color="#fff"/></linearGradient><linearGradient id="linear-gradient-2" x1="-588.61" y1="-3042.56" x2="-587.61" y2="-3042.56" gradientTransform="matrix(0, -100.88, -100.88, 0, -306794.77, -59147.47)" gradientUnits="userSpaceOnUse"><stop offset="0" stop-color="#1e1e1e"/><stop offset="1" stop-color="#3c3c3c"/></linearGradient></defs><rect class="cls-1" width="185" height="246" rx="9.95"/><path class="cls-2" d="M166.21,182.06A20.89,20.89,0,0,0,136,165.54a20.92,20.92,0,1,0-24.28,0,20.91,20.91,0,1,0,2,36.18l-13.36,23.15a2.42,2.42,0,0,0,2.09,3.63h42.75a2.42,2.42,0,0,0,2.1-3.63L134,201.72a20.9,20.9,0,0,0,32.23-19.66Z"/><polygon class="cls-3" points="25.36 17.23 89.63 17.23 89.63 33.42 51.38 130.13 33.34 130.13 71.51 33.42 41.54 33.42 41.54 49.75 25.36 49.75 25.36 17.23"/></svg>