<svg id="Layer_3" data-name="Layer 3" xmlns="http://www.w3.org/2000/svg" xmlns:xlink="http://www.w3.org/1999/xlink" viewBox="0 0 185 246"><defs><style>.cls-1{fill:url(#linear-gradient);}.cls-2{fill:url(#linear-gradient-2);}.cls-3{fill:#bc4444;}</style><linearGradient id="linear-gradient" x1="-572.47" y1="-3627.16" x2="-571.47" y2="-3627.16" gradientTransform="matrix(0, -246, -246, 0, -892189.15, -140582.01)" gradientUnits="userSpaceOnUse"><stop offset="0" stop-color="#e6e6e6"/><stop offset="1" stop-color="#fff"/></linearGradient><linearGradient id="linear-gradient-2" x1="-596.94" y1="-3621.8" x2="-595.94" y2="-3621.8" gradientTransform="matrix(0, -78.18, -78.18, 0, -283035.04, -46452.96)" gradientUnits="userSpaceOnUse"><stop offset="0" stop-color="#b73737"/><stop offset="1" stop-color="#c45757"/></linearGradient></defs><rect class="cls-1" width="185" height="246" rx="9.95"/><path class="cls-2" d="M146.48,138.91c-16.62,0-22.48,15.64-22.48,15.64s-5.86-15.64-22.48-15.64S81,157.48,81,163.34s1,30.3,43,53.75c42-23.45,43-47.89,43-53.75S163.09,138.91,146.48,138.91Z"/><polygon class="cls-3" points="22.36 19.4 86.63 19.4 86.63 35.58 48.38 132.29 30.34 132.29 68.51 35.58 38.54 35.58 38.54 51.92 22.36 51.92 22.36 19.4"/></svg>