<svg id="Layer_3" data-name="Layer 3" xmlns="http://www.w3.org/2000/svg" xmlns:xlink="http://www.w3.org/1999/xlink" viewBox="0 0 185 246"><defs><style>.cls-1{fill:url(#linear-gradient);}.cls-2{fill:url(#linear-gradient-2);}.cls-3{fill:#2b2b2b;}</style><linearGradient id="linear-gradient" x1="-800.88" y1="-3046.25" x2="-799.88" y2="-3046.25" gradientTransform="matrix(0, -246, -246, 0, -749285.15, -196770.06)" gradientUnits="userSpaceOnUse"><stop offset="0" stop-color="#e6e6e6"/><stop offset="1" stop-color="#fff"/></linearGradient><linearGradient id="linear-gradient-2" x1="-817.12" y1="-3042.81" x2="-816.12" y2="-3042.81" gradientTransform="matrix(0, -100.88, -100.88, 0, -306819.23, -82198.94)" gradientUnits="userSpaceOnUse"><stop offset="0" stop-color="#1e1e1e"/><stop offset="1" stop-color="#3c3c3c"/></linearGradient></defs><rect class="cls-1" width="185" height="246" rx="9.95"/><path class="cls-2" d="M166.21,182.06A20.89,20.89,0,0,0,136,165.54a20.92,20.92,0,1,0-24.28,0,20.91,20.91,0,1,0,2,36.18l-13.36,23.15a2.42,2.42,0,0,0,2.09,3.63h42.75a2.42,2.42,0,0,0,2.1-3.63L134,201.72a20.9,20.9,0,0,0,32.23-19.66Z"/><path class="cls-3" d="M19.33,97.36q.17-16.19,13.21-25.17a32.73,32.73,0,0,1-7.83-10.06,23.29,23.29,0,0,1-3.3-12.58q.15-14,9.44-23.11,8.74-9,22.56-9.21,14.06.16,23,9.21T85.5,49.55a25.1,25.1,0,0,1-3,12.58,37.56,37.56,0,0,1-8.13,10.06q13,9,13.2,25.17-.15,15.14-9.9,24.18-9.9,9.28-24.26,9.44-14.26-.15-23.87-9.44Q19.49,112.48,19.33,97.36Zm16.05-.15A16.78,16.78,0,0,0,40.9,109.8a17,17,0,0,0,12.51,5.14,17.27,17.27,0,0,0,12.74-5.14,17.06,17.06,0,0,0,5.38-12.59,17.23,17.23,0,0,0-5.38-12.74,18.44,18.44,0,0,0-12.74-5,18.19,18.19,0,0,0-12.51,5A17,17,0,0,0,35.38,97.21Zm2.07-48q.15,7.75,5,11.82a16.06,16.06,0,0,0,11,4.22,16.36,16.36,0,0,0,11.21-4.22Q69.3,57,69.46,49.24q-.17-8-4.84-12.05a17.09,17.09,0,0,0-11.21-3.91,16.76,16.76,0,0,0-11,3.91Q37.6,41.26,37.45,49.24Z"/></svg>