<svg id="Layer_3" data-name="Layer 3" xmlns="http://www.w3.org/2000/svg" xmlns:xlink="http://www.w3.org/1999/xlink" viewBox="0 0 185 246"><defs><style>.cls-1{fill:url(#linear-gradient);}.cls-2{fill:url(#linear-gradient-2);}.cls-3{fill:#bc4444;}</style><linearGradient id="linear-gradient" x1="-800.99" y1="-3627.26" x2="-799.99" y2="-3627.26" gradientTransform="matrix(0, -246, -246, 0, -892213.66, -196796.74)" gradientUnits="userSpaceOnUse"><stop offset="0" stop-color="#e6e6e6"/><stop offset="1" stop-color="#fff"/></linearGradient><linearGradient id="linear-gradient-2" x1="-825.46" y1="-3622.12" x2="-824.46" y2="-3622.12" gradientTransform="matrix(0, -78.18, -78.18, 0, -283059.56, -64318.69)" gradientUnits="userSpaceOnUse"><stop offset="0" stop-color="#b73737"/><stop offset="1" stop-color="#c45757"/></linearGradient></defs><rect class="cls-1" width="185" height="246" rx="9.95"/><path class="cls-2" d="M146.48,138.91c-16.62,0-22.48,15.64-22.48,15.64s-5.86-15.64-22.48-15.64S81,157.48,81,163.34s1,30.3,43,53.75c42-23.45,43-47.89,43-53.75S163.09,138.91,146.48,138.91Z"/><path class="cls-3" d="M16.33,99.53q.17-16.2,13.21-25.18a32.58,32.58,0,0,1-7.83-10,23.33,23.33,0,0,1-3.3-12.59q.15-14,9.44-23.1,8.74-9.06,22.56-9.21,14.06.15,23,9.21t9.14,23.1a25.14,25.14,0,0,1-3,12.59,37.37,37.37,0,0,1-8.13,10q13,9,13.2,25.18-.15,15.12-9.9,24.18-9.9,9.29-24.26,9.44-14.26-.15-23.87-9.44Q16.49,114.65,16.33,99.53Zm16.05-.15A16.76,16.76,0,0,0,37.9,112a17,17,0,0,0,12.51,5.15A17.28,17.28,0,0,0,63.15,112a17,17,0,0,0,5.38-12.58,17.22,17.22,0,0,0-5.38-12.74,18.4,18.4,0,0,0-12.74-5,18.14,18.14,0,0,0-12.51,5A16.93,16.93,0,0,0,32.38,99.38Zm2.07-48q.15,7.74,5,11.82a16.06,16.06,0,0,0,11,4.22,16.36,16.36,0,0,0,11.21-4.22q4.68-4.08,4.84-11.82-.17-8-4.84-12a17.1,17.1,0,0,0-11.21-3.92,16.77,16.77,0,0,0-11,3.92Q34.6,43.43,34.45,51.41Z"/></svg>