<svg id="Layer_3" data-name="Layer 3" xmlns="http://www.w3.org/2000/svg" xmlns:xlink="http://www.w3.org/1999/xlink" viewBox="0 0 185 246"><defs><style>.cls-1{fill:url(#linear-gradient);}.cls-2{fill:url(#linear-gradient-2);}.cls-3{fill:#2b2b2b;}</style><linearGradient id="linear-gradient" x1="-800.81" y1="-2755.75" x2="-799.81" y2="-2755.75" gradientTransform="matrix(0, -246, -246, 0, -677820.83, -196753.73)" gradientUnits="userSpaceOnUse"><stop offset="0" stop-color="#e6e6e6"/><stop offset="1" stop-color="#fff"/></linearGradient><linearGradient id="linear-gradient-2" x1="-816.92" y1="-2752.24" x2="-815.92" y2="-2752.24" gradientTransform="matrix(0, -100.88, -100.88, 0, -277515.88, -82183.23)" gradientUnits="userSpaceOnUse"><stop offset="0" stop-color="#1e1e1e"/><stop offset="1" stop-color="#3c3c3c"/></linearGradient></defs><rect class="cls-1" width="185" height="246" rx="9.95"/><path class="cls-2" d="M153.16,161.62c-5.07-6.54-12.22-12.21-17.42-17.94-1.19-1.31-18.61-20-18-20.68q-8.48,10.16-17.36,20c-4.38,4.84-8.85,9.47-13.5,14S78,166.66,76.58,173.05a26.81,26.81,0,0,0,1.79,16A28,28,0,0,0,88,201.45c6.79,4.7,15,4.38,22.27,1l-9.13,18.25a2.23,2.23,0,0,0,2,3.22h29.3a2.22,2.22,0,0,0,2-3.22q-4.56-9.14-9.11-18.29a21.62,21.62,0,0,0,21.88-.68,26.66,26.66,0,0,0,9.26-11.08c3.08-6.49,4.07-14.2,1.49-20.9A32,32,0,0,0,153.16,161.62Z"/><path class="cls-3" d="M19.33,95.65q.17-16.2,13.21-25.17a32.73,32.73,0,0,1-7.83-10.06,23.33,23.33,0,0,1-3.3-12.59q.15-14,9.44-23.1,8.74-9.06,22.56-9.21,14.06.15,23,9.21t9.14,23.1a25.14,25.14,0,0,1-3,12.59,37.56,37.56,0,0,1-8.13,10.06q13,9,13.2,25.17-.15,15.12-9.9,24.18-9.9,9.29-24.26,9.44-14.26-.15-23.87-9.44Q19.49,110.77,19.33,95.65Zm16.05-.15a16.76,16.76,0,0,0,5.52,12.58,17,17,0,0,0,12.51,5.15,17.28,17.28,0,0,0,12.74-5.15A17,17,0,0,0,71.53,95.5a17.22,17.22,0,0,0-5.38-12.74,18.4,18.4,0,0,0-12.74-5,18.14,18.14,0,0,0-12.51,5A16.93,16.93,0,0,0,35.38,95.5Zm2.07-48q.15,7.74,5,11.82a16.06,16.06,0,0,0,11,4.22,16.36,16.36,0,0,0,11.21-4.22q4.68-4.08,4.84-11.82-.17-8-4.84-12.05a17.1,17.1,0,0,0-11.21-3.92,16.77,16.77,0,0,0-11,3.92Q37.6,39.55,37.45,47.53Z"/></svg>