<svg id="Layer_3" data-name="Layer 3" xmlns="http://www.w3.org/2000/svg" xmlns:xlink="http://www.w3.org/1999/xlink" viewBox="0 0 185 246"><defs><style>.cls-1{fill:url(#linear-gradient);}.cls-2{fill:url(#linear-gradient-2);}.cls-3{fill:#2b2b2b;}</style><linearGradient id="linear-gradient" x1="-1027.9" y1="-3046.34" x2="-1026.9" y2="-3046.34" gradientTransform="matrix(0, -246, -246, 0, -749308.3, -252618.47)" gradientUnits="userSpaceOnUse"><stop offset="0" stop-color="#e6e6e6"/><stop offset="1" stop-color="#fff"/></linearGradient><linearGradient id="linear-gradient-2" x1="-1044.15" y1="-3043.04" x2="-1043.15" y2="-3043.04" gradientTransform="matrix(0, -100.88, -100.88, 0, -306842.31, -105100.19)" gradientUnits="userSpaceOnUse"><stop offset="0" stop-color="#1e1e1e"/><stop offset="1" stop-color="#3c3c3c"/></linearGradient></defs><rect class="cls-1" width="185" height="246" rx="9.95"/><path class="cls-2" d="M166.21,182.06A20.89,20.89,0,0,0,136,165.54a20.92,20.92,0,1,0-24.28,0,20.91,20.91,0,1,0,2,36.18l-13.36,23.15a2.42,2.42,0,0,0,2.09,3.63h42.75a2.42,2.42,0,0,0,2.1-3.63L134,201.72a20.9,20.9,0,0,0,32.23-19.66Z"/><path class="cls-3" d="M35.62,130.53a27.23,27.23,0,0,1,1.31-2.82l3.63-7.3q2.25-4.48,5-10l5.48-10.81q2.7-5.34,5.06-9.82c1.58-3,2.85-5.33,3.83-7a12.14,12.14,0,0,1-5.06,1.59,47.25,47.25,0,0,1-6.53.11,23.63,23.63,0,0,1-8.93-1.85,24.08,24.08,0,0,1-6.6-4.25A24.8,24.8,0,0,1,28.2,72.7a39.13,39.13,0,0,1-3-6.1A33.91,33.91,0,0,1,23.61,61,22.27,22.27,0,0,1,23.1,57c0-.31,0-.88,0-1.7s0-1.74,0-2.75,0-2,0-3.05a22.48,22.48,0,0,1,.2-2.63c0-.36.22-1.27.5-2.74a33.54,33.54,0,0,1,1.58-5.29,43.07,43.07,0,0,1,3.25-6.61A29.42,29.42,0,0,1,34,25.61a31.19,31.19,0,0,1,8.26-5.33,35.62,35.62,0,0,1,11.63-2.86,35.12,35.12,0,0,1,12.4.85,28.51,28.51,0,0,1,9.24,4.25A26.32,26.32,0,0,1,82,29a35.07,35.07,0,0,1,4,7.53A33.59,33.59,0,0,1,87.85,44,25.47,25.47,0,0,1,88,50.1c-.31,2.52-.65,4.78-1,6.76s-.78,3.88-1.27,5.68-1,3.58-1.66,5.33-1.34,3.66-2.17,5.72c-.21.57-.76,1.8-1.66,3.71s-2,4.23-3.4,7S74,90.11,72.36,93.48s-3.28,6.77-5,10.16L54.09,130.53ZM39.1,48.94q0,3,.31,6.65a19.79,19.79,0,0,0,1.81,6.83A14,14,0,0,0,46,67.91q3.26,2.28,9.12,2.59a13.12,13.12,0,0,0,5.33-.74,15.2,15.2,0,0,0,4.25-2.35,17.08,17.08,0,0,0,3.21-3.32,24.34,24.34,0,0,0,2.24-3.68,16.67,16.67,0,0,0,1.27-3.36,10.65,10.65,0,0,0,.39-2.47c0-1.29-.09-2.73-.12-4.33a31.42,31.42,0,0,0-.46-4.86,19.9,19.9,0,0,0-1.43-4.75,11.73,11.73,0,0,0-2.86-4A12.82,12.82,0,0,0,62.16,34a19.7,19.7,0,0,0-7.22-.73,14.51,14.51,0,0,0-7.85,2.39,19.12,19.12,0,0,0-4.83,4.79,18,18,0,0,0-2.47,5.1A15.44,15.44,0,0,0,39.1,48.94Z"/></svg>