<svg id="Layer_3" data-name="Layer 3" xmlns="http://www.w3.org/2000/svg" xmlns:xlink="http://www.w3.org/1999/xlink" viewBox="0 0 185 246"><defs><style>.cls-1{fill:url(#linear-gradient);}.cls-2{fill:url(#linear-gradient-2);}.cls-3{fill:#bc4444;}</style><linearGradient id="linear-gradient" x1="-1028.01" y1="-3627.35" x2="-1027.01" y2="-3627.35" gradientTransform="matrix(0, -246, -246, 0, -892236.69, -252645.15)" gradientUnits="userSpaceOnUse"><stop offset="0" stop-color="#e6e6e6"/><stop offset="1" stop-color="#fff"/></linearGradient><linearGradient id="linear-gradient-2" x1="-1052.49" y1="-3622.41" x2="-1051.49" y2="-3622.41" gradientTransform="matrix(0, -78.18, -78.18, 0, -283082.58, -82068)" gradientUnits="userSpaceOnUse"><stop offset="0" stop-color="#b73737"/><stop offset="1" stop-color="#c45757"/></linearGradient></defs><rect class="cls-1" width="185" height="246" rx="9.95"/><path class="cls-2" d="M146.48,138.91c-16.62,0-22.48,15.64-22.48,15.64s-5.86-15.64-22.48-15.64S81,157.48,81,163.34s1,30.3,43,53.75c42-23.45,43-47.89,43-53.75S163.09,138.91,146.48,138.91Z"/><path class="cls-3" d="M32.62,132.7a27.23,27.23,0,0,1,1.31-2.82c.93-1.88,2.14-4.32,3.63-7.3s3.17-6.31,5-10l5.48-10.82q2.7-5.33,5.06-9.81C54.71,89,56,86.65,57,85a12.27,12.27,0,0,1-5.06,1.58,48.73,48.73,0,0,1-6.53.12,23.44,23.44,0,0,1-8.93-1.86,24.08,24.08,0,0,1-6.6-4.25,25,25,0,0,1-4.64-5.67,39.21,39.21,0,0,1-3-6.11,33.81,33.81,0,0,1-1.62-5.56,22.46,22.46,0,0,1-.51-4.06c0-.31,0-.87,0-1.7s0-1.74,0-2.74,0-2,0-3.05a22.31,22.31,0,0,1,.2-2.63c0-.36.22-1.27.5-2.74A33.93,33.93,0,0,1,22.34,41a42.55,42.55,0,0,1,3.25-6.6A29.25,29.25,0,0,1,31,27.77a31.44,31.44,0,0,1,8.26-5.33,35.88,35.88,0,0,1,11.63-2.86,35.35,35.35,0,0,1,12.4.85,28.72,28.72,0,0,1,9.24,4.25A26.67,26.67,0,0,1,79,31.17a35.14,35.14,0,0,1,4,7.54,33.51,33.51,0,0,1,1.89,7.41A25.56,25.56,0,0,1,85,52.27q-.47,3.78-1,6.76T82.73,64.7c-.49,1.81-1,3.59-1.66,5.34s-1.34,3.65-2.17,5.71c-.21.57-.76,1.81-1.66,3.71s-2,4.24-3.4,7S71,92.28,69.36,95.65s-3.28,6.76-5,10.16L51.09,132.7ZM36.1,51.11q0,3,.31,6.64a19.91,19.91,0,0,0,1.81,6.84A13.91,13.91,0,0,0,43,70.07c2.17,1.52,5.21,2.39,9.12,2.59a13.12,13.12,0,0,0,5.33-.73,15.22,15.22,0,0,0,4.25-2.36,16.8,16.8,0,0,0,3.21-3.32,24.77,24.77,0,0,0,2.24-3.67,16.89,16.89,0,0,0,1.27-3.36,10.73,10.73,0,0,0,.39-2.47c0-1.29-.09-2.73-.12-4.33a31.43,31.43,0,0,0-.46-4.87,20,20,0,0,0-1.43-4.75,11.73,11.73,0,0,0-2.86-4,13,13,0,0,0-4.75-2.66,19.68,19.68,0,0,0-7.22-.74,14.51,14.51,0,0,0-7.85,2.4,19.12,19.12,0,0,0-4.83,4.79,18,18,0,0,0-2.47,5.1A15.44,15.44,0,0,0,36.1,51.11Z"/></svg>