<svg id="Layer_3" data-name="Layer 3" xmlns="http://www.w3.org/2000/svg" xmlns:xlink="http://www.w3.org/1999/xlink" viewBox="0 0 185 246"><defs><style>.cls-1{fill:url(#linear-gradient);}.cls-2{fill:url(#linear-gradient-2);}.cls-3{fill:#2b2b2b;}</style><linearGradient id="linear-gradient" x1="-1027.84" y1="-2755.84" x2="-1026.84" y2="-2755.84" gradientTransform="matrix(0, -246, -246, 0, -677843.86, -252602.13)" gradientUnits="userSpaceOnUse"><stop offset="0" stop-color="#e6e6e6"/><stop offset="1" stop-color="#fff"/></linearGradient><linearGradient id="linear-gradient-2" x1="-1043.94" y1="-2752.44" x2="-1042.94" y2="-2752.44" gradientTransform="matrix(0, -100.88, -100.88, 0, -277538.91, -105084.59)" gradientUnits="userSpaceOnUse"><stop offset="0" stop-color="#1e1e1e"/><stop offset="1" stop-color="#3c3c3c"/></linearGradient></defs><rect class="cls-1" width="185" height="246" rx="9.95"/><path class="cls-2" d="M150.55,161.62c-5.06-6.54-12.21-12.21-17.41-17.94-1.19-1.31-18.62-20-18-20.68-5.64,6.77-11.45,13.42-17.36,20-4.38,4.84-8.84,9.47-13.49,14S75.42,166.66,74,173.05a26.81,26.81,0,0,0,1.79,16,27.94,27.94,0,0,0,9.57,12.42c6.79,4.7,15,4.38,22.27,1l-9.12,18.25a2.22,2.22,0,0,0,2,3.22h29.3a2.23,2.23,0,0,0,2-3.22q-4.57-9.14-9.12-18.29a21.64,21.64,0,0,0,21.89-.68,26.66,26.66,0,0,0,9.26-11.08c3.07-6.49,4.07-14.2,1.49-20.9A31.77,31.77,0,0,0,150.55,161.62Z"/><path class="cls-3" d="M35.62,128.82A27.23,27.23,0,0,1,36.93,126c.93-1.88,2.14-4.32,3.63-7.3s3.17-6.31,5-10l5.48-10.82q2.7-5.32,5.06-9.81c1.58-3,2.85-5.33,3.83-7a12.27,12.27,0,0,1-5.06,1.58,48.73,48.73,0,0,1-6.53.12,23.44,23.44,0,0,1-8.93-1.86,24.08,24.08,0,0,1-6.6-4.25A25,25,0,0,1,28.2,71a39.21,39.21,0,0,1-3-6.11,33.81,33.81,0,0,1-1.62-5.56,22.46,22.46,0,0,1-.51-4.06c0-.31,0-.87,0-1.7s0-1.74,0-2.74,0-2,0-3a22.31,22.31,0,0,1,.2-2.63c0-.36.22-1.27.5-2.74a33.93,33.93,0,0,1,1.58-5.3,42.55,42.55,0,0,1,3.25-6.6A29.47,29.47,0,0,1,34,23.89a31.44,31.44,0,0,1,8.26-5.33A35.88,35.88,0,0,1,53.93,15.7a35.35,35.35,0,0,1,12.4.85,28.72,28.72,0,0,1,9.24,4.25A26.67,26.67,0,0,1,82,27.29a35.14,35.14,0,0,1,4,7.54,33.65,33.65,0,0,1,1.89,7.41A25.56,25.56,0,0,1,88,48.39q-.47,3.78-1,6.76t-1.27,5.68c-.49,1.8-1,3.58-1.66,5.33s-1.34,3.65-2.17,5.71c-.21.57-.76,1.81-1.66,3.71s-2,4.24-3.4,7S74,88.4,72.36,91.77s-3.28,6.76-5,10.16L54.09,128.82ZM39.1,47.23q0,3,.31,6.64a19.91,19.91,0,0,0,1.81,6.84A14,14,0,0,0,46,66.2c2.17,1.51,5.21,2.38,9.12,2.58a13.12,13.12,0,0,0,5.33-.73,15.22,15.22,0,0,0,4.25-2.36,16.8,16.8,0,0,0,3.21-3.32,24.77,24.77,0,0,0,2.24-3.67,16.89,16.89,0,0,0,1.27-3.36,10.73,10.73,0,0,0,.39-2.47c0-1.29-.09-2.73-.12-4.33a31.43,31.43,0,0,0-.46-4.87,20,20,0,0,0-1.43-4.75,11.73,11.73,0,0,0-2.86-4,13,13,0,0,0-4.75-2.66,19.68,19.68,0,0,0-7.22-.74,14.6,14.6,0,0,0-7.85,2.4,19.12,19.12,0,0,0-4.83,4.79,18,18,0,0,0-2.47,5.1A15.44,15.44,0,0,0,39.1,47.23Z"/></svg>