<svg id="Layer_3" data-name="Layer 3" xmlns="http://www.w3.org/2000/svg" xmlns:xlink="http://www.w3.org/1999/xlink" viewBox="0 0 185 246"><defs><style>.cls-1{fill:url(#linear-gradient);}.cls-2{fill:url(#linear-gradient-2);}.cls-3{fill:#2b2b2b;}</style><linearGradient id="linear-gradient" x1="92.14" y1="-3045.94" x2="93.14" y2="-3045.94" gradientTransform="matrix(0, -246, -246, 0, -749208.26, 22912.29)" gradientUnits="userSpaceOnUse"><stop offset="0" stop-color="#e6e6e6"/><stop offset="1" stop-color="#fff"/></linearGradient><linearGradient id="linear-gradient-2" x1="75.89" y1="-3042.04" x2="76.89" y2="-3042.04" gradientTransform="matrix(0, -100.88, -100.88, 0, -306742.26, 7884.22)" gradientUnits="userSpaceOnUse"><stop offset="0" stop-color="#1e1e1e"/><stop offset="1" stop-color="#3c3c3c"/></linearGradient></defs><rect class="cls-1" width="185" height="246" rx="9.95"/><path class="cls-2" d="M166.21,182.06A20.89,20.89,0,0,0,136,165.54a20.92,20.92,0,1,0-24.28,0,20.91,20.91,0,1,0,2,36.18l-13.36,23.15a2.42,2.42,0,0,0,2.09,3.63h42.75a2.42,2.42,0,0,0,2.1-3.63L134,201.72a20.9,20.9,0,0,0,32.23-19.66Z"/><polygon class="cls-3" points="17.95 98.26 55.75 17.23 73.83 17.23 35.57 98.26 65.14 98.26 65.14 65.74 81.36 65.74 81.36 98.26 90.36 98.26 90.36 113.56 81.36 113.56 81.36 130.4 65.14 130.4 65.14 113.56 17.95 113.56 17.95 98.26"/></svg>