<svg id="Layer_3" data-name="Layer 3" xmlns="http://www.w3.org/2000/svg" xmlns:xlink="http://www.w3.org/1999/xlink" viewBox="0 0 185 246"><defs><style>.cls-1{fill:url(#linear-gradient);}.cls-2{fill:url(#linear-gradient-2);}.cls-3{fill:#2b2b2b;}</style><linearGradient id="linear-gradient" x1="-2120.43" y1="-3046.64" x2="-2119.43" y2="-3046.64" gradientTransform="matrix(0, -246, -246, 0, -749380.83, -521380.56)" gradientUnits="userSpaceOnUse"><stop offset="0" stop-color="#e6e6e6"/><stop offset="1" stop-color="#fff"/></linearGradient><linearGradient id="linear-gradient-2" x1="-2136.68" y1="-3043.75" x2="-2135.68" y2="-3043.75" gradientTransform="matrix(0, -100.88, -100.88, 0, -306914.84, -215309.03)" gradientUnits="userSpaceOnUse"><stop offset="0" stop-color="#1e1e1e"/><stop offset="1" stop-color="#3c3c3c"/></linearGradient></defs><rect class="cls-1" width="185" height="246" rx="9.95"/><path class="cls-2" d="M166.21,182.06A20.89,20.89,0,0,0,136,165.54a20.92,20.92,0,1,0-24.28,0,20.91,20.91,0,1,0,2,36.18l-13.36,23.15a2.42,2.42,0,0,0,2.09,3.63h42.75a2.42,2.42,0,0,0,2.1-3.63L134,201.72a20.9,20.9,0,0,0,32.23-19.66Z"/><path class="cls-3" d="M82,104.89H39.21l-8.67,25.25H12.42l41-112.91H67.79l41,112.91h-18ZM77.16,89.72,60.82,40.39h-.31L44.17,89.72Z"/></svg>