<svg id="Layer_3" data-name="Layer 3" xmlns="http://www.w3.org/2000/svg" xmlns:xlink="http://www.w3.org/1999/xlink" viewBox="0 0 185 246"><defs><style>.cls-1{fill:url(#linear-gradient);}.cls-2{fill:url(#linear-gradient-2);}.cls-3{fill:#2b2b2b;}</style><linearGradient id="linear-gradient" x1="-1466.42" y1="-3046.47" x2="-1465.42" y2="-3046.47" gradientTransform="matrix(0, -246, -246, 0, -749338.82, -360493.62)" gradientUnits="userSpaceOnUse"><stop offset="0" stop-color="#e6e6e6"/><stop offset="1" stop-color="#fff"/></linearGradient><linearGradient id="linear-gradient-2" x1="-1482.67" y1="-3043.34" x2="-1481.67" y2="-3043.34" gradientTransform="matrix(0, -100.88, -100.88, 0, -306872.82, -149335.58)" gradientUnits="userSpaceOnUse"><stop offset="0" stop-color="#1e1e1e"/><stop offset="1" stop-color="#3c3c3c"/></linearGradient></defs><rect class="cls-1" width="185" height="246" rx="9.95"/><path class="cls-2" d="M166.21,182.06A20.89,20.89,0,0,0,136,165.54a20.92,20.92,0,1,0-24.28,0,20.91,20.91,0,1,0,2,36.18l-13.36,23.15a2.42,2.42,0,0,0,2.09,3.63h42.75a2.42,2.42,0,0,0,2.1-3.63L134,201.72a20.9,20.9,0,0,0,32.23-19.66Z"/><path class="cls-3" d="M38.35,111.51a16.3,16.3,0,0,0,8.9,2.4,20,20,0,0,0,13-4.73A16,16,0,0,0,65,102.84a22.5,22.5,0,0,0,1.78-9.52V17.23h17.1V95q-.31,17-11.15,26.32a37.2,37.2,0,0,1-25,9.67q-19.66-.47-29.34-14.71l13.78-10A18.53,18.53,0,0,0,38.35,111.51Z"/></svg>