<svg id="Layer_3" data-name="Layer 3" xmlns="http://www.w3.org/2000/svg" xmlns:xlink="http://www.w3.org/1999/xlink" viewBox="0 0 185 246"><defs><style>.cls-1{fill:url(#linear-gradient);}.cls-2{fill:url(#linear-gradient-2);}.cls-3{fill:#2b2b2b;}</style><linearGradient id="linear-gradient" x1="-1687.4" y1="-3046.54" x2="-1686.4" y2="-3046.54" gradientTransform="matrix(0, -246, -246, 0, -749355.79, -414853.61)" gradientUnits="userSpaceOnUse"><stop offset="0" stop-color="#e6e6e6"/><stop offset="1" stop-color="#fff"/></linearGradient><linearGradient id="linear-gradient-2" x1="-1703.64" y1="-3043.51" x2="-1702.64" y2="-3043.51" gradientTransform="matrix(0, -100.88, -100.88, 0, -306889.8, -171626.49)" gradientUnits="userSpaceOnUse"><stop offset="0" stop-color="#1e1e1e"/><stop offset="1" stop-color="#3c3c3c"/></linearGradient></defs><rect class="cls-1" width="185" height="246" rx="9.95"/><path class="cls-2" d="M166.21,182.06A20.89,20.89,0,0,0,136,165.54a20.92,20.92,0,1,0-24.28,0,20.91,20.91,0,1,0,2,36.18l-13.36,23.15a2.42,2.42,0,0,0,2.09,3.63h42.75a2.42,2.42,0,0,0,2.1-3.63L134,201.72a20.9,20.9,0,0,0,32.23-19.66Z"/><path class="cls-3" d="M79.3,121Q69.43,130.4,53,130.7q-13.17-.3-22-6.43-9-5.89-13-13.63-1.21-2.52-2.22-4.82a31.68,31.68,0,0,1-1.53-6Q13.08,93.1,13.07,74q0-19.45,1.15-26A31.07,31.07,0,0,1,18,37.29Q22,29.57,31,23.51t22-6.28q13.32.16,22.21,6.28T87.88,37.29a25.74,25.74,0,0,1,3.9,10.65q1,6.59,1,26,0,17.37-.77,24.27A29.27,29.27,0,0,1,88.72,109l14.7,11.71-10,11.64ZM51.2,98.54,61.23,87l13,10.34q1.6-5.67,1.6-23.35,0-16.47-1.14-22.44a19.62,19.62,0,0,0-4.52-9.26,20.14,20.14,0,0,0-6.74-5.74A24.75,24.75,0,0,0,53,34.15,23.52,23.52,0,0,0,42.7,36.53a21.21,21.21,0,0,0-7,5.74,18.41,18.41,0,0,0-4.36,9.26q-1.23,6-1.23,22.44T31.3,96.25a18.45,18.45,0,0,0,4.36,9.41,19.71,19.71,0,0,0,7,5.59A19.81,19.81,0,0,0,53,113.78q7.82,0,12.48-3.9Z"/></svg>