<svg id="Layer_3" data-name="Layer 3" xmlns="http://www.w3.org/2000/svg" xmlns:xlink="http://www.w3.org/1999/xlink" viewBox="0 0 185 246"><defs><style>.cls-1{fill:url(#linear-gradient);}.cls-2{fill:url(#linear-gradient-2);}.cls-3{fill:#bc4444;}</style><linearGradient id="linear-gradient" x1="-128.86" y1="-3336.5" x2="-127.86" y2="-3336.5" gradientTransform="matrix(0, -246, -246, 0, -820687.64, -31454.35)" gradientUnits="userSpaceOnUse"><stop offset="0" stop-color="#e6e6e6"/><stop offset="1" stop-color="#fff"/></linearGradient><linearGradient id="linear-gradient-2" x1="-145.2" y1="-3332.7" x2="-144.2" y2="-3332.7" gradientTransform="matrix(0, -100.88, -100.88, 0, -336061.86, -14418.23)" gradientUnits="userSpaceOnUse"><stop offset="0" stop-color="#b73737"/><stop offset="1" stop-color="#c45757"/></linearGradient></defs><rect class="cls-1" width="185" height="246" rx="9.95"/><polygon class="cls-2" points="84.29 178 124 228.44 163.71 178 124 127.56 84.29 178"/><path class="cls-3" d="M24.66,21.94H84.47V38H39.82V63.44a28.26,28.26,0,0,1,17.94-6.16,33.69,33.69,0,0,1,11.85,2.31,25.71,25.71,0,0,1,8.24,5.85,27.26,27.26,0,0,1,6.78,10.7,38.51,38.51,0,0,1,1.53,8.08q.47,4.86.47,11.93,0,10.93-1.54,16.79a27,27,0,0,1-5.39,10.24,31.5,31.5,0,0,1-9.62,8,28.54,28.54,0,0,1-14.63,3.93,35,35,0,0,1-20.86-6.78Q25,121.4,22.65,105.93H38.74Q41.37,118.86,54.83,119q5.78,0,9.24-2.31a11.72,11.72,0,0,0,4.62-5.85A27.33,27.33,0,0,0,70.38,103c.11-2.78.16-5.47.16-8.09q.15-9.61-3-15.62a12,12,0,0,0-5-4.55,21.49,21.49,0,0,0-8.24-1.38,16.29,16.29,0,0,0-8,2,18.18,18.18,0,0,0-6.47,7.24H24.66Z"/></svg>