<svg id="Layer_3" data-name="Layer 3" xmlns="http://www.w3.org/2000/svg" xmlns:xlink="http://www.w3.org/1999/xlink" viewBox="0 0 185 246"><defs><style>.cls-1{fill:url(#linear-gradient);}.cls-2{fill:url(#linear-gradient-2);}.cls-3{fill:#bc4444;}</style><linearGradient id="linear-gradient" x1="-800.93" y1="-3336.74" x2="-799.93" y2="-3336.74" gradientTransform="matrix(0, -246, -246, 0, -820746.22, -196783.4)" gradientUnits="userSpaceOnUse"><stop offset="0" stop-color="#e6e6e6"/><stop offset="1" stop-color="#fff"/></linearGradient><linearGradient id="linear-gradient-2" x1="-817.26" y1="-3333.28" x2="-816.26" y2="-3333.28" gradientTransform="matrix(0, -100.88, -100.88, 0, -336120.44, -82212.34)" gradientUnits="userSpaceOnUse"><stop offset="0" stop-color="#b73737"/><stop offset="1" stop-color="#c45757"/></linearGradient></defs><rect class="cls-1" width="185" height="246" rx="9.95"/><polygon class="cls-2" points="84.29 178 124 228.44 163.71 178 124 127.56 84.29 178"/><path class="cls-3" d="M18.83,100.58Q19,84.38,32,75.4a32.81,32.81,0,0,1-7.83-10.05,23.35,23.35,0,0,1-3.3-12.59q.15-14,9.44-23.11,8.74-9,22.56-9.21,14.06.16,23,9.21T85,52.76a25.17,25.17,0,0,1-3,12.59A37.68,37.68,0,0,1,73.87,75.4q13,9,13.2,25.18-.15,15.12-9.9,24.17-9.9,9.28-24.26,9.44Q38.64,134,29,124.75,19,115.71,18.83,100.58Zm16.05-.16A16.78,16.78,0,0,0,40.4,113a17,17,0,0,0,12.51,5.14A17.27,17.27,0,0,0,65.65,113,17.06,17.06,0,0,0,71,100.42a17.23,17.23,0,0,0-5.38-12.74,18.44,18.44,0,0,0-12.74-5,18.19,18.19,0,0,0-12.51,5A17,17,0,0,0,34.88,100.42Zm2.07-48q.15,7.75,5,11.82a16,16,0,0,0,11,4.22,16.31,16.31,0,0,0,11.21-4.22Q68.8,60.21,69,52.45q-.17-8-4.84-12.05a17.09,17.09,0,0,0-11.21-3.91,16.76,16.76,0,0,0-11,3.91Q37.1,44.47,37,52.45Z"/></svg>