<svg id="Layer_3" data-name="Layer 3" xmlns="http://www.w3.org/2000/svg" xmlns:xlink="http://www.w3.org/1999/xlink" viewBox="0 0 185 246"><defs><style>.cls-1{fill:url(#linear-gradient);}.cls-2{fill:url(#linear-gradient-2);}.cls-3{fill:#bc4444;}</style><linearGradient id="linear-gradient" x1="-1027.96" y1="-3336.83" x2="-1026.96" y2="-3336.83" gradientTransform="matrix(0, -246, -246, 0, -820768.74, -252631.31)" gradientUnits="userSpaceOnUse"><stop offset="0" stop-color="#e6e6e6"/><stop offset="1" stop-color="#fff"/></linearGradient><linearGradient id="linear-gradient-2" x1="-1044.28" y1="-3333.5" x2="-1043.28" y2="-3333.5" gradientTransform="matrix(0, -100.88, -100.88, 0, -336142.96, -105113.09)" gradientUnits="userSpaceOnUse"><stop offset="0" stop-color="#b73737"/><stop offset="1" stop-color="#c45757"/></linearGradient></defs><rect class="cls-1" width="185" height="246" rx="9.95"/><polygon class="cls-2" points="84.29 178 124 228.44 163.71 178 124 127.56 84.29 178"/><path class="cls-3" d="M30.62,130.24a27.23,27.23,0,0,1,1.31-2.82l3.63-7.3q2.25-4.49,5-10l5.48-10.81q2.7-5.34,5.06-9.82c1.58-3,2.85-5.33,3.83-7a12.14,12.14,0,0,1-5.06,1.59,47.25,47.25,0,0,1-6.53.11,23.63,23.63,0,0,1-8.93-1.85,24.08,24.08,0,0,1-6.6-4.25,24.8,24.8,0,0,1-4.64-5.68,39.13,39.13,0,0,1-3-6.1,33.91,33.91,0,0,1-1.62-5.57,22.27,22.27,0,0,1-.51-4.05c0-.31,0-.88,0-1.7s0-1.74,0-2.75,0-2,0-3.05a22.12,22.12,0,0,1,.2-2.62c0-.36.22-1.28.5-2.75a33.54,33.54,0,0,1,1.58-5.29,43.07,43.07,0,0,1,3.25-6.61A29.42,29.42,0,0,1,29,25.32,31.19,31.19,0,0,1,37.3,20a35.62,35.62,0,0,1,11.63-2.86,35.35,35.35,0,0,1,12.4.85,28.51,28.51,0,0,1,9.24,4.25A26.32,26.32,0,0,1,77,28.72a35.07,35.07,0,0,1,4,7.53,33.59,33.59,0,0,1,1.89,7.42A25.47,25.47,0,0,1,83,49.81c-.31,2.52-.65,4.78-1,6.76s-.78,3.88-1.27,5.68-1,3.58-1.66,5.33-1.34,3.66-2.17,5.72c-.21.57-.76,1.8-1.66,3.71s-2,4.23-3.4,7S69,89.82,67.36,93.19s-3.28,6.77-5,10.17L49.09,130.24ZM34.1,48.65q0,3,.31,6.65a19.79,19.79,0,0,0,1.81,6.83A14,14,0,0,0,41,67.62q3.26,2.28,9.12,2.59a13.12,13.12,0,0,0,5.33-.74,15.2,15.2,0,0,0,4.25-2.35,17.08,17.08,0,0,0,3.21-3.32,24.77,24.77,0,0,0,2.24-3.67,17,17,0,0,0,1.27-3.37,10.65,10.65,0,0,0,.39-2.47c0-1.29-.09-2.73-.12-4.33a31.42,31.42,0,0,0-.46-4.86,20,20,0,0,0-1.43-4.75,11.73,11.73,0,0,0-2.86-4,12.82,12.82,0,0,0-4.75-2.67A19.7,19.7,0,0,0,49.94,33a14.51,14.51,0,0,0-7.85,2.39,19.12,19.12,0,0,0-4.83,4.79,18,18,0,0,0-2.47,5.1A15.44,15.44,0,0,0,34.1,48.65Z"/></svg>