<svg id="Layer_3" data-name="Layer 3" xmlns="http://www.w3.org/2000/svg" xmlns:xlink="http://www.w3.org/1999/xlink" viewBox="0 0 185 246"><defs><style>.cls-1{fill:url(#linear-gradient);}.cls-2{fill:url(#linear-gradient-2);}.cls-3{fill:#bc4444;}</style><linearGradient id="linear-gradient" x1="-1687.44" y1="-3337.02" x2="-1686.44" y2="-3337.02" gradientTransform="matrix(0, -246, -246, 0, -820814.74, -414864.95)" gradientUnits="userSpaceOnUse"><stop offset="0" stop-color="#e6e6e6"/><stop offset="1" stop-color="#fff"/></linearGradient><linearGradient id="linear-gradient-2" x1="-1703.76" y1="-3333.96" x2="-1702.76" y2="-3333.96" gradientTransform="matrix(0, -100.88, -100.88, 0, -336188.96, -171637.89)" gradientUnits="userSpaceOnUse"><stop offset="0" stop-color="#b73737"/><stop offset="1" stop-color="#c45757"/></linearGradient></defs><rect class="cls-1" width="185" height="246" rx="9.95"/><polygon class="cls-2" points="84.29 178 124 228.44 163.71 178 124 127.56 84.29 178"/><path class="cls-3" d="M78.39,121.19q-9.89,9.42-26.34,9.72-13.17-.3-22-6.43-9-5.9-13-13.63-1.23-2.52-2.22-4.82a30.93,30.93,0,0,1-1.53-6q-1.16-6.75-1.15-25.88,0-19.46,1.15-26A30.65,30.65,0,0,1,17.06,37.5q4.05-7.72,13-13.78,8.81-6.12,22-6.28,13.32.16,22.2,6.28T87,37.5a25.6,25.6,0,0,1,3.9,10.65q1,6.59,1,26,0,17.37-.77,24.27a29.2,29.2,0,0,1-3.29,10.72l14.7,11.71-10,11.64ZM50.29,98.75l10-11.56,13,10.34q1.61-5.67,1.61-23.35,0-16.47-1.15-22.44a19.53,19.53,0,0,0-4.52-9.26,20.1,20.1,0,0,0-6.73-5.74,24.75,24.75,0,0,0-10.49-2.38,23.52,23.52,0,0,0-10.26,2.38,21.35,21.35,0,0,0-7,5.74,18.49,18.49,0,0,0-4.36,9.26q-1.23,6-1.22,22.44t1.22,22.28a18.53,18.53,0,0,0,4.36,9.41,19.72,19.72,0,0,0,7,5.59A19.81,19.81,0,0,0,52.05,114q7.8,0,12.48-3.9Z"/></svg>