<svg id="Layer_3" data-name="Layer 3" xmlns="http://www.w3.org/2000/svg" xmlns:xlink="http://www.w3.org/1999/xlink" viewBox="0 0 185 246"><defs><style>.cls-1{fill:url(#linear-gradient);}.cls-2{fill:url(#linear-gradient-2);}.cls-3{fill:#bc4444;}</style><linearGradient id="linear-gradient" x1="92.03" y1="-3626.95" x2="93.03" y2="-3626.95" gradientTransform="matrix(0, -246, -246, 0, -892136.64, 22885.61)" gradientUnits="userSpaceOnUse"><stop offset="0" stop-color="#e6e6e6"/><stop offset="1" stop-color="#fff"/></linearGradient><linearGradient id="linear-gradient-2" x1="67.56" y1="-3621.13" x2="68.56" y2="-3621.13" gradientTransform="matrix(0, -78.18, -78.18, 0, -282982.54, 5499.04)" gradientUnits="userSpaceOnUse"><stop offset="0" stop-color="#b73737"/><stop offset="1" stop-color="#c45757"/></linearGradient></defs><rect class="cls-1" width="185" height="246" rx="9.95"/><path class="cls-2" d="M146.48,138.91c-16.62,0-22.48,15.64-22.48,15.64s-5.86-15.64-22.48-15.64S81,157.48,81,163.34s1,30.3,43,53.75c42-23.45,43-47.89,43-53.75S163.09,138.91,146.48,138.91Z"/><polygon class="cls-3" points="14.95 100.43 52.75 19.4 70.83 19.4 32.57 100.43 62.14 100.43 62.14 67.91 78.36 67.91 78.36 100.43 87.36 100.43 87.36 115.72 78.36 115.72 78.36 132.56 62.14 132.56 62.14 115.72 14.95 115.72 14.95 100.43"/></svg>