<svg id="Layer_3" data-name="Layer 3" xmlns="http://www.w3.org/2000/svg" xmlns:xlink="http://www.w3.org/1999/xlink" viewBox="0 0 185 246"><defs><style>.cls-1{fill:url(#linear-gradient);}.cls-2{fill:url(#linear-gradient-2);}.cls-3{fill:url(#linear-gradient-3);}</style><linearGradient id="linear-gradient" x1="-2120.54" y1="-3627.62" x2="-2119.54" y2="-3627.62" gradientTransform="matrix(0, -246, -246, 0, -892302.22, -521407.24)" gradientUnits="userSpaceOnUse"><stop offset="0" stop-color="#e6e6e6"/><stop offset="1" stop-color="#fff"/></linearGradient><linearGradient id="linear-gradient-2" x1="-2145.01" y1="-3623.25" x2="-2144.01" y2="-3623.25" gradientTransform="matrix(0, -78.18, -78.18, 0, -283148.11, -167483.87)" gradientUnits="userSpaceOnUse"><stop offset="0" stop-color="#b73737"/><stop offset="1" stop-color="#c45757"/></linearGradient><linearGradient id="linear-gradient-3" x1="12.38" y1="76.35" x2="108.79" y2="76.35" gradientTransform="matrix(1, 0, 0, 1, 0, 0)" xlink:href="#linear-gradient-2"/></defs><rect class="cls-1" width="185" height="246" rx="9.95"/><path class="cls-2" d="M146.48,138.91c-16.62,0-22.48,15.64-22.48,15.64s-5.86-15.64-22.48-15.64S81,157.48,81,163.34s1,30.3,43,53.75c42-23.45,43-47.89,43-53.75S163.09,138.91,146.48,138.91Z"/><path class="cls-3" d="M82,107.55H39.18L30.5,132.8H12.38l41-112.91H67.75l41,112.91h-18ZM77.12,92.38,60.78,43.05h-.31L44.13,92.38Z"/></svg>