<svg id="Layer_3" data-name="Layer 3" xmlns="http://www.w3.org/2000/svg" xmlns:xlink="http://www.w3.org/1999/xlink" viewBox="0 0 185 246"><defs><style>.cls-1{fill:url(#linear-gradient);}.cls-2{fill:url(#linear-gradient-2);}.cls-3{fill:#bc4444;}</style><linearGradient id="linear-gradient" x1="-1466.53" y1="-3627.48" x2="-1465.53" y2="-3627.48" gradientTransform="matrix(0, -246, -246, 0, -892267.2, -360520.3)" gradientUnits="userSpaceOnUse"><stop offset="0" stop-color="#e6e6e6"/><stop offset="1" stop-color="#fff"/></linearGradient><linearGradient id="linear-gradient-2" x1="-1491" y1="-3622.8" x2="-1490" y2="-3622.8" gradientTransform="matrix(0, -78.18, -78.18, 0, -283113.1, -116352.03)" gradientUnits="userSpaceOnUse"><stop offset="0" stop-color="#b73737"/><stop offset="1" stop-color="#c45757"/></linearGradient></defs><rect class="cls-1" width="185" height="246" rx="9.95"/><path class="cls-2" d="M146.48,138.91c-16.62,0-22.48,15.64-22.48,15.64s-5.86-15.64-22.48-15.64S81,157.48,81,163.34s1,30.3,43,53.75c42-23.45,43-47.89,43-53.75S163.09,138.91,146.48,138.91Z"/><path class="cls-3" d="M38.35,113.67a16.3,16.3,0,0,0,8.9,2.4,20,20,0,0,0,13-4.72A16.06,16.06,0,0,0,65,105a22.5,22.5,0,0,0,1.78-9.52V19.4h17.1V97.18q-.31,17-11.15,26.32a37.21,37.21,0,0,1-25,9.68q-19.66-.47-29.34-14.71l13.78-10A18.5,18.5,0,0,0,38.35,113.67Z"/></svg>