<svg id="Layer_3" data-name="Layer 3" xmlns="http://www.w3.org/2000/svg" xmlns:xlink="http://www.w3.org/1999/xlink" viewBox="0 0 185 246"><defs><style>.cls-1{fill:url(#linear-gradient);}.cls-2{fill:url(#linear-gradient-2);}.cls-3{fill:#bc4444;}</style><linearGradient id="linear-gradient" x1="-1687.51" y1="-3627.55" x2="-1686.51" y2="-3627.55" gradientTransform="matrix(0, -246, -246, 0, -892284.18, -414880.29)" gradientUnits="userSpaceOnUse"><stop offset="0" stop-color="#e6e6e6"/><stop offset="1" stop-color="#fff"/></linearGradient><linearGradient id="linear-gradient-2" x1="-1711.98" y1="-3623.02" x2="-1710.98" y2="-3623.02" gradientTransform="matrix(0, -78.18, -78.18, 0, -283130.08, -133628.3)" gradientUnits="userSpaceOnUse"><stop offset="0" stop-color="#b73737"/><stop offset="1" stop-color="#c45757"/></linearGradient></defs><rect class="cls-1" width="185" height="246" rx="9.95"/><path class="cls-2" d="M146.48,138.91c-16.62,0-22.48,15.64-22.48,15.64s-5.86-15.64-22.48-15.64S81,157.48,81,163.34s1,30.3,43,53.75c42-23.45,43-47.89,43-53.75S163.09,138.91,146.48,138.91Z"/><path class="cls-3" d="M80.89,122.55Q71,132,54.55,132.28q-13.17-.32-22-6.44-9-5.88-13-13.62-1.23-2.53-2.22-4.83a30.93,30.93,0,0,1-1.53-6q-1.16-6.73-1.15-25.88,0-19.44,1.15-26a30.52,30.52,0,0,1,3.75-10.64q4.05-7.74,13-13.78,8.81-6.14,22-6.28,13.32.15,22.2,6.28T89.46,38.87a25.5,25.5,0,0,1,3.9,10.64q1,6.59,1,26,0,17.38-.77,24.27a29.14,29.14,0,0,1-3.29,10.72L105,122.25,95,133.88Zm-28.1-22.43,10-11.56,13,10.33q1.61-5.65,1.61-23.35,0-16.46-1.15-22.43a19.48,19.48,0,0,0-4.52-9.26A20.12,20.12,0,0,0,65,38.1a24.6,24.6,0,0,0-10.49-2.37A23.38,23.38,0,0,0,44.29,38.1a21.37,21.37,0,0,0-7,5.75,18.45,18.45,0,0,0-4.36,9.26q-1.23,6-1.22,22.43t1.22,22.28a18.6,18.6,0,0,0,4.36,9.42,19.83,19.83,0,0,0,7,5.59,19.91,19.91,0,0,0,10.26,2.53q7.8,0,12.48-3.91Z"/></svg>