<svg id="Layer_3" data-name="Layer 3" xmlns="http://www.w3.org/2000/svg" xmlns:xlink="http://www.w3.org/1999/xlink" viewBox="0 0 185 246"><defs><style>.cls-1{fill:url(#linear-gradient);}.cls-2{fill:url(#linear-gradient-2);}.cls-3{fill:url(#linear-gradient-3);}</style><linearGradient id="linear-gradient" x1="-1245.72" y1="-3627.41" x2="-1244.72" y2="-3627.41" gradientTransform="matrix(0, -246, -246, 0, -892250.39, -306201.13)" gradientUnits="userSpaceOnUse"><stop offset="0" stop-color="#e6e6e6"/><stop offset="1" stop-color="#fff"/></linearGradient><linearGradient id="linear-gradient-2" x1="-1270.19" y1="-3622.59" x2="-1269.19" y2="-3622.59" gradientTransform="matrix(0, -78.18, -78.18, 0, -283096.29, -99088.74)" gradientUnits="userSpaceOnUse"><stop offset="0" stop-color="#b73737"/><stop offset="1" stop-color="#c45757"/></linearGradient><linearGradient id="linear-gradient-3" x1="14" y1="76.74" x2="113.33" y2="76.74" gradientTransform="matrix(1, 0, 0, 1, 0, 0)" xlink:href="#linear-gradient-2"/></defs><rect class="cls-1" width="185" height="246" rx="9.95"/><path class="cls-2" d="M146.48,138.91c-16.62,0-22.48,15.64-22.48,15.64s-5.86-15.64-22.48-15.64S81,157.48,81,163.34s1,30.3,43,53.75c42-23.45,43-47.89,43-53.75S163.09,138.91,146.48,138.91Z"/><path class="cls-3" d="M14,50.9V34.79L29,23.84H44.19v105.8H29V39.87ZM53.31,100q.15,14.58,9.37,22.49a30.16,30.16,0,0,0,20.6,8,30.63,30.63,0,0,0,21-8q8.79-7.9,9.08-22.49V53.37q-.3-14.65-9.08-22.57a30.09,30.09,0,0,0-21-7.84,29.61,29.61,0,0,0-20.6,7.84q-9.23,7.9-9.37,22.57Zm44.85-.87q-.43,16-14.88,16.18-14.5-.15-14.8-16.18V54.31q.28-15.89,14.8-16.18,14.44.28,14.88,16.18Z"/></svg>