<svg id="Layer_3" data-name="Layer 3" xmlns="http://www.w3.org/2000/svg" xmlns:xlink="http://www.w3.org/1999/xlink" viewBox="0 0 185 246"><defs><style>.cls-1{fill:url(#linear-gradient);}.cls-2{fill:url(#linear-gradient-2);}.cls-3{fill:#2b2b2b;}</style><linearGradient id="linear-gradient" x1="525.22" y1="-2755.33" x2="526.22" y2="-2755.33" gradientTransform="matrix(0, -246, -246, 0, -677718.8, 129449.57)" gradientUnits="userSpaceOnUse"><stop offset="0" stop-color="#e6e6e6"/><stop offset="1" stop-color="#fff"/></linearGradient><linearGradient id="linear-gradient-2" x1="509.11" y1="-2751.25" x2="510.11" y2="-2751.25" gradientTransform="matrix(0, -100.88, -100.88, 0, -277413.85, 51580.68)" gradientUnits="userSpaceOnUse"><stop offset="0" stop-color="#1e1e1e"/><stop offset="1" stop-color="#3c3c3c"/></linearGradient></defs><rect class="cls-1" width="185" height="246" rx="9.95"/><path class="cls-2" d="M155.69,161.62c-5.07-6.54-12.22-12.21-17.42-17.94-1.19-1.31-18.62-20-18-20.68q-8.48,10.16-17.37,20c-4.38,4.84-8.84,9.47-13.49,14s-8.84,9.67-10.29,16.06a26.81,26.81,0,0,0,1.79,16,28,28,0,0,0,9.57,12.42c6.8,4.7,15,4.38,22.27,1l-9.12,18.25a2.23,2.23,0,0,0,2,3.22h29.3a2.22,2.22,0,0,0,2-3.22q-4.57-9.14-9.11-18.29a21.62,21.62,0,0,0,21.88-.68,26.66,26.66,0,0,0,9.26-11.08c3.08-6.49,4.07-14.2,1.49-20.9A32,32,0,0,0,155.69,161.62Z"/><path class="cls-3" d="M23.52,114.05,67.57,58.92a21.34,21.34,0,0,0,3.49-6.19,23.18,23.18,0,0,0,.62-5.11,16.75,16.75,0,0,0-4-11.07q-4.11-4.72-11.62-4.88A15.3,15.3,0,0,0,45,35.93q-4.56,4.26-5.42,12H23.52q.61-14.08,9.45-23.3a30.14,30.14,0,0,1,21.9-9.14q14.57.15,23.62,9.29,9.21,9.06,9.37,23A31.21,31.21,0,0,1,81,67.59L44.73,113.12H87.86V129.3H23.52Z"/></svg>