<svg id="Layer_3" data-name="Layer 3" xmlns="http://www.w3.org/2000/svg" xmlns:xlink="http://www.w3.org/1999/xlink" viewBox="0 0 185 246"><defs><style>.cls-1{fill:url(#linear-gradient);}.cls-2{fill:url(#linear-gradient-2);}.cls-3{fill:#2b2b2b;}</style><linearGradient id="linear-gradient" x1="309.32" y1="-2755.38" x2="310.32" y2="-2755.38" gradientTransform="matrix(0, -246, -246, 0, -677730.7, 76338.31)" gradientUnits="userSpaceOnUse"><stop offset="0" stop-color="#e6e6e6"/><stop offset="1" stop-color="#fff"/></linearGradient><linearGradient id="linear-gradient-2" x1="293.21" y1="-2751.3" x2="294.21" y2="-2751.3" gradientTransform="matrix(0, -100.88, -100.88, 0, -277425.75, 29801.72)" gradientUnits="userSpaceOnUse"><stop offset="0" stop-color="#1e1e1e"/><stop offset="1" stop-color="#3c3c3c"/></linearGradient></defs><rect class="cls-1" width="185" height="246" rx="9.95"/><path class="cls-2" d="M148.74,161.62c-5.06-6.54-12.22-12.21-17.42-17.94-1.19-1.31-18.61-20-18-20.68-5.64,6.77-11.45,13.42-17.36,20-4.38,4.84-8.84,9.47-13.49,14s-8.85,9.67-10.29,16.06A26.81,26.81,0,0,0,74,189a27.87,27.87,0,0,0,9.57,12.42c6.79,4.7,15,4.38,22.27,1l-9.12,18.25a2.22,2.22,0,0,0,2,3.22H128a2.23,2.23,0,0,0,2-3.22q-4.57-9.14-9.12-18.29a21.62,21.62,0,0,0,21.88-.68A26.61,26.61,0,0,0,152,190.61c3.07-6.49,4.06-14.2,1.49-20.9A32.07,32.07,0,0,0,148.74,161.62Z"/><path class="cls-3" d="M45.68,63.56h5.48q8.12,0,12.61-4.53a15.16,15.16,0,0,0,4.48-11.36A15.66,15.66,0,0,0,52.07,31.54a14.58,14.58,0,0,0-9.27,3.3q-4.41,3.3-5.93,10.22H21a32.85,32.85,0,0,1,10-21,28.81,28.81,0,0,1,20.52-8.6q15.12.15,24,9.75a32.44,32.44,0,0,1,8.66,22.12A34.67,34.67,0,0,1,81.85,59.8q-2.66,6-9.5,10.67A27.91,27.91,0,0,1,82.46,81.53a32.11,32.11,0,0,1,3,13.52q-.15,15.74-9.65,24.8-9.34,9.3-24,9.45a30.24,30.24,0,0,1-20.06-7.37Q23,114.55,20.38,100.58H36.26a22.69,22.69,0,0,0,6,9.06q3.94,3.61,10.48,3.61a16,16,0,0,0,11.78-4.84q4.86-4.53,5-12.9-.15-8.52-5-13.21a17,17,0,0,0-12.16-4.53H45.68Z"/></svg>