<svg id="Layer_3" data-name="Layer 3" xmlns="http://www.w3.org/2000/svg" xmlns:xlink="http://www.w3.org/1999/xlink" viewBox="0 0 185 246"><defs><style>.cls-1{fill:url(#linear-gradient);}.cls-2{fill:url(#linear-gradient-2);}.cls-3{fill:#2b2b2b;}</style><linearGradient id="linear-gradient" x1="92.21" y1="-2755.43" x2="93.21" y2="-2755.43" gradientTransform="matrix(0, -246, -246, 0, -677743.81, 22928.63)" gradientUnits="userSpaceOnUse"><stop offset="0" stop-color="#e6e6e6"/><stop offset="1" stop-color="#fff"/></linearGradient><linearGradient id="linear-gradient-2" x1="76.1" y1="-2751.47" x2="77.1" y2="-2751.47" gradientTransform="matrix(0, -100.88, -100.88, 0, -277438.87, 7900.38)" gradientUnits="userSpaceOnUse"><stop offset="0" stop-color="#1e1e1e"/><stop offset="1" stop-color="#3c3c3c"/></linearGradient></defs><rect class="cls-1" width="185" height="246" rx="9.95"/><path class="cls-2" d="M152.82,161.62c-5.07-6.54-12.22-12.21-17.42-17.94-1.19-1.31-18.61-20-18-20.68q-8.48,10.16-17.36,20c-4.38,4.84-8.85,9.47-13.5,14s-8.84,9.67-10.29,16.06A26.81,26.81,0,0,0,78,189a28,28,0,0,0,9.58,12.42c6.79,4.7,15,4.38,22.27,1l-9.13,18.25a2.23,2.23,0,0,0,2,3.22H132a2.22,2.22,0,0,0,2-3.22q-4.56-9.14-9.11-18.29a21.62,21.62,0,0,0,21.88-.68,26.66,26.66,0,0,0,9.26-11.08c3.08-6.49,4.07-14.2,1.49-20.9A32,32,0,0,0,152.82,161.62Z"/><polygon class="cls-3" points="17.95 96.84 55.75 15.81 73.83 15.81 35.57 96.84 65.14 96.84 65.14 64.32 81.36 64.32 81.36 96.84 90.36 96.84 90.36 112.13 81.36 112.13 81.36 128.97 65.14 128.97 65.14 112.13 17.95 112.13 17.95 96.84"/></svg>