<svg id="Layer_3" data-name="Layer 3" xmlns="http://www.w3.org/2000/svg" xmlns:xlink="http://www.w3.org/1999/xlink" viewBox="0 0 185 246"><defs><style>.cls-1{fill:url(#linear-gradient);}.cls-2{fill:url(#linear-gradient-2);}.cls-3{fill:#2b2b2b;}</style><linearGradient id="linear-gradient" x1="-128.74" y1="-2755.5" x2="-127.74" y2="-2755.5" gradientTransform="matrix(0, -246, -246, 0, -677760.75, -31423.18)" gradientUnits="userSpaceOnUse"><stop offset="0" stop-color="#e6e6e6"/><stop offset="1" stop-color="#fff"/></linearGradient><linearGradient id="linear-gradient-2" x1="-144.84" y1="-2751.6" x2="-143.84" y2="-2751.6" gradientTransform="matrix(0, -100.88, -100.88, 0, -277455.81, -14387.28)" gradientUnits="userSpaceOnUse"><stop offset="0" stop-color="#1e1e1e"/><stop offset="1" stop-color="#3c3c3c"/></linearGradient></defs><rect class="cls-1" width="185" height="246" rx="9.95"/><path class="cls-2" d="M148.74,161.32c-5.06-6.54-12.22-12.21-17.42-17.94-1.19-1.32-18.61-20-18-20.68-5.64,6.77-11.45,13.42-17.36,20-4.38,4.84-8.84,9.46-13.49,14s-8.85,9.67-10.29,16.06a26.81,26.81,0,0,0,1.79,16,27.92,27.92,0,0,0,9.57,12.42c6.79,4.7,15,4.38,22.27,1l-9.12,18.25a2.21,2.21,0,0,0,2,3.21H128a2.22,2.22,0,0,0,2-3.21q-4.57-9.13-9.12-18.3a21.62,21.62,0,0,0,21.88-.67A26.61,26.61,0,0,0,152,190.31c3.07-6.49,4.06-14.2,1.49-20.9A32.07,32.07,0,0,0,148.74,161.32Z"/><path class="cls-3" d="M23.66,15.81H83.47V31.9H38.82V57.31a28.26,28.26,0,0,1,17.94-6.16,33.69,33.69,0,0,1,11.85,2.31,25.71,25.71,0,0,1,8.24,5.85A27.19,27.19,0,0,1,83.63,70a38.38,38.38,0,0,1,1.53,8.08q.47,4.84.47,11.93,0,10.94-1.54,16.78A27,27,0,0,1,78.7,117a31.38,31.38,0,0,1-9.62,8A28.64,28.64,0,0,1,54.45,129a35,35,0,0,1-20.86-6.78Q24,115.27,21.65,99.8H37.74q2.63,12.93,16.09,13.09,5.78,0,9.24-2.31a11.72,11.72,0,0,0,4.62-5.85,27.4,27.4,0,0,0,1.69-7.86q.16-4.16.16-8.08.15-9.62-3-15.63a12.06,12.06,0,0,0-5-4.54,21.49,21.49,0,0,0-8.24-1.38,16.18,16.18,0,0,0-8,2c-2.41,1.38-4.57,3.8-6.47,7.23H23.66Z"/></svg>