<svg id="Layer_3" data-name="Layer 3" xmlns="http://www.w3.org/2000/svg" xmlns:xlink="http://www.w3.org/1999/xlink" viewBox="0 0 185 246"><defs><style>.cls-1{fill:url(#linear-gradient);}.cls-2{fill:url(#linear-gradient-2);}.cls-3{fill:#2b2b2b;}</style><linearGradient id="linear-gradient" x1="-572.3" y1="-2755.65" x2="-571.3" y2="-2755.65" gradientTransform="matrix(0, -246, -246, 0, -677796.32, -140539)" gradientUnits="userSpaceOnUse"><stop offset="0" stop-color="#e6e6e6"/><stop offset="1" stop-color="#fff"/></linearGradient><linearGradient id="linear-gradient-2" x1="-588.4" y1="-2751.9" x2="-587.4" y2="-2751.9" gradientTransform="matrix(0, -100.88, -100.88, 0, -277491.37, -59131.65)" gradientUnits="userSpaceOnUse"><stop offset="0" stop-color="#1e1e1e"/><stop offset="1" stop-color="#3c3c3c"/></linearGradient></defs><rect class="cls-1" width="185" height="246" rx="9.95"/><path class="cls-2" d="M143.31,161.62c-5.07-6.54-12.22-12.21-17.42-17.94-1.19-1.31-18.61-20-18-20.68q-8.47,10.16-17.36,20c-4.38,4.84-8.85,9.47-13.49,14s-8.85,9.67-10.3,16.06a26.81,26.81,0,0,0,1.8,16,27.87,27.87,0,0,0,9.57,12.42c6.79,4.7,15,4.38,22.27,1l-9.13,18.25a2.23,2.23,0,0,0,2,3.22h29.3a2.22,2.22,0,0,0,2-3.22q-4.56-9.14-9.11-18.29a21.62,21.62,0,0,0,21.88-.68,26.66,26.66,0,0,0,9.26-11.08c3.08-6.49,4.07-14.2,1.5-20.9A32.37,32.37,0,0,0,143.31,161.62Z"/><polygon class="cls-3" points="25.36 15.95 89.63 15.95 89.63 32.13 51.38 128.84 33.34 128.84 71.51 32.13 41.54 32.13 41.54 48.47 25.36 48.47 25.36 15.95"/></svg>