<svg id="Layer_3" data-name="Layer 3" xmlns="http://www.w3.org/2000/svg" xmlns:xlink="http://www.w3.org/1999/xlink" viewBox="0 0 185 246"><defs><style>.cls-1{fill:url(#linear-gradient);}.cls-2{fill:url(#linear-gradient-2);}.cls-3{fill:#2b2b2b;}</style><linearGradient id="linear-gradient" x1="-1466.35" y1="-2755.96" x2="-1465.35" y2="-2755.96" gradientTransform="matrix(0, -246, -246, 0, -677874.37, -360477.28)" gradientUnits="userSpaceOnUse"><stop offset="0" stop-color="#e6e6e6"/><stop offset="1" stop-color="#fff"/></linearGradient><linearGradient id="linear-gradient-2" x1="-1482.46" y1="-2752.73" x2="-1481.46" y2="-2752.73" gradientTransform="matrix(0, -100.88, -100.88, 0, -277569.43, -149320.2)" gradientUnits="userSpaceOnUse"><stop offset="0" stop-color="#1e1e1e"/><stop offset="1" stop-color="#3c3c3c"/></linearGradient></defs><rect class="cls-1" width="185" height="246" rx="9.95"/><path class="cls-2" d="M149.2,161.62c-5.07-6.54-12.22-12.21-17.42-17.94-1.19-1.31-18.62-20-18-20.68-5.64,6.77-11.45,13.42-17.36,20-4.38,4.84-8.84,9.47-13.49,14s-8.84,9.67-10.29,16.06a26.81,26.81,0,0,0,1.79,16A28,28,0,0,0,84,201.45c6.8,4.7,15,4.38,22.27,1l-9.12,18.25a2.22,2.22,0,0,0,2,3.22h29.3a2.22,2.22,0,0,0,2-3.22q-4.58-9.14-9.11-18.29a21.62,21.62,0,0,0,21.88-.68,26.66,26.66,0,0,0,9.26-11.08c3.08-6.49,4.07-14.2,1.49-20.9A32,32,0,0,0,149.2,161.62Z"/><path class="cls-3" d="M38.35,109.64a16.3,16.3,0,0,0,8.9,2.4,19.91,19.91,0,0,0,13-4.73A16,16,0,0,0,65,101a22.5,22.5,0,0,0,1.78-9.52V15.36h17.1V93.15q-.31,17-11.15,26.32a37.2,37.2,0,0,1-25,9.67q-19.66-.46-29.34-14.7l13.78-10A18.53,18.53,0,0,0,38.35,109.64Z"/></svg>