<svg id="Layer_3" data-name="Layer 3" xmlns="http://www.w3.org/2000/svg" xmlns:xlink="http://www.w3.org/1999/xlink" viewBox="0 0 185 246"><defs><style>.cls-1{fill:url(#linear-gradient);}.cls-2{fill:url(#linear-gradient-2);}.cls-3{fill:#2b2b2b;}</style><linearGradient id="linear-gradient" x1="-1906.33" y1="-2756.09" x2="-1905.33" y2="-2756.09" gradientTransform="matrix(0, -246, -246, 0, -677906.35, -468711.27)" gradientUnits="userSpaceOnUse"><stop offset="0" stop-color="#e6e6e6"/><stop offset="1" stop-color="#fff"/></linearGradient><linearGradient id="linear-gradient-2" x1="-1922.44" y1="-2753.16" x2="-1921.44" y2="-2753.16" gradientTransform="matrix(0, -100.88, -100.88, 0, -277601.4, -193702.96)" gradientUnits="userSpaceOnUse"><stop offset="0" stop-color="#1e1e1e"/><stop offset="1" stop-color="#3c3c3c"/></linearGradient></defs><rect class="cls-1" width="185" height="246" rx="9.95"/><path class="cls-2" d="M160.52,161.62c-5.07-6.54-12.22-12.21-17.42-17.94-1.19-1.31-18.62-20-18-20.68q-8.48,10.16-17.37,20c-4.37,4.84-8.84,9.47-13.49,14s-8.84,9.67-10.29,16.06a26.81,26.81,0,0,0,1.79,16,28,28,0,0,0,9.58,12.42c6.79,4.7,15,4.38,22.26,1l-9.12,18.25a2.23,2.23,0,0,0,2,3.22h29.3a2.22,2.22,0,0,0,2-3.22q-4.56-9.14-9.11-18.29a21.62,21.62,0,0,0,21.88-.68,26.66,26.66,0,0,0,9.26-11.08c3.08-6.49,4.07-14.2,1.49-20.9A32,32,0,0,0,160.52,161.62Z"/><polygon class="cls-3" points="17.16 15.52 33.45 15.52 33.45 70.85 33.74 70.85 77.95 15.52 97.25 15.52 62.84 57.89 100.86 122.95 81.56 122.95 52.31 70.41 33.45 90.23 33.45 122.95 17.16 122.95 17.16 15.52"/></svg>