<svg id="Layer_3" data-name="Layer 3" xmlns="http://www.w3.org/2000/svg" xmlns:xlink="http://www.w3.org/1999/xlink" viewBox="0 0 185 246"><defs><style>.cls-1{fill:url(#linear-gradient);}.cls-2{fill:url(#linear-gradient-2);}.cls-3{fill:#2b2b2b;}</style><linearGradient id="linear-gradient" x1="-1687.33" y1="-2756.03" x2="-1686.33" y2="-2756.03" gradientTransform="matrix(0, -246, -246, 0, -677891.35, -414837.27)" gradientUnits="userSpaceOnUse"><stop offset="0" stop-color="#e6e6e6"/><stop offset="1" stop-color="#fff"/></linearGradient><linearGradient id="linear-gradient-2" x1="-1703.44" y1="-2752.97" x2="-1702.44" y2="-2752.97" gradientTransform="matrix(0, -100.88, -100.88, 0, -277586.4, -171611.22)" gradientUnits="userSpaceOnUse"><stop offset="0" stop-color="#1e1e1e"/><stop offset="1" stop-color="#3c3c3c"/></linearGradient></defs><rect class="cls-1" width="185" height="246" rx="9.95"/><path class="cls-2" d="M156.29,161.62c-5.06-6.54-12.22-12.21-17.42-17.94-1.19-1.31-18.61-20-18-20.68-5.64,6.77-11.45,13.42-17.36,20-4.38,4.84-8.85,9.47-13.49,14s-8.85,9.67-10.3,16.06a26.81,26.81,0,0,0,1.8,16,27.87,27.87,0,0,0,9.57,12.42c6.79,4.7,15,4.38,22.27,1l-9.13,18.25a2.23,2.23,0,0,0,2,3.22h29.3a2.23,2.23,0,0,0,2-3.22q-4.58-9.14-9.12-18.29a21.62,21.62,0,0,0,21.88-.68,26.58,26.58,0,0,0,9.26-11.08c3.08-6.49,4.07-14.2,1.5-20.9A32.07,32.07,0,0,0,156.29,161.62Z"/><path class="cls-3" d="M79.3,119.26Q69.43,128.68,53,129q-13.17-.31-22-6.44-9-5.89-13-13.62-1.21-2.54-2.22-4.83a31.68,31.68,0,0,1-1.53-6q-1.14-6.73-1.15-25.88,0-19.44,1.15-26A30.93,30.93,0,0,1,18,35.58Q22,27.84,31,21.8t22-6.28q13.32.15,22.21,6.28T87.88,35.58a25.64,25.64,0,0,1,3.9,10.64q1,6.59,1,26,0,17.39-.77,24.27a29.14,29.14,0,0,1-3.29,10.72L103.42,119l-10,11.63ZM51.2,96.83l10-11.56,13,10.33q1.6-5.66,1.6-23.35,0-16.45-1.14-22.43a19.58,19.58,0,0,0-4.52-9.26,20.16,20.16,0,0,0-6.74-5.75A24.6,24.6,0,0,0,53,32.44,23.38,23.38,0,0,0,42.7,34.81a21.23,21.23,0,0,0-7,5.75,18.37,18.37,0,0,0-4.36,9.26q-1.23,6-1.23,22.43T31.3,94.53A18.52,18.52,0,0,0,35.66,104a19.71,19.71,0,0,0,7,5.59A19.91,19.91,0,0,0,53,112.07q7.82,0,12.48-3.91Z"/></svg>