<svg id="Layer_3" data-name="Layer 3" xmlns="http://www.w3.org/2000/svg" xmlns:xlink="http://www.w3.org/1999/xlink" viewBox="0 0 185 246"><defs><style>.cls-1{fill:url(#linear-gradient);}.cls-2{fill:url(#linear-gradient-2);}.cls-3{fill:#2b2b2b;}</style><linearGradient id="linear-gradient" x1="-1245.55" y1="-2755.89" x2="-1244.55" y2="-2755.89" gradientTransform="matrix(0, -246, -246, 0, -677857.56, -306158.11)" gradientUnits="userSpaceOnUse"><stop offset="0" stop-color="#e6e6e6"/><stop offset="1" stop-color="#fff"/></linearGradient><linearGradient id="linear-gradient-2" x1="-1261.65" y1="-2752.68" x2="-1260.65" y2="-2752.68" gradientTransform="matrix(0, -100.88, -100.88, 0, -277552.62, -127045.92)" gradientUnits="userSpaceOnUse"><stop offset="0" stop-color="#1e1e1e"/><stop offset="1" stop-color="#3c3c3c"/></linearGradient></defs><rect class="cls-1" width="185" height="246" rx="9.95"/><path class="cls-2" d="M161.2,161.62c-5.07-6.54-12.22-12.21-17.42-17.94-1.19-1.31-18.62-20-18-20.68-5.64,6.77-11.45,13.42-17.36,20-4.38,4.84-8.84,9.47-13.49,14s-8.84,9.67-10.29,16.06a26.81,26.81,0,0,0,1.79,16A28,28,0,0,0,96,201.45c6.8,4.7,15,4.38,22.27,1l-9.12,18.25a2.22,2.22,0,0,0,2,3.22h29.3a2.22,2.22,0,0,0,2-3.22q-4.58-9.14-9.11-18.29a21.62,21.62,0,0,0,21.88-.68,26.66,26.66,0,0,0,9.26-11.08c3.08-6.49,4.07-14.2,1.49-20.9A32,32,0,0,0,161.2,161.62Z"/><polygon class="cls-3" points="14 44.3 14 28.19 29.02 17.23 44.19 17.23 44.19 123.03 29.02 123.03 29.02 33.27 14 44.3"/><path class="cls-3" d="M53.31,46.77q.15-14.66,9.37-22.57a29.61,29.61,0,0,1,20.6-7.84,30.09,30.09,0,0,1,21,7.84q8.79,7.9,9.08,22.57V93.43q-.3,14.58-9.08,22.49a30.63,30.63,0,0,1-21,8,30.16,30.16,0,0,1-20.6-8q-9.23-7.9-9.37-22.49Zm44.85.94q-.43-15.89-14.88-16.18-14.5.28-14.8,16.18V92.56q.28,16,14.8,16.18,14.44-.15,14.88-16.18Z"/></svg>