<svg width="185" height="246" viewBox="0 0 185 246" fill="none" xmlns="http://www.w3.org/2000/svg">
<path d="M175.05 0H9.95C4.45477 0 0 4.45477 0 9.95V236.05C0 241.545 4.45477 246 9.95 246H175.05C180.545 246 185 241.545 185 236.05V9.95C185 4.45477 180.545 0 175.05 0Z" fill="url(#paint0_linear)"/>
<g clip-path="url(#clip0)">
<g clip-path="url(#clip1)">
<path d="M-38.2711 176.96C-30.5219 114.606 1.77887 94.6057 30.7014 76.8848C60.2345 58.7812 85.7791 42.9252 82.7061 -16.6492C68.9449 -15.6664 55.7242 -12.7806 43.3179 -8.21098C44.6028 39.0691 21.8389 53.0911 -0.250661 66.6306C-23.5808 80.9285 -45.6194 94.4369 -47 147.745C-45.155 157.892 -42.222 167.689 -38.2711 176.96Z" fill="#2FAED6"/>
<path d="M-6.98229 56.0017C13.6058 43.3758 30.2556 33.0471 30.631 -2.83398C-6.84229 15.238 -35.0904 49.0471 -45.2 89.7854C-34.8232 73.0784 -20.4001 64.2208 -6.98229 56.0017Z" fill="#2FAED6"/>
<path d="M-3.21971 226.024C1.79369 159.57 31.4287 136.377 60.1667 113.923C91.3859 89.5353 120.888 66.4244 119.227 -14.6526C111.484 -16.0735 103.532 -16.8685 95.407 -17C98.7025 49.7355 67.6233 69.0028 37.4283 87.5069C6.8389 106.255 -24.7303 125.717 -27.1606 197.811C-20.4485 208.22 -12.4004 217.711 -3.21971 226.024Z" fill="#2FAED6"/>
<path d="M149.16 152.959C177.676 130.442 204.576 109.009 203.137 34.2924C195.458 25.0843 186.609 16.884 176.824 9.85425C176.423 91.482 144.172 116.997 112.915 141.673C83.4966 164.903 55.7256 186.881 53.6897 257.573C65.4215 260.891 77.7579 262.774 90.5077 263C93.8606 196.815 121.924 174.474 149.16 152.959Z" fill="#2FAED6"/>
<path d="M196.953 182.161C176.53 194.405 158.818 205.141 156.757 248.196C195.916 228.834 224.781 192.227 233.001 148.54C223.827 166.03 209.913 174.393 196.953 182.161Z" fill="#2FAED6"/>
<path d="M190.334 171.476C212.208 158.355 232.879 145.974 230.36 88.4025L231.014 88.3774C227.655 75.3946 222.413 63.1442 215.643 51.8892C212.634 118.681 184.5 141.116 157.137 162.725C131.096 183.27 106.532 202.844 103.281 262.65C117.462 261.661 131.071 258.612 143.821 253.824C144.597 198.9 168.888 184.334 190.334 171.476Z" fill="#2FAED6"/>
<path d="M104.958 131.908C136.229 107.225 165.775 83.8451 164.045 1.66676C154.068 -4.00464 143.329 -8.51794 132.024 -11.6917C132.934 73.0659 99.9768 98.8057 68.0771 123.726C39.0273 146.418 11.6127 167.977 8.9978 235.914C18.8401 243.031 29.6431 248.909 41.1841 253.373C44.327 179.977 75.1073 155.476 104.958 131.908Z" fill="#2FAED6"/>
</g>
</g>
<defs>
<linearGradient id="paint0_linear" x1="93.4" y1="246.33" x2="93.4" y2="0.33" gradientUnits="userSpaceOnUse">
<stop stop-color="#E6E6E6"/>
<stop offset="1" stop-color="white"/>
</linearGradient>
<clipPath id="clip0">
<rect x="10" y="10" width="165" height="226" rx="5" fill="white"/>
</clipPath>
<clipPath id="clip1">
<rect width="280" height="280" fill="white" transform="translate(-47 -17)"/>
</clipPath>
</defs>
</svg>
