<svg width="185" height="246" viewBox="0 0 185 246" fill="none" xmlns="http://www.w3.org/2000/svg">
<path d="M175.05 0H9.95C4.45477 0 0 4.45477 0 9.95V236.05C0 241.545 4.45477 246 9.95 246H175.05C180.545 246 185 241.545 185 236.05V9.95C185 4.45477 180.545 0 175.05 0Z" fill="url(#paint0_linear_4_2)"/>
<g style="mix-blend-mode:darken">
<path d="M175.05 0H9.95C4.45477 0 0 4.45477 0 9.95V236.05C0 241.545 4.45477 246 9.95 246H175.05C180.545 246 185 241.545 185 236.05V9.95C185 4.45477 180.545 0 175.05 0Z" fill="url(#paint1_linear_4_2)"/>
</g>
<path fill-rule="evenodd" clip-rule="evenodd" d="M15 10C12.2386 10 10 12.2386 10 15V231C10 233.761 12.2386 236 15 236H170C172.761 236 175 233.761 175 231V15C175 12.2386 172.761 10 170 10H15ZM143 123C143 95.3858 120.614 73 93 73C65.3858 73 43 95.3858 43 123C43 150.614 65.3858 173 93 173C120.614 173 143 150.614 143 123ZM85.1714 125.171L76.75 116.75C74.6789 114.679 71.321 114.679 69.25 116.75C67.1789 118.821 67.1789 122.179 69.25 124.25L84.4644 139.464C86.4169 141.417 89.5829 141.417 91.5354 139.464L119.25 111.75C121.321 109.679 121.321 106.321 119.25 104.25C117.179 102.179 113.821 102.179 111.75 104.25L90.8284 125.171C89.2664 126.733 86.7335 126.733 85.1714 125.171Z" fill="#02BC77"/>
<defs>
<linearGradient id="paint0_linear_4_2" x1="93.4" y1="246.33" x2="93.4" y2="0.33" gradientUnits="userSpaceOnUse">
<stop stop-color="#E6E6E6"/>
<stop offset="1" stop-color="white"/>
</linearGradient>
<linearGradient id="paint1_linear_4_2" x1="93.4" y1="246.33" x2="93.4" y2="0.33" gradientUnits="userSpaceOnUse">
<stop stop-color="#E6E6E6"/>
<stop offset="1" stop-color="white"/>
</linearGradient>
</defs>
</svg>
