<svg width="185" height="246" viewBox="0 0 185 246" fill="none" xmlns="http://www.w3.org/2000/svg">
<path fill-rule="evenodd" clip-rule="evenodd" d="M9.95 0H175.05C180.545 0 185 4.45477 185 9.95V236.05C185 241.545 180.545 246 175.05 246H9.95C4.45477 246 0 241.545 0 236.05V9.95C0 4.45477 4.45477 0 9.95 0ZM10 15C10 12.2386 12.2386 10 15 10H170C172.761 10 175 12.2386 175 15V231C175 233.761 172.761 236 170 236H15C12.2386 236 10 233.761 10 231V15ZM93 73C120.614 73 143 95.3858 143 123C143 150.614 120.614 173 93 173C65.3858 173 43 150.614 43 123C43 95.3858 65.3858 73 93 73ZM106.891 100.678L92.3198 115.249L78.6066 101.536C76.654 99.5829 73.4882 99.5829 71.5355 101.536C69.5829 103.488 69.5829 106.654 71.5355 108.607L85.2487 122.32L71.5355 136.033C69.5829 137.986 69.5829 141.151 71.5355 143.104C73.4882 145.057 76.654 145.057 78.6066 143.104L92.3198 129.391L106.891 143.962C108.844 145.915 112.009 145.915 113.962 143.962C115.915 142.009 115.915 138.844 113.962 136.891L99.3909 122.32L113.962 107.749C115.915 105.796 115.915 102.63 113.962 100.678C112.009 98.725 108.843 98.725 106.891 100.678Z" fill="url(#paint0_linear_1_155)"/>
<defs>
<linearGradient id="paint0_linear_1_155" x1="93.4" y1="246.33" x2="93.4" y2="0.33" gradientUnits="userSpaceOnUse">
<stop stop-color="#E6E6E6"/>
<stop offset="1" stop-color="white"/>
</linearGradient>
</defs>
</svg>
