<svg width="185" height="246" viewBox="0 0 185 246" fill="none" xmlns="http://www.w3.org/2000/svg">
<path fill-rule="evenodd" clip-rule="evenodd" d="M9.95 0H175.05C180.545 0 185 4.45477 185 9.95V236.05C185 241.545 180.545 246 175.05 246H9.95C4.45477 246 0 241.545 0 236.05V9.95C0 4.45477 4.45477 0 9.95 0ZM10 15C10 12.2386 12.2386 10 15 10H170C172.761 10 175 12.2386 175 15V231C175 233.761 172.761 236 170 236H15C12.2386 236 10 233.761 10 231V15ZM93 173C120.5 173 143 150.5 143 123C143 95.5 120.5 73 93 73C65.5 73 43 95.5 43 123C43 150.5 65.5 173 93 173ZM114.656 102.793C115.969 104.734 115.75 107.25 114 109L100 123L114 137C116 139 116 142 114 144C113 145 111.5 145.5 110.5 145.5C109.5 145.5 108 145 107 144L93 130L79 144C78.875 144.125 78.7422 144.242 78.6035 144.352C77.6328 145.117 76.375 145.5 75.5 145.5C75.375 145.5 75.2422 145.492 75.1035 145.477C74.1328 145.367 72.875 144.875 72 144C71.75 143.75 71.5312 143.484 71.3438 143.207C70.0312 141.266 70.25 138.75 72 137L86 123L72 109C70 107 70 104 72 102C74 100 77 100 79 102L93 116L107 102C109 100 112 100 114 102C114.25 102.25 114.469 102.516 114.656 102.793Z" fill="url(#paint0_linear_1_159)"/>
<defs>
<linearGradient id="paint0_linear_1_159" x1="93.4" y1="246.33" x2="93.4" y2="0.33" gradientUnits="userSpaceOnUse">
<stop stop-color="#E6E6E6"/>
<stop offset="1" stop-color="white"/>
</linearGradient>
</defs>
</svg>
