<svg width="185" height="246" viewBox="0 0 185 246" fill="none" xmlns="http://www.w3.org/2000/svg">
<path d="M175.05 0H9.95C4.45477 0 0 4.45477 0 9.95V236.05C0 241.545 4.45477 246 9.95 246H175.05C180.545 246 185 241.545 185 236.05V9.95C185 4.45477 180.545 0 175.05 0Z" fill="url(#paint0_linear_12_134)"/>
<path d="M166.21 182.06C165.866 178.688 164.707 175.451 162.832 172.628C160.958 169.804 158.424 167.479 155.451 165.853C152.477 164.227 149.153 163.349 145.764 163.294C142.375 163.24 139.024 164.01 136 165.54C139.611 162.967 142.312 159.312 143.711 155.105C145.11 150.897 145.137 146.353 143.786 142.13C142.435 137.906 139.777 134.221 136.195 131.607C132.614 128.992 128.294 127.583 123.86 127.583C119.426 127.583 115.106 128.992 111.525 131.607C107.943 134.221 105.285 137.906 103.934 142.13C102.584 146.353 102.61 150.897 104.009 155.105C105.408 159.312 108.109 162.967 111.72 165.54C108.445 163.887 104.792 163.124 101.129 163.329C97.4657 163.534 93.9209 164.699 90.8505 166.707C87.78 168.716 85.2921 171.497 83.6365 174.771C81.9809 178.045 81.216 181.697 81.4185 185.36C81.621 189.024 82.7838 192.569 84.7902 195.641C86.7966 198.713 89.5759 201.202 92.849 202.86C96.1221 204.518 99.7737 205.285 103.437 205.085C107.101 204.885 110.647 203.724 113.72 201.72L100.36 224.87C100.148 225.237 100.036 225.654 100.036 226.079C100.036 226.503 100.147 226.92 100.359 227.288C100.57 227.655 100.875 227.961 101.242 228.174C101.609 228.386 102.026 228.499 102.45 228.5H145.2C145.625 228.501 146.043 228.389 146.412 228.177C146.78 227.965 147.086 227.66 147.299 227.292C147.512 226.924 147.624 226.506 147.624 226.081C147.624 225.656 147.513 225.238 147.3 224.87L134 201.72C137.307 203.884 141.16 205.066 145.112 205.128C149.064 205.191 152.953 204.132 156.327 202.073C159.701 200.015 162.422 197.042 164.175 193.5C165.928 189.958 166.641 185.991 166.23 182.06H166.21Z" fill="url(#paint1_linear_12_134)"/>
<path d="M45.68 65.31H51.16C56.5733 65.31 60.7767 63.8 63.77 60.78C65.2639 59.2987 66.4335 57.5231 67.2047 55.5657C67.9759 53.6084 68.3319 51.5122 68.25 49.41C68.3004 45.0834 66.6357 40.9128 63.62 37.81C60.5088 34.8504 56.3637 33.2246 52.07 33.28C48.689 33.2712 45.4108 34.4417 42.8 36.59C39.86 38.79 37.8833 42.1933 36.87 46.8H21C21.6643 38.8157 25.2202 31.3484 31 25.8C33.6808 23.0796 36.8751 20.9186 40.3976 19.4423C43.9201 17.966 47.7007 17.2038 51.52 17.2C61.6 17.3067 69.6 20.56 75.52 26.96C81.0887 32.9843 84.1655 40.8963 84.13 49.1C84.1392 53.3514 83.3663 57.5682 81.85 61.54C80.0767 65.54 76.91 69.1 72.35 72.22C76.6675 74.9134 80.1641 78.7386 82.46 83.28C84.4313 87.5113 85.4552 92.122 85.46 96.79C85.36 107.29 82.1433 115.557 75.81 121.59C69.5833 127.79 61.5833 130.94 51.81 131.04C44.4492 131.107 37.3168 128.486 31.75 123.67C25.9167 118.75 22.1267 111.633 20.38 102.32H36.26C37.4916 105.784 39.5514 108.894 42.26 111.38C44.9 113.793 48.3967 115 52.75 115C54.941 115.048 57.1183 114.643 59.1454 113.81C61.1725 112.977 63.0057 111.735 64.53 110.16C67.77 107.14 69.4367 102.84 69.53 97.26C69.43 91.58 67.7633 87.1767 64.53 84.05C61.2351 80.9916 56.8629 79.3628 52.37 79.52H45.68V65.31Z" fill="#2B2B2B"/>
<g filter="url(#filter0_i_12_134)">
<path fill-rule="evenodd" clip-rule="evenodd" d="M9.95 0H175.05C180.545 0 185 4.45477 185 9.95V236.05C185 241.545 180.545 246 175.05 246H9.95C4.45477 246 0 241.545 0 236.05V9.95C0 4.45477 4.45477 0 9.95 0ZM15 10C12.2386 10 10 12.2386 10 15V231C10 233.761 12.2386 236 15 236H170C172.761 236 175 233.761 175 231V15C175 12.2386 172.761 10 170 10H15Z" fill="#FFB800"/>
</g>
<defs>
<filter id="filter0_i_12_134" x="0" y="0" width="185" height="248" filterUnits="userSpaceOnUse" color-interpolation-filters="sRGB">
<feFlood flood-opacity="0" result="BackgroundImageFix"/>
<feBlend mode="normal" in="SourceGraphic" in2="BackgroundImageFix" result="shape"/>
<feColorMatrix in="SourceAlpha" type="matrix" values="0 0 0 0 0 0 0 0 0 0 0 0 0 0 0 0 0 0 127 0" result="hardAlpha"/>
<feOffset dy="4"/>
<feGaussianBlur stdDeviation="1"/>
<feComposite in2="hardAlpha" operator="arithmetic" k2="-1" k3="1"/>
<feColorMatrix type="matrix" values="0 0 0 0 0 0 0 0 0 0 0 0 0 0 0 0 0 0 0.25 0"/>
<feBlend mode="normal" in2="shape" result="effect1_innerShadow_12_134"/>
</filter>
<linearGradient id="paint0_linear_12_134" x1="91.4" y1="246.48" x2="91.4" y2="0.48" gradientUnits="userSpaceOnUse">
<stop stop-color="#E6E6E6"/>
<stop offset="1" stop-color="white"/>
</linearGradient>
<linearGradient id="paint1_linear_12_134" x1="138.751" y1="226.601" x2="138.751" y2="125.721" gradientUnits="userSpaceOnUse">
<stop stop-color="#1E1E1E"/>
<stop offset="1" stop-color="#3C3C3C"/>
</linearGradient>
</defs>
</svg>
