<svg width="185" height="246" viewBox="0 0 185 246" fill="none" xmlns="http://www.w3.org/2000/svg">
<path d="M175.05 0H9.95C4.45477 0 0 4.45477 0 9.95V236.05C0 241.545 4.45477 246 9.95 246H175.05C180.545 246 185 241.545 185 236.05V9.95C185 4.45477 180.545 0 175.05 0Z" fill="url(#paint0_linear_12_166)"/>
<path d="M166.21 182.06C165.866 178.688 164.707 175.451 162.832 172.628C160.958 169.804 158.424 167.479 155.451 165.853C152.477 164.227 149.153 163.349 145.764 163.294C142.375 163.24 139.024 164.01 136 165.54C139.611 162.967 142.312 159.312 143.711 155.105C145.11 150.897 145.137 146.353 143.786 142.13C142.435 137.906 139.777 134.221 136.195 131.607C132.614 128.992 128.294 127.583 123.86 127.583C119.426 127.583 115.106 128.992 111.525 131.607C107.943 134.221 105.285 137.906 103.934 142.13C102.584 146.353 102.61 150.897 104.009 155.105C105.408 159.312 108.109 162.967 111.72 165.54C108.445 163.887 104.792 163.124 101.129 163.329C97.4657 163.534 93.9209 164.699 90.8505 166.707C87.78 168.716 85.2921 171.497 83.6365 174.771C81.9809 178.045 81.216 181.697 81.4185 185.36C81.621 189.024 82.7838 192.569 84.7902 195.641C86.7966 198.713 89.5759 201.202 92.849 202.86C96.1221 204.518 99.7737 205.285 103.437 205.085C107.101 204.885 110.647 203.724 113.72 201.72L100.36 224.87C100.148 225.237 100.036 225.654 100.036 226.079C100.036 226.503 100.147 226.92 100.359 227.288C100.57 227.655 100.875 227.961 101.242 228.174C101.609 228.386 102.026 228.499 102.45 228.5H145.2C145.625 228.501 146.043 228.389 146.412 228.177C146.78 227.965 147.086 227.66 147.299 227.292C147.512 226.924 147.624 226.506 147.624 226.081C147.624 225.656 147.513 225.238 147.3 224.87L134 201.72C137.307 203.884 141.16 205.066 145.112 205.128C149.064 205.191 152.953 204.132 156.327 202.073C159.701 200.015 162.422 197.042 164.175 193.5C165.928 189.958 166.641 185.991 166.23 182.06H166.21Z" fill="url(#paint1_linear_12_166)"/>
<path d="M23.66 17.23H83.47V33.32H38.82V58.73C43.9118 54.6712 50.2489 52.4952 56.76 52.57C60.8169 52.6202 64.8313 53.4028 68.61 54.88C71.7166 56.2657 74.5174 58.2541 76.85 60.73C79.9188 63.7148 82.2416 67.3804 83.63 71.43C84.427 74.061 84.9399 76.7698 85.16 79.51C85.4734 82.75 85.63 86.7267 85.63 91.44C85.63 98.7333 85.1167 104.33 84.09 108.23C83.0556 111.99 81.2165 115.481 78.7 118.46C76.0629 121.745 72.7912 124.466 69.08 126.46C64.6464 129.064 59.5917 130.422 54.45 130.39C46.9499 130.423 39.6373 128.047 33.59 123.61C27.17 118.99 23.19 111.523 21.65 101.21H37.74C39.4934 109.83 44.8567 114.193 53.83 114.3C57.6834 114.3 60.7634 113.53 63.07 111.99C65.2056 110.595 66.8277 108.541 67.69 106.14C68.6368 103.621 69.2063 100.976 69.38 98.29C69.49 95.51 69.54 92.82 69.54 90.2C69.64 83.7933 68.64 78.5867 66.54 74.58C65.3438 72.6155 63.6083 71.0362 61.54 70.03C58.9101 69.0354 56.1105 68.5665 53.3 68.65C50.506 68.6195 47.751 69.3082 45.3 70.65C42.8934 72.03 40.7367 74.4433 38.83 77.89H23.66V17.23Z" fill="#2B2B2B"/>
<g filter="url(#filter0_i_12_166)">
<path fill-rule="evenodd" clip-rule="evenodd" d="M9.95 0H175.05C180.545 0 185 4.45477 185 9.95V236.05C185 241.545 180.545 246 175.05 246H9.95C4.45477 246 0 241.545 0 236.05V9.95C0 4.45477 4.45477 0 9.95 0ZM15 10C12.2386 10 10 12.2386 10 15V231C10 233.761 12.2386 236 15 236H170C172.761 236 175 233.761 175 231V15C175 12.2386 172.761 10 170 10H15Z" fill="#FFB800"/>
</g>
<defs>
<filter id="filter0_i_12_166" x="0" y="0" width="185" height="248" filterUnits="userSpaceOnUse" color-interpolation-filters="sRGB">
<feFlood flood-opacity="0" result="BackgroundImageFix"/>
<feBlend mode="normal" in="SourceGraphic" in2="BackgroundImageFix" result="shape"/>
<feColorMatrix in="SourceAlpha" type="matrix" values="0 0 0 0 0 0 0 0 0 0 0 0 0 0 0 0 0 0 127 0" result="hardAlpha"/>
<feOffset dy="4"/>
<feGaussianBlur stdDeviation="1"/>
<feComposite in2="hardAlpha" operator="arithmetic" k2="-1" k3="1"/>
<feColorMatrix type="matrix" values="0 0 0 0 0 0 0 0 0 0 0 0 0 0 0 0 0 0 0.25 0"/>
<feBlend mode="normal" in2="shape" result="effect1_innerShadow_12_166"/>
</filter>
<linearGradient id="paint0_linear_12_166" x1="93.26" y1="245.28" x2="93.26" y2="-0.719999" gradientUnits="userSpaceOnUse">
<stop stop-color="#E6E6E6"/>
<stop offset="1" stop-color="white"/>
</linearGradient>
<linearGradient id="paint1_linear_12_166" x1="138.935" y1="229.314" x2="138.935" y2="128.434" gradientUnits="userSpaceOnUse">
<stop stop-color="#1E1E1E"/>
<stop offset="1" stop-color="#3C3C3C"/>
</linearGradient>
</defs>
</svg>
