<svg width="185" height="246" viewBox="0 0 185 246" fill="none" xmlns="http://www.w3.org/2000/svg">
<path d="M175.05 0H9.95C4.45477 0 0 4.45477 0 9.95V236.05C0 241.545 4.45477 246 9.95 246H175.05C180.545 246 185 241.545 185 236.05V9.95C185 4.45477 180.545 0 175.05 0Z" fill="url(#paint0_linear_12_182)"/>
<path d="M166.21 182.06C165.866 178.688 164.707 175.451 162.832 172.628C160.958 169.804 158.424 167.479 155.451 165.853C152.477 164.227 149.153 163.349 145.764 163.294C142.375 163.24 139.024 164.01 136 165.54C139.611 162.967 142.312 159.312 143.711 155.105C145.11 150.897 145.137 146.353 143.786 142.13C142.435 137.906 139.777 134.221 136.195 131.607C132.614 128.992 128.294 127.583 123.86 127.583C119.426 127.583 115.106 128.992 111.525 131.607C107.943 134.221 105.285 137.906 103.934 142.13C102.584 146.353 102.61 150.897 104.009 155.105C105.408 159.312 108.109 162.967 111.72 165.54C108.445 163.887 104.792 163.124 101.129 163.329C97.4657 163.534 93.9209 164.699 90.8505 166.707C87.78 168.716 85.2921 171.497 83.6365 174.771C81.9809 178.045 81.216 181.697 81.4185 185.36C81.621 189.024 82.7838 192.569 84.7902 195.641C86.7966 198.713 89.5759 201.202 92.849 202.86C96.1221 204.518 99.7737 205.285 103.437 205.085C107.101 204.885 110.647 203.724 113.72 201.72L100.36 224.87C100.148 225.237 100.036 225.654 100.036 226.079C100.036 226.503 100.147 226.92 100.359 227.288C100.57 227.655 100.875 227.961 101.242 228.174C101.609 228.386 102.026 228.499 102.45 228.5H145.2C145.625 228.501 146.043 228.389 146.412 228.177C146.78 227.965 147.086 227.66 147.299 227.292C147.512 226.924 147.624 226.506 147.624 226.081C147.624 225.656 147.513 225.238 147.3 224.87L134 201.72C137.307 203.884 141.16 205.066 145.112 205.128C149.064 205.191 152.953 204.132 156.327 202.073C159.701 200.015 162.422 197.042 164.175 193.5C165.928 189.958 166.641 185.991 166.23 182.06H166.21Z" fill="url(#paint1_linear_12_182)"/>
<path d="M67.79 17.23C67.6064 17.8045 67.3616 18.3577 67.06 18.88C66.5267 19.98 65.8 21.4733 64.88 23.36C63.96 25.25 62.88 27.43 61.66 29.88L57.79 37.62C56.4567 40.3333 55.0767 43.0667 53.65 45.82C52.25 48.58 50.89 51.21 49.59 53.71L46 60.53C44.92 62.53 44 64.21 43.31 65.43C44.8443 64.553 46.5498 64.0175 48.31 63.86C50.4654 63.6829 52.6299 63.6461 54.79 63.75C57.9552 63.7756 61.087 64.3999 64.02 65.59C68.8087 67.5581 72.8396 71.0106 75.52 75.44C76.712 77.3381 77.7167 79.3476 78.52 81.44C79.1827 83.2441 79.6781 85.1052 80 87C80.2411 88.3208 80.3815 89.658 80.42 91V95.41C80.42 96.41 80.42 97.41 80.42 98.41C80.42 99.41 80.35 100.3 80.3 101.02C80.3 101.38 80.08 102.31 79.8 103.82C79.4293 105.644 78.9178 107.436 78.27 109.18C77.4134 111.495 76.349 113.727 75.09 115.85C73.611 118.347 71.7787 120.617 69.65 122.59C67.2199 124.834 64.4529 126.683 61.45 128.07C57.8218 129.744 53.917 130.737 49.93 131C45.7935 131.428 41.6135 131.089 37.6 130C34.2751 129.102 31.134 127.626 28.32 125.64C25.8035 123.831 23.6038 121.618 21.81 119.09C20.1343 116.725 18.7572 114.163 17.71 111.46C16.7585 109.041 16.0875 106.522 15.71 103.95C15.3861 101.923 15.3223 99.8631 15.52 97.82C15.82 95.32 16.16 93.08 16.52 91.11C16.88 89.14 17.3 87.27 17.79 85.48C18.28 83.69 18.79 81.93 19.44 80.19C20.09 78.45 20.76 76.57 21.58 74.52C21.78 74.01 22.35 72.8 23.27 70.88C24.19 68.96 25.32 66.61 26.68 63.8C28.04 60.99 29.55 57.9 31.24 54.52C32.93 51.14 34.61 47.73 36.29 44.25C40.29 36.1767 44.76 27.1767 49.7 17.25L67.79 17.23ZM64.57 99C64.57 97.06 64.4934 94.9133 64.34 92.56C64.1935 90.2383 63.61 87.9652 62.62 85.86C61.523 83.626 59.8397 81.7319 57.75 80.38C55.5034 78.8467 52.31 77.9267 48.17 77.62C46.3834 77.4502 44.5811 77.6581 42.88 78.23C41.3597 78.7598 39.9373 79.5369 38.67 80.53C37.4566 81.4826 36.3858 82.604 35.49 83.86C34.6458 85.0347 33.9031 86.2792 33.27 87.58C32.7313 88.6738 32.3058 89.8197 32 91C31.7864 91.7906 31.659 92.602 31.62 93.42C31.62 94.69 31.62 96.11 31.7 97.67C31.7494 99.2365 31.9132 100.797 32.19 102.34C32.4729 103.9 32.95 105.418 33.61 106.86C34.2838 108.33 35.2501 109.646 36.45 110.73C37.8237 111.95 39.4241 112.888 41.16 113.49C43.4671 114.272 45.8949 114.638 48.33 114.57C50.3683 114.656 52.4044 114.354 54.33 113.68C55.9161 113.119 57.3942 112.291 58.7 111.23C59.8546 110.284 60.8505 109.16 61.65 107.9C62.3726 106.765 62.9758 105.559 63.45 104.3C63.8424 103.27 64.1371 102.205 64.33 101.12C64.4597 100.42 64.5399 99.7114 64.57 99V99Z" fill="#2B2B2B"/>
<g filter="url(#filter0_i_12_182)">
<path fill-rule="evenodd" clip-rule="evenodd" d="M9.95 0H175.05C180.545 0 185 4.45477 185 9.95V236.05C185 241.545 180.545 246 175.05 246H9.95C4.45477 246 0 241.545 0 236.05V9.95C0 4.45477 4.45477 0 9.95 0ZM15 10C12.2386 10 10 12.2386 10 15V231C10 233.761 12.2386 236 15 236H170C172.761 236 175 233.761 175 231V15C175 12.2386 172.761 10 170 10H15Z" fill="#FFB800"/>
</g>
<defs>
<filter id="filter0_i_12_182" x="0" y="0" width="185" height="248" filterUnits="userSpaceOnUse" color-interpolation-filters="sRGB">
<feFlood flood-opacity="0" result="BackgroundImageFix"/>
<feBlend mode="normal" in="SourceGraphic" in2="BackgroundImageFix" result="shape"/>
<feColorMatrix in="SourceAlpha" type="matrix" values="0 0 0 0 0 0 0 0 0 0 0 0 0 0 0 0 0 0 127 0" result="hardAlpha"/>
<feOffset dy="4"/>
<feGaussianBlur stdDeviation="1"/>
<feComposite in2="hardAlpha" operator="arithmetic" k2="-1" k3="1"/>
<feColorMatrix type="matrix" values="0 0 0 0 0 0 0 0 0 0 0 0 0 0 0 0 0 0 0.25 0"/>
<feBlend mode="normal" in2="shape" result="effect1_innerShadow_12_182"/>
</filter>
<linearGradient id="paint0_linear_12_182" x1="92.33" y1="245.94" x2="92.33" y2="-0.0599999" gradientUnits="userSpaceOnUse">
<stop stop-color="#E6E6E6"/>
<stop offset="1" stop-color="white"/>
</linearGradient>
<linearGradient id="paint1_linear_12_182" x1="139.396" y1="230.681" x2="139.396" y2="129.801" gradientUnits="userSpaceOnUse">
<stop stop-color="#1E1E1E"/>
<stop offset="1" stop-color="#3C3C3C"/>
</linearGradient>
</defs>
</svg>
