<svg width="185" height="246" viewBox="0 0 185 246" fill="none" xmlns="http://www.w3.org/2000/svg">
<path d="M175.05 0H9.95C4.45477 0 0 4.45477 0 9.95V236.05C0 241.545 4.45477 246 9.95 246H175.05C180.545 246 185 241.545 185 236.05V9.95C185 4.45477 180.545 0 175.05 0Z" fill="url(#paint0_linear_12_214)"/>
<path d="M166.21 182.06C165.866 178.688 164.707 175.451 162.832 172.628C160.958 169.804 158.424 167.479 155.451 165.853C152.477 164.227 149.153 163.349 145.764 163.294C142.375 163.24 139.024 164.01 136 165.54C139.611 162.967 142.312 159.312 143.711 155.105C145.11 150.897 145.137 146.353 143.786 142.13C142.435 137.906 139.777 134.221 136.195 131.607C132.614 128.992 128.294 127.583 123.86 127.583C119.426 127.583 115.106 128.992 111.525 131.607C107.943 134.221 105.285 137.906 103.934 142.13C102.584 146.353 102.61 150.897 104.009 155.105C105.408 159.312 108.109 162.967 111.72 165.54C108.445 163.887 104.792 163.124 101.129 163.329C97.4657 163.534 93.9209 164.699 90.8505 166.707C87.78 168.716 85.2921 171.496 83.6365 174.771C81.9809 178.045 81.216 181.697 81.4185 185.36C81.621 189.024 82.7838 192.569 84.7902 195.641C86.7966 198.713 89.5759 201.202 92.849 202.86C96.1221 204.518 99.7737 205.285 103.437 205.085C107.101 204.885 110.647 203.724 113.72 201.72L100.36 224.87C100.148 225.237 100.036 225.654 100.036 226.079C100.036 226.503 100.147 226.92 100.359 227.287C100.57 227.655 100.875 227.961 101.242 228.174C101.609 228.386 102.026 228.499 102.45 228.5H145.2C145.625 228.501 146.043 228.389 146.412 228.177C146.78 227.965 147.086 227.66 147.299 227.292C147.512 226.924 147.624 226.506 147.624 226.081C147.624 225.656 147.513 225.238 147.3 224.87L134 201.72C137.307 203.884 141.16 205.066 145.112 205.128C149.064 205.191 152.953 204.132 156.327 202.073C159.701 200.015 162.422 197.042 164.175 193.5C165.928 189.958 166.641 185.991 166.23 182.06H166.21Z" fill="url(#paint1_linear_12_214)"/>
<path d="M19.33 97.36C19.4433 86.5667 23.8466 78.1767 32.54 72.19C29.2958 69.3823 26.6354 65.9641 24.71 62.13C22.4377 58.3351 21.2931 53.9716 21.41 49.55C21.51 40.2167 24.6566 32.5133 30.85 26.44C36.6766 20.44 44.1966 17.37 53.41 17.23C62.7833 17.3367 70.45 20.4067 76.41 26.44C82.37 32.4733 85.4 40.1767 85.5 49.55C85.616 53.9334 84.5816 58.2707 82.5 62.13C80.3921 65.9282 77.6413 69.332 74.37 72.19C83.0366 78.19 87.4366 86.58 87.57 97.36C87.47 107.453 84.17 115.513 77.67 121.54C71.07 127.727 62.9833 130.873 53.41 130.98C43.9033 130.88 35.9466 127.733 29.54 121.54C22.84 115.5 19.4366 107.44 19.33 97.36ZM35.38 97.21C35.359 99.5793 35.8401 101.926 36.7915 104.096C37.7429 106.266 39.1431 108.21 40.9 109.8C42.5225 111.467 44.47 112.784 46.6218 113.668C48.7736 114.552 51.084 114.985 53.41 114.94C55.7722 115 58.1217 114.575 60.313 113.691C62.5044 112.807 64.491 111.483 66.15 109.8C67.8676 108.187 69.2324 106.235 70.1583 104.068C71.0843 101.902 71.5513 99.5663 71.53 97.21C71.5618 94.83 71.1002 92.4693 70.1742 90.2766C69.2483 88.0838 67.878 86.1068 66.15 84.47C62.7019 81.2308 58.1408 79.4407 53.41 79.47C48.7537 79.4741 44.2763 81.2636 40.9 84.47C39.1352 86.0855 37.7312 88.0554 36.78 90.2508C35.8288 92.4462 35.3517 94.8176 35.38 97.21V97.21ZM37.45 49.21C37.55 54.3767 39.2166 58.3167 42.45 61.03C45.4496 63.7794 49.3811 65.2876 53.45 65.25C57.5857 65.311 61.5911 63.8032 64.66 61.03C67.7533 58.3433 69.3533 54.4133 69.46 49.24C69.3466 43.9067 67.7333 39.89 64.62 37.19C61.4706 34.5889 57.4938 33.2018 53.41 33.28C49.3932 33.2229 45.4895 34.6105 42.41 37.19C39.2033 39.9033 37.55 43.92 37.45 49.24V49.21Z" fill="#2B2B2B"/>
<g filter="url(#filter0_i_12_214)">
<path fill-rule="evenodd" clip-rule="evenodd" d="M9.95 0H175.05C180.545 0 185 4.45477 185 9.95V236.05C185 241.545 180.545 246 175.05 246H9.95C4.45477 246 0 241.545 0 236.05V9.95C0 4.45477 4.45477 0 9.95 0ZM15 10C12.2386 10 10 12.2386 10 15V231C10 233.761 12.2386 236 15 236H170C172.761 236 175 233.761 175 231V15C175 12.2386 172.761 10 170 10H15Z" fill="#FFB800"/>
</g>
<defs>
<filter id="filter0_i_12_214" x="0" y="0" width="185" height="248" filterUnits="userSpaceOnUse" color-interpolation-filters="sRGB">
<feFlood flood-opacity="0" result="BackgroundImageFix"/>
<feBlend mode="normal" in="SourceGraphic" in2="BackgroundImageFix" result="shape"/>
<feColorMatrix in="SourceAlpha" type="matrix" values="0 0 0 0 0 0 0 0 0 0 0 0 0 0 0 0 0 0 127 0" result="hardAlpha"/>
<feOffset dy="4"/>
<feGaussianBlur stdDeviation="1"/>
<feComposite in2="hardAlpha" operator="arithmetic" k2="-1" k3="1"/>
<feColorMatrix type="matrix" values="0 0 0 0 0 0 0 0 0 0 0 0 0 0 0 0 0 0 0.25 0"/>
<feBlend mode="normal" in2="shape" result="effect1_innerShadow_12_214"/>
</filter>
<linearGradient id="paint0_linear_12_214" x1="92.35" y1="246.42" x2="92.35" y2="0.42" gradientUnits="userSpaceOnUse">
<stop stop-color="#E6E6E6"/>
<stop offset="1" stop-color="white"/>
</linearGradient>
<linearGradient id="paint1_linear_12_214" x1="139.443" y1="232.126" x2="139.443" y2="131.246" gradientUnits="userSpaceOnUse">
<stop stop-color="#1E1E1E"/>
<stop offset="1" stop-color="#3C3C3C"/>
</linearGradient>
</defs>
</svg>
