<svg width="185" height="246" viewBox="0 0 185 246" fill="none" xmlns="http://www.w3.org/2000/svg">
<path d="M175.05 0H9.95C4.45477 0 0 4.45477 0 9.95V236.05C0 241.545 4.45477 246 9.95 246H175.05C180.545 246 185 241.545 185 236.05V9.95C185 4.45477 180.545 0 175.05 0Z" fill="url(#paint0_linear_12_230)"/>
<path d="M166.21 182.06C165.866 178.688 164.706 175.451 162.832 172.628C160.958 169.804 158.424 167.479 155.451 165.853C152.477 164.227 149.153 163.349 145.764 163.294C142.375 163.24 139.024 164.01 136 165.54C139.611 162.967 142.311 159.312 143.711 155.105C145.11 150.897 145.136 146.353 143.786 142.13C142.435 137.906 139.777 134.221 136.195 131.607C132.614 128.992 128.294 127.583 123.86 127.583C119.426 127.583 115.106 128.992 111.524 131.607C107.943 134.221 105.285 137.906 103.934 142.13C102.583 146.353 102.61 150.897 104.009 155.105C105.408 159.312 108.109 162.967 111.72 165.54C108.445 163.887 104.792 163.124 101.129 163.329C97.4656 163.534 93.9208 164.699 90.8504 166.707C87.7799 168.716 85.292 171.496 83.6364 174.771C81.9808 178.045 81.2158 181.697 81.4184 185.36C81.6209 189.024 82.7837 192.569 84.7901 195.641C86.7965 198.713 89.5758 201.202 92.8489 202.86C96.1219 204.518 99.7736 205.285 103.437 205.085C107.101 204.885 110.647 203.724 113.72 201.72L100.36 224.87C100.148 225.237 100.036 225.654 100.036 226.079C100.035 226.503 100.147 226.92 100.358 227.287C100.57 227.655 100.875 227.961 101.242 228.174C101.609 228.386 102.026 228.499 102.45 228.5H145.2C145.625 228.501 146.043 228.389 146.411 228.177C146.78 227.965 147.086 227.66 147.299 227.292C147.512 226.924 147.624 226.506 147.624 226.081C147.624 225.656 147.512 225.238 147.3 224.87L134 201.72C137.307 203.884 141.16 205.066 145.112 205.128C149.064 205.191 152.953 204.132 156.327 202.073C159.701 200.015 162.422 197.042 164.175 193.5C165.928 189.958 166.64 185.991 166.23 182.06H166.21Z" fill="url(#paint1_linear_12_230)"/>
<path d="M35.6201 130.53C36.0027 129.566 36.4401 128.624 36.9301 127.71L40.5601 120.41C42.0601 117.423 43.7268 114.09 45.5601 110.41L51.0401 99.6C52.8401 96.04 54.5268 92.7667 56.1001 89.78C57.6801 86.78 58.9501 84.45 59.9301 82.78C58.3812 83.6765 56.6533 84.2194 54.8701 84.37C52.6986 84.5572 50.5167 84.594 48.3401 84.48C45.2715 84.449 42.2384 83.8207 39.4101 82.63C36.9924 81.5839 34.7628 80.1481 32.8101 78.38C31.0011 76.725 29.4475 74.8108 28.2001 72.7C27.025 70.7575 26.0213 68.7165 25.2001 66.6C24.5106 64.7824 23.9786 62.9088 23.6101 61C23.3195 59.6848 23.1488 58.346 23.1001 57C23.1001 56.69 23.1001 56.12 23.1001 55.3C23.1001 54.48 23.1001 53.56 23.1001 52.55C23.1001 51.54 23.1001 50.55 23.1001 49.5C23.1152 48.6202 23.182 47.742 23.3001 46.87C23.3001 46.51 23.5201 45.6 23.8001 44.13C24.1805 42.3262 24.7089 40.5569 25.3801 38.84C26.2727 36.5479 27.36 34.3365 28.6301 32.23C30.0892 29.7743 31.8982 27.5443 34.0001 25.61C36.4544 23.4079 39.2423 21.6089 42.2601 20.28C45.9476 18.6771 49.8798 17.7101 53.8901 17.42C58.0411 16.9639 62.2402 17.2517 66.2901 18.27C69.5999 19.1214 72.7297 20.561 75.5301 22.52C78.0488 24.2854 80.2386 26.4786 82.0001 29C83.6347 31.338 84.978 33.8667 86.0001 36.53C86.9009 38.9409 87.5216 41.4474 87.8501 44C88.1444 46.02 88.1947 48.068 88.0001 50.1C87.6901 52.62 87.3501 54.88 87.0001 56.86C86.6501 58.84 86.2201 60.74 85.7301 62.54C85.2401 64.34 84.7301 66.12 84.0701 67.87C83.4101 69.62 82.7301 71.53 81.9001 73.59C81.6901 74.16 81.1401 75.39 80.2401 77.3C79.3401 79.21 78.2401 81.53 76.8401 84.3C75.4401 87.07 74.0001 90.11 72.3601 93.48C70.7201 96.85 69.0801 100.25 67.3601 103.64L54.0901 130.53H35.6201ZM39.1001 48.94C39.1001 50.94 39.2034 53.1567 39.4101 55.59C39.5988 57.9568 40.2119 60.2704 41.2201 62.42C42.3015 64.6395 43.9506 66.5335 46.0001 67.91C48.1734 69.43 51.2134 70.2933 55.1201 70.5C56.9288 70.6243 58.7436 70.3723 60.4501 69.76C61.9836 69.2095 63.4185 68.4161 64.7001 67.41C65.9155 66.4538 66.9953 65.3369 67.9101 64.09C68.7641 62.932 69.5137 61.7005 70.1501 60.41C70.6932 59.339 71.119 58.2125 71.4201 57.05C71.6466 56.2448 71.7775 55.4158 71.8101 54.58C71.8101 53.29 71.7201 51.85 71.6901 50.25C71.663 48.6205 71.5092 46.9956 71.2301 45.39C70.9534 43.7532 70.473 42.1575 69.8001 40.64C69.1401 39.1196 68.1653 37.7563 66.9401 36.64C65.5548 35.4269 63.9245 34.5265 62.1601 34C59.8194 33.3117 57.3712 33.0641 54.9401 33.27C52.148 33.2948 49.4223 34.1246 47.0901 35.66C45.2067 36.9551 43.5708 38.5775 42.2601 40.45C41.1727 42.0089 40.339 43.7303 39.7901 45.55C39.4338 46.6506 39.2024 47.7877 39.1001 48.94V48.94Z" fill="#2B2B2B"/>
<g filter="url(#filter0_i_12_230)">
<path fill-rule="evenodd" clip-rule="evenodd" d="M9.95 0H175.05C180.545 0 185 4.45477 185 9.95V236.05C185 241.545 180.545 246 175.05 246H9.95C4.45477 246 0 241.545 0 236.05V9.95C0 4.45477 4.45477 0 9.95 0ZM15 10C12.2386 10 10 12.2386 10 15V231C10 233.761 12.2386 236 15 236H170C172.761 236 175 233.761 175 231V15C175 12.2386 172.761 10 170 10H15Z" fill="#FFB800"/>
</g>
<defs>
<filter id="filter0_i_12_230" x="0" y="0" width="185" height="248" filterUnits="userSpaceOnUse" color-interpolation-filters="sRGB">
<feFlood flood-opacity="0" result="BackgroundImageFix"/>
<feBlend mode="normal" in="SourceGraphic" in2="BackgroundImageFix" result="shape"/>
<feColorMatrix in="SourceAlpha" type="matrix" values="0 0 0 0 0 0 0 0 0 0 0 0 0 0 0 0 0 0 127 0" result="hardAlpha"/>
<feOffset dy="4"/>
<feGaussianBlur stdDeviation="1"/>
<feComposite in2="hardAlpha" operator="arithmetic" k2="-1" k3="1"/>
<feColorMatrix type="matrix" values="0 0 0 0 0 0 0 0 0 0 0 0 0 0 0 0 0 0 0.25 0"/>
<feBlend mode="normal" in2="shape" result="effect1_innerShadow_12_230"/>
</filter>
<linearGradient id="paint0_linear_12_230" x1="91.34" y1="244.93" x2="91.34" y2="-1.07" gradientUnits="userSpaceOnUse">
<stop stop-color="#E6E6E6"/>
<stop offset="1" stop-color="white"/>
</linearGradient>
<linearGradient id="paint1_linear_12_230" x1="139.565" y1="233.662" x2="139.565" y2="132.782" gradientUnits="userSpaceOnUse">
<stop stop-color="#1E1E1E"/>
<stop offset="1" stop-color="#3C3C3C"/>
</linearGradient>
</defs>
</svg>
