<svg width="185" height="246" viewBox="0 0 185 246" fill="none" xmlns="http://www.w3.org/2000/svg">
<path d="M175.05 0H9.95C4.45477 0 0 4.45477 0 9.95V236.05C0 241.545 4.45477 246 9.95 246H175.05C180.545 246 185 241.545 185 236.05V9.95C185 4.45477 180.545 0 175.05 0Z" fill="url(#paint0_linear_12_280)"/>
<path d="M166.21 182.06C165.866 178.688 164.706 175.451 162.832 172.628C160.958 169.804 158.424 167.479 155.451 165.853C152.477 164.227 149.153 163.349 145.764 163.294C142.375 163.24 139.024 164.01 136 165.54C139.611 162.967 142.312 159.312 143.711 155.105C145.11 150.897 145.136 146.353 143.786 142.13C142.435 137.906 139.777 134.221 136.195 131.607C132.614 128.992 128.294 127.583 123.86 127.583C119.426 127.583 115.106 128.992 111.525 131.607C107.943 134.221 105.285 137.906 103.934 142.13C102.583 146.353 102.61 150.897 104.009 155.105C105.408 159.312 108.109 162.967 111.72 165.54C108.445 163.887 104.792 163.124 101.129 163.329C97.4657 163.534 93.9208 164.699 90.8504 166.707C87.78 168.716 85.292 171.496 83.6364 174.771C81.9809 178.045 81.2159 181.697 81.4184 185.36C81.6209 189.024 82.7838 192.569 84.7901 195.641C86.7965 198.713 89.5758 201.202 92.8489 202.86C96.122 204.518 99.7737 205.285 103.437 205.085C107.101 204.885 110.647 203.724 113.72 201.72L100.36 224.87C100.148 225.237 100.036 225.654 100.036 226.079C100.035 226.503 100.147 226.92 100.359 227.287C100.57 227.655 100.875 227.961 101.242 228.174C101.609 228.386 102.026 228.499 102.45 228.5H145.2C145.625 228.501 146.043 228.389 146.411 228.177C146.78 227.965 147.086 227.66 147.299 227.292C147.512 226.924 147.624 226.506 147.624 226.081C147.624 225.656 147.513 225.238 147.3 224.87L134 201.72C137.307 203.884 141.16 205.066 145.112 205.128C149.064 205.191 152.953 204.132 156.327 202.073C159.701 200.015 162.422 197.042 164.175 193.5C165.928 189.958 166.641 185.991 166.23 182.06H166.21Z" fill="url(#paint1_linear_12_280)"/>
<path d="M79.3 121C72.72 127.267 63.9533 130.5 53 130.7C44.22 130.5 36.8867 128.357 31 124.27C25 120.343 20.6667 115.8 18 110.64C17.1933 108.96 16.4533 107.353 15.78 105.82C15.0753 103.875 14.5629 101.865 14.25 99.82C13.47 95.34 13.0767 86.7333 13.07 74C13.07 61.0333 13.4533 52.3666 14.22 48C14.8113 44.2281 16.0927 40.5974 18 37.29C20.6667 32.1433 25 27.55 31 23.51C37 19.47 44.3333 17.3766 53 17.23C61.88 17.3366 69.2833 19.43 75.21 23.51C81.1367 27.59 85.36 32.1833 87.88 37.29C89.9557 40.5059 91.288 44.1442 91.78 47.94C92.4467 52.3333 92.78 61 92.78 73.94C92.78 85.52 92.5233 93.61 92.01 98.21C91.6233 101.986 90.5059 105.651 88.72 109L103.42 120.71L93.42 132.35L79.3 121ZM51.2 98.54L61.23 87L74.23 97.34C75.2967 93.56 75.83 85.7766 75.83 73.99C75.83 63.01 75.45 55.53 74.69 51.55C74.0353 48.1157 72.4748 44.9188 70.17 42.29C68.3769 39.9004 66.0746 37.9397 63.43 36.55C60.17 34.9989 56.6101 34.1797 53 34.15C49.4306 34.1515 45.9083 34.9653 42.7 36.53C39.9808 37.9173 37.5931 39.8752 35.7 42.27C33.4006 44.8825 31.8889 48.0932 31.34 51.53C30.52 55.53 30.11 63.01 30.11 73.97C30.11 84.93 30.5067 92.3567 31.3 96.25C31.8237 99.739 33.3369 103.005 35.66 105.66C37.5334 108.036 39.9286 109.949 42.66 111.25C45.8113 113.021 49.3871 113.896 53 113.78C58.2133 113.78 62.3733 112.48 65.48 109.88L51.2 98.54Z" fill="#2B2B2B"/>
<g filter="url(#filter0_i_12_280)">
<path fill-rule="evenodd" clip-rule="evenodd" d="M9.95 0H175.05C180.545 0 185 4.45477 185 9.95V236.05C185 241.545 180.545 246 175.05 246H9.95C4.45477 246 0 241.545 0 236.05V9.95C0 4.45477 4.45477 0 9.95 0ZM15 10C12.2386 10 10 12.2386 10 15V231C10 233.761 12.2386 236 15 236H170C172.761 236 175 233.761 175 231V15C175 12.2386 172.761 10 170 10H15Z" fill="#FFB800"/>
</g>
<defs>
<filter id="filter0_i_12_280" x="0" y="0" width="185" height="248" filterUnits="userSpaceOnUse" color-interpolation-filters="sRGB">
<feFlood flood-opacity="0" result="BackgroundImageFix"/>
<feBlend mode="normal" in="SourceGraphic" in2="BackgroundImageFix" result="shape"/>
<feColorMatrix in="SourceAlpha" type="matrix" values="0 0 0 0 0 0 0 0 0 0 0 0 0 0 0 0 0 0 127 0" result="hardAlpha"/>
<feOffset dy="4"/>
<feGaussianBlur stdDeviation="1"/>
<feComposite in2="hardAlpha" operator="arithmetic" k2="-1" k3="1"/>
<feColorMatrix type="matrix" values="0 0 0 0 0 0 0 0 0 0 0 0 0 0 0 0 0 0 0.25 0"/>
<feBlend mode="normal" in2="shape" result="effect1_innerShadow_12_280"/>
</filter>
<linearGradient id="paint0_linear_12_280" x1="93.05" y1="246.79" x2="93.05" y2="0.789999" gradientUnits="userSpaceOnUse">
<stop stop-color="#E6E6E6"/>
<stop offset="1" stop-color="white"/>
</linearGradient>
<linearGradient id="paint1_linear_12_280" x1="139.489" y1="236.713" x2="139.489" y2="135.833" gradientUnits="userSpaceOnUse">
<stop stop-color="#1E1E1E"/>
<stop offset="1" stop-color="#3C3C3C"/>
</linearGradient>
</defs>
</svg>
