<svg width="185" height="246" viewBox="0 0 185 246" fill="none" xmlns="http://www.w3.org/2000/svg">
<path d="M175.05 0H9.95C4.45477 0 0 4.45477 0 9.95V236.05C0 241.545 4.45477 246 9.95 246H175.05C180.545 246 185 241.545 185 236.05V9.95C185 4.45477 180.545 0 175.05 0Z" fill="url(#paint0_linear_12_138)"/>
<path d="M84.29 178L124 228.44L163.71 178L124 127.56L84.29 178Z" fill="url(#paint1_linear_12_138)"/>
<path d="M47.68 71H53.16C58.5733 71 62.7767 69.49 65.77 66.47C67.2639 64.9887 68.4335 63.2131 69.2047 61.2557C69.9759 59.2984 70.3319 57.2022 70.25 55.1C70.3113 52.9623 69.9341 50.8346 69.1416 48.8483C68.3492 46.8619 67.1582 45.0589 65.6423 43.5505C64.1263 42.042 62.3174 40.86 60.3271 40.0774C58.3369 39.2948 56.2074 38.9281 54.07 39C50.6902 38.9884 47.4122 40.1553 44.8 42.3C41.86 44.5 39.8833 47.9033 38.87 52.51H23C23.6643 44.5257 27.2202 37.0584 33 31.51C35.6808 28.7896 38.8751 26.6286 42.3976 25.1523C45.9201 23.676 49.7007 22.9138 53.52 22.91C63.6 23.0167 71.6 26.27 77.52 32.67C83.0998 38.6791 86.1944 46.5798 86.18 54.78C86.1892 59.0314 85.4163 63.2482 83.9 67.22C82.1267 71.22 78.96 74.78 74.4 77.9C78.7045 80.6114 82.1838 84.4504 84.46 89C86.4313 93.2313 87.4552 97.842 87.46 102.51C87.36 113.01 84.1433 121.28 77.81 127.32C71.5833 133.507 63.5833 136.653 53.81 136.76C46.4492 136.827 39.3168 134.206 33.75 129.39C27.9167 124.463 24.1267 117.333 22.38 108H38.26C39.4916 111.464 41.5514 114.574 44.26 117.06C46.8867 119.467 50.38 120.67 54.74 120.67C56.931 120.718 59.1083 120.313 61.1354 119.48C63.1625 118.647 64.9957 117.405 66.52 115.83C69.76 112.81 71.4267 108.51 71.52 102.93C71.42 97.25 69.7533 92.8467 66.52 89.72C63.2251 86.6616 58.8529 85.0328 54.36 85.19H47.68V71Z" fill="#BC4444"/>
<g filter="url(#filter0_i_12_138)">
<path fill-rule="evenodd" clip-rule="evenodd" d="M9.95 0H175.05C180.545 0 185 4.45477 185 9.95V236.05C185 241.545 180.545 246 175.05 246H9.95C4.45477 246 0 241.545 0 236.05V9.95C0 4.45477 4.45477 0 9.95 0ZM15 10C12.2386 10 10 12.2386 10 15V231C10 233.761 12.2386 236 15 236H170C172.761 236 175 233.761 175 231V15C175 12.2386 172.761 10 170 10H15Z" fill="#FFB800"/>
</g>
<defs>
<filter id="filter0_i_12_138" x="0" y="0" width="185" height="248" filterUnits="userSpaceOnUse" color-interpolation-filters="sRGB">
<feFlood flood-opacity="0" result="BackgroundImageFix"/>
<feBlend mode="normal" in="SourceGraphic" in2="BackgroundImageFix" result="shape"/>
<feColorMatrix in="SourceAlpha" type="matrix" values="0 0 0 0 0 0 0 0 0 0 0 0 0 0 0 0 0 0 127 0" result="hardAlpha"/>
<feOffset dy="4"/>
<feGaussianBlur stdDeviation="1"/>
<feComposite in2="hardAlpha" operator="arithmetic" k2="-1" k3="1"/>
<feColorMatrix type="matrix" values="0 0 0 0 0 0 0 0 0 0 0 0 0 0 0 0 0 0 0.25 0"/>
<feBlend mode="normal" in2="shape" result="effect1_innerShadow_12_138"/>
</filter>
<linearGradient id="paint0_linear_12_138" x1="93.35" y1="245.4" x2="93.35" y2="-0.599999" gradientUnits="userSpaceOnUse">
<stop stop-color="#E6E6E6"/>
<stop offset="1" stop-color="white"/>
</linearGradient>
<linearGradient id="paint1_linear_12_138" x1="140.711" y1="226.842" x2="140.711" y2="125.962" gradientUnits="userSpaceOnUse">
<stop stop-color="#B73737"/>
<stop offset="1" stop-color="#C45757"/>
</linearGradient>
</defs>
</svg>
