<svg width="185" height="246" viewBox="0 0 185 246" fill="none" xmlns="http://www.w3.org/2000/svg">
<path d="M175.05 0H9.95C4.45477 0 0 4.45477 0 9.95V236.05C0 241.545 4.45477 246 9.95 246H175.05C180.545 246 185 241.545 185 236.05V9.95C185 4.45477 180.545 0 175.05 0Z" fill="url(#paint0_linear_12_186)"/>
<path d="M84.29 178L124 228.44L163.71 178L124 127.56L84.29 178Z" fill="url(#paint1_linear_12_186)"/>
<path d="M68.29 21.44C68.1063 22.0145 67.8616 22.5677 67.56 23.09C67.0267 24.19 66.3 25.6833 65.38 27.57C64.46 29.4567 63.3867 31.63 62.16 34.09L58.29 41.83C56.9567 44.5367 55.5767 47.27 54.15 50.03C52.75 52.79 51.39 55.42 50.09 57.92L46.53 64.74C45.45 66.74 44.53 68.42 43.84 69.65C45.3717 68.7654 47.0781 68.2261 48.84 68.07C51.0028 67.9053 53.1741 67.8819 55.34 68C58.5047 68.0304 61.6356 68.6545 64.57 69.84C69.3586 71.8081 73.3895 75.2606 76.07 79.69C77.262 81.5881 78.2667 83.5976 79.07 85.69C79.7337 87.4808 80.2325 89.3285 80.56 91.21C80.8011 92.5308 80.9415 93.868 80.98 95.21V99.62C80.98 100.62 80.98 101.62 80.98 102.62C80.98 103.62 80.91 104.51 80.86 105.23C80.86 105.59 80.64 106.52 80.36 108.03C79.9893 109.854 79.4778 111.646 78.83 113.39C77.9733 115.705 76.909 117.937 75.65 120.06C74.171 122.557 72.3387 124.827 70.21 126.8C67.7798 129.044 65.0129 130.893 62.01 132.28C58.3813 133.917 54.4838 134.876 50.51 135.11C46.3789 135.563 42.1998 135.254 38.18 134.2C34.8561 133.294 31.7156 131.815 28.9 129.83C26.3835 128.021 24.1838 125.808 22.39 123.28C20.7142 120.915 19.3371 118.353 18.29 115.65C17.3368 113.232 16.6657 110.712 16.29 108.14C15.9661 106.113 15.9022 104.053 16.1 102.01C16.4 99.51 16.74 97.27 17.1 95.3C17.46 93.33 17.88 91.46 18.37 89.67C18.86 87.88 19.37 86.12 20.02 84.39C20.67 82.66 21.34 80.76 22.16 78.71C22.36 78.2 22.93 76.99 23.85 75.07C24.77 73.15 25.9 70.8 27.26 67.99C28.62 65.18 30.13 62.09 31.82 58.71C33.51 55.33 35.11 52 36.79 48.5C40.79 40.42 45.26 31.4 50.2 21.44H68.29ZM65.07 103.21C65.07 101.27 64.9933 99.1233 64.84 96.77C64.6935 94.4483 64.1099 92.1752 63.12 90.07C62.0229 87.836 60.3397 85.9419 58.25 84.59C56.0033 83.0567 52.81 82.1367 48.67 81.83C46.8834 81.6602 45.0811 81.8681 43.38 82.44C41.8597 82.9698 40.4372 83.7469 39.17 84.74C37.9601 85.6933 36.8927 86.8147 36 88.07C35.1557 89.2447 34.4131 90.4892 33.78 91.79C33.2385 92.8802 32.8096 94.0228 32.5 95.2C32.2863 95.9906 32.1589 96.802 32.12 97.62C32.12 98.89 32.12 100.31 32.2 101.87C32.2487 103.437 32.4125 104.997 32.69 106.54C32.9729 108.1 33.4499 109.618 34.11 111.06C34.7984 112.534 35.782 113.851 37 114.93C38.3737 116.15 39.9741 117.088 41.71 117.69C44.017 118.472 46.4449 118.838 48.88 118.77C50.9183 118.856 52.9543 118.554 54.88 117.88C56.466 117.319 57.9441 116.491 59.25 115.43C60.4045 114.484 61.4004 113.36 62.2 112.1C62.9226 110.965 63.5258 109.759 64 108.5C64.3924 107.47 64.687 106.405 64.88 105.32C64.9925 104.622 65.0559 103.917 65.07 103.21V103.21Z" fill="#BC4444"/>
<g filter="url(#filter0_i_12_186)">
<path fill-rule="evenodd" clip-rule="evenodd" d="M9.95 0H175.05C180.545 0 185 4.45477 185 9.95V236.05C185 241.545 180.545 246 175.05 246H9.95C4.45477 246 0 241.545 0 236.05V9.95C0 4.45477 4.45477 0 9.95 0ZM15 10C12.2386 10 10 12.2386 10 15V231C10 233.761 12.2386 236 15 236H170C172.761 236 175 233.761 175 231V15C175 12.2386 172.761 10 170 10H15Z" fill="#FFB800"/>
</g>
<defs>
<filter id="filter0_i_12_186" x="0" y="0" width="185" height="248" filterUnits="userSpaceOnUse" color-interpolation-filters="sRGB">
<feFlood flood-opacity="0" result="BackgroundImageFix"/>
<feBlend mode="normal" in="SourceGraphic" in2="BackgroundImageFix" result="shape"/>
<feColorMatrix in="SourceAlpha" type="matrix" values="0 0 0 0 0 0 0 0 0 0 0 0 0 0 0 0 0 0 127 0" result="hardAlpha"/>
<feOffset dy="4"/>
<feGaussianBlur stdDeviation="1"/>
<feComposite in2="hardAlpha" operator="arithmetic" k2="-1" k3="1"/>
<feColorMatrix type="matrix" values="0 0 0 0 0 0 0 0 0 0 0 0 0 0 0 0 0 0 0.25 0"/>
<feBlend mode="normal" in2="shape" result="effect1_innerShadow_12_186"/>
</filter>
<linearGradient id="paint0_linear_12_186" x1="93.39" y1="246.36" x2="93.39" y2="0.36" gradientUnits="userSpaceOnUse">
<stop stop-color="#E6E6E6"/>
<stop offset="1" stop-color="white"/>
</linearGradient>
<linearGradient id="paint1_linear_12_186" x1="140.858" y1="230.404" x2="140.858" y2="129.524" gradientUnits="userSpaceOnUse">
<stop stop-color="#B73737"/>
<stop offset="1" stop-color="#C45757"/>
</linearGradient>
</defs>
</svg>
