<svg width="185" height="246" viewBox="0 0 185 246" fill="none" xmlns="http://www.w3.org/2000/svg">
<path d="M175.05 0H9.95C4.45477 0 0 4.45477 0 9.95V236.05C0 241.545 4.45477 246 9.95 246H175.05C180.545 246 185 241.545 185 236.05V9.95C185 4.45477 180.545 0 175.05 0Z" fill="url(#paint0_linear_12_218)"/>
<path d="M84.29 178L124 228.44L163.71 178L124 127.56L84.29 178Z" fill="url(#paint1_linear_12_218)"/>
<path d="M18.83 100.58C18.9433 89.78 23.3333 81.3867 32 75.4C28.7584 72.5938 26.0982 69.1794 24.17 65.35C21.8989 61.5509 20.7545 57.1846 20.87 52.76C20.97 43.4267 24.1166 35.7233 30.31 29.65C36.1366 23.65 43.6566 20.58 52.87 20.44C62.2433 20.5467 69.91 23.6167 75.87 29.65C81.83 35.6833 84.8733 43.3867 85 52.76C85.1145 57.1464 84.0803 61.4866 82 65.35C79.8891 69.1433 77.1386 72.5433 73.87 75.4C82.5366 81.4 86.9366 89.7933 87.07 100.58C86.97 110.66 83.67 118.717 77.17 124.75C70.57 130.937 62.4833 134.083 52.91 134.19C43.3966 134.063 35.4266 130.917 29 124.75C22.3333 118.723 18.9433 110.667 18.83 100.58ZM34.88 100.42C34.8604 102.788 35.3422 105.133 36.2936 107.301C37.2449 109.469 38.6444 111.411 40.4 113C42.0225 114.667 43.97 115.983 46.1218 116.868C48.2736 117.752 50.584 118.185 52.91 118.14C55.2722 118.2 57.6217 117.775 59.813 116.891C62.0044 116.007 63.991 114.683 65.65 113C67.3609 111.385 68.7194 109.434 69.6401 107.269C70.5608 105.104 71.0238 102.772 71 100.42C71.0318 98.04 70.5702 95.6793 69.6442 93.4865C68.7183 91.2938 67.348 89.3168 65.62 87.68C62.1719 84.4408 57.6108 82.6507 52.88 82.68C48.2237 82.6841 43.7463 84.4736 40.37 87.68C38.6106 89.2982 37.2123 91.2693 36.2663 93.4645C35.3203 95.6598 34.8479 98.0298 34.88 100.42V100.42ZM36.95 52.42C37.05 57.5867 38.7166 61.5267 41.95 64.24C44.9464 66.9946 48.88 68.5037 52.95 68.46C57.0866 68.526 61.0938 67.0175 64.16 64.24C67.2533 61.5533 68.8666 57.6233 69 52.45C68.8866 47.1167 67.2733 43.1 64.16 40.4C61.0106 37.7989 57.0338 36.4118 52.95 36.49C48.9332 36.4329 45.0295 37.8205 41.95 40.4C38.7166 43.1133 37.0666 47.13 37 52.45L36.95 52.42Z" fill="#BC4444"/>
<g filter="url(#filter0_i_12_218)">
<path fill-rule="evenodd" clip-rule="evenodd" d="M9.95 0H175.05C180.545 0 185 4.45477 185 9.95V236.05C185 241.545 180.545 246 175.05 246H9.95C4.45477 246 0 241.545 0 236.05V9.95C0 4.45477 4.45477 0 9.95 0ZM15 10C12.2386 10 10 12.2386 10 15V231C10 233.761 12.2386 236 15 236H170C172.761 236 175 233.761 175 231V15C175 12.2386 172.761 10 170 10H15Z" fill="#FFB800"/>
</g>
<defs>
<filter id="filter0_i_12_218" x="0" y="0" width="185" height="248" filterUnits="userSpaceOnUse" color-interpolation-filters="sRGB">
<feFlood flood-opacity="0" result="BackgroundImageFix"/>
<feBlend mode="normal" in="SourceGraphic" in2="BackgroundImageFix" result="shape"/>
<feColorMatrix in="SourceAlpha" type="matrix" values="0 0 0 0 0 0 0 0 0 0 0 0 0 0 0 0 0 0 127 0" result="hardAlpha"/>
<feOffset dy="4"/>
<feGaussianBlur stdDeviation="1"/>
<feComposite in2="hardAlpha" operator="arithmetic" k2="-1" k3="1"/>
<feColorMatrix type="matrix" values="0 0 0 0 0 0 0 0 0 0 0 0 0 0 0 0 0 0 0.25 0"/>
<feBlend mode="normal" in2="shape" result="effect1_innerShadow_12_218"/>
</filter>
<linearGradient id="paint0_linear_12_218" x1="91.82" y1="245.38" x2="91.82" y2="-0.619999" gradientUnits="userSpaceOnUse">
<stop stop-color="#E6E6E6"/>
<stop offset="1" stop-color="white"/>
</linearGradient>
<linearGradient id="paint1_linear_12_218" x1="140.846" y1="232.849" x2="140.846" y2="131.969" gradientUnits="userSpaceOnUse">
<stop stop-color="#B73737"/>
<stop offset="1" stop-color="#C45757"/>
</linearGradient>
</defs>
</svg>
