<svg width="185" height="246" viewBox="0 0 185 246" fill="none" xmlns="http://www.w3.org/2000/svg">
<path d="M175.05 0H9.95C4.45477 0 0 4.45477 0 9.95V236.05C0 241.545 4.45477 246 9.95 246H175.05C180.545 246 185 241.545 185 236.05V9.95C185 4.45477 180.545 0 175.05 0Z" fill="url(#paint0_linear_12_234)"/>
<path d="M84.29 178L124 228.44L163.71 178L124 127.56L84.29 178Z" fill="url(#paint1_linear_12_234)"/>
<path d="M30.62 130.24C31.0026 129.276 31.44 128.334 31.93 127.42L35.56 120.12C37.06 117.127 38.7267 113.793 40.56 110.12L46.04 99.31C47.84 95.75 49.5267 92.4767 51.1 89.49C52.68 86.49 53.95 84.16 54.93 82.49C53.3812 83.3865 51.6533 83.9294 49.87 84.08C47.6985 84.2672 45.5166 84.304 43.34 84.19C40.2715 84.159 37.2383 83.5307 34.41 82.34C31.9924 81.2939 29.7628 79.8581 27.81 78.09C25.9904 76.4371 24.4266 74.5228 23.17 72.41C21.995 70.4676 20.9912 68.4265 20.17 66.31C19.4719 64.503 18.9299 62.6395 18.55 60.74C18.2564 59.4085 18.0857 58.0528 18.04 56.69C18.04 56.38 18.04 55.81 18.04 54.99C18.04 54.17 18.04 53.25 18.04 52.24C18.04 51.23 18.04 50.24 18.04 49.19C18.0547 48.3135 18.1215 47.4386 18.24 46.57C18.24 46.21 18.46 45.29 18.74 43.82C19.1204 42.0162 19.6489 40.2469 20.32 38.53C21.2126 36.2379 22.2999 34.0265 23.57 31.92C25.0491 29.4674 26.8784 27.244 29 25.32C31.4672 23.1179 34.2688 21.3221 37.3 20C40.9875 18.3971 44.9197 17.4301 48.93 17.14C53.0811 16.6888 57.2793 16.9765 61.33 17.99C64.6399 18.8414 67.7697 20.281 70.57 22.24C73.0745 24.009 75.2505 26.202 77 28.72C78.6347 31.058 79.9779 33.5867 81 36.25C81.9108 38.6432 82.5449 41.1327 82.89 43.67C83.1742 45.7047 83.2111 47.7664 83 49.81C82.69 52.33 82.35 54.59 82 56.57C81.65 58.55 81.22 60.45 80.73 62.25C80.24 64.05 79.73 65.83 79.07 67.58C78.41 69.33 77.73 71.24 76.9 73.3C76.69 73.87 76.14 75.1 75.24 77.01C74.34 78.92 73.24 81.24 71.84 84.01C70.44 86.78 69 89.82 67.36 93.19C65.72 96.56 64.08 99.96 62.36 103.36L49.09 130.24H30.62ZM34.1 48.65C34.1 50.65 34.2034 52.8667 34.41 55.3C34.5988 57.6668 35.2119 59.9804 36.22 62.13C37.3014 64.3495 38.9505 66.2435 41 67.62C43.1734 69.14 46.2134 70.0033 50.12 70.21C51.9287 70.3342 53.7436 70.0823 55.45 69.47C56.9835 68.9195 58.4185 68.1261 59.7 67.12C60.9154 66.1638 61.9953 65.0469 62.91 63.8C63.7617 62.6439 64.5112 61.416 65.15 60.13C65.6915 59.0548 66.1172 57.9251 66.42 56.76C66.6466 55.9548 66.7775 55.1258 66.81 54.29C66.81 53 66.72 51.56 66.69 49.96C66.663 48.3305 66.5092 46.7056 66.23 45.1C65.9523 43.4635 65.472 41.8679 64.8 40.35C64.14 38.8296 63.1653 37.4663 61.94 36.35C60.5663 35.1299 58.9464 34.2193 57.19 33.68C54.8366 33.0048 52.378 32.7742 49.94 33C47.1479 33.0248 44.4222 33.8546 42.09 35.39C40.2067 36.6851 38.5708 38.3075 37.26 40.18C36.1726 41.7389 35.3389 43.4603 34.79 45.28C34.4352 46.3741 34.2038 47.5045 34.1 48.65V48.65Z" fill="#BC4444"/>
<g filter="url(#filter0_i_12_234)">
<path fill-rule="evenodd" clip-rule="evenodd" d="M9.95 0H175.05C180.545 0 185 4.45477 185 9.95V236.05C185 241.545 180.545 246 175.05 246H9.95C4.45477 246 0 241.545 0 236.05V9.95C0 4.45477 4.45477 0 9.95 0ZM15 10C12.2386 10 10 12.2386 10 15V231C10 233.761 12.2386 236 15 236H170C172.761 236 175 233.761 175 231V15C175 12.2386 172.761 10 170 10H15Z" fill="#FFB800"/>
</g>
<defs>
<filter id="filter0_i_12_234" x="0" y="0" width="185" height="248" filterUnits="userSpaceOnUse" color-interpolation-filters="sRGB">
<feFlood flood-opacity="0" result="BackgroundImageFix"/>
<feBlend mode="normal" in="SourceGraphic" in2="BackgroundImageFix" result="shape"/>
<feColorMatrix in="SourceAlpha" type="matrix" values="0 0 0 0 0 0 0 0 0 0 0 0 0 0 0 0 0 0 127 0" result="hardAlpha"/>
<feOffset dy="4"/>
<feGaussianBlur stdDeviation="1"/>
<feComposite in2="hardAlpha" operator="arithmetic" k2="-1" k3="1"/>
<feColorMatrix type="matrix" values="0 0 0 0 0 0 0 0 0 0 0 0 0 0 0 0 0 0 0.25 0"/>
<feBlend mode="normal" in2="shape" result="effect1_innerShadow_12_234"/>
</filter>
<linearGradient id="paint0_linear_12_234" x1="91.44" y1="246.85" x2="91.44" y2="0.849999" gradientUnits="userSpaceOnUse">
<stop stop-color="#E6E6E6"/>
<stop offset="1" stop-color="white"/>
</linearGradient>
<linearGradient id="paint1_linear_12_234" x1="140.52" y1="233.876" x2="140.52" y2="132.996" gradientUnits="userSpaceOnUse">
<stop stop-color="#B73737"/>
<stop offset="1" stop-color="#C45757"/>
</linearGradient>
</defs>
</svg>
