<svg width="185" height="246" viewBox="0 0 185 246" fill="none" xmlns="http://www.w3.org/2000/svg">
<path d="M175.05 0H9.95C4.45477 0 0 4.45477 0 9.95V236.05C0 241.545 4.45477 246 9.95 246H175.05C180.545 246 185 241.545 185 236.05V9.95C185 4.45477 180.545 0 175.05 0Z" fill="url(#paint0_linear_12_284)"/>
<path d="M84.29 178L124 228.44L163.71 178L124 127.56L84.29 178Z" fill="url(#paint1_linear_12_284)"/>
<path d="M78.39 121.19C71.7967 127.47 63.0167 130.71 52.05 130.91C43.27 130.71 35.9367 128.567 30.05 124.48C24.05 120.547 19.7167 116.003 17.05 110.85C16.23 109.17 15.49 107.563 14.83 106.03C14.1206 104.086 13.608 102.076 13.3 100.03C12.5267 95.53 12.1433 86.9033 12.15 74.15C12.15 61.1767 12.5333 52.51 13.3 48.15C13.8828 44.3977 15.1578 40.7864 17.06 37.5C19.76 32.3533 24.0933 27.76 30.06 23.72C35.9333 19.64 43.2667 17.5467 52.06 17.44C60.94 17.5467 68.34 19.64 74.26 23.72C80.18 27.8 84.4267 32.3933 87 37.5C89.0799 40.7138 90.4126 44.3531 90.9 48.15C91.5667 52.5433 91.9 61.21 91.9 74.15C91.9 85.73 91.6433 93.82 91.13 98.42C90.7362 102.172 89.6189 105.813 87.84 109.14L102.54 120.85L92.54 132.49L78.39 121.19ZM50.29 98.75L60.29 87.19L73.29 97.53C74.3633 93.75 74.9 85.9667 74.9 74.18C74.9 63.2 74.5167 55.72 73.75 51.74C73.0995 48.3044 71.5385 45.1064 69.23 42.48C67.4407 40.0907 65.1417 38.1299 62.5 36.74C59.2201 35.1872 55.6388 34.3747 52.01 34.36C48.454 34.3675 44.9461 35.1813 41.75 36.74C39.0332 38.131 36.6462 40.0883 34.75 42.48C32.4543 45.0949 30.943 48.3046 30.39 51.74C29.57 55.74 29.1633 63.22 29.17 74.18C29.1767 85.14 29.5833 92.5667 30.39 96.46C30.918 99.9477 32.4306 103.212 34.75 105.87C36.6236 108.246 39.0187 110.158 41.75 111.46C44.8886 113.227 48.4496 114.105 52.05 114C57.25 114 61.41 112.7 64.53 110.1L50.29 98.75Z" fill="#BC4444"/>
<g filter="url(#filter0_i_12_284)">
<path fill-rule="evenodd" clip-rule="evenodd" d="M9.95 0H175.05C180.545 0 185 4.45477 185 9.95V236.05C185 241.545 180.545 246 175.05 246H9.95C4.45477 246 0 241.545 0 236.05V9.95C0 4.45477 4.45477 0 9.95 0ZM15 10C12.2386 10 10 12.2386 10 15V231C10 233.761 12.2386 236 15 236H170C172.761 236 175 233.761 175 231V15C175 12.2386 172.761 10 170 10H15Z" fill="#FFB800"/>
</g>
<defs>
<filter id="filter0_i_12_284" x="0" y="0" width="185" height="248" filterUnits="userSpaceOnUse" color-interpolation-filters="sRGB">
<feFlood flood-opacity="0" result="BackgroundImageFix"/>
<feBlend mode="normal" in="SourceGraphic" in2="BackgroundImageFix" result="shape"/>
<feColorMatrix in="SourceAlpha" type="matrix" values="0 0 0 0 0 0 0 0 0 0 0 0 0 0 0 0 0 0 127 0" result="hardAlpha"/>
<feOffset dy="4"/>
<feGaussianBlur stdDeviation="1"/>
<feComposite in2="hardAlpha" operator="arithmetic" k2="-1" k3="1"/>
<feColorMatrix type="matrix" values="0 0 0 0 0 0 0 0 0 0 0 0 0 0 0 0 0 0 0.25 0"/>
<feBlend mode="normal" in2="shape" result="effect1_innerShadow_12_284"/>
</filter>
<linearGradient id="paint0_linear_12_284" x1="92.18" y1="245.29" x2="92.18" y2="-0.709999" gradientUnits="userSpaceOnUse">
<stop stop-color="#E6E6E6"/>
<stop offset="1" stop-color="white"/>
</linearGradient>
<linearGradient id="paint1_linear_12_284" x1="140.925" y1="237.419" x2="140.925" y2="136.539" gradientUnits="userSpaceOnUse">
<stop stop-color="#B73737"/>
<stop offset="1" stop-color="#C45757"/>
</linearGradient>
</defs>
</svg>
