<svg width="185" height="246" viewBox="0 0 185 246" fill="none" xmlns="http://www.w3.org/2000/svg">
<path d="M175.05 0H9.95C4.45477 0 0 4.45477 0 9.95V236.05C0 241.545 4.45477 246 9.95 246H175.05C180.545 246 185 241.545 185 236.05V9.95C185 4.45477 180.545 0 175.05 0Z" fill="url(#paint0_linear_12_126)"/>
<path d="M146.48 138.91C129.86 138.91 124 154.55 124 154.55C124 154.55 118.14 138.91 101.52 138.91C84.9 138.91 81 157.48 81 163.34C81 169.2 82 193.64 124 217.09C166 193.64 167 169.2 167 163.34C167 157.48 163.09 138.91 146.48 138.91Z" fill="url(#paint1_linear_12_126)"/>
<path d="M20.52 118L64.57 62.83C66.0711 60.9762 67.2508 58.8839 68.06 56.64C68.4558 54.965 68.6637 53.2511 68.68 51.53C68.7298 47.4776 67.3087 43.5446 64.68 40.46C61.94 37.3067 58.0667 35.68 53.06 35.58C51.0258 35.5188 48.9999 35.8641 47.1008 36.5956C45.2017 37.327 43.4676 38.4301 42 39.84C38.96 42.68 37.1534 46.68 36.58 51.84H20.52C20.9267 42.44 24.0767 34.67 29.97 28.53C32.8138 25.6071 36.2207 23.291 39.9848 21.7218C43.7489 20.1525 47.7921 19.3627 51.87 19.4C61.5834 19.5 69.4567 22.5967 75.49 28.69C81.63 34.73 84.7533 42.3967 84.86 51.69C84.9259 58.8868 82.5024 65.8852 78 71.5L41.73 117H84.86V133.18H20.52V118Z" fill="#BC4444"/>
<g filter="url(#filter0_i_12_126)">
<path fill-rule="evenodd" clip-rule="evenodd" d="M9.95 0H175.05C180.545 0 185 4.45477 185 9.95V236.05C185 241.545 180.545 246 175.05 246H9.95C4.45477 246 0 241.545 0 236.05V9.95C0 4.45477 4.45477 0 9.95 0ZM15 10C12.2386 10 10 12.2386 10 15V231C10 233.761 12.2386 236 15 236H170C172.761 236 175 233.761 175 231V15C175 12.2386 172.761 10 170 10H15Z" fill="#FFB800"/>
</g>
<defs>
<filter id="filter0_i_12_126" x="0" y="0" width="185" height="248" filterUnits="userSpaceOnUse" color-interpolation-filters="sRGB">
<feFlood flood-opacity="0" result="BackgroundImageFix"/>
<feBlend mode="normal" in="SourceGraphic" in2="BackgroundImageFix" result="shape"/>
<feColorMatrix in="SourceAlpha" type="matrix" values="0 0 0 0 0 0 0 0 0 0 0 0 0 0 0 0 0 0 127 0" result="hardAlpha"/>
<feOffset dy="4"/>
<feGaussianBlur stdDeviation="1"/>
<feComposite in2="hardAlpha" operator="arithmetic" k2="-1" k3="1"/>
<feColorMatrix type="matrix" values="0 0 0 0 0 0 0 0 0 0 0 0 0 0 0 0 0 0 0.25 0"/>
<feBlend mode="normal" in2="shape" result="effect1_innerShadow_12_126"/>
</filter>
<linearGradient id="paint0_linear_12_126" x1="93.47" y1="246.71" x2="93.47" y2="0.709999" gradientUnits="userSpaceOnUse">
<stop stop-color="#E6E6E6"/>
<stop offset="1" stop-color="white"/>
</linearGradient>
<linearGradient id="paint1_linear_12_126" x1="117.396" y1="218.127" x2="117.396" y2="139.947" gradientUnits="userSpaceOnUse">
<stop stop-color="#B73737"/>
<stop offset="1" stop-color="#C45757"/>
</linearGradient>
</defs>
</svg>
