<svg width="185" height="246" viewBox="0 0 185 246" fill="none" xmlns="http://www.w3.org/2000/svg">
<path d="M175.05 0H9.95C4.45477 0 0 4.45477 0 9.95V236.05C0 241.545 4.45477 246 9.95 246H175.05C180.545 246 185 241.545 185 236.05V9.95C185 4.45477 180.545 0 175.05 0Z" fill="url(#paint0_linear_12_142)"/>
<path d="M146.48 138.91C129.86 138.91 124 154.55 124 154.55C124 154.55 118.14 138.91 101.52 138.91C84.9 138.91 81 157.48 81 163.34C81 169.2 82 193.64 124 217.09C166 193.64 167 169.2 167 163.34C167 157.48 163.09 138.91 146.48 138.91Z" fill="url(#paint1_linear_12_142)"/>
<path d="M42.68 67.47H48.16C53.5733 67.47 57.7767 65.96 60.77 62.94C62.2626 61.4598 63.4315 59.6858 64.2027 57.7303C64.9739 55.7749 65.3305 53.6805 65.25 51.58C65.3155 49.4398 64.9414 47.3089 64.1508 45.319C63.3602 43.3291 62.1699 41.5224 60.6535 40.0107C59.1371 38.499 57.3268 37.3143 55.3344 36.5299C53.3421 35.7454 51.21 35.3779 49.07 35.45C45.691 35.4426 42.4142 36.609 39.8 38.75C36.86 40.95 34.8833 44.3667 33.87 49H18C18.6598 41.0144 22.2164 33.5456 28 28C30.6795 25.2778 33.8735 23.1156 37.3963 21.6392C40.9191 20.1628 44.7003 19.4016 48.52 19.4C58.6 19.5 66.6 22.75 72.52 29.15C78.0996 35.1632 81.1939 43.0669 81.18 51.27C81.1892 55.5214 80.4163 59.7382 78.9 63.71C77.1267 67.71 73.96 71.2667 69.4 74.38C73.6991 77.0804 77.1778 80.905 79.46 85.44C81.4315 89.6748 82.4553 94.2888 82.46 98.96C82.36 109.453 79.1433 117.72 72.81 123.76C66.5833 129.96 58.5833 133.11 48.81 133.21C41.4473 133.278 34.3134 130.653 28.75 125.83C22.9167 120.923 19.1267 113.81 17.38 104.49H33.26C34.4966 107.951 36.5557 111.061 39.26 113.55C41.8867 115.95 45.38 117.153 49.74 117.16C51.9303 117.203 54.106 116.795 56.1323 115.963C58.1586 115.13 59.9924 113.89 61.52 112.32C64.76 109.3 66.4267 105 66.52 99.42C66.42 93.7333 64.7533 89.33 61.52 86.21C58.2251 83.1515 53.8529 81.5228 49.36 81.68H42.68V67.47Z" fill="#BC4444"/>
<g filter="url(#filter0_i_12_142)">
<path fill-rule="evenodd" clip-rule="evenodd" d="M9.95 0H175.05C180.545 0 185 4.45477 185 9.95V236.05C185 241.545 180.545 246 175.05 246H9.95C4.45477 246 0 241.545 0 236.05V9.95C0 4.45477 4.45477 0 9.95 0ZM15 10C12.2386 10 10 12.2386 10 15V231C10 233.761 12.2386 236 15 236H170C172.761 236 175 233.761 175 231V15C175 12.2386 172.761 10 170 10H15Z" fill="#FFB800"/>
</g>
<defs>
<filter id="filter0_i_12_142" x="0" y="0" width="185" height="248" filterUnits="userSpaceOnUse" color-interpolation-filters="sRGB">
<feFlood flood-opacity="0" result="BackgroundImageFix"/>
<feBlend mode="normal" in="SourceGraphic" in2="BackgroundImageFix" result="shape"/>
<feColorMatrix in="SourceAlpha" type="matrix" values="0 0 0 0 0 0 0 0 0 0 0 0 0 0 0 0 0 0 127 0" result="hardAlpha"/>
<feOffset dy="4"/>
<feGaussianBlur stdDeviation="1"/>
<feComposite in2="hardAlpha" operator="arithmetic" k2="-1" k3="1"/>
<feColorMatrix type="matrix" values="0 0 0 0 0 0 0 0 0 0 0 0 0 0 0 0 0 0 0.25 0"/>
<feBlend mode="normal" in2="shape" result="effect1_innerShadow_12_142"/>
</filter>
<linearGradient id="paint0_linear_12_142" x1="91.41" y1="246.86" x2="91.41" y2="0.859999" gradientUnits="userSpaceOnUse">
<stop stop-color="#E6E6E6"/>
<stop offset="1" stop-color="white"/>
</linearGradient>
<linearGradient id="paint1_linear_12_142" x1="117.223" y1="217.789" x2="117.223" y2="139.609" gradientUnits="userSpaceOnUse">
<stop stop-color="#B73737"/>
<stop offset="1" stop-color="#C45757"/>
</linearGradient>
</defs>
</svg>
