<svg width="185" height="246" viewBox="0 0 185 246" fill="none" xmlns="http://www.w3.org/2000/svg">
<path d="M175.05 0H9.95C4.45477 0 0 4.45477 0 9.95V236.05C0 241.545 4.45477 246 9.95 246H175.05C180.545 246 185 241.545 185 236.05V9.95C185 4.45477 180.545 0 175.05 0Z" fill="url(#paint0_linear_12_190)"/>
<path d="M146.48 138.91C129.86 138.91 124 154.55 124 154.55C124 154.55 118.14 138.91 101.52 138.91C84.9 138.91 81 157.48 81 163.34C81 169.2 82 193.64 124 217.09C166 193.64 167 169.2 167 163.34C167 157.48 163.09 138.91 146.48 138.91Z" fill="url(#paint1_linear_12_190)"/>
<path d="M64.79 19.4C64.6064 19.9745 64.3616 20.5277 64.06 21.05C63.5267 22.15 62.8 23.6433 61.88 25.53C60.96 27.4167 59.8867 29.5733 58.66 32L54.79 39.74C53.4567 42.4467 52.0767 45.18 50.65 47.94C49.25 50.7 47.89 53.33 46.59 55.84L43 62.7C41.92 64.7 41 66.37 40.31 67.6C41.8424 66.7186 43.5489 66.1827 45.31 66.03C47.4649 65.8441 49.6298 65.804 51.79 65.91C54.9542 65.9453 58.0842 66.5693 61.02 67.75C63.5139 68.7834 65.8212 70.2192 67.85 72C69.6983 73.6279 71.2896 75.526 72.57 77.63C73.7611 79.5462 74.7657 81.5721 75.57 83.68C76.2116 85.463 76.6902 87.3006 77 89.17C77.2411 90.4908 77.3815 91.828 77.42 93.17V97.6C77.42 98.6 77.42 99.6 77.42 100.6C77.42 101.6 77.35 102.49 77.3 103.2C77.3 103.56 77.08 104.49 76.8 106C76.432 107.824 75.9204 109.616 75.27 111.36C74.4153 113.676 73.3509 115.908 72.09 118.03C70.6138 120.532 68.7812 122.806 66.65 124.78C64.2194 127.021 61.4525 128.867 58.45 130.25C54.8221 131.89 50.9245 132.853 46.95 133.09C42.8183 133.539 38.6393 133.228 34.62 132.17C31.2945 131.268 28.1534 129.789 25.34 127.8C22.8212 125.993 20.6211 123.78 18.83 121.25C17.1564 118.888 15.7794 116.328 14.73 113.63C13.7785 111.211 13.1075 108.692 12.73 106.12C12.4063 104.093 12.3425 102.033 12.54 99.99C12.84 97.48 13.18 95.25 13.54 93.28C13.9 91.31 14.32 89.44 14.81 87.65C15.3 85.86 15.81 84.1 16.46 82.36C17.11 80.62 17.78 78.73 18.6 76.69C18.8 76.18 19.37 74.96 20.29 73.05C21.21 71.14 22.32 68.8 23.68 66C25.04 63.2 26.55 60.1 28.24 56.73C29.93 53.36 31.61 49.93 33.29 46.46C37.29 38.3867 41.76 29.37 46.7 19.41L64.79 19.4ZM61.57 101.16C61.57 99.22 61.4934 97.0767 61.34 94.73C61.1961 92.3983 60.6125 90.1149 59.62 88C58.5205 85.7677 56.8378 83.8742 54.75 82.52C52.5034 80.9867 49.31 80.0667 45.17 79.76C43.3827 79.5935 41.5804 79.8047 39.88 80.38C38.3597 80.9098 36.9372 81.6869 35.67 82.68C34.4573 83.6296 33.3865 84.7475 32.49 86C31.6415 87.1719 30.8986 88.4168 30.27 89.72C29.7284 90.8195 29.3028 91.9724 29 93.16C28.7865 93.9472 28.6591 94.7553 28.62 95.57C28.62 96.85 28.62 98.27 28.7 99.82C28.7494 101.39 28.9132 102.954 29.19 104.5C29.4759 106.053 29.9529 107.564 30.61 109C31.2837 110.47 32.2501 111.787 33.45 112.87C34.8282 114.084 36.4274 115.021 38.16 115.63C40.469 116.404 42.8958 116.766 45.33 116.7C47.3677 116.789 49.4037 116.49 51.33 115.82C52.9125 115.251 54.3893 114.423 55.7 113.37C56.8554 112.421 57.8513 111.294 58.65 110.03C59.3765 108.897 59.9799 107.691 60.45 106.43C60.8449 105.401 61.1396 104.336 61.33 103.25C61.4588 102.56 61.539 101.861 61.57 101.16V101.16Z" fill="#BC4444"/>
<g filter="url(#filter0_i_12_190)">
<path fill-rule="evenodd" clip-rule="evenodd" d="M9.95 0H175.05C180.545 0 185 4.45477 185 9.95V236.05C185 241.545 180.545 246 175.05 246H9.95C4.45477 246 0 241.545 0 236.05V9.95C0 4.45477 4.45477 0 9.95 0ZM15 10C12.2386 10 10 12.2386 10 15V231C10 233.761 12.2386 236 15 236H170C172.761 236 175 233.761 175 231V15C175 12.2386 172.761 10 170 10H15Z" fill="#FFB800"/>
</g>
<defs>
<filter id="filter0_i_12_190" x="0" y="0" width="185" height="248" filterUnits="userSpaceOnUse" color-interpolation-filters="sRGB">
<feFlood flood-opacity="0" result="BackgroundImageFix"/>
<feBlend mode="normal" in="SourceGraphic" in2="BackgroundImageFix" result="shape"/>
<feColorMatrix in="SourceAlpha" type="matrix" values="0 0 0 0 0 0 0 0 0 0 0 0 0 0 0 0 0 0 127 0" result="hardAlpha"/>
<feOffset dy="4"/>
<feGaussianBlur stdDeviation="1"/>
<feComposite in2="hardAlpha" operator="arithmetic" k2="-1" k3="1"/>
<feColorMatrix type="matrix" values="0 0 0 0 0 0 0 0 0 0 0 0 0 0 0 0 0 0 0.25 0"/>
<feBlend mode="normal" in2="shape" result="effect1_innerShadow_12_190"/>
</filter>
<linearGradient id="paint0_linear_12_190" x1="92.41" y1="246.32" x2="92.41" y2="0.32" gradientUnits="userSpaceOnUse">
<stop stop-color="#E6E6E6"/>
<stop offset="1" stop-color="white"/>
</linearGradient>
<linearGradient id="paint1_linear_12_190" x1="117.609" y1="216.433" x2="117.609" y2="138.253" gradientUnits="userSpaceOnUse">
<stop stop-color="#B73737"/>
<stop offset="1" stop-color="#C45757"/>
</linearGradient>
</defs>
</svg>
