<svg width="185" height="246" viewBox="0 0 185 246" fill="none" xmlns="http://www.w3.org/2000/svg">
<path d="M175.05 0H9.95C4.45477 0 0 4.45477 0 9.95V236.05C0 241.545 4.45477 246 9.95 246H175.05C180.545 246 185 241.545 185 236.05V9.95C185 4.45477 180.545 0 175.05 0Z" fill="url(#paint0_linear_12_222)"/>
<path d="M146.48 138.91C129.86 138.91 124 154.55 124 154.55C124 154.55 118.14 138.91 101.52 138.91C84.9 138.91 81 157.48 81 163.34C81 169.2 82 193.64 124 217.09C166 193.64 167 169.2 167 163.34C167 157.48 163.09 138.91 146.48 138.91Z" fill="url(#paint1_linear_12_222)"/>
<path d="M16.33 99.53C16.4433 88.73 20.8466 80.3367 29.54 74.35C26.2992 71.5626 23.6387 68.1647 21.71 64.35C19.4379 60.5514 18.2934 56.1848 18.41 51.76C18.51 42.4267 21.6566 34.7267 27.85 28.66C33.6766 22.62 41.1966 19.55 50.41 19.45C59.7833 19.55 67.45 22.62 73.41 28.66C79.37 34.7 82.4166 42.4 82.55 51.76C82.6659 56.1466 81.6316 60.4871 79.55 64.35C77.4395 68.129 74.6886 71.5127 71.42 74.35C80.0866 80.35 84.4866 88.7433 84.62 99.53C84.52 109.61 81.22 117.67 74.72 123.71C68.12 129.903 60.0333 133.05 50.46 133.15C40.9533 133.05 32.9966 129.903 26.59 123.71C19.8566 117.67 16.4366 109.61 16.33 99.53ZM32.38 99.38C32.3535 101.755 32.8319 104.108 33.7836 106.283C34.7352 108.459 36.1383 110.408 37.9 112C39.5217 113.669 41.4687 114.987 43.6206 115.873C45.7725 116.759 48.0833 117.194 50.41 117.15C52.7728 117.209 55.1226 116.782 57.3139 115.896C59.5052 115.01 61.4915 113.684 63.15 112C64.8693 110.39 66.2353 108.441 67.1614 106.275C68.0875 104.11 68.5536 101.775 68.53 99.42C68.5624 97.0399 68.1011 94.679 67.1751 92.4862C66.2491 90.2934 64.8785 88.3164 63.15 86.68C59.7042 83.4372 55.1416 81.6466 50.41 81.68C45.7527 81.679 41.2735 83.4692 37.9 86.68C36.1367 88.2883 34.7334 90.2511 33.7821 92.4398C32.8308 94.6285 32.353 96.9936 32.38 99.38V99.38ZM34.45 51.38C34.55 56.54 36.2166 60.48 39.45 63.2C42.4496 65.9494 46.3811 67.4576 50.45 67.42C54.5857 67.481 58.5911 65.9732 61.66 63.2C64.78 60.48 66.3933 56.54 66.5 51.38C66.3866 46.0467 64.7733 42.0467 61.66 39.38C58.5116 36.7761 54.5349 35.3855 50.45 35.46C46.4321 35.4066 42.5286 36.7977 39.45 39.38C36.2166 42.08 34.55 46.09 34.45 51.41V51.38Z" fill="#BC4444"/>
<g filter="url(#filter0_i_12_222)">
<path fill-rule="evenodd" clip-rule="evenodd" d="M9.95 0H175.05C180.545 0 185 4.45477 185 9.95V236.05C185 241.545 180.545 246 175.05 246H9.95C4.45477 246 0 241.545 0 236.05V9.95C0 4.45477 4.45477 0 9.95 0ZM15 10C12.2386 10 10 12.2386 10 15V231C10 233.761 12.2386 236 15 236H170C172.761 236 175 233.761 175 231V15C175 12.2386 172.761 10 170 10H15Z" fill="#FFB800"/>
</g>
<defs>
<filter id="filter0_i_12_222" x="0" y="0" width="185" height="248" filterUnits="userSpaceOnUse" color-interpolation-filters="sRGB">
<feFlood flood-opacity="0" result="BackgroundImageFix"/>
<feBlend mode="normal" in="SourceGraphic" in2="BackgroundImageFix" result="shape"/>
<feColorMatrix in="SourceAlpha" type="matrix" values="0 0 0 0 0 0 0 0 0 0 0 0 0 0 0 0 0 0 127 0" result="hardAlpha"/>
<feOffset dy="4"/>
<feGaussianBlur stdDeviation="1"/>
<feComposite in2="hardAlpha" operator="arithmetic" k2="-1" k3="1"/>
<feColorMatrix type="matrix" values="0 0 0 0 0 0 0 0 0 0 0 0 0 0 0 0 0 0 0.25 0"/>
<feBlend mode="normal" in2="shape" result="effect1_innerShadow_12_222"/>
</filter>
<linearGradient id="paint0_linear_12_222" x1="92.3" y1="246.8" x2="92.3" y2="0.799999" gradientUnits="userSpaceOnUse">
<stop stop-color="#E6E6E6"/>
<stop offset="1" stop-color="white"/>
</linearGradient>
<linearGradient id="paint1_linear_12_222" x1="117.782" y1="215.773" x2="117.782" y2="137.593" gradientUnits="userSpaceOnUse">
<stop stop-color="#B73737"/>
<stop offset="1" stop-color="#C45757"/>
</linearGradient>
</defs>
</svg>
