<svg width="185" height="246" viewBox="0 0 185 246" fill="none" xmlns="http://www.w3.org/2000/svg">
<path d="M175.05 0H9.95C4.45477 0 0 4.45477 0 9.95V236.05C0 241.545 4.45477 246 9.95 246H175.05C180.545 246 185 241.545 185 236.05V9.95C185 4.45477 180.545 0 175.05 0Z" fill="url(#paint0_linear_12_238)"/>
<path d="M146.48 138.91C129.86 138.91 124 154.55 124 154.55C124 154.55 118.14 138.91 101.52 138.91C84.9 138.91 81 157.48 81 163.34C81 169.2 82 193.64 124 217.09C166 193.64 167 169.2 167 163.34C167 157.48 163.09 138.91 146.48 138.91Z" fill="url(#paint1_linear_12_238)"/>
<path d="M32.62 132.7C33.0026 131.736 33.44 130.794 33.93 129.88C34.86 128 36.07 125.56 37.56 122.58C39.05 119.6 40.73 116.27 42.56 112.58L48.04 101.76C49.84 98.2067 51.5266 94.9367 53.1 91.95C54.71 89 56 86.65 57 85C55.4486 85.8891 53.7216 86.4283 51.94 86.58C49.7684 86.766 47.5869 86.8061 45.41 86.7C42.3402 86.6708 39.3061 86.0388 36.48 84.84C34.0623 83.7939 31.8327 82.3581 29.88 80.59C28.0633 78.9381 26.4998 77.0276 25.24 74.92C24.0648 72.9742 23.061 70.9298 22.24 68.81C21.542 67.0064 21 65.1463 20.62 63.25C20.3268 61.915 20.1561 60.556 20.11 59.19C20.11 58.88 20.11 58.32 20.11 57.49C20.11 56.66 20.11 55.75 20.11 54.75C20.11 53.75 20.11 52.75 20.11 51.7C20.1247 50.8202 20.1915 49.942 20.31 49.07C20.31 48.71 20.53 47.8 20.81 46.33C21.1737 44.5146 21.6854 42.732 22.34 41C23.2307 38.7103 24.3181 36.5021 25.59 34.4C27.0585 31.9367 28.8814 29.7028 31 27.77C33.4568 25.5712 36.2442 23.7726 39.26 22.44C42.949 20.8418 46.8805 19.875 50.89 19.58C55.0411 19.1288 59.2393 19.4166 63.29 20.43C66.5983 21.2857 69.7273 22.7249 72.53 24.68C75.045 26.4538 77.2339 28.6496 79 31.17C80.6347 33.5115 81.978 36.0435 83 38.71C83.9107 41.0998 84.5448 43.586 84.89 46.12C85.1741 48.1581 85.211 50.2231 85 52.27C84.6867 54.79 84.3533 57.0433 84 59.03C83.6467 61.0167 83.2233 62.9067 82.73 64.7C82.24 66.51 81.73 68.29 81.07 70.04C80.41 71.79 79.73 73.69 78.9 75.75C78.69 76.32 78.14 77.56 77.24 79.46C76.34 81.36 75.24 83.7 73.84 86.46C72.44 89.22 71 92.28 69.36 95.65C67.72 99.02 66.08 102.41 64.36 105.81L51.09 132.7H32.62ZM36.1 51.11C36.1 53.11 36.2033 55.3233 36.41 57.75C36.6001 60.1198 37.2131 62.4364 38.22 64.59C39.2992 66.8082 40.9489 68.6995 43 70.07C45.17 71.59 48.21 72.46 52.12 72.66C53.928 72.7875 55.7428 72.5389 57.45 71.93C58.9839 71.3761 60.4189 70.5793 61.7 69.57C62.9177 68.6164 63.9979 67.4992 64.91 66.25C65.7616 65.0939 66.5111 63.866 67.15 62.58C67.6916 61.5083 68.1173 60.382 68.42 59.22C68.6458 58.4147 68.7767 57.5857 68.81 56.75C68.81 55.46 68.72 54.02 68.69 52.42C68.6634 50.7872 68.5096 49.1589 68.23 47.55C67.9523 45.9135 67.4719 44.3179 66.8 42.8C66.14 41.2796 65.1652 39.9163 63.94 38.8C62.5621 37.588 60.9433 36.6815 59.19 36.14C56.85 35.4479 54.4017 35.1969 51.97 35.4C49.1769 35.4277 46.4511 36.2611 44.12 37.8C42.2366 39.0951 40.6007 40.7175 39.29 42.59C38.2025 44.1489 37.3689 45.8703 36.82 47.69C36.4513 48.7991 36.2098 49.9464 36.1 51.11V51.11Z" fill="#BC4444"/>
<g filter="url(#filter0_i_12_238)">
<path fill-rule="evenodd" clip-rule="evenodd" d="M9.95 0H175.05C180.545 0 185 4.45477 185 9.95V236.05C185 241.545 180.545 246 175.05 246H9.95C4.45477 246 0 241.545 0 236.05V9.95C0 4.45477 4.45477 0 9.95 0ZM15 10C12.2386 10 10 12.2386 10 15V231C10 233.761 12.2386 236 15 236H170C172.761 236 175 233.761 175 231V15C175 12.2386 172.761 10 170 10H15Z" fill="#FFB800"/>
</g>
<defs>
<filter id="filter0_i_12_238" x="0" y="0" width="185" height="248" filterUnits="userSpaceOnUse" color-interpolation-filters="sRGB">
<feFlood flood-opacity="0" result="BackgroundImageFix"/>
<feBlend mode="normal" in="SourceGraphic" in2="BackgroundImageFix" result="shape"/>
<feColorMatrix in="SourceAlpha" type="matrix" values="0 0 0 0 0 0 0 0 0 0 0 0 0 0 0 0 0 0 127 0" result="hardAlpha"/>
<feOffset dy="4"/>
<feGaussianBlur stdDeviation="1"/>
<feComposite in2="hardAlpha" operator="arithmetic" k2="-1" k3="1"/>
<feColorMatrix type="matrix" values="0 0 0 0 0 0 0 0 0 0 0 0 0 0 0 0 0 0 0.25 0"/>
<feBlend mode="normal" in2="shape" result="effect1_innerShadow_12_238"/>
</filter>
<linearGradient id="paint0_linear_12_238" x1="91.41" y1="245.31" x2="91.41" y2="-0.689999" gradientUnits="userSpaceOnUse">
<stop stop-color="#E6E6E6"/>
<stop offset="1" stop-color="white"/>
</linearGradient>
<linearGradient id="paint1_linear_12_238" x1="117.434" y1="215.668" x2="117.434" y2="137.488" gradientUnits="userSpaceOnUse">
<stop stop-color="#B73737"/>
<stop offset="1" stop-color="#C45757"/>
</linearGradient>
</defs>
</svg>
