<svg width="185" height="246" viewBox="0 0 185 246" fill="none" xmlns="http://www.w3.org/2000/svg">
<path d="M175.05 0H9.95C4.45477 0 0 4.45477 0 9.95V236.05C0 241.545 4.45477 246 9.95 246H175.05C180.545 246 185 241.545 185 236.05V9.95C185 4.45477 180.545 0 175.05 0Z" fill="url(#paint0_linear_12_288)"/>
<path d="M146.48 138.91C129.86 138.91 124 154.55 124 154.55C124 154.55 118.14 138.91 101.52 138.91C84.9 138.91 81 157.48 81 163.34C81 169.2 82 193.64 124 217.09C166 193.64 167 169.2 167 163.34C167 157.48 163.09 138.91 146.48 138.91Z" fill="url(#paint1_linear_12_288)"/>
<path d="M80.89 122.55C74.2967 128.85 65.5167 132.093 54.55 132.28C45.77 132.067 38.4367 129.92 32.55 125.84C26.55 121.92 22.2167 117.38 19.55 112.22C18.73 110.533 17.99 108.923 17.33 107.39C16.6206 105.446 16.108 103.436 15.8 101.39C15.0267 96.9033 14.6433 88.2767 14.65 75.51C14.65 62.55 15.0333 53.8833 15.8 49.51C16.3779 45.7611 17.6497 42.1528 19.55 38.87C22.25 33.71 26.5833 29.1167 32.55 25.09C38.4233 20.9967 45.7567 18.9033 54.55 18.81C63.43 18.91 70.83 21.0033 76.75 25.09C82.67 29.1767 86.9067 33.77 89.46 38.87C91.5416 42.0793 92.8745 45.7157 93.36 49.51C94.0267 53.9033 94.36 62.57 94.36 75.51C94.36 87.0967 94.1033 95.1867 93.59 99.78C93.1977 103.533 92.0803 107.173 90.3 110.5L105 122.25L95 133.88L80.89 122.55ZM52.79 100.12L62.79 88.56L75.79 98.89C76.8633 95.1233 77.4 87.34 77.4 75.54C77.4 64.5667 77.0167 57.09 76.25 53.11C75.6018 49.6736 74.0405 46.475 71.73 43.85C69.9413 41.4575 67.6424 39.4933 65 38.1C61.7209 36.546 58.1387 35.7367 54.51 35.73C50.9678 35.7356 47.4731 36.546 44.29 38.1C41.5726 39.4944 39.1856 41.4551 37.29 43.85C34.9924 46.4637 33.4809 49.6739 32.93 53.11C32.11 57.11 31.7033 64.5867 31.71 75.54C31.7167 86.4933 32.1233 93.92 32.93 97.82C33.46 101.31 34.9722 104.577 37.29 107.24C39.1664 109.613 41.5608 111.525 44.29 112.83C47.4197 114.582 50.9645 115.456 54.55 115.36C59.75 115.36 63.91 114.057 67.03 111.45L52.79 100.12Z" fill="#BC4444"/>
<g filter="url(#filter0_i_12_288)">
<path fill-rule="evenodd" clip-rule="evenodd" d="M9.95 0H175.05C180.545 0 185 4.45477 185 9.95V236.05C185 241.545 180.545 246 175.05 246H9.95C4.45477 246 0 241.545 0 236.05V9.95C0 4.45477 4.45477 0 9.95 0ZM15 10C12.2386 10 10 12.2386 10 15V231C10 233.761 12.2386 236 15 236H170C172.761 236 175 233.761 175 231V15C175 12.2386 172.761 10 170 10H15Z" fill="#FFB800"/>
</g>
<defs>
<filter id="filter0_i_12_288" x="0" y="0" width="185" height="248" filterUnits="userSpaceOnUse" color-interpolation-filters="sRGB">
<feFlood flood-opacity="0" result="BackgroundImageFix"/>
<feBlend mode="normal" in="SourceGraphic" in2="BackgroundImageFix" result="shape"/>
<feColorMatrix in="SourceAlpha" type="matrix" values="0 0 0 0 0 0 0 0 0 0 0 0 0 0 0 0 0 0 127 0" result="hardAlpha"/>
<feOffset dy="4"/>
<feGaussianBlur stdDeviation="1"/>
<feComposite in2="hardAlpha" operator="arithmetic" k2="-1" k3="1"/>
<feColorMatrix type="matrix" values="0 0 0 0 0 0 0 0 0 0 0 0 0 0 0 0 0 0 0.25 0"/>
<feBlend mode="normal" in2="shape" result="effect1_innerShadow_12_288"/>
</filter>
<linearGradient id="paint0_linear_12_288" x1="93.12" y1="247.17" x2="93.12" y2="1.17" gradientUnits="userSpaceOnUse">
<stop stop-color="#E6E6E6"/>
<stop offset="1" stop-color="white"/>
</linearGradient>
<linearGradient id="paint1_linear_12_288" x1="117.624" y1="214.296" x2="117.624" y2="136.116" gradientUnits="userSpaceOnUse">
<stop stop-color="#B73737"/>
<stop offset="1" stop-color="#C45757"/>
</linearGradient>
</defs>
</svg>
