<svg width="185" height="246" viewBox="0 0 185 246" fill="none" xmlns="http://www.w3.org/2000/svg">
<path d="M175.05 0H9.95C4.45477 0 0 4.45477 0 9.95V236.05C0 241.545 4.45477 246 9.95 246H175.05C180.545 246 185 241.545 185 236.05V9.95C185 4.45477 180.545 0 175.05 0Z" fill="url(#paint0_linear_12_251)"/>
<path d="M146.48 138.91C129.86 138.91 124 154.55 124 154.55C124 154.55 118.14 138.91 101.52 138.91C84.9 138.91 81 157.48 81 163.34C81 169.2 82 193.64 124 217.09C166 193.64 167 169.2 167 163.34C167 157.48 163.09 138.91 146.48 138.91Z" fill="url(#paint1_linear_12_251)"/>
<path d="M14 50.9V34.79L29 23.84H44.19V129.64H29V39.87L14 50.9ZM53.31 100C53.41 109.72 56.5333 117.217 62.68 122.49C68.2872 127.667 75.6485 130.526 83.28 130.49C91.0407 130.58 98.5464 127.721 104.28 122.49C110.14 117.223 113.167 109.727 113.36 100V53.37C113.16 43.6033 110.133 36.08 104.28 30.8C98.551 25.5795 91.0285 22.7711 83.28 22.96C75.6603 22.825 68.2819 25.6331 62.68 30.8C56.5267 36.0667 53.4033 43.59 53.31 53.37V100ZM98.16 99.13C97.8733 109.797 92.9133 115.19 83.28 115.31C73.6133 115.21 68.68 109.817 68.48 99.13V54.31C68.6667 43.7167 73.6 38.3233 83.28 38.13C92.9067 38.3167 97.8667 43.71 98.16 54.31V99.13Z" fill="url(#paint2_linear_12_251)"/>
<g filter="url(#filter0_i_12_251)">
<path fill-rule="evenodd" clip-rule="evenodd" d="M9.95 0H175.05C180.545 0 185 4.45477 185 9.95V236.05C185 241.545 180.545 246 175.05 246H9.95C4.45477 246 0 241.545 0 236.05V9.95C0 4.45477 4.45477 0 9.95 0ZM15 10C12.2386 10 10 12.2386 10 15V231C10 233.761 12.2386 236 15 236H170C172.761 236 175 233.761 175 231V15C175 12.2386 172.761 10 170 10H15Z" fill="#FFB800"/>
</g>
<defs>
<filter id="filter0_i_12_251" x="0" y="0" width="185" height="248" filterUnits="userSpaceOnUse" color-interpolation-filters="sRGB">
<feFlood flood-opacity="0" result="BackgroundImageFix"/>
<feBlend mode="normal" in="SourceGraphic" in2="BackgroundImageFix" result="shape"/>
<feColorMatrix in="SourceAlpha" type="matrix" values="0 0 0 0 0 0 0 0 0 0 0 0 0 0 0 0 0 0 127 0" result="hardAlpha"/>
<feOffset dy="4"/>
<feGaussianBlur stdDeviation="1"/>
<feComposite in2="hardAlpha" operator="arithmetic" k2="-1" k3="1"/>
<feColorMatrix type="matrix" values="0 0 0 0 0 0 0 0 0 0 0 0 0 0 0 0 0 0 0.25 0"/>
<feBlend mode="normal" in2="shape" result="effect1_innerShadow_12_251"/>
</filter>
<linearGradient id="paint0_linear_12_251" x1="92.47" y1="245.99" x2="92.47" y2="-0.00999999" gradientUnits="userSpaceOnUse">
<stop stop-color="#E6E6E6"/>
<stop offset="1" stop-color="white"/>
</linearGradient>
<linearGradient id="paint1_linear_12_251" x1="117.796" y1="214.714" x2="117.796" y2="136.534" gradientUnits="userSpaceOnUse">
<stop stop-color="#B73737"/>
<stop offset="1" stop-color="#C45757"/>
</linearGradient>
<linearGradient id="paint2_linear_12_251" x1="1405.04" y1="8275.65" x2="11274.5" y2="8275.65" gradientUnits="userSpaceOnUse">
<stop stop-color="#B73737"/>
<stop offset="1" stop-color="#C45757"/>
</linearGradient>
</defs>
</svg>
