<svg width="185" height="246" viewBox="0 0 185 246" fill="none" xmlns="http://www.w3.org/2000/svg">
<path d="M175.05 0H9.95C4.45477 0 0 4.45477 0 9.95V236.05C0 241.545 4.45477 246 9.95 246H175.05C180.545 246 185 241.545 185 236.05V9.95C185 4.45477 180.545 0 175.05 0Z" fill="url(#paint0_linear_12_130)"/>
<path d="M155.69 161.62C150.62 155.08 143.47 149.41 138.27 143.68C137.08 142.37 119.65 123.68 120.27 123C114.617 129.773 108.827 136.44 102.9 143C98.52 147.84 94.06 152.47 89.41 157C84.76 161.53 80.57 166.67 79.12 173.06C78.0634 178.451 78.6882 184.036 80.91 189.06C82.8521 194.027 86.1723 198.336 90.48 201.48C97.28 206.18 105.48 205.86 112.75 202.48L103.63 220.73C103.461 221.07 103.383 221.448 103.401 221.827C103.419 222.206 103.534 222.574 103.734 222.897C103.934 223.219 104.213 223.485 104.545 223.669C104.877 223.854 105.25 223.95 105.63 223.95H134.93C135.311 223.953 135.686 223.858 136.019 223.675C136.352 223.491 136.633 223.225 136.834 222.901C137.035 222.578 137.149 222.209 137.166 221.828C137.183 221.448 137.101 221.07 136.93 220.73C133.883 214.637 130.847 208.54 127.82 202.44C131.198 204.284 135.006 205.193 138.852 205.074C142.699 204.954 146.444 203.81 149.7 201.76C153.747 198.989 156.951 195.155 158.96 190.68C162.04 184.19 163.03 176.48 160.45 169.78C159.276 166.839 157.672 164.09 155.69 161.62Z" fill="url(#paint1_linear_12_130)"/>
<path d="M23.52 114.05L67.57 58.92C69.0711 57.0662 70.2508 54.9739 71.06 52.73C71.4558 51.055 71.6637 49.3411 71.68 47.62C71.7298 43.5676 70.3087 39.6346 67.68 36.55C64.94 33.4033 61.0667 31.7767 56.06 31.67C54.0258 31.6088 51.9999 31.9541 50.1008 32.6856C48.2017 33.417 46.4676 34.52 45 35.93C41.96 38.77 40.1534 42.77 39.58 47.93H23.52C23.9267 38.5433 27.0767 30.7767 32.97 24.63C35.8119 21.7038 39.2182 19.385 42.9826 17.8139C46.747 16.2429 50.7911 15.4523 54.87 15.49C64.5834 15.59 72.4567 18.6867 78.49 24.78C84.63 30.82 87.7533 38.4867 87.86 47.78C87.9259 54.9768 85.5024 61.9751 81 67.59L44.73 113.12H87.86V129.3H23.52V114.05Z" fill="#2B2B2B"/>
<g filter="url(#filter0_i_12_130)">
<path fill-rule="evenodd" clip-rule="evenodd" d="M9.95 0H175.05C180.545 0 185 4.45477 185 9.95V236.05C185 241.545 180.545 246 175.05 246H9.95C4.45477 246 0 241.545 0 236.05V9.95C0 4.45477 4.45477 0 9.95 0ZM15 10C12.2386 10 10 12.2386 10 15V231C10 233.761 12.2386 236 15 236H170C172.761 236 175 233.761 175 231V15C175 12.2386 172.761 10 170 10H15Z" fill="#FFB800"/>
</g>
<defs>
<filter id="filter0_i_12_130" x="0" y="0" width="185" height="248" filterUnits="userSpaceOnUse" color-interpolation-filters="sRGB">
<feFlood flood-opacity="0" result="BackgroundImageFix"/>
<feBlend mode="normal" in="SourceGraphic" in2="BackgroundImageFix" result="shape"/>
<feColorMatrix in="SourceAlpha" type="matrix" values="0 0 0 0 0 0 0 0 0 0 0 0 0 0 0 0 0 0 127 0" result="hardAlpha"/>
<feOffset dy="4"/>
<feGaussianBlur stdDeviation="1"/>
<feComposite in2="hardAlpha" operator="arithmetic" k2="-1" k3="1"/>
<feColorMatrix type="matrix" values="0 0 0 0 0 0 0 0 0 0 0 0 0 0 0 0 0 0 0.25 0"/>
<feBlend mode="normal" in2="shape" result="effect1_innerShadow_12_130"/>
</filter>
<linearGradient id="paint0_linear_12_130" x1="92.38" y1="245.45" x2="92.38" y2="-0.549999" gradientUnits="userSpaceOnUse">
<stop stop-color="#E6E6E6"/>
<stop offset="1" stop-color="white"/>
</linearGradient>
<linearGradient id="paint1_linear_12_130" x1="132.25" y1="221.663" x2="132.25" y2="120.783" gradientUnits="userSpaceOnUse">
<stop stop-color="#1E1E1E"/>
<stop offset="1" stop-color="#3C3C3C"/>
</linearGradient>
</defs>
</svg>
