<svg width="185" height="246" viewBox="0 0 185 246" fill="none" xmlns="http://www.w3.org/2000/svg">
<path d="M175.05 0H9.95C4.45477 0 0 4.45477 0 9.95V236.05C0 241.545 4.45477 246 9.95 246H175.05C180.545 246 185 241.545 185 236.05V9.95C185 4.45477 180.545 0 175.05 0Z" fill="url(#paint0_linear_12_146)"/>
<path d="M148.74 161.62C143.68 155.08 136.52 149.41 131.32 143.68C130.13 142.37 112.71 123.68 113.32 123C107.68 129.77 101.87 136.42 95.96 143C91.58 147.84 87.12 152.47 82.47 157C77.82 161.53 73.62 166.67 72.18 173.06C71.1454 178.435 71.7805 183.997 74 189C75.9358 193.971 79.2572 198.281 83.57 201.42C90.36 206.12 98.57 205.8 105.84 202.42L96.72 220.67C96.5486 221.01 96.4674 221.388 96.4842 221.768C96.501 222.149 96.6154 222.518 96.8162 222.841C97.017 223.165 97.2976 223.431 97.631 223.615C97.9644 223.798 98.3394 223.893 98.72 223.89H128C128.38 223.89 128.753 223.794 129.085 223.609C129.417 223.425 129.696 223.159 129.896 222.837C130.096 222.514 130.211 222.146 130.229 221.767C130.247 221.388 130.169 221.01 130 220.67C126.953 214.577 123.913 208.48 120.88 202.38C124.258 204.224 128.066 205.133 131.912 205.014C135.759 204.894 139.504 203.75 142.76 201.7C146.803 198.925 150.001 195.087 152 190.61C155.07 184.12 156.06 176.41 153.49 169.71C152.312 166.795 150.711 164.069 148.74 161.62V161.62Z" fill="url(#paint1_linear_12_146)"/>
<path d="M45.68 63.56H51.16C56.5733 63.56 60.7767 62.05 63.77 59.03C65.2636 57.5506 66.4332 55.7767 67.2044 53.821C67.9757 51.8654 68.3317 49.7707 68.25 47.67C68.3155 45.5298 67.9414 43.3989 67.1508 41.409C66.3602 39.4191 65.1699 37.6124 63.6535 36.1007C62.1371 34.589 60.3268 33.4043 58.3344 32.6199C56.3421 31.8354 54.21 31.4679 52.07 31.54C48.691 31.5326 45.4142 32.699 42.8 34.84C39.86 37.04 37.8833 40.4467 36.87 45.06H21C21.6607 37.0747 25.2171 29.6062 31 24.06C33.6795 21.3378 36.8735 19.1756 40.3963 17.6992C43.9191 16.2228 47.7003 15.4616 51.52 15.46C61.6 15.56 69.6 18.81 75.52 25.21C81.0996 31.2232 84.1939 39.127 84.18 47.33C84.1769 51.5946 83.387 55.822 81.85 59.8C80.0767 63.8 76.91 67.3567 72.35 70.47C76.6652 73.1662 80.1612 76.9907 82.46 81.53C84.4315 85.7648 85.4553 90.3788 85.46 95.05C85.36 105.543 82.1433 113.81 75.81 119.85C69.5833 126.05 61.5833 129.2 51.81 129.3C44.4492 129.367 37.3168 126.746 31.75 121.93C25.9167 117.01 22.1267 109.893 20.38 100.58H36.26C37.4966 104.041 39.5557 107.151 42.26 109.64C44.8867 112.047 48.38 113.25 52.74 113.25C54.9303 113.293 57.106 112.885 59.1323 112.053C61.1586 111.22 62.9924 109.98 64.52 108.41C67.76 105.39 69.4267 101.09 69.52 95.51C69.42 89.83 67.7533 85.4267 64.52 82.3C61.2251 79.2416 56.8529 77.6128 52.36 77.77H45.68V63.56Z" fill="#2B2B2B"/>
<g filter="url(#filter0_i_12_146)">
<path fill-rule="evenodd" clip-rule="evenodd" d="M9.95 0H175.05C180.545 0 185 4.45477 185 9.95V236.05C185 241.545 180.545 246 175.05 246H9.95C4.45477 246 0 241.545 0 236.05V9.95C0 4.45477 4.45477 0 9.95 0ZM15 10C12.2386 10 10 12.2386 10 15V231C10 233.761 12.2386 236 15 236H170C172.761 236 175 233.761 175 231V15C175 12.2386 172.761 10 170 10H15Z" fill="#FFB800"/>
</g>
<defs>
<filter id="filter0_i_12_146" x="0" y="0" width="185" height="248" filterUnits="userSpaceOnUse" color-interpolation-filters="sRGB">
<feFlood flood-opacity="0" result="BackgroundImageFix"/>
<feBlend mode="normal" in="SourceGraphic" in2="BackgroundImageFix" result="shape"/>
<feColorMatrix in="SourceAlpha" type="matrix" values="0 0 0 0 0 0 0 0 0 0 0 0 0 0 0 0 0 0 127 0" result="hardAlpha"/>
<feOffset dy="4"/>
<feGaussianBlur stdDeviation="1"/>
<feComposite in2="hardAlpha" operator="arithmetic" k2="-1" k3="1"/>
<feColorMatrix type="matrix" values="0 0 0 0 0 0 0 0 0 0 0 0 0 0 0 0 0 0 0.25 0"/>
<feBlend mode="normal" in2="shape" result="effect1_innerShadow_12_146"/>
</filter>
<linearGradient id="paint0_linear_12_146" x1="92.78" y1="245.59" x2="92.78" y2="-0.41" gradientUnits="userSpaceOnUse">
<stop stop-color="#E6E6E6"/>
<stop offset="1" stop-color="white"/>
</linearGradient>
<linearGradient id="paint1_linear_12_146" x1="125.394" y1="222.695" x2="125.394" y2="121.815" gradientUnits="userSpaceOnUse">
<stop stop-color="#1E1E1E"/>
<stop offset="1" stop-color="#3C3C3C"/>
</linearGradient>
</defs>
</svg>
