<svg width="185" height="246" viewBox="0 0 185 246" fill="none" xmlns="http://www.w3.org/2000/svg">
<path d="M175.05 0H9.95C4.45477 0 0 4.45477 0 9.95V236.05C0 241.545 4.45477 246 9.95 246H175.05C180.545 246 185 241.545 185 236.05V9.95C185 4.45477 180.545 0 175.05 0Z" fill="url(#paint0_linear_12_178)"/>
<path d="M148.74 161.32C143.68 154.78 136.52 149.11 131.32 143.38C130.13 142.06 112.71 123.38 113.32 122.7C107.68 129.47 101.87 136.12 95.9599 142.7C91.5799 147.54 87.12 152.16 82.47 156.7C77.82 161.24 73.62 166.37 72.18 172.76C71.1233 178.151 71.7482 183.736 73.97 188.76C75.9081 193.729 79.2291 198.039 83.54 201.18C90.33 205.88 98.5399 205.56 105.81 202.18L96.69 220.43C96.5178 220.769 96.4361 221.147 96.4528 221.527C96.4694 221.907 96.5838 222.276 96.7849 222.599C96.9861 222.922 97.2671 223.187 97.6008 223.369C97.9345 223.552 98.3097 223.645 98.69 223.64H128C128.379 223.642 128.753 223.547 129.085 223.364C129.417 223.181 129.697 222.916 129.897 222.594C130.098 222.272 130.212 221.904 130.23 221.525C130.248 221.147 130.169 220.769 130 220.43C126.953 214.343 123.913 208.243 120.88 202.13C124.257 203.976 128.065 204.887 131.911 204.769C135.757 204.651 139.503 203.509 142.76 201.46C146.811 198.669 150.01 194.809 152 190.31C155.07 183.82 156.06 176.11 153.49 169.41C152.312 166.495 150.711 163.769 148.74 161.32Z" fill="url(#paint1_linear_12_178)"/>
<path d="M23.66 15.81H83.47V31.9H38.82V57.31C43.9118 53.2512 50.2489 51.0752 56.76 51.15C60.8169 51.2002 64.8313 51.9828 68.61 53.46C71.7166 54.8457 74.5174 56.8341 76.85 59.31C79.9196 62.2903 82.2425 65.9529 83.63 70C84.4279 72.6308 84.9409 75.3396 85.16 78.08C85.4734 81.3067 85.63 85.2833 85.63 90.01C85.63 97.3033 85.1167 102.897 84.09 106.79C83.0505 110.542 81.2118 114.025 78.7 117C76.0629 120.285 72.7912 123.006 69.08 125C64.6514 127.624 59.5975 129.006 54.45 129C46.9499 129.033 39.6373 126.657 33.59 122.22C27.1967 117.587 23.2167 110.113 21.65 99.8H37.74C39.4934 108.42 44.8567 112.783 53.83 112.89C57.6834 112.89 60.7634 112.12 63.07 110.58C65.2056 109.185 66.8277 107.131 67.69 104.73C68.6368 102.207 69.2062 99.5589 69.38 96.87C69.4867 94.0967 69.54 91.4033 69.54 88.79C69.64 82.3767 68.64 77.1667 66.54 73.16C65.3398 71.2014 63.6051 69.6263 61.54 68.62C58.9101 67.6254 56.1105 67.1565 53.3 67.24C50.5054 67.2045 47.7492 67.8936 45.3 69.24C42.89 70.62 40.73 73.04 38.83 76.47H23.66V15.81Z" fill="#2B2B2B"/>
<g filter="url(#filter0_i_12_178)">
<path fill-rule="evenodd" clip-rule="evenodd" d="M9.95 0H175.05C180.545 0 185 4.45477 185 9.95V236.05C185 241.545 180.545 246 175.05 246H9.95C4.45477 246 0 241.545 0 236.05V9.95C0 4.45477 4.45477 0 9.95 0ZM15 10C12.2386 10 10 12.2386 10 15V231C10 233.761 12.2386 236 15 236H170C172.761 236 175 233.761 175 231V15C175 12.2386 172.761 10 170 10H15Z" fill="#FFB800"/>
</g>
<defs>
<filter id="filter0_i_12_178" x="0" y="0" width="185" height="248" filterUnits="userSpaceOnUse" color-interpolation-filters="sRGB">
<feFlood flood-opacity="0" result="BackgroundImageFix"/>
<feBlend mode="normal" in="SourceGraphic" in2="BackgroundImageFix" result="shape"/>
<feColorMatrix in="SourceAlpha" type="matrix" values="0 0 0 0 0 0 0 0 0 0 0 0 0 0 0 0 0 0 127 0" result="hardAlpha"/>
<feOffset dy="4"/>
<feGaussianBlur stdDeviation="1"/>
<feComposite in2="hardAlpha" operator="arithmetic" k2="-1" k3="1"/>
<feColorMatrix type="matrix" values="0 0 0 0 0 0 0 0 0 0 0 0 0 0 0 0 0 0 0.25 0"/>
<feBlend mode="normal" in2="shape" result="effect1_innerShadow_12_178"/>
</filter>
<linearGradient id="paint0_linear_12_178" x1="92.25" y1="246.86" x2="92.25" y2="0.859999" gradientUnits="userSpaceOnUse">
<stop stop-color="#E6E6E6"/>
<stop offset="1" stop-color="white"/>
</linearGradient>
<linearGradient id="paint1_linear_12_178" x1="125.598" y1="224.179" x2="125.598" y2="123.299" gradientUnits="userSpaceOnUse">
<stop stop-color="#1E1E1E"/>
<stop offset="1" stop-color="#3C3C3C"/>
</linearGradient>
</defs>
</svg>
