<svg width="185" height="246" viewBox="0 0 185 246" fill="none" xmlns="http://www.w3.org/2000/svg">
<path d="M175.05 0H9.95C4.45477 0 0 4.45477 0 9.95V236.05C0 241.545 4.45477 246 9.95 246H175.05C180.545 246 185 241.545 185 236.05V9.95C185 4.45477 180.545 0 175.05 0Z" fill="url(#paint0_linear_12_194)"/>
<path d="M147.39 161.62C142.32 155.08 135.17 149.41 129.97 143.68C128.78 142.37 111.35 123.68 111.97 123C106.33 129.77 100.52 136.42 94.61 143C90.23 147.84 85.77 152.47 81.12 157C76.47 161.53 72.27 166.67 70.83 173.06C69.7734 178.451 70.3982 184.036 72.62 189.06C74.5621 194.027 77.8823 198.336 82.19 201.48C88.98 206.18 97.19 205.86 104.46 202.48L95.34 220.73C95.1685 221.07 95.0873 221.448 95.1041 221.828C95.121 222.209 95.2353 222.578 95.4361 222.901C95.6369 223.225 95.9175 223.491 96.2509 223.675C96.5843 223.858 96.9594 223.953 97.34 223.95H126.64C127.02 223.95 127.393 223.854 127.725 223.669C128.057 223.485 128.336 223.219 128.536 222.897C128.736 222.574 128.851 222.206 128.869 221.827C128.887 221.448 128.808 221.07 128.64 220.73C125.593 214.637 122.553 208.54 119.52 202.44C122.899 204.284 126.709 205.193 130.557 205.074C134.405 204.954 138.152 203.81 141.41 201.76C145.457 198.989 148.661 195.155 150.67 190.68C153.74 184.19 154.74 176.48 152.16 169.78C150.983 166.839 149.375 164.089 147.39 161.62Z" fill="url(#paint1_linear_12_194)"/>
<path d="M67.7899 15.45C67.6069 16.0216 67.3621 16.5715 67.0599 17.09L64.8799 21.58C63.9599 23.4733 62.8866 25.6433 61.6599 28.09L57.7899 35.83C56.4566 38.5367 55.0766 41.27 53.6499 44.03C52.2499 46.79 50.8899 49.42 49.5899 51.92C48.2899 54.42 47.0999 56.7 45.9999 58.74C44.8999 60.78 43.9999 62.42 43.3099 63.65C44.8423 62.7686 46.5488 62.2327 48.3099 62.08C50.4823 61.9051 52.664 61.8784 54.8399 62C58.0046 62.0304 61.1355 62.6545 64.0699 63.84C68.853 65.8172 72.8813 69.2675 75.5699 73.69C76.7597 75.5893 77.7644 77.5986 78.5699 79.69C79.2138 81.486 79.6925 83.337 79.9999 85.22C80.241 86.5408 80.3814 87.878 80.4199 89.22V93.63C80.4199 94.6167 80.4199 95.6167 80.4199 96.63C80.4199 97.63 80.3499 98.52 80.2999 99.23C80.2999 99.59 80.0799 100.52 79.7999 102.03C79.4292 103.854 78.9177 105.646 78.2699 107.39C77.4133 109.705 76.3489 111.937 75.0899 114.06C73.6109 116.557 71.7786 118.827 69.6499 120.8C67.2198 123.044 64.4528 124.893 61.4499 126.28C57.8204 127.916 53.9237 128.878 49.9499 129.12C45.8183 129.57 41.6392 129.258 37.6199 128.2C34.2944 127.298 31.1533 125.819 28.3399 123.83C25.8212 122.023 23.621 119.81 21.8299 117.28C20.1542 114.915 18.7771 112.353 17.7299 109.65C16.7767 107.232 16.1056 104.712 15.7299 102.14C15.406 100.113 15.3422 98.0531 15.5399 96.01C15.8399 93.51 16.1799 91.27 16.5399 89.31C16.8999 87.35 17.3199 85.46 17.8099 83.67C18.2999 81.88 18.8099 80.12 19.4599 78.39C20.1099 76.66 20.7799 74.76 21.5999 72.72C21.7999 72.21 22.3699 70.99 23.2899 69.08C24.2099 67.17 25.3399 64.8 26.6999 61.99C28.0599 59.18 29.5699 56.09 31.2599 52.72C32.9499 49.35 34.6099 46 36.2899 42.5C40.2899 34.4333 44.7599 25.4333 49.6999 15.5L67.7899 15.45ZM64.5699 97.21C64.5699 95.27 64.4933 93.1233 64.3399 90.77C64.1922 88.4485 63.6087 86.1756 62.6199 84.07C61.5229 81.836 59.8396 79.9419 57.7499 78.59C55.5033 77.0567 52.3099 76.1367 48.1699 75.83C46.3833 75.6602 44.581 75.8681 42.8799 76.44C41.3614 76.9739 39.9396 77.7507 38.6699 78.74C37.4563 79.6962 36.3854 80.8209 35.4899 82.08C34.6437 83.2499 33.9009 84.4913 33.2699 85.79C32.7334 86.8813 32.308 88.0237 31.9999 89.2C31.7869 89.9907 31.6595 90.8021 31.6199 91.62C31.6199 92.89 31.6199 94.31 31.6999 95.87C31.7493 97.4398 31.9131 99.004 32.1899 100.55C32.4756 102.109 32.9526 103.627 33.6099 105.07C34.2887 106.537 35.2543 107.853 36.4499 108.94C37.8263 110.154 39.4261 111.088 41.1599 111.69C43.467 112.472 45.8948 112.838 48.3299 112.77C50.3676 112.859 52.4036 112.56 54.3299 111.89C55.9143 111.321 57.3916 110.489 58.6999 109.43C59.8569 108.487 60.8532 107.362 61.6499 106.1C62.3725 104.965 62.9757 103.759 63.4499 102.5C63.8423 101.47 64.1369 100.405 64.3299 99.32C64.4592 98.6231 64.5394 97.9181 64.5699 97.21V97.21Z" fill="#2B2B2B"/>
<g filter="url(#filter0_i_12_194)">
<path fill-rule="evenodd" clip-rule="evenodd" d="M9.95 0H175.05C180.545 0 185 4.45477 185 9.95V236.05C185 241.545 180.545 246 175.05 246H9.95C4.45477 246 0 241.545 0 236.05V9.95C0 4.45477 4.45477 0 9.95 0ZM15 10C12.2386 10 10 12.2386 10 15V231C10 233.761 12.2386 236 15 236H170C172.761 236 175 233.761 175 231V15C175 12.2386 172.761 10 170 10H15Z" fill="#FFB800"/>
</g>
<defs>
<filter id="filter0_i_12_194" x="0" y="0" width="185" height="248" filterUnits="userSpaceOnUse" color-interpolation-filters="sRGB">
<feFlood flood-opacity="0" result="BackgroundImageFix"/>
<feBlend mode="normal" in="SourceGraphic" in2="BackgroundImageFix" result="shape"/>
<feColorMatrix in="SourceAlpha" type="matrix" values="0 0 0 0 0 0 0 0 0 0 0 0 0 0 0 0 0 0 127 0" result="hardAlpha"/>
<feOffset dy="4"/>
<feGaussianBlur stdDeviation="1"/>
<feComposite in2="hardAlpha" operator="arithmetic" k2="-1" k3="1"/>
<feColorMatrix type="matrix" values="0 0 0 0 0 0 0 0 0 0 0 0 0 0 0 0 0 0 0.25 0"/>
<feBlend mode="normal" in2="shape" result="effect1_innerShadow_12_194"/>
</filter>
<linearGradient id="paint0_linear_12_194" x1="91.32" y1="245.06" x2="91.32" y2="-0.939999" gradientUnits="userSpaceOnUse">
<stop stop-color="#E6E6E6"/>
<stop offset="1" stop-color="white"/>
</linearGradient>
<linearGradient id="paint1_linear_12_194" x1="124.031" y1="225.436" x2="124.031" y2="124.556" gradientUnits="userSpaceOnUse">
<stop stop-color="#1E1E1E"/>
<stop offset="1" stop-color="#3C3C3C"/>
</linearGradient>
</defs>
</svg>
