<svg width="185" height="246" viewBox="0 0 185 246" fill="none" xmlns="http://www.w3.org/2000/svg">
<path d="M175.05 0H9.95C4.45477 0 0 4.45477 0 9.95V236.05C0 241.545 4.45477 246 9.95 246H175.05C180.545 246 185 241.545 185 236.05V9.95C185 4.45477 180.545 0 175.05 0Z" fill="url(#paint0_linear_12_226)"/>
<path d="M153.16 161.62C148.09 155.08 140.94 149.41 135.74 143.68C134.55 142.37 117.13 123.68 117.74 123C112.087 129.773 106.3 136.44 100.38 143C96 147.84 91.53 152.47 86.88 157C82.23 161.53 78 166.66 76.58 173.05C75.5234 178.441 76.1482 184.026 78.37 189.05C80.3318 194.017 83.6731 198.32 88 201.45C94.79 206.15 103 205.83 110.27 202.45L101.14 220.7C100.971 221.04 100.893 221.418 100.911 221.797C100.929 222.176 101.044 222.544 101.244 222.867C101.444 223.189 101.723 223.455 102.055 223.639C102.387 223.824 102.76 223.92 103.14 223.92H132.44C132.821 223.923 133.196 223.828 133.529 223.645C133.862 223.461 134.143 223.195 134.344 222.871C134.545 222.548 134.659 222.179 134.676 221.798C134.693 221.418 134.611 221.04 134.44 220.7C131.4 214.607 128.363 208.51 125.33 202.41C128.708 204.254 132.516 205.163 136.362 205.044C140.209 204.924 143.953 203.78 147.21 201.73C151.257 198.959 154.461 195.125 156.47 190.65C159.55 184.16 160.54 176.45 157.96 169.75C156.771 166.818 155.153 164.078 153.16 161.62V161.62Z" fill="url(#paint1_linear_12_226)"/>
<path d="M19.33 95.65C19.4433 84.85 23.8466 76.46 32.54 70.48C29.2958 67.6723 26.6354 64.2541 24.71 60.42C22.4379 56.6213 21.2934 52.2547 21.41 47.83C21.51 38.4967 24.6566 30.7967 30.85 24.73C36.6766 18.69 44.1966 15.62 53.41 15.52C62.7833 15.62 70.45 18.69 76.41 24.73C82.37 30.77 85.4166 38.47 85.55 47.83C85.6659 52.2166 84.6316 56.5571 82.55 60.42C80.4421 64.2182 77.6913 67.622 74.42 70.48C83.0866 76.48 87.4866 84.87 87.62 95.65C87.52 105.73 84.22 113.79 77.72 119.83C71.12 126.023 63.0333 129.17 53.46 129.27C43.9533 129.17 35.9966 126.023 29.59 119.83C22.8566 113.79 19.4366 105.73 19.33 95.65ZM35.38 95.5C35.3592 97.8678 35.8403 100.213 36.7918 102.382C37.7433 104.55 39.1434 106.492 40.9 108.08C42.5217 109.749 44.4687 111.067 46.6206 111.953C48.7725 112.839 51.0833 113.274 53.41 113.23C55.7728 113.289 58.1226 112.862 60.3139 111.976C62.5052 111.09 64.4915 109.764 66.15 108.08C67.8693 106.47 69.2353 104.521 70.1614 102.355C71.0875 100.19 71.5536 97.8552 71.53 95.5C71.5624 93.1199 71.1011 90.759 70.1751 88.5662C69.2491 86.3734 67.8785 84.3964 66.15 82.76C62.7042 79.5172 58.1416 77.7266 53.41 77.76C48.7527 77.759 44.2735 79.5492 40.9 82.76C39.1316 84.3727 37.7254 86.3421 36.7739 88.5381C35.8224 90.7341 35.3473 93.1069 35.38 95.5V95.5ZM37.45 47.5C37.55 52.66 39.2166 56.6 42.45 59.32C45.4496 62.0694 49.3811 63.5776 53.45 63.54C57.5857 63.601 61.5911 62.0932 64.66 59.32C67.78 56.6 69.3933 52.66 69.5 47.5C69.3866 42.1667 67.7733 38.15 64.66 35.45C61.5116 32.8461 57.5349 31.4555 53.45 31.53C49.4321 31.4766 45.5286 32.8677 42.45 35.45C39.2166 38.1833 37.55 42.21 37.45 47.53V47.5Z" fill="#2B2B2B"/>
<g filter="url(#filter0_i_12_226)">
<path fill-rule="evenodd" clip-rule="evenodd" d="M9.95 0H175.05C180.545 0 185 4.45477 185 9.95V236.05C185 241.545 180.545 246 175.05 246H9.95C4.45477 246 0 241.545 0 236.05V9.95C0 4.45477 4.45477 0 9.95 0ZM15 10C12.2386 10 10 12.2386 10 15V231C10 233.761 12.2386 236 15 236H170C172.761 236 175 233.761 175 231V15C175 12.2386 172.761 10 170 10H15Z" fill="#FFB800"/>
</g>
<defs>
<filter id="filter0_i_12_226" x="0" y="0" width="185" height="248" filterUnits="userSpaceOnUse" color-interpolation-filters="sRGB">
<feFlood flood-opacity="0" result="BackgroundImageFix"/>
<feBlend mode="normal" in="SourceGraphic" in2="BackgroundImageFix" result="shape"/>
<feColorMatrix in="SourceAlpha" type="matrix" values="0 0 0 0 0 0 0 0 0 0 0 0 0 0 0 0 0 0 127 0" result="hardAlpha"/>
<feOffset dy="4"/>
<feGaussianBlur stdDeviation="1"/>
<feComposite in2="hardAlpha" operator="arithmetic" k2="-1" k3="1"/>
<feColorMatrix type="matrix" values="0 0 0 0 0 0 0 0 0 0 0 0 0 0 0 0 0 0 0.25 0"/>
<feBlend mode="normal" in2="shape" result="effect1_innerShadow_12_226"/>
</filter>
<linearGradient id="paint0_linear_12_226" x1="93.67" y1="245.53" x2="93.67" y2="-0.47" gradientUnits="userSpaceOnUse">
<stop stop-color="#E6E6E6"/>
<stop offset="1" stop-color="white"/>
</linearGradient>
<linearGradient id="paint1_linear_12_226" x1="130.091" y1="227.66" x2="130.091" y2="126.78" gradientUnits="userSpaceOnUse">
<stop stop-color="#1E1E1E"/>
<stop offset="1" stop-color="#3C3C3C"/>
</linearGradient>
</defs>
</svg>
