<svg width="185" height="246" viewBox="0 0 185 246" fill="none" xmlns="http://www.w3.org/2000/svg">
<path d="M175.05 0H9.95C4.45477 0 0 4.45477 0 9.95V236.05C0 241.545 4.45477 246 9.95 246H175.05C180.545 246 185 241.545 185 236.05V9.95C185 4.45477 180.545 0 175.05 0Z" fill="url(#paint0_linear_12_255)"/>
<path d="M150.55 161.62C145.49 155.08 138.34 149.41 133.14 143.68C131.95 142.37 114.52 123.68 115.14 123C109.5 129.77 103.69 136.42 97.78 143C93.4 147.84 88.94 152.47 84.29 157C79.64 161.53 75.42 166.66 74 173.05C72.9434 178.441 73.5683 184.026 75.79 189.05C77.7292 194.019 81.05 198.328 85.36 201.47C92.15 206.17 100.36 205.85 107.63 202.47L98.51 220.72C98.3386 221.06 98.2573 221.438 98.2742 221.818C98.291 222.199 98.4053 222.568 98.6062 222.891C98.807 223.215 99.0876 223.481 99.421 223.665C99.7544 223.848 100.129 223.943 100.51 223.94H129.81C130.19 223.94 130.563 223.844 130.895 223.659C131.227 223.475 131.506 223.209 131.706 222.887C131.906 222.564 132.021 222.196 132.039 221.817C132.057 221.438 131.979 221.06 131.81 220.72C128.763 214.627 125.723 208.53 122.69 202.43C126.069 204.274 129.88 205.183 133.727 205.064C137.575 204.944 141.322 203.8 144.58 201.75C148.627 198.979 151.831 195.145 153.84 190.67C156.91 184.18 157.91 176.47 155.33 169.77C154.152 166.83 152.541 164.083 150.55 161.62V161.62Z" fill="url(#paint1_linear_12_255)"/>
<path d="M35.62 128.82C36.0026 127.856 36.44 126.914 36.93 126C37.86 124.12 39.07 121.68 40.56 118.7C42.05 115.72 43.73 112.39 45.56 108.7L51.04 97.88C52.84 94.3333 54.5267 91.0633 56.1 88.07C57.68 85.07 58.95 82.74 59.93 81.07C58.3786 81.9591 56.6517 82.4983 54.87 82.65C52.6985 82.836 50.5169 82.8761 48.34 82.77C45.2703 82.7408 42.2362 82.1088 39.41 80.91C36.9923 79.8639 34.7627 78.4281 32.81 76.66C31.0047 75.0091 29.4515 73.1021 28.2 71C27.0248 69.0542 26.021 67.0098 25.2 64.89C24.502 63.0864 23.96 61.2263 23.58 59.33C23.2868 57.995 23.1161 56.636 23.07 55.27C23.07 54.96 23.07 54.4 23.07 53.57C23.07 52.74 23.07 51.83 23.07 50.83C23.07 49.83 23.07 48.83 23.07 47.83C23.0847 46.9502 23.1515 46.072 23.27 45.2C23.27 44.84 23.49 43.93 23.77 42.46C24.1516 40.6533 24.68 38.8807 25.35 37.16C26.2408 34.8703 27.3282 32.662 28.6 30.56C30.0649 28.0851 31.8842 25.8379 34 23.89C36.4568 21.6912 39.2442 19.8926 42.26 18.56C45.9616 16.9575 49.9069 15.9906 53.93 15.7C58.0811 15.2488 62.2793 15.5365 66.33 16.55C69.6383 17.4057 72.7674 18.8449 75.57 20.8C78.0707 22.5774 80.2459 24.7729 82 27.29C83.6348 29.6315 84.978 32.1635 86 34.83C86.9095 37.2202 87.5436 39.7062 87.89 42.24C88.1741 44.2781 88.211 46.343 88 48.39C87.6867 50.91 87.3533 53.1633 87 55.15C86.6467 57.1367 86.2233 59.03 85.73 60.83C85.24 62.63 84.73 64.41 84.07 66.16C83.41 67.91 82.73 69.81 81.9 71.87C81.69 72.44 81.14 73.68 80.24 75.58C79.34 77.48 78.24 79.82 76.84 82.58C75.44 85.34 74 88.4 72.36 91.77C70.72 95.14 69.08 98.53 67.36 101.93L54.09 128.82H35.62ZM39.1 47.23C39.1 49.23 39.2033 51.4433 39.41 53.87C39.6001 56.2398 40.2131 58.5564 41.22 60.71C42.3014 62.9295 43.9505 64.8235 46 66.2C48.17 67.71 51.21 68.58 55.12 68.78C56.928 68.9074 58.7428 68.6589 60.45 68.05C61.984 67.4961 63.4189 66.6993 64.7 65.69C65.9177 64.7364 66.9979 63.6192 67.91 62.37C68.7616 61.2139 69.5111 59.986 70.15 58.7C70.6916 57.6283 71.1173 56.502 71.42 55.34C71.6458 54.5347 71.7767 53.7057 71.81 52.87C71.81 51.58 71.72 50.14 71.69 48.54C71.6634 46.9072 71.5096 45.2789 71.23 43.67C70.9523 42.0335 70.4719 40.4379 69.8 38.92C69.14 37.3996 68.1652 36.0363 66.94 34.92C65.5622 33.708 63.9433 32.8015 62.19 32.26C59.85 31.5678 57.4017 31.3169 54.97 31.52C52.1777 31.5528 49.4533 32.3857 47.12 33.92C45.2366 35.2151 43.6008 36.8375 42.29 38.71C41.2026 40.2689 40.3689 41.9903 39.82 43.81C39.4513 44.9191 39.2098 46.0664 39.1 47.23V47.23Z" fill="#2B2B2B"/>
<g filter="url(#filter0_i_12_255)">
<path fill-rule="evenodd" clip-rule="evenodd" d="M9.95 0H175.05C180.545 0 185 4.45477 185 9.95V236.05C185 241.545 180.545 246 175.05 246H9.95C4.45477 246 0 241.545 0 236.05V9.95C0 4.45477 4.45477 0 9.95 0ZM15 10C12.2386 10 10 12.2386 10 15V231C10 233.761 12.2386 236 15 236H170C172.761 236 175 233.761 175 231V15C175 12.2386 172.761 10 170 10H15Z" fill="#FFB800"/>
</g>
<defs>
<filter id="filter0_i_12_255" x="0" y="0" width="185" height="248" filterUnits="userSpaceOnUse" color-interpolation-filters="sRGB">
<feFlood flood-opacity="0" result="BackgroundImageFix"/>
<feBlend mode="normal" in="SourceGraphic" in2="BackgroundImageFix" result="shape"/>
<feColorMatrix in="SourceAlpha" type="matrix" values="0 0 0 0 0 0 0 0 0 0 0 0 0 0 0 0 0 0 127 0" result="hardAlpha"/>
<feOffset dy="4"/>
<feGaussianBlur stdDeviation="1"/>
<feComposite in2="hardAlpha" operator="arithmetic" k2="-1" k3="1"/>
<feColorMatrix type="matrix" values="0 0 0 0 0 0 0 0 0 0 0 0 0 0 0 0 0 0 0.25 0"/>
<feBlend mode="normal" in2="shape" result="effect1_innerShadow_12_255"/>
</filter>
<linearGradient id="paint0_linear_12_255" x1="92.78" y1="246.51" x2="92.78" y2="0.51" gradientUnits="userSpaceOnUse">
<stop stop-color="#E6E6E6"/>
<stop offset="1" stop-color="white"/>
</linearGradient>
<linearGradient id="paint1_linear_12_255" x1="127.237" y1="228.077" x2="127.237" y2="127.197" gradientUnits="userSpaceOnUse">
<stop stop-color="#1E1E1E"/>
<stop offset="1" stop-color="#3C3C3C"/>
</linearGradient>
</defs>
</svg>
