<svg width="185" height="246" viewBox="0 0 185 246" fill="none" xmlns="http://www.w3.org/2000/svg">
<path d="M175.05 0H9.95C4.45477 0 0 4.45477 0 9.95V236.05C0 241.545 4.45477 246 9.95 246H175.05C180.545 246 185 241.545 185 236.05V9.95C185 4.45477 180.545 0 175.05 0Z" fill="url(#paint0_linear_12_276)"/>
<path d="M149.2 161.62C144.13 155.08 136.98 149.41 131.78 143.68C130.59 142.37 113.16 123.68 113.78 123C108.14 129.77 102.33 136.42 96.42 143C92.04 147.84 87.58 152.47 82.93 157C78.28 161.53 74.09 166.67 72.64 173.06C71.5834 178.451 72.2083 184.036 74.43 189.06C76.3771 194.016 79.6968 198.314 84 201.45C90.8 206.15 99 205.83 106.27 202.45L97.15 220.7C96.9786 221.04 96.8974 221.418 96.9142 221.798C96.931 222.179 97.0453 222.548 97.2462 222.871C97.447 223.195 97.7276 223.461 98.061 223.645C98.3944 223.828 98.7694 223.923 99.15 223.92H128.45C128.831 223.923 129.206 223.828 129.539 223.645C129.872 223.461 130.153 223.195 130.354 222.871C130.555 222.548 130.669 222.179 130.686 221.798C130.703 221.418 130.621 221.04 130.45 220.7C127.397 214.607 124.36 208.51 121.34 202.41C124.718 204.254 128.526 205.163 132.372 205.044C136.219 204.924 139.964 203.78 143.22 201.73C147.267 198.959 150.471 195.125 152.48 190.65C155.56 184.16 156.55 176.45 153.97 169.75C152.79 166.819 151.183 164.08 149.2 161.62V161.62Z" fill="url(#paint1_linear_12_276)"/>
<path d="M38.3499 109.64C41.0238 111.28 44.1141 112.113 47.2499 112.04C52.0093 112.068 56.6212 110.39 60.2499 107.31C62.3356 105.637 63.9687 103.467 64.9999 101C66.2773 97.9935 66.8847 94.7449 66.7799 91.48V15.36H83.8799V93.15C83.6732 104.483 79.9566 113.257 72.7299 119.47C65.8878 125.688 56.9753 129.135 47.7299 129.14C34.6232 128.833 24.8432 123.933 18.3899 114.44L32.1699 104.44C33.8225 106.607 35.9326 108.382 38.3499 109.64V109.64Z" fill="#2B2B2B"/>
<g filter="url(#filter0_i_12_276)">
<path fill-rule="evenodd" clip-rule="evenodd" d="M9.95 0H175.05C180.545 0 185 4.45477 185 9.95V236.05C185 241.545 180.545 246 175.05 246H9.95C4.45477 246 0 241.545 0 236.05V9.95C0 4.45477 4.45477 0 9.95 0ZM15 10C12.2386 10 10 12.2386 10 15V231C10 233.761 12.2386 236 15 236H170C172.761 236 175 233.761 175 231V15C175 12.2386 172.761 10 170 10H15Z" fill="#FFB800"/>
</g>
<defs>
<filter id="filter0_i_12_276" x="0" y="0" width="185" height="248" filterUnits="userSpaceOnUse" color-interpolation-filters="sRGB">
<feFlood flood-opacity="0" result="BackgroundImageFix"/>
<feBlend mode="normal" in="SourceGraphic" in2="BackgroundImageFix" result="shape"/>
<feColorMatrix in="SourceAlpha" type="matrix" values="0 0 0 0 0 0 0 0 0 0 0 0 0 0 0 0 0 0 127 0" result="hardAlpha"/>
<feOffset dy="4"/>
<feGaussianBlur stdDeviation="1"/>
<feComposite in2="hardAlpha" operator="arithmetic" k2="-1" k3="1"/>
<feColorMatrix type="matrix" values="0 0 0 0 0 0 0 0 0 0 0 0 0 0 0 0 0 0 0.25 0"/>
<feBlend mode="normal" in2="shape" result="effect1_innerShadow_12_276"/>
</filter>
<linearGradient id="paint0_linear_12_276" x1="91.79" y1="244.82" x2="91.79" y2="-1.18" gradientUnits="userSpaceOnUse">
<stop stop-color="#E6E6E6"/>
<stop offset="1" stop-color="white"/>
</linearGradient>
<linearGradient id="paint1_linear_12_276" x1="125.972" y1="230.365" x2="125.972" y2="129.485" gradientUnits="userSpaceOnUse">
<stop stop-color="#1E1E1E"/>
<stop offset="1" stop-color="#3C3C3C"/>
</linearGradient>
</defs>
</svg>
