<svg width="185" height="246" viewBox="0 0 185 246" fill="none" xmlns="http://www.w3.org/2000/svg">
<path d="M175.05 0H9.95C4.45477 0 0 4.45477 0 9.95V236.05C0 241.545 4.45477 246 9.95 246H175.05C180.545 246 185 241.545 185 236.05V9.95C185 4.45477 180.545 0 175.05 0Z" fill="url(#paint0_linear_12_292)"/>
<path d="M156.29 161.62C151.23 155.08 144.07 149.41 138.87 143.68C137.68 142.37 120.26 123.68 120.87 123C115.23 129.77 109.42 136.42 103.51 143C99.13 147.84 94.66 152.47 90.02 157C85.38 161.53 81.17 166.67 79.72 173.06C78.6665 178.452 79.2948 184.037 81.52 189.06C83.4557 194.031 86.7772 198.341 91.09 201.48C97.88 206.18 106.09 205.86 113.36 202.48L104.23 220.73C104.061 221.07 103.983 221.448 104.001 221.827C104.019 222.206 104.134 222.574 104.334 222.897C104.534 223.219 104.813 223.485 105.145 223.669C105.477 223.854 105.85 223.95 106.23 223.95H135.53C135.91 223.95 136.283 223.854 136.615 223.669C136.947 223.485 137.226 223.219 137.426 222.897C137.626 222.574 137.741 222.206 137.759 221.827C137.777 221.448 137.698 221.07 137.53 220.73C134.477 214.637 131.437 208.54 128.41 202.44C131.788 204.284 135.596 205.193 139.442 205.074C143.289 204.954 147.033 203.81 150.29 201.76C154.34 198.992 157.545 195.157 159.55 190.68C162.63 184.19 163.62 176.48 161.05 169.78C159.875 166.84 158.271 164.09 156.29 161.62V161.62Z" fill="url(#paint1_linear_12_292)"/>
<path d="M79.3 119.26C72.72 125.54 63.9533 128.787 53 129C44.22 128.793 36.8866 126.647 31 122.56C25 118.633 20.6666 114.093 18 108.94C17.1933 107.247 16.4533 105.637 15.78 104.11C15.0753 102.165 14.5628 100.155 14.25 98.11C13.49 93.6233 13.1066 84.9967 13.1 72.23C13.1 59.27 13.4833 50.6034 14.25 46.23C14.8359 42.48 16.1071 38.8699 18 35.58C20.6666 30.42 25 25.8267 31 21.8C37 17.7734 44.3333 15.68 53 15.52C61.88 15.62 69.2833 17.7134 75.21 21.8C81.1366 25.8867 85.36 30.48 87.88 35.58C89.9573 38.7914 91.2898 42.4269 91.78 46.22C92.4466 50.6134 92.78 59.28 92.78 72.22C92.78 83.8134 92.5233 91.9034 92.01 96.49C91.6177 100.243 90.5003 103.883 88.72 107.21L103.42 119L93.42 130.63L79.3 119.26ZM51.2 96.83L61.2 85.27L74.2 95.6C75.2666 91.8267 75.8 84.0434 75.8 72.25C75.8 61.2834 75.42 53.8067 74.66 49.82C74.0071 46.3852 72.4464 43.1878 70.14 40.56C68.3475 38.1673 66.0452 36.2032 63.4 34.81C60.1484 33.2689 56.5983 32.4599 53 32.44C49.4307 32.4335 45.9074 33.2442 42.7 34.81C39.9801 36.2008 37.5925 38.1621 35.7 40.56C33.3987 43.1713 31.8867 46.3826 31.34 49.82C30.52 53.82 30.11 61.2967 30.11 72.25C30.11 83.2034 30.5066 90.63 31.3 94.53C31.8165 98.0391 33.3298 101.326 35.66 104C37.5333 106.376 39.9285 108.289 42.66 109.59C45.8181 111.339 49.3922 112.196 53 112.07C58.2133 112.07 62.3733 110.767 65.48 108.16L51.2 96.83Z" fill="#2B2B2B"/>
<g filter="url(#filter0_i_12_292)">
<path fill-rule="evenodd" clip-rule="evenodd" d="M9.95 0H175.05C180.545 0 185 4.45477 185 9.95V236.05C185 241.545 180.545 246 175.05 246H9.95C4.45477 246 0 241.545 0 236.05V9.95C0 4.45477 4.45477 0 9.95 0ZM15 10C12.2386 10 10 12.2386 10 15V231C10 233.761 12.2386 236 15 236H170C172.761 236 175 233.761 175 231V15C175 12.2386 172.761 10 170 10H15Z" fill="#FFB800"/>
</g>
<defs>
<filter id="filter0_i_12_292" x="0" y="0" width="185" height="248" filterUnits="userSpaceOnUse" color-interpolation-filters="sRGB">
<feFlood flood-opacity="0" result="BackgroundImageFix"/>
<feBlend mode="normal" in="SourceGraphic" in2="BackgroundImageFix" result="shape"/>
<feColorMatrix in="SourceAlpha" type="matrix" values="0 0 0 0 0 0 0 0 0 0 0 0 0 0 0 0 0 0 127 0" result="hardAlpha"/>
<feOffset dy="4"/>
<feGaussianBlur stdDeviation="1"/>
<feComposite in2="hardAlpha" operator="arithmetic" k2="-1" k3="1"/>
<feColorMatrix type="matrix" values="0 0 0 0 0 0 0 0 0 0 0 0 0 0 0 0 0 0 0.25 0"/>
<feBlend mode="normal" in2="shape" result="effect1_innerShadow_12_292"/>
</filter>
<linearGradient id="paint0_linear_12_292" x1="92.03" y1="245.91" x2="92.03" y2="-0.0899999" gradientUnits="userSpaceOnUse">
<stop stop-color="#E6E6E6"/>
<stop offset="1" stop-color="white"/>
</linearGradient>
<linearGradient id="paint1_linear_12_292" x1="133.214" y1="231.807" x2="133.214" y2="130.927" gradientUnits="userSpaceOnUse">
<stop stop-color="#1E1E1E"/>
<stop offset="1" stop-color="#3C3C3C"/>
</linearGradient>
</defs>
</svg>
