<svg width="185" height="246" viewBox="0 0 185 246" fill="none" xmlns="http://www.w3.org/2000/svg">
<path d="M175.05 0H9.95C4.45477 0 0 4.45477 0 9.95V236.05C0 241.545 4.45477 246 9.95 246H175.05C180.545 246 185 241.545 185 236.05V9.95C185 4.45477 180.545 0 175.05 0Z" fill="url(#paint0_linear_12_263)"/>
<path d="M161.2 161.62C156.13 155.08 148.98 149.41 143.78 143.68C142.59 142.37 125.16 123.68 125.78 123C120.14 129.77 114.33 136.42 108.42 143C104.04 147.84 99.58 152.47 94.93 157C90.28 161.53 86.09 166.67 84.64 173.06C83.5834 178.451 84.2083 184.036 86.43 189.06C88.3771 194.016 91.6968 198.314 96 201.45C102.8 206.15 111 205.83 118.27 202.45L109.15 220.7C108.979 221.04 108.897 221.418 108.914 221.798C108.931 222.179 109.045 222.548 109.246 222.871C109.447 223.195 109.728 223.461 110.061 223.645C110.394 223.828 110.769 223.923 111.15 223.92H140.45C140.831 223.923 141.206 223.828 141.539 223.645C141.872 223.461 142.153 223.195 142.354 222.871C142.555 222.548 142.669 222.179 142.686 221.798C142.703 221.418 142.621 221.04 142.45 220.7C139.397 214.607 136.36 208.51 133.34 202.41C136.718 204.254 140.526 205.163 144.372 205.044C148.219 204.924 151.964 203.78 155.22 201.73C159.267 198.959 162.471 195.125 164.48 190.65C167.56 184.16 168.55 176.45 165.97 169.75C164.79 166.819 163.183 164.08 161.2 161.62V161.62Z" fill="url(#paint1_linear_12_263)"/>
<path d="M14 44.3V28.19L29.02 17.23H44.19V123.03H29.02V33.27L14 44.3Z" fill="#2B2B2B"/>
<path d="M53.3101 46.77C53.4101 36.9967 56.5334 29.4734 62.6801 24.2C68.2819 19.0331 75.6603 16.225 83.2801 16.36C91.0285 16.1712 98.5511 18.9796 104.28 24.2C110.14 29.4667 113.167 36.99 113.36 46.77V93.43C113.16 103.15 110.133 110.647 104.28 115.92C98.5464 121.151 91.0408 124.01 83.2801 123.92C75.6485 123.956 68.2873 121.097 62.6801 115.92C56.5267 110.653 53.4034 103.157 53.3101 93.43V46.77ZM98.1601 47.71C97.8734 37.1167 92.9134 31.7234 83.2801 31.53C73.6134 31.7167 68.6801 37.11 68.4801 47.71V92.56C68.6667 103.227 73.6001 108.62 83.2801 108.74C92.9067 108.64 97.8667 103.247 98.1601 92.56V47.71Z" fill="#2B2B2B"/>
<g filter="url(#filter0_i_12_263)">
<path fill-rule="evenodd" clip-rule="evenodd" d="M9.95 0H175.05C180.545 0 185 4.45477 185 9.95V236.05C185 241.545 180.545 246 175.05 246H9.95C4.45477 246 0 241.545 0 236.05V9.95C0 4.45477 4.45477 0 9.95 0ZM15 10C12.2386 10 10 12.2386 10 15V231C10 233.761 12.2386 236 15 236H170C172.761 236 175 233.761 175 231V15C175 12.2386 172.761 10 170 10H15Z" fill="#FFB800"/>
</g>
<defs>
<filter id="filter0_i_12_263" x="0" y="0" width="185" height="248" filterUnits="userSpaceOnUse" color-interpolation-filters="sRGB">
<feFlood flood-opacity="0" result="BackgroundImageFix"/>
<feBlend mode="normal" in="SourceGraphic" in2="BackgroundImageFix" result="shape"/>
<feColorMatrix in="SourceAlpha" type="matrix" values="0 0 0 0 0 0 0 0 0 0 0 0 0 0 0 0 0 0 127 0" result="hardAlpha"/>
<feOffset dy="4"/>
<feGaussianBlur stdDeviation="1"/>
<feComposite in2="hardAlpha" operator="arithmetic" k2="-1" k3="1"/>
<feColorMatrix type="matrix" values="0 0 0 0 0 0 0 0 0 0 0 0 0 0 0 0 0 0 0.25 0"/>
<feBlend mode="normal" in2="shape" result="effect1_innerShadow_12_263"/>
</filter>
<linearGradient id="paint0_linear_12_263" x1="91.38" y1="247.19" x2="91.38" y2="1.19" gradientUnits="userSpaceOnUse">
<stop stop-color="#E6E6E6"/>
<stop offset="1" stop-color="white"/>
</linearGradient>
<linearGradient id="paint1_linear_12_263" x1="137.738" y1="229.332" x2="137.738" y2="128.452" gradientUnits="userSpaceOnUse">
<stop stop-color="#1E1E1E"/>
<stop offset="1" stop-color="#3C3C3C"/>
</linearGradient>
</defs>
</svg>
