<svg width="70" height="70" viewBox="0 0 70 70" fill="none" xmlns="http://www.w3.org/2000/svg">
<path d="M28.0001 4.04166C32.3317 1.5408 37.6685 1.5408 42.0001 4.04166L58.311 13.4587C62.6426 15.9596 65.311 20.5814 65.311 25.5831V44.4173C65.311 49.419 62.6426 54.0408 58.311 56.5417L42.0001 65.9587C37.6685 68.4596 32.3317 68.4596 28.0001 65.9587L11.6892 56.5417C7.3576 54.0408 4.68921 49.419 4.68921 44.4173V25.5831C4.68921 20.5814 7.3576 15.9596 11.6892 13.4587L28.0001 4.04166Z" fill="black"/>
<path d="M18.0603 47H26.4595C31.5988 47 34.842 44.289 34.842 40.0811C34.842 36.8877 32.2807 34.4761 29.0374 34.3264V34.1933C31.6985 33.8274 33.7277 31.6819 33.7277 28.9875C33.7277 25.2786 30.8836 23 26.1601 23H18.0603C16.131 23 15 24.1642 15 26.1933V43.8067C15 45.8358 16.131 47 18.0603 47ZM21.104 32.7796V27.3243H24.5468C26.5925 27.3243 27.79 28.3222 27.79 30.0021C27.79 31.7318 26.4595 32.7796 24.2474 32.7796H21.104ZM21.104 42.6757V36.4886H24.6965C27.2079 36.4886 28.6383 37.5863 28.6383 39.5489C28.6383 41.578 27.2412 42.6757 24.7297 42.6757H21.104Z" fill="white"/>
<path d="M40.4803 47H48.8794C54.0187 47 57.262 44.289 57.262 40.0811C57.262 36.8877 54.7006 34.4761 51.4574 34.3264V34.1933C54.1185 33.8274 56.1476 31.6819 56.1476 28.9875C56.1476 25.2786 53.3035 23 48.58 23H40.4803C38.5509 23 37.42 24.1642 37.42 26.1933V43.8067C37.42 45.8358 38.5509 47 40.4803 47ZM43.5239 32.7796V27.3243H46.9667C49.0125 27.3243 50.21 28.3222 50.21 30.0021C50.21 31.7318 48.8794 32.7796 46.6674 32.7796H43.5239ZM43.5239 42.6757V36.4886H47.1164C49.6279 36.4886 51.0582 37.5863 51.0582 39.5489C51.0582 41.578 49.6611 42.6757 47.1497 42.6757H43.5239Z" fill="white"/>
</svg>
