<svg width="20" height="20" viewBox="0 0 20 20" fill="none" xmlns="http://www.w3.org/2000/svg">
<path d="M10 0C8.02219 0 6.08879 0.58649 4.4443 1.6853C2.79981 2.78412 1.51809 4.3459 0.761209 6.17316C0.00433284 8.00042 -0.1937 10.0111 0.192152 11.9509C0.578004 13.8907 1.53041 15.6725 2.92894 17.0711C4.32746 18.4696 6.10929 19.422 8.0491 19.8078C9.98891 20.1937 11.9996 19.9957 13.8268 19.2388C15.6541 18.4819 17.2159 17.2002 18.3147 15.5557C19.4135 13.9112 20 11.9778 20 10C19.9972 7.34869 18.9427 4.80678 17.068 2.93202C15.1932 1.05727 12.6513 0.00279983 10 0ZM3.5 4.58846L5.14135 6.22981C4.46181 7.09918 4.02991 8.13607 3.89135 9.23077H1.57404C1.72864 7.52339 2.40055 5.90384 3.5 4.58846ZM1.57404 10.7692H3.89616C4.03472 11.8639 4.46662 12.9008 5.14616 13.7702L3.5 15.4115C2.40055 14.0962 1.72864 12.4766 1.57404 10.7692ZM9.23077 18.426C7.52372 18.2722 5.9042 17.6013 4.58847 16.5029L6.22981 14.8615C7.10001 15.5383 8.13683 15.9675 9.23077 16.1038V18.426ZM9.23077 3.89615C8.13607 4.03472 7.09918 4.46662 6.22981 5.14615L4.58847 3.5C5.9042 2.40159 7.52372 1.7307 9.23077 1.57692V3.89615ZM18.426 9.23077H16.1038C15.9667 8.13654 15.5365 7.0997 14.8587 6.22981L16.5 4.58846C17.5995 5.90384 18.2714 7.52339 18.426 9.23077ZM10.7692 1.57404C12.4763 1.72781 14.0958 2.3987 15.4115 3.49711L13.7702 5.14135C12.9008 4.46181 11.8639 4.02991 10.7692 3.89135V1.57404ZM10.7692 18.426V16.1038C11.8635 15.9667 12.9003 15.5365 13.7702 14.8587L15.4115 16.5C14.0962 17.5995 12.4766 18.2714 10.7692 18.426ZM16.5 15.4115L14.8587 13.7702C15.5365 12.9003 15.9667 11.8635 16.1038 10.7692H18.426C18.2714 12.4766 17.5995 14.0962 16.5 15.4115Z" fill="#4FC7EC"/>
</svg>
