<svg width="70" height="70" viewBox="0 0 70 70" fill="none" xmlns="http://www.w3.org/2000/svg">
<path d="M28.0001 4.04166C32.3317 1.5408 37.6685 1.5408 42.0001 4.04166L58.311 13.4587C62.6426 15.9596 65.311 20.5814 65.311 25.5831V44.4173C65.311 49.419 62.6426 54.0408 58.311 56.5417L42.0001 65.9587C37.6685 68.4596 32.3317 68.4596 28.0001 65.9587L11.6892 56.5417C7.3576 54.0408 4.68921 49.419 4.68921 44.4173V25.5831C4.68921 20.5814 7.3576 15.9596 11.6892 13.4587L28.0001 4.04166Z" fill="black"/>
<path d="M28.0603 47H34.7464C41.9813 47 46.2557 42.526 46.2557 34.8586C46.2557 27.2079 41.9979 23 34.7464 23H28.0603C26.131 23 25 24.1642 25 26.1933V43.8067C25 45.8358 26.131 47 28.0603 47ZM31.1039 42.0769V27.9231H33.948C37.8067 27.9231 40.052 30.368 40.052 34.8753C40.052 39.6653 37.9231 42.0769 33.948 42.0769H31.1039Z" fill="white"/>
</svg>
