<svg width="33" height="33" viewBox="0 0 33 33" fill="none" xmlns="http://www.w3.org/2000/svg">
<path d="M16.5 32.25H0.75V16.5C0.75 7.80152 7.80152 0.75 16.5 0.75C25.1985 0.75 32.25 7.80152 32.25 16.5C32.25 25.1985 25.1985 32.25 16.5 32.25Z" fill="#F1F1F1"/>
<path d="M10.36 24V9.8H15.66C17.22 9.8 18.52 10.12 19.56 10.76C20.6133 11.3867 21.4067 12.24 21.94 13.32C22.4733 14.3867 22.74 15.5733 22.74 16.88C22.74 18.32 22.4467 19.5733 21.86 20.64C21.2733 21.7067 20.4467 22.5333 19.38 23.12C18.3267 23.7067 17.0867 24 15.66 24H10.36ZM19.4 16.88C19.4 16.0533 19.2533 15.3267 18.96 14.7C18.6667 14.06 18.24 13.5667 17.68 13.22C17.12 12.86 16.4467 12.68 15.66 12.68H13.64V21.12H15.66C16.46 21.12 17.1333 20.94 17.68 20.58C18.24 20.2067 18.6667 19.7 18.96 19.06C19.2533 18.4067 19.4 17.68 19.4 16.88Z" fill="#424242"/>
<path d="M16.5 32.25H0.75V16.5C0.75 7.80152 7.80152 0.75 16.5 0.75C25.1985 0.75 32.25 7.80152 32.25 16.5C32.25 25.1985 25.1985 32.25 16.5 32.25Z" stroke="#4FC7EC" stroke-width="1.5"/>
</svg>
