<svg width="63" height="36" viewBox="0 0 63 36" fill="none" xmlns="http://www.w3.org/2000/svg">
<path d="M5.57031 26.375L4.46875 31.9297C4.39844 32.2344 4.375 32.6797 4.375 32.9844C4.375 34.5312 5.38281 35.5391 7.11719 35.5391C8.99219 35.5391 10.1172 34.6016 10.4922 32.6328L11.7344 26.375H17.0312L15.9062 31.9297C15.8359 32.2344 15.8125 32.6797 15.8125 32.9844C15.8125 34.5312 16.8203 35.5391 18.5547 35.5391C20.4297 35.5391 21.5547 34.6016 21.9297 32.6094L23.1953 26.375H26.1484C28.3516 26.375 29.6875 25.0859 29.6875 23.0703C29.6875 21.4766 28.5859 20.4453 26.8047 20.4453H24.3438L25.3516 15.2656H28.3047C30.5078 15.2656 31.8203 13.9766 31.8203 11.9844C31.8203 10.3906 30.7422 9.38281 28.9375 9.38281H26.5234L27.5547 4.25C27.625 3.94531 27.6484 3.5 27.6484 3.19531C27.6484 1.64844 26.6406 0.640625 24.9062 0.640625C23.0312 0.640625 21.9062 1.57812 21.5312 3.57031L20.3594 9.38281H15.1094L16.1172 4.25C16.1875 3.94531 16.2344 3.5 16.2344 3.19531C16.2344 1.64844 15.2031 0.640625 13.4688 0.640625C11.5938 0.640625 10.4688 1.57812 10.0938 3.57031L8.89844 9.38281H6.01562C3.8125 9.38281 2.47656 10.6719 2.47656 12.6875C2.47656 14.2578 3.57812 15.3125 5.35938 15.3125H7.75L6.74219 20.4922H3.88281C1.67969 20.4922 0.367188 21.7812 0.367188 23.7734C0.367188 25.3672 1.44531 26.375 3.25 26.375H5.57031ZM12.2734 21.0781L13.5625 14.6562H19.8203L18.5078 21.0781H12.2734Z" fill="white"/>
<path d="M48.2266 35.8438C56.7812 35.8438 62.7109 31.8125 62.7109 25.8594C62.7109 21.2891 59.2656 18.0781 54.5078 17.2578V17.0938C58.6094 16.1797 61.4688 13.25 61.4688 9.57031C61.4688 4.20312 56.0781 0.335938 48.2266 0.335938C40.3984 0.335938 34.9844 4.20312 34.9844 9.54688C34.9844 13.2969 37.8672 16.1797 41.9922 17.0938V17.2578C37.2344 18.0781 33.7656 21.2656 33.7656 25.8359C33.7656 31.8125 39.6484 35.8438 48.2266 35.8438ZM48.2266 14.6562C45.4609 14.6562 43.4922 12.9219 43.4922 10.4375C43.4922 7.92969 45.4844 6.21875 48.2266 6.21875C50.9922 6.21875 53.0078 7.92969 53.0078 10.4375C53.0078 12.9219 51.0156 14.6562 48.2266 14.6562ZM48.2266 29.9375C45.0156 29.9375 42.7891 27.9453 42.7891 25.2031C42.7891 22.5078 45.0156 20.5625 48.2266 20.5625C51.4609 20.5625 53.6875 22.5078 53.6875 25.2031C53.6875 27.9453 51.4609 29.9375 48.2266 29.9375Z" fill="white"/>
</svg>
