<svg width="51" height="36" viewBox="0 0 51 36" fill="none" xmlns="http://www.w3.org/2000/svg">
<path d="M5.40625 26.375L4.30469 31.9297C4.23438 32.2344 4.21094 32.6797 4.21094 32.9844C4.21094 34.5312 5.21875 35.5391 6.95312 35.5391C8.82812 35.5391 9.95312 34.6016 10.3281 32.6328L11.5703 26.375H16.8672L15.7422 31.9297C15.6719 32.2344 15.6484 32.6797 15.6484 32.9844C15.6484 34.5312 16.6562 35.5391 18.3906 35.5391C20.2656 35.5391 21.3906 34.6016 21.7656 32.6094L23.0312 26.375H25.9844C28.1875 26.375 29.5234 25.0859 29.5234 23.0703C29.5234 21.4766 28.4219 20.4453 26.6406 20.4453H24.1797L25.1875 15.2656H28.1406C30.3438 15.2656 31.6562 13.9766 31.6562 11.9844C31.6562 10.3906 30.5781 9.38281 28.7734 9.38281H26.3594L27.3906 4.25C27.4609 3.94531 27.4844 3.5 27.4844 3.19531C27.4844 1.64844 26.4766 0.640625 24.7422 0.640625C22.8672 0.640625 21.7422 1.57812 21.3672 3.57031L20.1953 9.38281H14.9453L15.9531 4.25C16.0234 3.94531 16.0703 3.5 16.0703 3.19531C16.0703 1.64844 15.0391 0.640625 13.3047 0.640625C11.4297 0.640625 10.3047 1.57812 9.92969 3.57031L8.73438 9.38281H5.85156C3.64844 9.38281 2.3125 10.6719 2.3125 12.6875C2.3125 14.2578 3.41406 15.3125 5.19531 15.3125H7.58594L6.57812 20.4922H3.71875C1.51562 20.4922 0.203125 21.7812 0.203125 23.7734C0.203125 25.3672 1.28125 26.375 3.08594 26.375H5.40625ZM12.1094 21.0781L13.3984 14.6562H19.6562L18.3438 21.0781H12.1094Z" fill="white"/>
<path d="M46.5859 35.5391C49.1406 35.5391 50.8516 33.875 50.8516 31.2969V5.44531C50.8516 2.49219 49.0469 0.640625 45.9531 0.640625C44.2656 0.640625 42.8125 0.828125 41.0078 2.04688L34.6094 6.40625C33.3906 7.25 32.8984 8.21094 32.8984 9.45312C32.8984 11.1875 34.1406 12.4297 35.8047 12.4297C36.625 12.4297 37.1406 12.2422 37.9141 11.7031L42.1328 8.77344H42.2969V31.2969C42.2969 33.875 44.0312 35.5391 46.5859 35.5391Z" fill="white"/>
</svg>
