<svg width="63" height="36" viewBox="0 0 63 36" fill="none" xmlns="http://www.w3.org/2000/svg">
<path d="M5.32812 26.375L4.22656 31.9297C4.15625 32.2344 4.13281 32.6797 4.13281 32.9844C4.13281 34.5312 5.14062 35.5391 6.875 35.5391C8.75 35.5391 9.875 34.6016 10.25 32.6328L11.4922 26.375H16.7891L15.6641 31.9297C15.5938 32.2344 15.5703 32.6797 15.5703 32.9844C15.5703 34.5312 16.5781 35.5391 18.3125 35.5391C20.1875 35.5391 21.3125 34.6016 21.6875 32.6094L22.9531 26.375H25.9062C28.1094 26.375 29.4453 25.0859 29.4453 23.0703C29.4453 21.4766 28.3438 20.4453 26.5625 20.4453H24.1016L25.1094 15.2656H28.0625C30.2656 15.2656 31.5781 13.9766 31.5781 11.9844C31.5781 10.3906 30.5 9.38281 28.6953 9.38281H26.2812L27.3125 4.25C27.3828 3.94531 27.4062 3.5 27.4062 3.19531C27.4062 1.64844 26.3984 0.640625 24.6641 0.640625C22.7891 0.640625 21.6641 1.57812 21.2891 3.57031L20.1172 9.38281H14.8672L15.875 4.25C15.9453 3.94531 15.9922 3.5 15.9922 3.19531C15.9922 1.64844 14.9609 0.640625 13.2266 0.640625C11.3516 0.640625 10.2266 1.57812 9.85156 3.57031L8.65625 9.38281H5.77344C3.57031 9.38281 2.23438 10.6719 2.23438 12.6875C2.23438 14.2578 3.33594 15.3125 5.11719 15.3125H7.50781L6.5 20.4922H3.64062C1.4375 20.4922 0.125 21.7812 0.125 23.7734C0.125 25.3672 1.20312 26.375 3.00781 26.375H5.32812ZM12.0312 21.0781L13.3203 14.6562H19.5781L18.2656 21.0781H12.0312Z" fill="white"/>
<path d="M54.0781 35.5391C56.4219 35.5391 58.1328 34.1797 58.1328 31.4375V29.2344H59.4453C61.6953 29.2344 62.8672 27.8516 62.8672 25.9062C62.8672 23.9609 61.7188 22.5547 59.4453 22.5547H58.1328V6.6875C58.1328 3.00781 55.3438 0.640625 51.0312 0.640625C47.6328 0.640625 45.6406 2 43.0391 6.03125C39.9219 10.7422 37.2266 15.0078 34.9766 19.0625C33.7812 21.1719 33.2656 22.7891 33.2656 24.4297C33.2656 27.2891 35.375 29.2344 38.4688 29.2344H50V31.4375C50 34.1797 51.7109 35.5391 54.0781 35.5391ZM50.2344 22.8594H40.4609V22.625C43.2031 17.3516 45.9922 13.0156 50.0703 7.10938H50.2344V22.8594Z" fill="white"/>
</svg>
