<svg width="61" height="36" viewBox="0 0 61 36" fill="none" xmlns="http://www.w3.org/2000/svg">
<path d="M5.45312 26.375L4.35156 31.9297C4.28125 32.2344 4.25781 32.6797 4.25781 32.9844C4.25781 34.5312 5.26562 35.5391 7 35.5391C8.875 35.5391 10 34.6016 10.375 32.6328L11.6172 26.375H16.9141L15.7891 31.9297C15.7188 32.2344 15.6953 32.6797 15.6953 32.9844C15.6953 34.5312 16.7031 35.5391 18.4375 35.5391C20.3125 35.5391 21.4375 34.6016 21.8125 32.6094L23.0781 26.375H26.0312C28.2344 26.375 29.5703 25.0859 29.5703 23.0703C29.5703 21.4766 28.4688 20.4453 26.6875 20.4453H24.2266L25.2344 15.2656H28.1875C30.3906 15.2656 31.7031 13.9766 31.7031 11.9844C31.7031 10.3906 30.625 9.38281 28.8203 9.38281H26.4062L27.4375 4.25C27.5078 3.94531 27.5312 3.5 27.5312 3.19531C27.5312 1.64844 26.5234 0.640625 24.7891 0.640625C22.9141 0.640625 21.7891 1.57812 21.4141 3.57031L20.2422 9.38281H14.9922L16 4.25C16.0703 3.94531 16.1172 3.5 16.1172 3.19531C16.1172 1.64844 15.0859 0.640625 13.3516 0.640625C11.4766 0.640625 10.3516 1.57812 9.97656 3.57031L8.78125 9.38281H5.89844C3.69531 9.38281 2.35938 10.6719 2.35938 12.6875C2.35938 14.2578 3.46094 15.3125 5.24219 15.3125H7.63281L6.625 20.4922H3.76562C1.5625 20.4922 0.25 21.7812 0.25 23.7734C0.25 25.3672 1.32812 26.375 3.13281 26.375H5.45312ZM12.1562 21.0781L13.4453 14.6562H19.7031L18.3906 21.0781H12.1562Z" fill="white"/>
<path d="M38.0078 35H56.7578C58.9375 35 60.2031 33.6641 60.2031 31.6953C60.2031 29.6797 58.9375 28.3906 56.7578 28.3906H45.0625V28.2266L51.7891 22.0859C57.1562 17.2344 59.3594 14.75 59.3594 10.4141C59.3594 4.4375 54.2969 0.335938 46.5859 0.335938C40.4219 0.335938 35.9219 3.3125 34.4453 7.20312C34.1875 7.8125 34.0938 8.42188 34.0938 9.07812C34.0938 11.1875 35.4297 12.4766 37.6562 12.4766C39.3906 12.4766 40.3984 11.7969 41.4766 10.1328C42.7188 7.88281 44.2422 6.80469 46.4688 6.80469C49.1641 6.80469 51.0391 8.53906 51.0391 10.9766C51.0391 13.1797 49.9609 14.7266 46 18.3359L36.3438 27.1016C34.6562 28.5547 33.9766 29.7031 33.9766 31.3203C33.9766 33.4531 35.2422 35 38.0078 35Z" fill="white"/>
</svg>
