<svg width="59" height="36" viewBox="0 0 59 36" fill="none" xmlns="http://www.w3.org/2000/svg">
<path d="M5.34375 26.375L4.24219 31.9297C4.17188 32.2344 4.14844 32.6797 4.14844 32.9844C4.14844 34.5312 5.15625 35.5391 6.89062 35.5391C8.76562 35.5391 9.89062 34.6016 10.2656 32.6328L11.5078 26.375H16.8047L15.6797 31.9297C15.6094 32.2344 15.5859 32.6797 15.5859 32.9844C15.5859 34.5312 16.5938 35.5391 18.3281 35.5391C20.2031 35.5391 21.3281 34.6016 21.7031 32.6094L22.9688 26.375H25.9219C28.125 26.375 29.4609 25.0859 29.4609 23.0703C29.4609 21.4766 28.3594 20.4453 26.5781 20.4453H24.1172L25.125 15.2656H28.0781C30.2812 15.2656 31.5938 13.9766 31.5938 11.9844C31.5938 10.3906 30.5156 9.38281 28.7109 9.38281H26.2969L27.3281 4.25C27.3984 3.94531 27.4219 3.5 27.4219 3.19531C27.4219 1.64844 26.4141 0.640625 24.6797 0.640625C22.8047 0.640625 21.6797 1.57812 21.3047 3.57031L20.1328 9.38281H14.8828L15.8906 4.25C15.9609 3.94531 16.0078 3.5 16.0078 3.19531C16.0078 1.64844 14.9766 0.640625 13.2422 0.640625C11.3672 0.640625 10.2422 1.57812 9.86719 3.57031L8.67188 9.38281H5.78906C3.58594 9.38281 2.25 10.6719 2.25 12.6875C2.25 14.2578 3.35156 15.3125 5.13281 15.3125H7.52344L6.51562 20.4922H3.65625C1.45312 20.4922 0.140625 21.7812 0.140625 23.7734C0.140625 25.3672 1.21875 26.375 3.02344 26.375H5.34375ZM12.0469 21.0781L13.3359 14.6562H19.5938L18.2812 21.0781H12.0469Z" fill="white"/>
<path d="M41.2969 35.5391C43.125 35.5391 44.1562 34.8828 45.1172 33.0312L56.7422 10.7188C57.8438 8.63281 58.3125 7.27344 58.3125 5.75C58.3125 2.91406 56.1328 1.17969 53.2734 1.17969H36.1406C34.1484 1.17969 32.7188 2.46875 32.7188 4.46094C32.7188 6.45312 34.1484 7.78906 36.1406 7.78906H49.7109V7.95312L38.0859 29.3516C37.5938 30.2422 37.3594 31.0391 37.3594 32.0469C37.3594 33.9922 38.8359 35.5391 41.2969 35.5391Z" fill="white"/>
</svg>
