<svg width="62" height="36" viewBox="0 0 62 36" fill="none" xmlns="http://www.w3.org/2000/svg">
<path d="M5.35156 26.375L4.25 31.9297C4.17969 32.2344 4.15625 32.6797 4.15625 32.9844C4.15625 34.5312 5.16406 35.5391 6.89844 35.5391C8.77344 35.5391 9.89844 34.6016 10.2734 32.6328L11.5156 26.375H16.8125L15.6875 31.9297C15.6172 32.2344 15.5938 32.6797 15.5938 32.9844C15.5938 34.5312 16.6016 35.5391 18.3359 35.5391C20.2109 35.5391 21.3359 34.6016 21.7109 32.6094L22.9766 26.375H25.9297C28.1328 26.375 29.4688 25.0859 29.4688 23.0703C29.4688 21.4766 28.3672 20.4453 26.5859 20.4453H24.125L25.1328 15.2656H28.0859C30.2891 15.2656 31.6016 13.9766 31.6016 11.9844C31.6016 10.3906 30.5234 9.38281 28.7188 9.38281H26.3047L27.3359 4.25C27.4062 3.94531 27.4297 3.5 27.4297 3.19531C27.4297 1.64844 26.4219 0.640625 24.6875 0.640625C22.8125 0.640625 21.6875 1.57812 21.3125 3.57031L20.1406 9.38281H14.8906L15.8984 4.25C15.9688 3.94531 16.0156 3.5 16.0156 3.19531C16.0156 1.64844 14.9844 0.640625 13.25 0.640625C11.375 0.640625 10.25 1.57812 9.875 3.57031L8.67969 9.38281H5.79688C3.59375 9.38281 2.25781 10.6719 2.25781 12.6875C2.25781 14.2578 3.35938 15.3125 5.14062 15.3125H7.53125L6.52344 20.4922H3.66406C1.46094 20.4922 0.148438 21.7812 0.148438 23.7734C0.148438 25.3672 1.22656 26.375 3.03125 26.375H5.35156ZM12.0547 21.0781L13.3438 14.6562H19.6016L18.2891 21.0781H12.0547Z" fill="white"/>
<path d="M46.9297 35.8438C56.3047 35.8438 61.9531 29.1172 61.9531 17.9375C61.9531 13.8594 61.1562 10.3438 59.7734 7.71875C57.1016 2.67969 52.6953 0.335938 47.1641 0.335938C39.3125 0.335938 33.5703 5.375 33.5703 12.5469C33.5703 19.2266 38.6328 23.5156 44.7969 23.5156C49.3203 23.5156 52.4609 21.2656 53.5859 18.0547H53.7266C53.7266 18.1953 53.7266 18.3125 53.7266 18.4062C53.8203 24.5938 51.9688 29.2578 47.3047 29.2578C45.1484 29.2578 43.8125 28.5078 42.2656 26.9375C41.0703 25.7891 40.1328 25.0391 38.4219 25.0391C36.1719 25.0391 34.9531 26.5156 34.9531 28.3438C34.9531 28.9531 35.0938 29.5391 35.375 30.1719C36.8281 33.4531 41.2109 35.8438 46.9297 35.8438ZM47.2109 17.4453C44.1406 17.4453 41.8438 15.2891 41.8438 12.1953C41.8438 9.21875 44.2344 6.92188 47.2812 6.92188C50.3047 6.92188 52.6719 9.26562 52.6719 12.3125C52.6719 15.3125 50.3281 17.4453 47.2109 17.4453Z" fill="white"/>
</svg>
