<svg width="62" height="36" viewBox="0 0 62 36" fill="none" xmlns="http://www.w3.org/2000/svg">
<path d="M5.42188 26.375L4.32031 31.9297C4.25 32.2344 4.22656 32.6797 4.22656 32.9844C4.22656 34.5312 5.23438 35.5391 6.96875 35.5391C8.84375 35.5391 9.96875 34.6016 10.3438 32.6328L11.5859 26.375H16.8828L15.7578 31.9297C15.6875 32.2344 15.6641 32.6797 15.6641 32.9844C15.6641 34.5312 16.6719 35.5391 18.4062 35.5391C20.2812 35.5391 21.4062 34.6016 21.7812 32.6094L23.0469 26.375H26C28.2031 26.375 29.5391 25.0859 29.5391 23.0703C29.5391 21.4766 28.4375 20.4453 26.6562 20.4453H24.1953L25.2031 15.2656H28.1562C30.3594 15.2656 31.6719 13.9766 31.6719 11.9844C31.6719 10.3906 30.5938 9.38281 28.7891 9.38281H26.375L27.4062 4.25C27.4766 3.94531 27.5 3.5 27.5 3.19531C27.5 1.64844 26.4922 0.640625 24.7578 0.640625C22.8828 0.640625 21.7578 1.57812 21.3828 3.57031L20.2109 9.38281H14.9609L15.9688 4.25C16.0391 3.94531 16.0859 3.5 16.0859 3.19531C16.0859 1.64844 15.0547 0.640625 13.3203 0.640625C11.4453 0.640625 10.3203 1.57812 9.94531 3.57031L8.75 9.38281H5.86719C3.66406 9.38281 2.32812 10.6719 2.32812 12.6875C2.32812 14.2578 3.42969 15.3125 5.21094 15.3125H7.60156L6.59375 20.4922H3.73438C1.53125 20.4922 0.21875 21.7812 0.21875 23.7734C0.21875 25.3672 1.29688 26.375 3.10156 26.375H5.42188ZM12.125 21.0781L13.4141 14.6562H19.6719L18.3594 21.0781H12.125Z" fill="white"/>
<path d="M48.3594 35.8438C56.2109 35.8438 61.9531 30.7812 61.9531 23.6094C61.9531 17.2812 57.6172 12.6875 51.0312 12.6875C46.4609 12.6875 43.2266 14.9141 41.9375 18.0781H41.7734V17.7031C41.7266 11.3516 43.7891 6.92188 48.2188 6.92188C50.2578 6.92188 51.6875 7.60156 53.1875 9.21875C54.3828 10.4141 55.3438 11.1172 57.0312 11.1172C59.2812 11.1172 60.5234 9.64062 60.5234 7.8125C60.5234 7.17969 60.3828 6.59375 60.1016 5.96094C58.6719 2.86719 54.5 0.3125 48.2188 0.3125C39.1719 0.3125 33.5469 7.10938 33.5469 18.2188C33.5469 22.2969 34.3438 25.8125 35.75 28.4375C38.4219 33.4766 42.8047 35.8438 48.3594 35.8438ZM48.2422 29.2344C45.1953 29.2344 42.8281 26.9141 42.8281 23.8672C42.8281 20.8438 45.1953 18.7109 48.3125 18.7109C51.3594 18.7109 53.6797 20.8906 53.6562 23.9844C53.6328 26.9375 51.2656 29.2344 48.2422 29.2344Z" fill="white"/>
</svg>
