<svg width="87" height="36" viewBox="0 0 87 36" fill="none" xmlns="http://www.w3.org/2000/svg">
<path d="M5.54688 26.375L4.44531 31.9297C4.375 32.2344 4.35156 32.6797 4.35156 32.9844C4.35156 34.5312 5.35938 35.5391 7.09375 35.5391C8.96875 35.5391 10.0938 34.6016 10.4688 32.6328L11.7109 26.375H17.0078L15.8828 31.9297C15.8125 32.2344 15.7891 32.6797 15.7891 32.9844C15.7891 34.5312 16.7969 35.5391 18.5312 35.5391C20.4062 35.5391 21.5312 34.6016 21.9062 32.6094L23.1719 26.375H26.125C28.3281 26.375 29.6641 25.0859 29.6641 23.0703C29.6641 21.4766 28.5625 20.4453 26.7812 20.4453H24.3203L25.3281 15.2656H28.2812C30.4844 15.2656 31.7969 13.9766 31.7969 11.9844C31.7969 10.3906 30.7188 9.38281 28.9141 9.38281H26.5L27.5312 4.25C27.6016 3.94531 27.625 3.5 27.625 3.19531C27.625 1.64844 26.6172 0.640625 24.8828 0.640625C23.0078 0.640625 21.8828 1.57812 21.5078 3.57031L20.3359 9.38281H15.0859L16.0938 4.25C16.1641 3.94531 16.2109 3.5 16.2109 3.19531C16.2109 1.64844 15.1797 0.640625 13.4453 0.640625C11.5703 0.640625 10.4453 1.57812 10.0703 3.57031L8.875 9.38281H5.99219C3.78906 9.38281 2.45312 10.6719 2.45312 12.6875C2.45312 14.2578 3.55469 15.3125 5.33594 15.3125H7.72656L6.71875 20.4922H3.85938C1.65625 20.4922 0.34375 21.7812 0.34375 23.7734C0.34375 25.3672 1.42188 26.375 3.22656 26.375H5.54688ZM12.25 21.0781L13.5391 14.6562H19.7969L18.4844 21.0781H12.25Z" fill="white"/>
<path d="M46.7266 35.5391C49.2812 35.5391 50.9922 33.875 50.9922 31.2969V5.44531C50.9922 2.49219 49.1875 0.640625 46.0938 0.640625C44.4062 0.640625 42.9531 0.828125 41.1484 2.04688L34.75 6.40625C33.5312 7.25 33.0391 8.21094 33.0391 9.45312C33.0391 11.1875 34.2812 12.4297 35.9453 12.4297C36.7656 12.4297 37.2812 12.2422 38.0547 11.7031L42.2734 8.77344H42.4375V31.2969C42.4375 33.875 44.1719 35.5391 46.7266 35.5391Z" fill="white"/>
<path d="M72.25 35.8438C81.2031 35.8438 86.7344 29.0469 86.7344 18.0078C86.7344 6.89844 81.1562 0.3125 72.25 0.3125C63.3672 0.3125 57.7422 6.92188 57.7422 18.0312C57.7422 29.0938 63.2969 35.8438 72.25 35.8438ZM72.25 29.1406C68.6875 29.1406 66.4844 25.4141 66.4844 18.0078C66.4844 10.6484 68.6875 7.01562 72.25 7.01562C75.8125 7.01562 77.9922 10.625 77.9922 18.0312C77.9922 25.4141 75.8359 29.1406 72.25 29.1406Z" fill="white"/>
</svg>
