<svg width="62" height="36" viewBox="0 0 62 36" fill="none" xmlns="http://www.w3.org/2000/svg">
<path d="M5.39062 26.375L4.28906 31.9297C4.21875 32.2344 4.19531 32.6797 4.19531 32.9844C4.19531 34.5312 5.20312 35.5391 6.9375 35.5391C8.8125 35.5391 9.9375 34.6016 10.3125 32.6328L11.5547 26.375H16.8516L15.7266 31.9297C15.6562 32.2344 15.6328 32.6797 15.6328 32.9844C15.6328 34.5312 16.6406 35.5391 18.375 35.5391C20.25 35.5391 21.375 34.6016 21.75 32.6094L23.0156 26.375H25.9688C28.1719 26.375 29.5078 25.0859 29.5078 23.0703C29.5078 21.4766 28.4062 20.4453 26.625 20.4453H24.1641L25.1719 15.2656H28.125C30.3281 15.2656 31.6406 13.9766 31.6406 11.9844C31.6406 10.3906 30.5625 9.38281 28.7578 9.38281H26.3438L27.375 4.25C27.4453 3.94531 27.4688 3.5 27.4688 3.19531C27.4688 1.64844 26.4609 0.640625 24.7266 0.640625C22.8516 0.640625 21.7266 1.57812 21.3516 3.57031L20.1797 9.38281H14.9297L15.9375 4.25C16.0078 3.94531 16.0547 3.5 16.0547 3.19531C16.0547 1.64844 15.0234 0.640625 13.2891 0.640625C11.4141 0.640625 10.2891 1.57812 9.91406 3.57031L8.71875 9.38281H5.83594C3.63281 9.38281 2.29688 10.6719 2.29688 12.6875C2.29688 14.2578 3.39844 15.3125 5.17969 15.3125H7.57031L6.5625 20.4922H3.70312C1.5 20.4922 0.1875 21.7812 0.1875 23.7734C0.1875 25.3672 1.26562 26.375 3.07031 26.375H5.39062ZM12.0938 21.0781L13.3828 14.6562H19.6406L18.3281 21.0781H12.0938Z" fill="white"/>
<path d="M47.6484 35.8438C55.6875 35.8438 61.2656 30.9453 61.2656 23.5156C61.2656 17.0938 56.6719 12.5938 50.2734 12.5938C46.7344 12.5938 43.9922 14.0703 42.6797 16.2969H42.5156L43.1719 7.78906H56.1094C58.1719 7.78906 59.4844 6.5 59.4844 4.48438C59.4844 2.46875 58.1484 1.17969 56.1094 1.17969H40.8984C38.0156 1.17969 36.3281 2.46875 36.0938 5.5625L35.2031 17.4453C35.2031 17.4922 35.2031 17.5156 35.2031 17.5625C35.0625 19.8359 36.3516 21.8047 39.1875 21.8047C41.0625 21.8047 41.9297 21.3828 43.2422 20.2344C44.3203 19.2734 45.7969 18.4297 47.6484 18.4297C50.8828 18.4297 53.1562 20.6094 53.1562 23.7031C53.1562 26.8672 50.7891 29.2109 47.5781 29.2109C44.8594 29.2109 43.2188 27.9219 41.9062 25.9531C40.875 24.6641 39.8438 24.125 38.2266 24.125C36.0469 24.125 34.7578 25.3906 34.7578 27.5C34.7578 28.3203 34.9688 29.1172 35.3438 29.8672C37.0781 33.3125 42.0469 35.8438 47.6484 35.8438Z" fill="white"/>
</svg>
