<svg width="61" height="36" viewBox="0 0 61 36" fill="none" xmlns="http://www.w3.org/2000/svg">
<path d="M5.32031 26.375L4.21875 31.9297C4.14844 32.2344 4.125 32.6797 4.125 32.9844C4.125 34.5312 5.13281 35.5391 6.86719 35.5391C8.74219 35.5391 9.86719 34.6016 10.2422 32.6328L11.4844 26.375H16.7812L15.6562 31.9297C15.5859 32.2344 15.5625 32.6797 15.5625 32.9844C15.5625 34.5312 16.5703 35.5391 18.3047 35.5391C20.1797 35.5391 21.3047 34.6016 21.6797 32.6094L22.9453 26.375H25.8984C28.1016 26.375 29.4375 25.0859 29.4375 23.0703C29.4375 21.4766 28.3359 20.4453 26.5547 20.4453H24.0938L25.1016 15.2656H28.0547C30.2578 15.2656 31.5703 13.9766 31.5703 11.9844C31.5703 10.3906 30.4922 9.38281 28.6875 9.38281H26.2734L27.3047 4.25C27.375 3.94531 27.3984 3.5 27.3984 3.19531C27.3984 1.64844 26.3906 0.640625 24.6562 0.640625C22.7812 0.640625 21.6562 1.57812 21.2812 3.57031L20.1094 9.38281H14.8594L15.8672 4.25C15.9375 3.94531 15.9844 3.5 15.9844 3.19531C15.9844 1.64844 14.9531 0.640625 13.2188 0.640625C11.3438 0.640625 10.2188 1.57812 9.84375 3.57031L8.64844 9.38281H5.76562C3.5625 9.38281 2.22656 10.6719 2.22656 12.6875C2.22656 14.2578 3.32812 15.3125 5.10938 15.3125H7.5L6.49219 20.4922H3.63281C1.42969 20.4922 0.117188 21.7812 0.117188 23.7734C0.117188 25.3672 1.19531 26.375 3 26.375H5.32031ZM12.0234 21.0781L13.3125 14.6562H19.5703L18.2578 21.0781H12.0234Z" fill="white"/>
<path d="M47.0391 35.8438C55.5234 35.8438 60.9844 31.7656 60.9844 25.4375C60.9844 20.8672 57.75 17.9844 52.6406 17.4688V17.3047C56.5078 16.5312 59.6484 13.7656 59.6484 9.42969C59.6484 3.6875 54.3516 0.335938 46.9922 0.335938C40.3359 0.335938 36.3516 3.52344 35.0156 6.80469C34.7109 7.53125 34.5938 8.11719 34.5938 8.84375C34.5938 10.8125 35.7891 12.2188 38.1328 12.2188C40.0312 12.2188 41.0625 11.5391 42.0234 9.73438C43.0547 7.71875 44.625 6.73438 47.0391 6.73438C49.9688 6.73438 51.6562 8.25781 51.6562 10.6484C51.6562 13.1094 49.6406 14.7266 46.3359 14.7266H45.5625C43.5234 14.7266 42.4453 15.9219 42.4453 17.6328C42.4453 19.3906 43.5234 20.5625 45.5625 20.5625H46.3828C50.1328 20.5625 52.2422 22.0859 52.2422 24.9219C52.2422 27.3594 50.1797 29.0938 47.2266 29.0938C44.0156 29.0938 42.4922 27.8516 41.25 25.7422C40.4062 24.3828 39.3516 23.7969 37.7109 23.7969C35.3672 23.7969 33.9375 25.1562 33.9375 27.3125C33.9375 27.9219 34.0781 28.625 34.3594 29.2812C35.7188 32.5625 39.8438 35.8438 47.0391 35.8438Z" fill="white"/>
</svg>
