<svg width="70" height="70" viewBox="0 0 70 70" fill="none" xmlns="http://www.w3.org/2000/svg">
<path d="M28.0001 4.04166C32.3317 1.5408 37.6685 1.5408 42.0001 4.04166L58.311 13.4587C62.6426 15.9596 65.311 20.5814 65.311 25.5831V44.4173C65.311 49.419 62.6426 54.0408 58.311 56.5417L42.0001 65.9587C37.6685 68.4596 32.3317 68.4596 28.0001 65.9587L11.6892 56.5417C7.3576 54.0408 4.68921 49.419 4.68921 44.4173V25.5831C4.68921 20.5814 7.3576 15.9596 11.6892 13.4587L28.0001 4.04166Z" fill="black"/>
<path opacity="0.3" d="M34.7926 54.7407C33.6371 54.7407 32.8667 53.9703 32.8667 52.8148V18.1481C32.8667 16.9925 33.6371 16.2222 34.7926 16.2222C35.9482 16.2222 36.7186 16.9925 36.7186 18.1481V52.8148C36.7186 53.9703 35.9482 54.7407 34.7926 54.7407Z" fill="white"/>
<path d="M45 40.6823C45 42.223 44.6148 43.7638 43.8444 44.9193C43.074 46.2675 41.9185 47.2304 40.1851 47.8082C38.6444 48.5786 36.7185 48.9638 34.6 48.9638C32.0962 48.9638 29.9777 48.386 28.2444 47.423C27.0889 46.6527 26.1259 45.8823 25.3555 44.5341C24.5852 43.3786 24.2 42.223 24.2 41.0675C24.2 40.4897 24.3925 39.9119 24.7777 39.3341C25.1629 38.949 25.7407 38.5638 26.5111 38.5638C27.0889 38.5638 27.474 38.7564 27.8592 39.1416C28.2444 39.5267 28.6296 40.1045 28.8222 40.6823C29.2073 41.4527 29.5925 42.223 29.9777 42.8008C30.3629 43.3786 30.9407 43.7638 31.5185 44.149C32.2888 44.5341 33.0592 44.7267 34.2148 44.7267C35.7555 44.7267 37.1037 44.3416 38.0666 43.5712C39.0296 42.8008 39.6074 41.8378 39.6074 40.8749C39.6074 40.1045 39.4148 39.3341 38.837 38.7564C38.2592 38.1786 37.6814 37.7934 36.7185 37.6008C35.9481 37.4082 34.7925 37.023 33.4444 36.6379C31.5185 36.2527 29.9777 35.6749 28.8222 35.0971C27.474 34.5193 26.511 33.749 25.7407 32.786C24.9703 31.823 24.5852 30.4748 24.5852 28.9341C24.5852 27.586 24.9703 26.2378 25.7407 25.0823C26.511 23.9267 27.6666 23.1565 29.2074 22.5787C30.7481 22.0009 32.4814 21.6157 34.4074 21.6157C35.9481 21.6157 37.2962 21.8082 38.6444 22.1934C39.8 22.5786 40.7629 23.1564 41.5333 23.7342C42.3037 24.312 42.8814 25.0823 43.2666 25.8527C43.6518 26.623 43.8444 27.2008 43.8444 27.9711C43.8444 28.5489 43.6518 29.1267 43.2666 29.7045C42.8814 30.2823 42.3037 30.4749 41.5333 30.4749C40.9555 30.4749 40.3777 30.2822 40.1851 30.0896C39.9925 29.897 39.6074 29.3194 39.2222 28.549C38.837 27.586 38.2592 26.8155 37.4888 26.2378C36.7185 25.66 35.7555 25.4676 34.2148 25.4676C32.8666 25.4676 31.7111 25.8528 30.9407 26.4305C30.1703 27.0083 29.5925 27.7786 29.5925 28.549C29.5925 29.1268 29.7851 29.5119 29.9777 29.8971C30.1703 30.2823 30.7481 30.6674 31.1333 30.86C31.5185 31.0526 32.0962 31.4379 32.674 31.4379C33.2518 31.6304 34.0222 31.823 35.1777 32.2082C36.7185 32.5934 38.0666 32.9786 39.2222 33.3638C40.3777 33.749 41.3407 34.3267 42.3037 34.9045C43.074 35.4823 43.8444 36.2527 44.2296 37.2156C44.6148 38.1786 45 39.3341 45 40.6823Z" fill="white"/>
</svg>
