<svg width="70" height="70" viewBox="0 0 70 70" fill="none" xmlns="http://www.w3.org/2000/svg">
<path d="M28.0001 4.04166C32.3317 1.5408 37.6685 1.5408 42.0001 4.04166L58.311 13.4587C62.6426 15.9596 65.311 20.5814 65.311 25.5831V44.4173C65.311 49.419 62.6426 54.0408 58.311 56.5417L42.0001 65.9587C37.6685 68.4596 32.3317 68.4596 28.0001 65.9587L11.6892 56.5417C7.3576 54.0408 4.68921 49.419 4.68921 44.4173V25.5831C4.68921 20.5814 7.3576 15.9596 11.6892 13.4587L28.0001 4.04166Z" fill="black"/>
<path opacity="0.3" d="M49.7364 36.7263C48.7606 36.7263 48.1101 36.0758 48.1101 35.1C48.1101 34.1242 48.7606 33.4737 49.7364 33.4737H51.2C50.3869 25.8303 44.3697 19.6505 36.7263 19V20.4636C36.7263 21.4394 36.0758 22.0899 35.1 22.0899C34.1242 22.0899 33.4737 21.4394 33.4737 20.4636V19C25.8303 19.8131 19.6505 25.8303 19 33.4737H20.4636C21.4394 33.4737 22.0899 34.1242 22.0899 35.1C22.0899 36.0758 21.4394 36.7263 20.4636 36.7263H19C19.8131 44.3697 25.8303 50.5495 33.4737 51.2V49.7364C33.4737 48.7606 34.1242 48.1101 35.1 48.1101C36.0758 48.1101 36.7263 48.7606 36.7263 49.7364V51.2C44.3697 50.3869 50.5495 44.3697 51.2 36.7263H49.7364Z" fill="white"/>
<path d="M43.2311 33.4734H37.8644C37.5391 32.9855 37.2139 32.6602 36.726 32.335V25.3421C36.726 24.3663 36.0755 23.7158 35.0998 23.7158C34.124 23.7158 33.4735 24.3663 33.4735 25.3421V32.335C32.9856 32.6602 32.6604 32.9855 32.3351 33.4734H31.8472C30.8715 33.4734 30.2209 34.1239 30.2209 35.0996C30.2209 36.0754 30.8715 36.7259 31.8472 36.7259H32.3351C32.6604 37.2138 32.9856 37.539 33.4735 37.8643V38.3522C33.4735 39.3279 34.124 39.9784 35.0998 39.9784C36.0755 39.9784 36.726 39.3279 36.726 38.3522V37.8643C37.2139 37.539 37.5391 37.2138 37.8644 36.7259H43.2311C44.2068 36.7259 44.8573 36.0754 44.8573 35.0996C44.8573 34.1239 44.2068 33.4734 43.2311 33.4734Z" fill="white"/>
</svg>
