<svg width="70" height="70" viewBox="0 0 70 70" fill="none" xmlns="http://www.w3.org/2000/svg">
<path d="M28.0001 4.04166C32.3317 1.5408 37.6685 1.5408 42.0001 4.04166L58.311 13.4587C62.6426 15.9596 65.311 20.5814 65.311 25.5831V44.4173C65.311 49.419 62.6426 54.0408 58.311 56.5417L42.0001 65.9587C37.6685 68.4596 32.3317 68.4596 28.0001 65.9587L11.6892 56.5417C7.3576 54.0408 4.68921 49.419 4.68921 44.4173V25.5831C4.68921 20.5814 7.3576 15.9596 11.6892 13.4587L28.0001 4.04166Z" fill="black"/>
<path opacity="0.3" d="M50 35C50 26.7157 43.2843 20 35 20C26.7157 20 20 26.7157 20 35C20 43.2843 26.7157 50 35 50C43.2843 50 50 43.2843 50 35Z" fill="white"/>
<path d="M33.5 29V36.5C33.5 37.3284 34.1716 38 35 38C35.8284 38 36.5 37.3284 36.5 36.5V29C36.5 28.1716 35.8284 27.5 35 27.5C34.1716 27.5 33.5 28.1716 33.5 29Z" fill="white"/>
<path d="M35 39.5C34.1716 39.5 33.5 40.1716 33.5 41C33.5 41.8284 34.1716 42.5 35 42.5C35.8284 42.5 36.5 41.8284 36.5 41C36.5 40.1716 35.8284 39.5 35 39.5Z" fill="white"/>
</svg>
