<svg width="70" height="70" viewBox="0 0 70 70" fill="none" xmlns="http://www.w3.org/2000/svg">
<path d="M28.0001 4.04166C32.3317 1.5408 37.6685 1.5408 42.0001 4.04166L58.311 13.4587C62.6426 15.9596 65.311 20.5814 65.311 25.5831V44.4173C65.311 49.419 62.6426 54.0408 58.311 56.5417L42.0001 65.9587C37.6685 68.4596 32.3317 68.4596 28.0001 65.9587L11.6892 56.5417C7.3576 54.0408 4.68921 49.419 4.68921 44.4173V25.5831C4.68921 20.5814 7.3576 15.9596 11.6892 13.4587L28.0001 4.04166Z" fill="black"/>
<path opacity="0.3" d="M42.8571 28.9997V21.1426H27.1428V28.9997C27.1428 29.4712 27.3 29.7854 27.6143 30.0997L32.8 35.2854L27.6143 40.4711C27.3 40.7854 27.1428 41.0997 27.1428 41.5711V49.4283H42.8571V41.5711C42.8571 41.0997 42.7 40.7854 42.3857 40.4711L37.2 35.2854L42.3857 30.0997C42.7 29.7854 42.8571 29.4712 42.8571 28.9997Z" fill="white"/>
<path d="M44.4286 22.7141H25.5714C24.6286 22.7141 24 22.0856 24 21.1427C24 20.1999 24.6286 19.5713 25.5714 19.5713H44.4286C45.3714 19.5713 46 20.1999 46 21.1427C46 22.0856 45.3714 22.7141 44.4286 22.7141ZM44.4286 47.857H39.7143V44.7141L36.1 41.0998C35.4714 40.4713 34.5286 40.4713 33.9 41.0998L30.2857 44.7141V47.857H25.5714C24.6286 47.857 24 48.4856 24 49.4284C24 50.3713 24.6286 50.9998 25.5714 50.9998H44.4286C45.3714 50.9998 46 50.3713 46 49.4284C46 48.4856 45.3714 47.857 44.4286 47.857ZM30.9143 28.9999L33.9 31.9856C34.5286 32.6141 35.4714 32.6141 36.1 31.9856L39.0857 28.9999H30.9143Z" fill="white"/>
</svg>
