<svg width="70" height="70" viewBox="0 0 70 70" fill="none" xmlns="http://www.w3.org/2000/svg">
<path d="M28.0001 4.04166C32.3317 1.5408 37.6685 1.5408 42.0001 4.04166L58.311 13.4587C62.6426 15.9596 65.311 20.5814 65.311 25.5831V44.4173C65.311 49.419 62.6426 54.0408 58.311 56.5417L42.0001 65.9587C37.6685 68.4596 32.3317 68.4596 28.0001 65.9587L11.6892 56.5417C7.3576 54.0408 4.68921 49.419 4.68921 44.4173V25.5831C4.68921 20.5814 7.3576 15.9596 11.6892 13.4587L28.0001 4.04166Z" fill="black"/>
<path opacity="0.3" d="M52 35C52 25.6112 44.3888 18 35 18C25.6112 18 18 25.6112 18 35C18 44.3888 25.6112 52 35 52C44.3888 52 52 44.3888 52 35Z" fill="white"/>
<path d="M33.3 28.1999V36.6999C33.3 37.6388 34.0612 38.3999 35 38.3999C35.9389 38.3999 36.7 37.6388 36.7 36.6999V28.1999C36.7 27.261 35.9389 26.4999 35 26.4999C34.0612 26.4999 33.3 27.261 33.3 28.1999Z" fill="white"/>
<path d="M35 40.1C34.0612 40.1 33.3 40.8611 33.3 41.8C33.3 42.7389 34.0612 43.5 35 43.5C35.9389 43.5 36.7 42.7389 36.7 41.8C36.7 40.8611 35.9389 40.1 35 40.1Z" fill="white"/>
</svg>
