<svg width="70" height="70" viewBox="0 0 70 70" fill="none" xmlns="http://www.w3.org/2000/svg">
<path d="M28.0001 4.04166C32.3317 1.5408 37.6685 1.5408 42.0001 4.04166L58.311 13.4587C62.6426 15.9596 65.311 20.5814 65.311 25.5831V44.4173C65.311 49.419 62.6426 54.0408 58.311 56.5417L42.0001 65.9587C37.6685 68.4596 32.3317 68.4596 28.0001 65.9587L11.6892 56.5417C7.3576 54.0408 4.68921 49.419 4.68921 44.4173V25.5831C4.68921 20.5814 7.3576 15.9596 11.6892 13.4587L28.0001 4.04166Z" fill="black"/>
<path d="M24.3396 47C30.4481 47 34.0971 44.0422 34.0971 39.3804C34.0971 35.7314 31.8466 33.722 26.8955 32.7736L24.5164 32.3235C21.9926 31.8413 20.9478 31.1661 20.9478 29.9444C20.9478 28.578 22.2016 27.6135 24.3396 27.6135C26.0435 27.6135 27.3295 28.1762 28.0851 29.6229C28.7763 30.7482 29.58 31.2143 30.866 31.2143C32.3449 31.1983 33.3416 30.282 33.3416 28.9156C33.3416 28.4334 33.2612 28.0476 33.1005 27.6457C31.9752 24.704 28.7281 23 24.2914 23C18.9545 23 15.0804 25.8774 15.0804 30.3463C15.0804 33.8828 17.4916 36.1494 22.1052 37.0174L24.5003 37.4675C27.2492 37.998 28.2297 38.6571 28.2297 39.9431C28.2297 41.3577 26.7348 42.3865 24.436 42.3865C22.5713 42.3865 21.0121 41.7756 20.2244 40.3289C19.4689 39.1715 18.6973 38.7696 17.5559 38.7696C16.061 38.7696 15 39.7662 15 41.2451C15 41.7274 15.0965 42.2257 15.3054 42.708C16.2699 45.1031 19.3081 47 24.3396 47Z" fill="white"/>
<path d="M39.7877 46.5981H47.9056C52.8727 46.5981 56.0074 43.9779 56.0074 39.9109C56.0074 36.8245 53.5318 34.4936 50.3972 34.349V34.2204C52.9692 33.8667 54.9303 31.793 54.9303 29.1889C54.9303 25.6042 52.1815 23.4019 47.6162 23.4019H39.7877C37.923 23.4019 36.8299 24.5271 36.8299 26.4883V43.5117C36.8299 45.4729 37.923 46.5981 39.7877 46.5981ZM42.7294 32.854V27.5814H46.0569C48.0342 27.5814 49.1916 28.5459 49.1916 30.1695C49.1916 31.8413 47.9056 32.854 45.7676 32.854H42.7294ZM42.7294 42.4186V36.4387H46.2016C48.6289 36.4387 50.0114 37.4997 50.0114 39.3965C50.0114 41.3577 48.6611 42.4186 46.2338 42.4186H42.7294Z" fill="white"/>
</svg>
