<svg width="24" height="24" viewBox="0 0 24 24" fill="none" xmlns="http://www.w3.org/2000/svg">
<path d="M13.5494 2.08304C12.2718 1.71804 11 2.67736 11 4.0061V17.5002C11 18.0525 11.4477 18.5002 12 18.5002C12.5523 18.5002 13 18.0525 13 17.5002V8.32601L17.4506 9.5976C18.7282 9.96264 20 9.00331 20 7.67455V5.43455C20 4.54157 19.408 3.75678 18.5494 3.51148L13.5494 2.08304Z" fill="white"/>
<path d="M8.5 22C10.9853 22 13 19.9853 13 17.5C13 15.0147 10.9853 13 8.5 13C6.01472 13 4 15.0147 4 17.5C4 19.9853 6.01472 22 8.5 22Z" fill="white"/>
</svg>
