<svg width="24" height="24" viewBox="0 0 24 24" fill="none" xmlns="http://www.w3.org/2000/svg">
<path d="M22 6C22 5.44772 21.5523 5 21 5C20.4477 5 20 5.44772 20 6V18C20 18.5523 20.4477 19 21 19C21.5523 19 22 18.5523 22 18V6Z" fill="#12131A"/>
<path d="M18 10C18 9.44772 17.5523 9 17 9C16.4477 9 16 9.44772 16 10V14C16 14.5523 16.4477 15 17 15C17.5523 15 18 14.5523 18 14V10Z" fill="#12131A"/>
<path d="M13 6.00436C13 4.29235 10.989 3.3717 9.69308 4.49044L5.62807 7.99965H4C2.89543 7.99965 2 8.89508 2 9.99965V13.9996C2 15.1042 2.89543 15.9996 4 15.9996H5.62805L9.69301 19.5091C10.9889 20.6279 13 19.7073 13 17.9952V6.00436Z" fill="#12131A"/>
</svg>
