<svg width="24" height="24" viewBox="0 0 24 24" fill="none" xmlns="http://www.w3.org/2000/svg">
<path d="M20 10C20 9.44772 19.5523 9 19 9C18.4477 9 18 9.44772 18 10L18 11H17C16.4477 11 16 11.4477 16 12C16 12.5523 16.4477 13 17 13H18V14C18 14.5523 18.4477 15 19 15C19.5523 15 20 14.5523 20 14V13H21C21.5523 13 22 12.5523 22 12C22 11.4477 21.5523 11 21 11H20V10Z" fill="#12131A"/>
<path d="M13 6.00436C13 4.29235 10.989 3.3717 9.69308 4.49044L5.62807 7.99965H4C2.89543 7.99965 2 8.89508 2 9.99965V13.9996C2 15.1042 2.89543 15.9996 4 15.9996H5.62805L9.69301 19.5091C10.9889 20.6279 13 19.7073 13 17.9952V6.00436Z" fill="#12131A"/>
</svg>
