<svg width="24" height="24" viewBox="0 0 24 24" fill="none" xmlns="http://www.w3.org/2000/svg">
<path fill-rule="evenodd" clip-rule="evenodd" d="M16 12C16 11.4477 16.4477 11 17 11H21C21.5523 11 22 11.4477 22 12C22 12.5523 21.5523 13 21 13H17C16.4477 13 16 12.5523 16 12Z" fill="#12131A"/>
<path d="M13 6.00436C13 4.29235 10.989 3.3717 9.69308 4.49044L5.62807 7.99965H4C2.89543 7.99965 2 8.89508 2 9.99965V13.9996C2 15.1042 2.89543 15.9996 4 15.9996H5.62805L9.69301 19.5091C10.9889 20.6279 13 19.7073 13 17.9952V6.00436Z" fill="#12131A"/>
</svg>
